# This file uses centimeters as units for non-parametric coordinates.

mtllib Street_Lamp_LOD.mtl
g default
v 0.000000 10.667664 1.818405
v -0.340586 10.667664 1.929070
v -0.551079 10.667664 2.218788
v -0.551079 10.667664 2.576904
v -0.340586 10.667664 2.866625
v -0.002658 10.663071 2.958260
v 0.332858 10.661644 2.850477
v 0.531776 10.663460 2.573454
v 0.532233 10.663033 2.222317
v 0.340586 10.667664 1.929070
v 0.015263 10.428795 1.507346
v -0.516892 10.428520 1.672579
v -0.847050 10.429047 2.122614
v -0.849862 10.428795 2.664145
v -0.525813 10.428825 3.116690
v -0.000321 10.428879 3.288492
v 0.516033 10.429649 3.123331
v 0.847127 10.428917 2.672853
v 0.845025 10.430717 2.118927
v 0.529152 10.429100 1.681497
v 0.003819 12.202034 0.337120
v -0.096572 12.205399 0.424679
v 0.005850 12.201958 0.530158
v 0.097069 12.205780 0.425419
v 0.001124 8.247231 0.290482
v -0.080380 8.248894 0.407378
v 0.001214 8.247581 0.470856
v 0.091170 8.246056 0.410226
v 0.094613 12.482277 2.254543
v 0.000042 12.468430 2.182222
v -0.094653 12.482704 2.254528
v 0.000031 12.501099 2.372759
v 0.093708 13.135056 1.576656
v -0.002292 13.070786 1.554363
v -0.094162 13.136459 1.577596
v -0.002061 13.246857 1.616338
v 0.094960 12.927910 0.814761
v 0.000059 12.879471 0.869672
v -0.094974 12.927666 0.814418
v 0.000697 13.002029 0.727279
v 0.000061 11.709991 2.279943
v 0.100318 11.712776 2.353134
v -0.001572 11.716377 2.484308
v -0.098152 11.713272 2.354187
v -0.297338 10.644501 1.997559
v 0.036910 10.642441 1.897175
v -0.447385 10.655983 2.222170
v -0.447308 10.667091 2.516268
v -0.265744 10.679726 2.750902
v 0.010924 10.680374 2.838516
v 0.269830 10.678444 2.750500
v 0.444023 10.670639 2.506018
v 0.439788 10.660484 2.222378
v 0.287158 10.644012 1.989399
v 0.001561 9.758278 2.365059
v -0.003654 13.808929 -0.183930
v -0.178225 13.807236 -0.048418
v -0.107411 13.805832 0.151144
v 0.102674 13.806625 0.154291
v 0.177497 13.808533 -0.050068
v -0.004080 -0.012382 -0.191679
v 0.183346 -0.012122 -0.054391
v 0.107431 -0.013869 0.159769
v -0.113766 -0.015342 0.156926
v -0.185932 -0.014365 -0.052863
vt 0.412666 0.260268
vt 0.462636 0.253268
vt 0.400997 0.306950
vt 0.415878 0.383272
vt 0.375059 0.350384
vt 0.336009 0.384473
vt 0.367158 0.426693
vt 0.288154 0.405966
vt 0.304768 0.455869
vt 0.237095 0.413060
vt 0.169782 0.455924
vt 0.185799 0.404535
vt 0.107984 0.426601
vt 0.140404 0.382902
vt 0.059192 0.381018
vt 0.102272 0.348818
vt 0.076756 0.306142
vt 0.027892 0.323338
vt 0.066011 0.259097
vt 0.156616 0.717486
vt 0.228317 0.684796
vt 0.265347 0.614344
vt 0.255530 0.537566
vt 0.201782 0.480092
vt 0.125317 0.465051
vt 0.055942 0.497582
vt 0.016765 0.566697
vt 0.026530 0.645491
vt 0.079715 0.703116
vt 0.770782 0.984977
vt 0.747357 0.984131
vt 0.732498 0.984375
vt 0.809766 0.984375
vt 0.792910 0.984162
vt 0.791147 0.117344
vt 0.791835 0.246097
vt 0.789267 0.355145
vt 0.790010 0.465017
vt 0.809766 0.117838
vt 0.809766 0.247285
vt 0.809766 0.356977
vt 0.809766 0.466302
vt 0.749276 0.117049
vt 0.732498 0.117838
vt 0.751934 0.246714
vt 0.732498 0.247285
vt 0.748654 0.355896
vt 0.732498 0.356977
vt 0.750489 0.465087
vt 0.732498 0.466302
vt 0.771882 0.117491
vt 0.770267 0.248564
vt 0.771385 0.359195
vt 0.771719 0.467957
vt 0.792791 0.015527
vt 0.809766 0.015625
vt 0.770925 0.015262
vt 0.748220 0.015753
vt 0.732498 0.015625
vt 0.211893 0.237766
vt 0.217139 0.254012
vt 0.239079 0.264185
vt 0.260918 0.254147
vt 0.266193 0.238212
vt 0.185427 0.637972
vt 0.144671 0.656128
vt 0.200789 0.606878
vt 0.195887 0.569582
vt 0.169071 0.542677
vt 0.132490 0.536435
vt 0.101408 0.551906
vt 0.083307 0.585484
vt 0.088377 0.621180
vt 0.111424 0.648187
vt 0.172291 0.735953
vt 0.088572 0.728784
vt 0.037158 0.768198
vt 0.015625 0.832318
vt 0.034723 0.895789
vt 0.085820 0.933426
vt 0.145715 0.940506
vt 0.205238 0.906980
vt 0.232814 0.846500
vt 0.219069 0.781032
vt 0.124599 0.832119
vt 0.016587 0.254994
vt 0.450709 0.323492
vt 0.237001 0.466524
vt 0.313127 0.822345
vt 0.313127 0.472516
vt 0.344747 0.472516
vt 0.344747 0.822345
vt 0.375380 0.472516
vt 0.375380 0.822345
vt 0.404980 0.472516
vt 0.404980 0.822345
vt 0.434755 0.472516
vt 0.434755 0.822345
vt 0.465772 0.472516
vt 0.465772 0.822345
vn -0.263835 0.463386 -0.845970
vn -0.515894 0.479000 -0.710220
vn -0.276986 0.874328 -0.398534
vn -0.148485 0.853247 -0.499922
vn -0.515894 0.479000 -0.710220
vn -0.834757 0.479063 -0.271440
vn -0.276986 0.874328 -0.398534
vn -0.834757 0.479063 -0.271440
vn -0.834649 0.478871 0.272109
vn -0.411696 0.897239 -0.159586
vn -0.834649 0.478871 0.272109
vn -0.500401 0.480147 0.720457
vn -0.208616 0.941304 0.265380
vn -0.368414 0.924828 0.094680
vn -0.500401 0.480147 0.720457
vn 0.013536 0.470257 0.882426
vn -0.208616 0.941304 0.265380
vn 0.013536 0.470257 0.882426
vn 0.516685 0.473792 0.713132
vn 0.000762 0.939355 0.342945
vn 0.516685 0.473792 0.713132
vn 0.840188 0.471804 0.267366
vn 0.369075 0.922425 0.113645
vn 0.210416 0.934622 0.286716
vn 0.840188 0.471804 0.267366
vn 0.843619 0.471013 -0.257787
vn 0.369075 0.922425 0.113645
vn 0.843619 0.471013 -0.257787
vn 0.526743 0.478337 -0.702663
vn 0.396137 0.904594 -0.157435
vn 0.526743 0.478337 -0.702663
vn 0.268661 0.458254 -0.847245
vn 0.150163 0.852083 -0.501404
vn 0.265282 0.872855 -0.409573
vn -0.263835 0.463386 -0.845970
vn -0.179643 0.800577 -0.571669
vn -0.515894 0.479000 -0.710220
vn -0.515894 0.479000 -0.710220
vn -0.480393 0.803180 -0.352313
vn -0.834757 0.479063 -0.271440
vn -0.834757 0.479063 -0.271440
vn -0.596115 0.802897 -0.001885
vn -0.834649 0.478871 0.272109
vn -0.834649 0.478871 0.272109
vn -0.485205 0.802202 0.347919
vn -0.500401 0.480147 0.720457
vn -0.500401 0.480147 0.720457
vn -0.167452 0.813064 0.557573
vn 0.013536 0.470257 0.882426
vn 0.013536 0.470257 0.882426
vn 0.171837 0.825394 0.537770
vn 0.516685 0.473792 0.713132
vn 0.516685 0.473792 0.713132
vn 0.458658 0.822981 0.335163
vn 0.840188 0.471804 0.267366
vn 0.840188 0.471804 0.267366
vn 0.567118 0.823637 0.000148
vn 0.843619 0.471013 -0.257787
vn 0.843619 0.471013 -0.257787
vn 0.478937 0.812229 -0.333023
vn 0.526743 0.478337 -0.702663
vn 0.526743 0.478337 -0.702663
vn 0.190051 0.801361 -0.567188
vn 0.268661 0.458254 -0.847245
vn -0.433452 -0.678519 -0.593069
vn 0.106713 -0.934098 0.340696
vn 0.304780 -0.835615 0.457009
vn -0.689560 -0.686013 0.232148
vn 0.364599 -0.931147 0.005731
vn 0.522481 -0.838413 -0.155170
vn 0.002825 -0.681935 0.731407
vn 0.112346 -0.930462 -0.348739
vn -0.004314 -0.837607 -0.546256
vn -0.002170 -0.700095 -0.714046
vn -0.116463 -0.935074 0.334772
vn -0.004633 -0.835339 0.549716
vn -0.585951 0.001340 -0.810346
vn -0.945010 -0.001957 -0.327035
vn -0.879612 0.039356 -0.474062
vn -0.497603 0.068409 -0.864703
vn -0.608168 -0.007070 0.793777
vn -0.340406 -0.007103 0.940252
vn -0.377361 -0.073930 0.923111
vn -0.679868 -0.057954 0.731041
vn 0.326192 -0.006415 0.945282
vn 0.598766 -0.005722 0.800904
vn 0.711355 -0.053841 0.700768
vn 0.443247 -0.070831 0.893597
vn 0.944987 0.000363 -0.327109
vn 0.577735 0.002767 -0.816220
vn 0.536706 0.067638 -0.841054
vn 0.893255 0.039087 -0.447847
vn 0.343153 -0.354132 -0.869964
vn 0.637055 -0.289957 -0.714203
vn 0.641647 -0.024040 -0.766623
vn 0.365117 -0.032795 -0.930384
vn 0.596307 -0.776002 -0.205522
vn 0.637055 -0.289957 -0.714203
vn 0.343153 -0.354132 -0.869964
vn 0.288540 -0.926260 -0.242461
vn 0.623581 -0.570971 0.533984
vn 0.596307 -0.776002 -0.205522
vn 0.288540 -0.926260 -0.242461
vn 0.322945 -0.693449 0.644076
vn 0.711355 -0.053841 0.700768
vn 0.623581 -0.570971 0.533984
vn 0.322945 -0.693449 0.644076
vn 0.443247 -0.070831 0.893597
vn -0.637943 -0.289686 -0.713520
vn -0.344435 -0.353471 -0.869726
vn -0.368164 -0.033516 -0.929157
vn -0.646464 -0.025818 -0.762507
vn -0.328921 -0.913560 -0.239204
vn -0.344435 -0.353471 -0.869726
vn -0.637943 -0.289686 -0.713520
vn -0.621740 -0.757039 -0.200827
vn -0.320603 -0.693118 0.645601
vn -0.328921 -0.913560 -0.239204
vn -0.621740 -0.757039 -0.200827
vn -0.622677 -0.571218 0.534774
vn -0.377361 -0.073930 0.923111
vn -0.320603 -0.693118 0.645601
vn -0.622677 -0.571218 0.534774
vn -0.679868 -0.057954 0.731041
vn -0.522046 0.309098 0.794938
vn -0.905150 0.156395 0.395277
vn -0.912217 0.030318 0.408584
vn -0.546591 0.052077 0.835779
vn -0.920440 0.377219 0.102446
vn -0.905150 0.156395 0.395277
vn -0.522046 0.309098 0.794938
vn -0.543368 0.808486 0.226056
vn -0.909552 0.301544 -0.285985
vn -0.920440 0.377219 0.102446
vn -0.543368 0.808486 0.226056
vn -0.520248 0.615294 -0.592247
vn -0.879612 0.039356 -0.474062
vn -0.909552 0.301544 -0.285985
vn -0.520248 0.615294 -0.592247
vn -0.497603 0.068409 -0.864703
vn 0.905832 0.155938 0.393893
vn 0.522525 0.309106 0.794620
vn 0.534213 0.046051 0.844095
vn 0.905381 0.028452 0.423645
vn 0.520418 0.822416 0.229777
vn 0.522525 0.309106 0.794620
vn 0.905832 0.155938 0.393893
vn 0.916156 0.386954 0.104523
vn 0.528646 0.612636 -0.587546
vn 0.520418 0.822416 0.229777
vn 0.916156 0.386954 0.104523
vn 0.911914 0.299255 -0.280820
vn 0.536706 0.067638 -0.841054
vn 0.528646 0.612636 -0.587546
vn 0.911914 0.299255 -0.280820
vn 0.893255 0.039087 -0.447847
vn 0.304780 -0.835615 0.457009
vn 0.106713 -0.934098 0.340696
vn -0.004633 -0.835339 0.549716
vn 0.521519 -0.834041 0.179984
vn 0.278061 -0.937852 0.207643
vn 0.304780 -0.835615 0.457009
vn 0.522481 -0.838413 -0.155170
vn 0.364599 -0.931147 0.005731
vn 0.521519 -0.834041 0.179984
vn 0.324128 -0.838124 -0.438737
vn 0.296924 -0.930050 -0.216434
vn 0.522481 -0.838413 -0.155170
vn -0.004314 -0.837607 -0.546256
vn 0.112346 -0.930462 -0.348739
vn 0.324128 -0.838124 -0.438737
vn -0.337352 -0.837904 -0.429081
vn -0.112803 -0.931470 -0.345889
vn -0.004314 -0.837607 -0.546256
vn -0.527921 -0.836434 -0.147236
vn -0.294850 -0.932345 -0.209274
vn -0.337352 -0.837904 -0.429081
vn -0.521275 -0.832554 0.187418
vn -0.356653 -0.934227 0.004238
vn -0.527921 -0.836434 -0.147236
vn -0.331752 -0.830492 0.447465
vn -0.289321 -0.934657 0.206664
vn -0.521275 -0.832554 0.187418
vn -0.004633 -0.835339 0.549716
vn -0.116463 -0.935074 0.334772
vn -0.331752 -0.830492 0.447465
vn -0.580655 -0.200757 -0.789010
vn 0.013658 -0.202360 -0.979216
vn 0.006737 -0.999972 -0.003410
vn -0.940575 -0.207142 -0.269091
vn -0.580655 -0.200757 -0.789010
vn 0.006737 -0.999972 -0.003410
vn -0.923536 -0.193771 0.330958
vn -0.940575 -0.207142 -0.269091
vn 0.006737 -0.999972 -0.003410
vn -0.558030 -0.188420 0.808147
vn -0.923536 -0.193771 0.330958
vn 0.006737 -0.999972 -0.003410
vn 0.005000 -0.194686 0.980853
vn -0.558030 -0.188420 0.808147
vn 0.006737 -0.999972 -0.003410
vn 0.578597 -0.189765 0.793230
vn 0.005000 -0.194686 0.980853
vn 0.006737 -0.999972 -0.003410
vn 0.932307 -0.180034 0.313674
vn 0.578597 -0.189765 0.793230
vn 0.006737 -0.999972 -0.003410
vn 0.942410 -0.189672 -0.275478
vn 0.932307 -0.180034 0.313674
vn 0.006737 -0.999972 -0.003410
vn 0.610481 -0.212649 -0.762950
vn 0.942410 -0.189672 -0.275478
vn 0.006737 -0.999972 -0.003410
vn 0.013658 -0.202360 -0.979216
vn 0.610481 -0.212649 -0.762950
vn 0.006737 -0.999972 -0.003410
vn 0.516685 0.473792 0.713132
vn 0.336858 0.816809 0.468348
vn 0.458658 0.822981 0.335163
vn 0.598803 -0.670087 0.438656
vn 0.423310 -0.671168 0.608558
vn -0.337352 -0.837904 -0.429081
vn 0.840188 0.471804 0.267366
vn 0.551141 0.815632 0.176035
vn 0.567118 0.823637 0.000148
vn 0.526743 0.478337 -0.702663
vn 0.478937 0.812229 -0.333023
vn 0.360770 0.793602 -0.489940
vn 0.268661 0.458254 -0.847245
vn 0.190051 0.801361 -0.567188
vn 0.109778 0.790926 -0.601984
vn -0.515894 0.479000 -0.710220
vn -0.179643 0.800577 -0.571669
vn -0.348171 0.792955 -0.499999
vn -0.515894 0.479000 -0.710220
vn -0.348171 0.792955 -0.499999
vn -0.480393 0.803180 -0.352313
vn -0.834649 0.478871 0.272109
vn -0.596115 0.802897 -0.001885
vn -0.580870 0.793253 0.182592
vn -0.500401 0.480147 0.720457
vn -0.485205 0.802202 0.347919
vn -0.360129 0.793288 0.490919
vn 0.013536 0.470257 0.882426
vn -0.167452 0.813064 0.557573
vn -0.000913 0.815699 0.578476
vn 0.013536 0.470257 0.882426
vn -0.000913 0.815699 0.578476
vn 0.171837 0.825394 0.537770
vn 0.002825 -0.681935 0.731407
vn -0.004314 -0.837607 -0.546256
vn 0.226958 -0.675582 0.701483
vn 0.296924 -0.930050 -0.216434
vn 0.324128 -0.838124 -0.438737
vn -0.429682 -0.689421 0.583157
vn -0.433452 -0.678519 -0.593069
vn 0.304780 -0.835615 0.457009
vn -0.602815 -0.669112 -0.434630
vn -0.289321 -0.934657 0.206664
vn -0.331752 -0.830492 0.447465
vn 0.420835 -0.694832 -0.583187
vn 0.693249 -0.682450 0.231662
vn -0.527921 -0.836434 -0.147236
vn 0.729153 -0.684315 -0.007008
vn 0.958037 0.002603 -0.286632
vn 0.303830 0.002743 -0.952722
vn 0.303830 0.002743 -0.952722
vn 0.957545 0.002604 -0.288272
vn 0.563178 0.002648 0.826331
vn 0.958037 0.002603 -0.286632
vn 0.957545 0.002604 -0.288272
vn 0.565766 0.002647 0.824562
vn -0.584215 0.003070 0.811593
vn 0.563178 0.002648 0.826331
vn 0.565766 0.002647 0.824562
vn -0.584074 0.003069 0.811695
vn -0.960558 0.003244 -0.278061
vn -0.584215 0.003070 0.811593
vn -0.584074 0.003069 0.811695
vn -0.959716 0.003244 -0.280954
vn -0.333295 0.002943 -0.942818
vn -0.960558 0.003244 -0.278061
vn -0.959716 0.003244 -0.280954
vn -0.333295 0.002943 -0.942818
s off
g Street_Lamp:Street_Lamp
usemtl Street_Lamp:defaultMat
f 1/1/1 2/3/2 44/63/3 41/64/4
f 2/3/5 3/5/6 44/63/7
f 3/5/8 4/6/9 44/63/10
f 4/6/11 5/8/12 43/62/13 44/63/14
f 5/8/15 6/10/16 43/62/17
f 6/10/18 7/12/19 43/62/20
f 7/12/21 8/14/22 42/61/23 43/62/24
f 8/14/25 9/16/26 42/61/27
f 9/16/28 10/17/29 42/61/30
f 10/17/31 1/19/32 41/60/33 42/61/34
f 1/1/35 11/2/36 2/3/37
f 2/3/38 13/4/39 3/5/40
f 3/5/41 13/4/42 4/6/43
f 4/6/44 14/7/45 5/8/46
f 5/8/47 15/9/48 6/10/49
f 6/10/50 17/11/51 7/12/52
f 7/12/53 18/13/54 8/14/55
f 8/14/56 19/15/57 9/16/58
f 9/16/59 19/15/60 10/17/61
f 10/17/62 20/18/63 1/19/64
f 12/21/65 11/20/66 45/65/67
f 14/23/68 13/22/69 48/68/70
f 16/25/71 15/24/72 50/70/73
f 11/20/74 20/29/75 46/66/76
f 25/30/77 26/31/78 22/49/79 21/54/80
f 26/31/81 27/32/82 23/50/83 22/49/84
f 27/33/85 28/34/86 24/38/87 23/42/88
f 28/34/89 25/30/90 21/54/91 24/38/92
f 30/39/93 29/35/94 42/55/95 41/56/96
f 33/36/97 29/35/98 30/39/99 34/40/100
f 37/37/101 33/36/102 34/40/103 38/41/104
f 24/38/105 37/37/106 38/41/107 23/42/108
f 31/43/109 30/44/110 41/59/111 44/58/112
f 34/46/113 30/44/114 31/43/115 35/45/116
f 38/48/117 34/46/118 35/45/119 39/47/120
f 23/50/121 38/48/122 39/47/123 22/49/124
f 32/51/125 31/43/126 44/58/127 43/57/128
f 35/45/129 31/43/130 32/51/131 36/52/132
f 39/47/133 35/45/134 36/52/135 40/53/136
f 22/49/137 39/47/138 40/53/139 21/54/140
f 29/35/141 32/51/142 43/57/143 42/55/144
f 36/52/145 32/51/146 29/35/147 33/36/148
f 40/53/149 36/52/150 33/36/151 37/37/152
f 21/54/153 40/53/154 37/37/155 24/38/156
f 45/65/157 11/20/158 46/66/159
f 47/67/160 13/22/161 45/65/162
f 48/68/163 13/22/164 47/67/165
f 49/69/166 14/23/167 48/68/168
f 50/70/169 15/24/170 49/69/171
f 51/71/172 17/26/173 50/70/174
f 52/72/175 18/27/176 51/71/177
f 53/73/178 19/28/179 52/72/180
f 54/74/181 19/28/182 53/73/183
f 46/66/184 20/29/185 54/74/186
f 45/76/187 46/75/188 55/85/189
f 47/77/190 45/76/191 55/85/192
f 48/78/193 47/77/194 55/85/195
f 49/79/196 48/78/197 55/85/198
f 50/80/199 49/79/200 55/85/201
f 51/81/202 50/80/203 55/85/204
f 52/82/205 51/81/206 55/85/207
f 53/83/208 52/82/209 55/85/210
f 54/84/211 53/83/212 55/85/213
f 46/75/214 54/84/215 55/85/216
f 7/12/217 17/11/218 18/13/219
f 18/27/220 17/26/221 51/71/222
f 8/14/223 18/13/224 19/15/225
f 10/17/226 19/15/227 20/18/228
f 1/19/229 20/18/230 11/86/231
f 2/3/232 11/2/233 12/87/234
f 2/3/235 12/87/236 13/4/237
f 4/6/238 13/4/239 14/7/240
f 5/8/241 14/7/242 15/9/243
f 6/10/244 15/9/245 16/88/246
f 6/10/247 16/88/248 17/11/249
f 16/25/250 50/70/251 17/26/252
f 14/23/253 49/69/254 15/24/255
f 12/21/256 45/65/257 13/22/258
f 19/28/259 54/74/260 20/29/261
f 18/27/262 52/72/263 19/28/264
f 62/92/265 61/89/266 56/90/267 60/91/268
f 63/94/269 62/92/270 60/91/271 59/93/272
f 64/96/273 63/94/274 59/93/275 58/95/276
f 65/98/277 64/96/278 58/95/279 57/97/280
f 61/100/281 65/98/282 57/97/283 56/99/284
