# This file uses centimeters as units for non-parametric coordinates.

mtllib PitCity.mtl
g default
v -840.512573 -1687.626343 840.512573
v 840.512573 -1687.626343 840.512573
v 840.512573 115.354210 840.512573
v -840.512573 115.354210 840.512573
v -840.512573 115.354210 -840.512573
v 840.512573 115.354210 -840.512573
v 840.512573 -1687.626343 -840.512573
v -840.512573 -1687.626343 -840.512573
v -690.718994 -1687.626343 690.718994
v 683.228394 -1687.626343 690.718994
v 683.228394 115.354164 690.718994
v -690.718994 115.354164 690.718994
v -690.718994 115.354164 -677.610474
v 683.228394 115.354164 -677.610474
v 683.228394 -1687.626343 -677.610474
v -690.718994 -1687.626343 -677.610474
v -811.991821 -1687.626221 48.221771
v -604.747803 -1687.626221 48.221771
v -811.991821 172.113342 48.221771
v -604.747803 172.113342 48.221771
v -811.991821 172.113342 -48.221771
v -604.747803 172.113342 -48.221771
v -811.991821 -1687.626221 -48.221771
v -604.747803 -1687.626221 -48.221771
v -811.991821 -1687.626343 377.956757
v -604.747803 -1687.626343 377.956757
v -811.991821 265.933929 377.956757
v -604.747803 265.933929 377.956757
v -811.991821 265.933929 281.513214
v -604.747803 265.933929 281.513214
v -811.991821 -1687.626343 281.513214
v -604.747803 -1687.626343 281.513214
v -811.991821 -1687.626221 -236.521957
v -604.747803 -1687.626221 -236.521957
v -811.991821 182.924255 -236.521957
v -604.747803 182.924255 -236.521957
v -811.991821 182.924255 -587.815674
v -604.747803 182.924255 -587.815674
v -811.991821 -1687.626221 -587.815674
v -604.747803 -1687.626221 -587.815674
v 582.304443 -1687.626221 91.274887
v 789.548462 -1687.626221 91.274887
v 582.304443 182.924255 91.274887
v 789.548462 182.924255 91.274887
v 582.304443 182.924255 -116.595535
v 789.548462 182.924255 -116.595535
v 582.304443 -1687.626221 -116.595535
v 789.548462 -1687.626221 -116.595535
v 582.304443 -1687.626221 769.305847
v 789.548462 -1687.626221 769.305847
v 582.304443 359.568085 769.305847
v 789.548462 359.568085 769.305847
v 582.304443 359.568085 671.436218
v 789.548462 359.568085 671.436218
v 582.304443 -1687.626221 671.436218
v 789.548462 -1687.626221 671.436218
v 582.304443 -1687.626221 463.432373
v 789.548462 -1687.626221 463.432373
v 582.304443 594.816528 463.432373
v 789.548462 594.816528 463.432373
v 582.304443 594.816528 365.562744
v 789.548462 594.816528 365.562744
v 582.304443 -1687.626221 365.562744
v 789.548462 -1687.626221 365.562744
v -71.280197 -1687.625977 596.904541
v -71.280197 -1687.625977 804.148560
v -71.280197 230.009460 596.904541
v -71.280197 230.009460 804.148560
v 26.589426 230.009460 596.904541
v 26.589426 230.009460 804.148560
v 26.589426 -1687.625977 596.904541
v 26.589426 -1687.625977 804.148560
v 202.697189 -1687.626221 596.904541
v 202.697189 -1687.626221 804.148560
v 202.697189 430.422089 596.904541
v 202.697189 430.422089 804.148560
v 300.566803 430.422089 596.904541
v 300.566803 430.422089 804.148560
v 300.566803 -1687.626221 596.904541
v 300.566803 -1687.626221 804.148560
v -430.410797 -1687.626099 596.904541
v -430.410797 -1687.626099 804.148560
v -430.410797 346.097137 596.904541
v -430.410797 346.097137 804.148560
v -332.541168 346.097137 596.904541
v -332.541168 346.097137 804.148560
v -332.541168 -1687.626099 596.904541
v -332.541168 -1687.626099 804.148560
v -404.345703 -1687.626099 -815.383301
v -404.345703 -1687.626099 -608.139282
v -404.345703 346.097137 -815.383301
v -404.345703 346.097137 -608.139282
v -159.151962 346.097137 -815.383301
v -159.151962 346.097137 -608.139282
v -159.151962 -1687.626099 -815.383301
v -159.151962 -1687.626099 -608.139282
v 87.106094 -1687.625977 -815.383301
v 87.106094 -1687.625977 -608.139282
v 87.106094 230.009460 -815.383301
v 87.106094 230.009460 -608.139282
v 184.975723 230.009460 -815.383301
v 184.975723 230.009460 -608.139282
v 184.975723 -1687.625977 -815.383301
v 184.975723 -1687.625977 -608.139282
v 361.298584 -1687.626221 -815.383301
v 361.298584 -1687.626221 -608.139282
v 361.298584 430.422089 -815.383301
v 361.298584 430.422089 -608.139282
v 540.505981 430.422089 -815.383301
v 540.505981 430.422089 -608.139282
v 540.505981 -1687.626221 -815.383301
v 540.505981 -1687.626221 -608.139282
vt -0.631740 1.400766
vt 1.298146 1.237283
vt 1.376552 -0.594784
vt -0.899571 -0.323413
vt 1.188675 -0.416993
vt 1.244560 -0.393278
vt -0.452785 1.222946
vt -0.845985 1.307149
vt 1.298147 1.237283
vt 1.183441 1.228153
vt -0.899571 -0.323412
vt 1.282290 1.401156
vt 1.282290 1.401156
vt -0.899572 -0.562904
vt -0.899571 -0.562906
vt 1.247259 -0.600478
vt 1.282298 1.401148
vt -0.864541 1.438728
vt -0.899579 -0.562897
vt 1.282292 1.401155
vt -0.864547 1.438720
vt 1.247269 -0.600469
vt -0.899571 -0.562906
vt 1.370180 1.407137
vt 1.376552 -0.594784
vt -0.447549 -0.422199
vt -0.625370 -0.601155
vt -0.631740 1.400765
vt -0.452734 1.207335
vt 1.188626 -0.401380
vt -0.447599 -0.406588
vt -0.625370 -0.601155
vt -0.864549 1.438719
vt 1.183490 1.212541
vt -0.897734 -0.325370
vt 1.246519 -0.391441
vt 1.247267 -0.600470
vt -0.864550 1.438719
vt -0.897733 -0.325371
vt 1.296309 1.239242
vt 1.370182 1.407137
vt 1.296309 1.239241
vt -0.847943 1.305312
vt 1.247269 -0.600469
vt -0.847943 1.305312
vt 1.244561 -0.393277
vt -0.845985 1.307148
vt 1.246519 -0.391440
vt 0.772953 -1.954344
vt 1.019756 -1.955903
vt 1.033745 0.258814
vt 0.786943 0.260373
vt 1.034470 0.373667
vt 0.787668 0.375225
vt 1.048460 2.588383
vt 0.801658 2.589942
vt 1.049186 2.703236
vt 0.802384 2.704794
vt 1.134608 -1.956628
vt 1.148597 0.258088
vt 0.658101 -1.953619
vt 0.672092 0.261098
vt -0.350853 -2.046868
vt -0.104094 -2.051740
vt -0.058180 0.274300
vt -0.304939 0.279171
vt -0.055915 0.389133
vt -0.302672 0.394003
vt -0.010000 2.715174
vt -0.256758 2.720044
vt -0.007733 2.830005
vt -0.254492 2.834876
vt 0.010738 -2.054006
vt 0.056651 0.272034
vt -0.465684 -2.044602
vt -0.419772 0.281438
vt -1.231655 0.642171
vt -1.230603 0.395367
vt 0.997013 0.404857
vt 0.995962 0.651662
vt 1.415365 0.406639
vt 1.414313 0.653444
vt 3.642981 0.416130
vt 3.641929 0.662935
vt 4.061332 0.417913
vt 4.060280 0.664717
vt -1.228821 -0.022985
vt 0.998795 -0.013494
vt -1.233438 1.060523
vt 0.994179 1.070013
vt 0.420723 2.695743
vt 0.173921 2.697230
vt 0.160491 0.469634
vt 0.407294 0.468146
vt 0.158999 0.222086
vt 0.405801 0.220598
vt 0.145569 -2.005509
vt 0.392372 -2.006998
vt 0.144077 -2.253057
vt 0.390880 -2.254545
vt -0.073627 2.698722
vt -0.087056 0.471127
vt 0.668272 2.694249
vt 0.654842 0.466654
vt -0.150566 -1.592582
vt 0.096238 -1.593742
vt 0.107699 0.844231
vt -0.139105 0.845392
vt 0.108247 0.960783
vt -0.138557 0.961943
vt 0.119708 3.398758
vt -0.127095 3.399918
vt 0.120256 3.515309
vt -0.126547 3.516470
vt 0.212789 -1.594291
vt 0.224251 0.843684
vt -0.267117 -1.592034
vt -0.255657 0.845940
vt 0.441394 3.267595
vt 0.194589 3.268594
vt 0.183594 0.550456
vt 0.430398 0.549457
vt 0.183122 0.433904
vt 0.429927 0.432906
vt 0.172126 -2.284233
vt 0.418931 -2.285232
vt 0.171656 -2.400786
vt 0.418461 -2.401784
vt 0.078036 3.269065
vt 0.067042 0.550927
vt 0.557945 3.267123
vt 0.546950 0.548986
vt 2.217651 0.459906
vt 2.218918 0.706709
vt -0.064764 0.718428
vt -0.066030 0.471624
vt -0.181315 0.719026
vt -0.182582 0.472223
vt -2.464997 0.730743
vt -2.466263 0.483940
vt -2.581548 0.731341
vt -2.582815 0.484538
vt 2.219515 0.823261
vt -0.064166 0.834979
vt 2.217052 0.343354
vt -0.066628 0.355072
vt 0.552369 -2.135842
vt 0.799172 -2.136950
vt 0.810493 0.385407
vt 0.563689 0.386514
vt 0.811016 0.501958
vt 0.564211 0.503066
vt 0.822337 3.024314
vt 0.575533 3.025423
vt 0.822861 3.140867
vt 0.576056 3.141973
vt 0.915724 -2.137473
vt 0.927045 0.384883
vt 0.435816 -2.135319
vt 0.447138 0.387037
vt -0.151324 -1.591183
vt 0.096905 -1.592362
vt 0.108458 0.843553
vt -0.139771 0.844731
vt 0.109014 0.960778
vt -0.139214 0.961956
vt 0.120570 3.396695
vt -0.127660 3.397871
vt 0.121126 3.513918
vt -0.127104 3.515096
vt 0.214128 -1.592917
vt 0.225684 0.842997
vt -0.268549 -1.590628
vt -0.256994 0.845288
vt 2.636003 0.306706
vt 2.639134 0.553493
vt 0.217369 0.584215
vt 0.214238 0.337429
vt -0.074609 0.587919
vt -0.077739 0.341133
vt -2.496373 0.618641
vt -2.499503 0.371855
vt -2.788350 0.622346
vt -2.791481 0.375559
vt 2.642837 0.845470
vt 0.221073 0.876192
vt 2.632299 0.014729
vt 0.210535 0.045451
vt 2.217649 0.459901
vt 2.218915 0.706705
vt -0.064763 0.718433
vt -0.066032 0.471629
vt -0.181315 0.719031
vt -0.182583 0.472228
vt -2.464998 0.730760
vt -2.466264 0.483956
vt -2.581549 0.731359
vt -2.582815 0.484555
vt 2.219515 0.823256
vt -0.064165 0.834984
vt 2.217050 0.343349
vt -0.066630 0.355078
vt 0.157967 -1.907337
vt 0.404740 -1.911390
vt 0.446167 0.610651
vt 0.199393 0.614704
vt 0.449671 0.824040
vt 0.202899 0.828093
vt 0.491098 3.346081
vt 0.244324 3.350134
vt 0.494602 3.559470
vt 0.247829 3.563523
vt 0.618131 -1.914895
vt 0.659556 0.607146
vt -0.055422 -1.903831
vt -0.013996 0.618209
vn 0.000000 0.000000 -1.000000
vn 0.000000 0.000000 -1.000000
vn 0.000000 0.000000 -1.000000
vn 0.000000 0.000000 -1.000000
vn 0.000000 0.000000 1.000000
vn 0.000000 0.000000 1.000000
vn 0.000000 0.000000 1.000000
vn 0.000000 0.000000 1.000000
vn -1.000000 0.000000 0.000000
vn -1.000000 0.000000 0.000000
vn -1.000000 0.000000 0.000000
vn -1.000000 0.000000 0.000000
vn 1.000000 0.000000 0.000000
vn 1.000000 0.000000 0.000000
vn 1.000000 0.000000 0.000000
vn 1.000000 0.000000 0.000000
vn 0.000000 0.000000 1.000000
vn 0.000000 0.000000 1.000000
vn 0.000000 0.000000 1.000000
vn 0.000000 0.000000 1.000000
vn 0.000000 0.000000 -1.000000
vn 0.000000 0.000000 -1.000000
vn 0.000000 0.000000 -1.000000
vn 0.000000 0.000000 -1.000000
vn 1.000000 0.000000 0.000000
vn 1.000000 0.000000 0.000000
vn 1.000000 0.000000 0.000000
vn 1.000000 0.000000 0.000000
vn -1.000000 0.000000 0.000000
vn -1.000000 0.000000 0.000000
vn -1.000000 0.000000 0.000000
vn -1.000000 0.000000 0.000000
vn 0.000000 -1.000000 0.000000
vn 0.000000 -1.000000 0.000000
vn 0.000000 -1.000000 0.000000
vn 0.000000 -1.000000 0.000000
vn -0.000000 1.000000 -0.000000
vn -0.000000 1.000000 -0.000000
vn 0.000000 1.000000 -0.000000
vn 0.000000 1.000000 -0.000000
vn 0.000000 1.000000 0.000000
vn 0.000000 1.000000 0.000000
vn -0.000000 1.000000 0.000000
vn -0.000000 1.000000 0.000000
vn 0.000000 -1.000000 0.000000
vn 0.000000 -1.000000 0.000000
vn 0.000000 -1.000000 0.000000
vn 0.000000 -1.000000 0.000000
vn 0.000000 0.000000 1.000000
vn 0.000000 0.000000 1.000000
vn 0.000000 0.000000 1.000000
vn 0.000000 0.000000 1.000000
vn 0.000000 1.000000 0.000000
vn 0.000000 1.000000 0.000000
vn 0.000000 1.000000 0.000000
vn 0.000000 1.000000 0.000000
vn 0.000000 0.000000 -1.000000
vn 0.000000 0.000000 -1.000000
vn 0.000000 0.000000 -1.000000
vn 0.000000 0.000000 -1.000000
vn 0.000000 -1.000000 0.000000
vn 0.000000 -1.000000 0.000000
vn 0.000000 -1.000000 0.000000
vn 0.000000 -1.000000 0.000000
vn 1.000000 0.000000 0.000000
vn 1.000000 0.000000 0.000000
vn 1.000000 0.000000 0.000000
vn 1.000000 0.000000 0.000000
vn -1.000000 0.000000 0.000000
vn -1.000000 0.000000 0.000000
vn -1.000000 0.000000 0.000000
vn -1.000000 0.000000 0.000000
vn 0.000000 0.000000 1.000000
vn 0.000000 0.000000 1.000000
vn 0.000000 0.000000 1.000000
vn 0.000000 0.000000 1.000000
vn 0.000000 1.000000 0.000000
vn 0.000000 1.000000 0.000000
vn 0.000000 1.000000 0.000000
vn 0.000000 1.000000 0.000000
vn 0.000000 0.000000 -1.000000
vn 0.000000 0.000000 -1.000000
vn 0.000000 0.000000 -1.000000
vn 0.000000 0.000000 -1.000000
vn 0.000000 -1.000000 0.000000
vn 0.000000 -1.000000 0.000000
vn 0.000000 -1.000000 0.000000
vn 0.000000 -1.000000 0.000000
vn 1.000000 0.000000 0.000000
vn 1.000000 0.000000 0.000000
vn 1.000000 0.000000 0.000000
vn 1.000000 0.000000 0.000000
vn -1.000000 0.000000 0.000000
vn -1.000000 0.000000 0.000000
vn -1.000000 0.000000 0.000000
vn -1.000000 0.000000 0.000000
vn 0.000000 0.000000 1.000000
vn 0.000000 0.000000 1.000000
vn 0.000000 0.000000 1.000000
vn 0.000000 0.000000 1.000000
vn 0.000000 1.000000 0.000000
vn 0.000000 1.000000 0.000000
vn 0.000000 1.000000 0.000000
vn 0.000000 1.000000 0.000000
vn 0.000000 0.000000 -1.000000
vn 0.000000 0.000000 -1.000000
vn 0.000000 0.000000 -1.000000
vn 0.000000 0.000000 -1.000000
vn 0.000000 -1.000000 0.000000
vn 0.000000 -1.000000 0.000000
vn 0.000000 -1.000000 0.000000
vn 0.000000 -1.000000 0.000000
vn 1.000000 0.000000 0.000000
vn 1.000000 0.000000 0.000000
vn 1.000000 0.000000 0.000000
vn 1.000000 0.000000 0.000000
vn -1.000000 0.000000 0.000000
vn -1.000000 0.000000 0.000000
vn -1.000000 0.000000 0.000000
vn -1.000000 0.000000 0.000000
vn 0.000000 0.000000 1.000000
vn 0.000000 0.000000 1.000000
vn 0.000000 0.000000 1.000000
vn 0.000000 0.000000 1.000000
vn 0.000000 1.000000 0.000000
vn 0.000000 1.000000 0.000000
vn 0.000000 1.000000 0.000000
vn 0.000000 1.000000 0.000000
vn 0.000000 0.000000 -1.000000
vn 0.000000 0.000000 -1.000000
vn 0.000000 0.000000 -1.000000
vn 0.000000 0.000000 -1.000000
vn 0.000000 -1.000000 0.000000
vn 0.000000 -1.000000 0.000000
vn 0.000000 -1.000000 0.000000
vn 0.000000 -1.000000 0.000000
vn 1.000000 0.000000 0.000000
vn 1.000000 0.000000 0.000000
vn 1.000000 0.000000 0.000000
vn 1.000000 0.000000 0.000000
vn -1.000000 0.000000 0.000000
vn -1.000000 0.000000 0.000000
vn -1.000000 0.000000 0.000000
vn -1.000000 0.000000 0.000000
vn 0.000000 0.000000 1.000000
vn 0.000000 0.000000 1.000000
vn 0.000000 0.000000 1.000000
vn 0.000000 0.000000 1.000000
vn 0.000000 1.000000 0.000000
vn 0.000000 1.000000 0.000000
vn 0.000000 1.000000 0.000000
vn 0.000000 1.000000 0.000000
vn 0.000000 0.000000 -1.000000
vn 0.000000 0.000000 -1.000000
vn 0.000000 0.000000 -1.000000
vn 0.000000 0.000000 -1.000000
vn 0.000000 -1.000000 0.000000
vn 0.000000 -1.000000 0.000000
vn 0.000000 -1.000000 0.000000
vn 0.000000 -1.000000 0.000000
vn 1.000000 0.000000 0.000000
vn 1.000000 0.000000 0.000000
vn 1.000000 0.000000 0.000000
vn 1.000000 0.000000 0.000000
vn -1.000000 0.000000 0.000000
vn -1.000000 0.000000 0.000000
vn -1.000000 0.000000 0.000000
vn -1.000000 0.000000 0.000000
vn 0.000000 0.000000 1.000000
vn 0.000000 0.000000 1.000000
vn 0.000000 0.000000 1.000000
vn 0.000000 0.000000 1.000000
vn 0.000000 1.000000 0.000000
vn 0.000000 1.000000 0.000000
vn 0.000000 1.000000 0.000000
vn 0.000000 1.000000 0.000000
vn 0.000000 0.000000 -1.000000
vn 0.000000 0.000000 -1.000000
vn 0.000000 0.000000 -1.000000
vn 0.000000 0.000000 -1.000000
vn 0.000000 -1.000000 0.000000
vn 0.000000 -1.000000 0.000000
vn 0.000000 -1.000000 0.000000
vn 0.000000 -1.000000 0.000000
vn 1.000000 0.000000 0.000000
vn 1.000000 0.000000 0.000000
vn 1.000000 0.000000 0.000000
vn 1.000000 0.000000 0.000000
vn -1.000000 0.000000 0.000000
vn -1.000000 0.000000 0.000000
vn -1.000000 0.000000 0.000000
vn -1.000000 0.000000 0.000000
vn -1.000000 0.000000 0.000000
vn -1.000000 0.000000 0.000000
vn -1.000000 0.000000 0.000000
vn -1.000000 0.000000 0.000000
vn 0.000000 1.000000 0.000000
vn 0.000000 1.000000 0.000000
vn 0.000000 1.000000 0.000000
vn 0.000000 1.000000 0.000000
vn 1.000000 0.000000 0.000000
vn 1.000000 0.000000 0.000000
vn 1.000000 0.000000 0.000000
vn 1.000000 0.000000 0.000000
vn 0.000000 -1.000000 0.000000
vn 0.000000 -1.000000 0.000000
vn 0.000000 -1.000000 0.000000
vn 0.000000 -1.000000 0.000000
vn 0.000000 0.000000 1.000000
vn 0.000000 0.000000 1.000000
vn 0.000000 0.000000 1.000000
vn 0.000000 0.000000 1.000000
vn 0.000000 0.000000 -1.000000
vn 0.000000 0.000000 -1.000000
vn 0.000000 0.000000 -1.000000
vn 0.000000 0.000000 -1.000000
vn -1.000000 0.000000 0.000000
vn -1.000000 0.000000 0.000000
vn -1.000000 0.000000 0.000000
vn -1.000000 0.000000 0.000000
vn 0.000000 1.000000 0.000000
vn 0.000000 1.000000 0.000000
vn 0.000000 1.000000 0.000000
vn 0.000000 1.000000 0.000000
vn 1.000000 0.000000 0.000000
vn 1.000000 0.000000 0.000000
vn 1.000000 0.000000 0.000000
vn 1.000000 0.000000 0.000000
vn 0.000000 -1.000000 0.000000
vn 0.000000 -1.000000 0.000000
vn 0.000000 -1.000000 0.000000
vn 0.000000 -1.000000 0.000000
vn 0.000000 0.000000 1.000000
vn 0.000000 0.000000 1.000000
vn 0.000000 0.000000 1.000000
vn 0.000000 0.000000 1.000000
vn 0.000000 0.000000 -1.000000
vn 0.000000 0.000000 -1.000000
vn 0.000000 0.000000 -1.000000
vn 0.000000 0.000000 -1.000000
vn -1.000000 0.000000 0.000000
vn -1.000000 0.000000 0.000000
vn -1.000000 0.000000 0.000000
vn -1.000000 0.000000 0.000000
vn 0.000000 1.000000 0.000000
vn 0.000000 1.000000 0.000000
vn 0.000000 1.000000 0.000000
vn 0.000000 1.000000 0.000000
vn 1.000000 0.000000 0.000000
vn 1.000000 0.000000 0.000000
vn 1.000000 0.000000 0.000000
vn 1.000000 0.000000 0.000000
vn 0.000000 -1.000000 0.000000
vn 0.000000 -1.000000 0.000000
vn 0.000000 -1.000000 0.000000
vn 0.000000 -1.000000 0.000000
vn 0.000000 0.000000 1.000000
vn 0.000000 0.000000 1.000000
vn 0.000000 0.000000 1.000000
vn 0.000000 0.000000 1.000000
vn 0.000000 0.000000 -1.000000
vn 0.000000 0.000000 -1.000000
vn 0.000000 0.000000 -1.000000
vn 0.000000 0.000000 -1.000000
vn -1.000000 0.000000 0.000000
vn -1.000000 0.000000 0.000000
vn -1.000000 0.000000 0.000000
vn -1.000000 0.000000 0.000000
vn 0.000000 1.000000 0.000000
vn 0.000000 1.000000 0.000000
vn 0.000000 1.000000 0.000000
vn 0.000000 1.000000 0.000000
vn 1.000000 0.000000 0.000000
vn 1.000000 0.000000 0.000000
vn 1.000000 0.000000 0.000000
vn 1.000000 0.000000 0.000000
vn 0.000000 -1.000000 0.000000
vn 0.000000 -1.000000 0.000000
vn 0.000000 -1.000000 0.000000
vn 0.000000 -1.000000 0.000000
vn 0.000000 0.000000 1.000000
vn 0.000000 0.000000 1.000000
vn 0.000000 0.000000 1.000000
vn 0.000000 0.000000 1.000000
vn 0.000000 0.000000 -1.000000
vn 0.000000 0.000000 -1.000000
vn 0.000000 0.000000 -1.000000
vn 0.000000 0.000000 -1.000000
vn -1.000000 0.000000 0.000000
vn -1.000000 0.000000 0.000000
vn -1.000000 0.000000 0.000000
vn -1.000000 0.000000 0.000000
vn 0.000000 1.000000 0.000000
vn 0.000000 1.000000 0.000000
vn 0.000000 1.000000 0.000000
vn 0.000000 1.000000 0.000000
vn 1.000000 0.000000 0.000000
vn 1.000000 0.000000 0.000000
vn 1.000000 0.000000 0.000000
vn 1.000000 0.000000 0.000000
vn 0.000000 -1.000000 0.000000
vn 0.000000 -1.000000 0.000000
vn 0.000000 -1.000000 0.000000
vn 0.000000 -1.000000 0.000000
vn 0.000000 0.000000 1.000000
vn 0.000000 0.000000 1.000000
vn 0.000000 0.000000 1.000000
vn 0.000000 0.000000 1.000000
vn 0.000000 0.000000 -1.000000
vn 0.000000 0.000000 -1.000000
vn 0.000000 0.000000 -1.000000
vn 0.000000 0.000000 -1.000000
vn -1.000000 0.000000 0.000000
vn -1.000000 0.000000 0.000000
vn -1.000000 0.000000 0.000000
vn -1.000000 0.000000 0.000000
vn 0.000000 1.000000 0.000000
vn 0.000000 1.000000 0.000000
vn 0.000000 1.000000 0.000000
vn 0.000000 1.000000 0.000000
vn 1.000000 0.000000 0.000000
vn 1.000000 0.000000 0.000000
vn 1.000000 0.000000 0.000000
vn 1.000000 0.000000 0.000000
vn 0.000000 -1.000000 0.000000
vn 0.000000 -1.000000 0.000000
vn 0.000000 -1.000000 0.000000
vn 0.000000 -1.000000 0.000000
vn 0.000000 0.000000 1.000000
vn 0.000000 0.000000 1.000000
vn 0.000000 0.000000 1.000000
vn 0.000000 0.000000 1.000000
vn 0.000000 0.000000 -1.000000
vn 0.000000 0.000000 -1.000000
vn 0.000000 0.000000 -1.000000
vn 0.000000 0.000000 -1.000000
s off
g Pit_City1
usemtl lambert2SG
f 9/39/1 12/46/2 11/40/3 10/47/4
f 13/35/5 16/6/6 15/42/7 14/8/8
f 10/4/9 11/48/10 14/9/11 15/43/12
f 16/11/13 13/36/14 12/2/15 9/45/16
f 1/44/17 2/13/18 3/33/19 4/15/20
f 5/16/21 6/17/22 7/18/23 8/19/24
f 2/37/25 7/20/26 6/21/27 3/14/28
f 8/22/29 1/12/30 4/38/31 5/23/32
s 1
f 1/1/33 9/7/34 10/10/35 2/24/36
s 2
f 3/3/37 11/5/38 12/26/39 4/27/40
f 5/28/41 13/29/42 14/34/43 6/41/44
s 1
f 7/25/45 15/30/46 16/31/47 8/32/48
f 2/24/36 10/10/35 15/30/46 7/25/45
s 2
f 6/41/44 14/34/43 11/5/38 3/3/37
s 1
f 8/32/48 16/31/47 9/7/34 1/1/33
s 2
f 4/27/40 12/26/39 13/29/42 5/28/41
s off
f 17/49/49 18/50/50 20/51/51 19/52/52
f 19/52/53 20/51/54 22/53/55 21/54/56
f 21/54/57 22/53/58 24/55/59 23/56/60
f 23/56/61 24/55/62 18/57/63 17/58/64
f 18/50/65 24/59/66 22/60/67 20/51/68
f 23/61/69 17/49/70 19/52/71 21/62/72
f 25/63/73 26/64/74 28/65/75 27/66/76
f 27/66/77 28/65/78 30/67/79 29/68/80
f 29/68/81 30/67/82 32/69/83 31/70/84
f 31/70/85 32/69/86 26/71/87 25/72/88
f 26/64/89 32/73/90 30/74/91 28/65/92
f 31/75/93 25/63/94 27/66/95 29/76/96
f 33/77/97 34/78/98 36/79/99 35/80/100
f 35/80/101 36/79/102 38/81/103 37/82/104
f 37/82/105 38/81/106 40/83/107 39/84/108
f 39/84/109 40/83/110 34/85/111 33/86/112
f 34/78/113 40/87/114 38/88/115 36/79/116
f 39/89/117 33/77/118 35/80/119 37/90/120
f 41/91/121 42/92/122 44/93/123 43/94/124
f 43/94/125 44/93/126 46/95/127 45/96/128
f 45/96/129 46/95/130 48/97/131 47/98/132
f 47/98/133 48/97/134 42/99/135 41/100/136
f 42/92/137 48/101/138 46/102/139 44/93/140
f 47/103/141 41/91/142 43/94/143 45/104/144
f 49/105/145 50/106/146 52/107/147 51/108/148
f 51/108/149 52/107/150 54/109/151 53/110/152
f 53/110/153 54/109/154 56/111/155 55/112/156
f 55/112/157 56/111/158 50/113/159 49/114/160
f 50/106/161 56/115/162 54/116/163 52/107/164
f 55/117/165 49/105/166 51/108/167 53/118/168
f 57/119/169 58/120/170 60/121/171 59/122/172
f 59/122/173 60/121/174 62/123/175 61/124/176
f 61/124/177 62/123/178 64/125/179 63/126/180
f 63/126/181 64/125/182 58/127/183 57/128/184
f 58/120/185 64/129/186 62/130/187 60/121/188
f 63/131/189 57/119/190 59/122/191 61/132/192
f 65/133/193 66/134/194 68/135/195 67/136/196
f 67/136/197 68/135/198 70/137/199 69/138/200
f 69/138/201 70/137/202 72/139/203 71/140/204
f 71/140/205 72/139/206 66/141/207 65/142/208
f 66/134/209 72/143/210 70/144/211 68/135/212
f 71/145/213 65/133/214 67/136/215 69/146/216
f 73/147/217 74/148/218 76/149/219 75/150/220
f 75/150/221 76/149/222 78/151/223 77/152/224
f 77/152/225 78/151/226 80/153/227 79/154/228
f 79/154/229 80/153/230 74/155/231 73/156/232
f 74/148/233 80/157/234 78/158/235 76/149/236
f 79/159/237 73/147/238 75/150/239 77/160/240
f 81/161/241 82/162/242 84/163/243 83/164/244
f 83/164/245 84/163/246 86/165/247 85/166/248
f 85/166/249 86/165/250 88/167/251 87/168/252
f 87/168/253 88/167/254 82/169/255 81/170/256
f 82/162/257 88/171/258 86/172/259 84/163/260
f 87/173/261 81/161/262 83/164/263 85/174/264
f 89/175/265 90/176/266 92/177/267 91/178/268
f 91/178/269 92/177/270 94/179/271 93/180/272
f 93/180/273 94/179/274 96/181/275 95/182/276
f 95/182/277 96/181/278 90/183/279 89/184/280
f 90/176/281 96/185/282 94/186/283 92/177/284
f 95/187/285 89/175/286 91/178/287 93/188/288
f 97/189/289 98/190/290 100/191/291 99/192/292
f 99/192/293 100/191/294 102/193/295 101/194/296
f 101/194/297 102/193/298 104/195/299 103/196/300
f 103/196/301 104/195/302 98/197/303 97/198/304
f 98/190/305 104/199/306 102/200/307 100/191/308
f 103/201/309 97/189/310 99/192/311 101/202/312
f 105/203/313 106/204/314 108/205/315 107/206/316
f 107/206/317 108/205/318 110/207/319 109/208/320
f 109/208/321 110/207/322 112/209/323 111/210/324
f 111/210/325 112/209/326 106/211/327 105/212/328
f 106/204/329 112/213/330 110/214/331 108/205/332
f 111/215/333 105/203/334 107/206/335 109/216/336
