# This file uses centimeters as units for non-parametric coordinates.

mtllib Bulding_Dest4_LOD2.mtl
g default
v 56.752640 5.111038 -90.009056
v 19.274260 5.111034 78.643646
v 56.752628 5.111038 78.643646
v 56.752640 5.111038 -90.009064
v 56.752636 5.111038 -90.009064
v 56.752636 5.111038 -90.009064
v -36.943317 5.111038 3.686881
v 56.752636 5.111038 -90.009064
v 56.752636 5.111038 -90.009064
v 56.752636 5.111038 -90.009064
v 56.752636 5.111038 -90.009064
v 56.752636 5.111038 -90.009064
v 56.752636 5.111038 -90.009064
v 56.752636 5.111038 -90.009064
v 56.752640 5.111038 -90.009064
v 56.752636 5.111038 -90.009064
v 56.752632 5.111038 -90.009064
v 56.752628 5.111038 -90.009064
v 56.752625 5.111038 -90.009064
v 56.752632 5.111038 -90.009064
v -18.204121 5.111034 35.939163
v -68.619461 5.111034 -15.052313
v -68.619461 5.111034 -15.052315
v -68.619461 5.111034 -15.052315
v -74.421692 5.111034 -90.009064
vt -0.696237 -3.969829
vt 0.293878 -3.969829
vt 0.293878 0.485689
vt 0.293878 0.485689
vt 0.293878 0.485689
vt 0.293878 0.485689
vt -2.181410 -1.989598
vt 0.293878 0.485689
vt 0.293878 0.485689
vt 0.293878 0.485689
vt 0.293878 0.485689
vt 0.293878 0.485689
vt 0.293878 0.485689
vt 0.293878 0.485689
vt 0.293878 0.485689
vt 0.293878 0.485689
vt 0.293878 0.485689
vt 0.293878 0.485689
vt 0.293878 0.485689
vt 0.293878 0.485689
vt 0.293878 0.485689
vt 0.293878 0.485689
vt 0.293878 0.485689
vt -1.686352 -2.841649
vt -3.018240 -1.494541
vt -3.018240 -1.494541
vt -3.018240 -1.494541
vt -3.171525 0.485689
vn 0.000000 1.000000 0.000000
vn 0.000000 1.000000 0.000000
vn 0.000000 1.000000 0.000000
vn 0.000000 1.000000 0.000000
vn 0.000000 1.000000 0.000000
vn 0.000000 1.000000 0.000000
vn 0.000000 1.000000 0.000000
vn -0.000000 1.000000 -0.000000
vn 0.000000 1.000000 0.000000
vn -0.000000 1.000000 -0.000000
vn 0.000000 1.000000 0.000000
vn 0.000000 1.000000 0.000000
vn 0.000000 1.000000 0.000000
vn 0.000000 1.000000 0.000000
vn 0.000000 1.000000 0.000000
vn 0.000000 1.000000 0.000000
vn 0.000000 1.000000 0.000000
vn 0.000000 1.000000 0.000000
vn 0.000000 1.000000 0.000000
vn 0.000000 1.000000 0.000000
vn 0.000000 1.000000 0.000000
vn 0.000000 1.000000 0.000000
vn 0.000000 1.000000 0.000000
vn 0.000000 1.000000 0.000000
vn 0.000000 1.000000 0.000000
vn 0.000000 1.000000 0.000000
vn 0.000000 1.000000 0.000000
vn 0.000000 1.000000 0.000000
vn 0.000000 1.000000 0.000000
vn 0.000000 1.000000 0.000000
vn 0.000000 1.000000 0.000000
vn 0.000000 1.000000 0.000000
vn 0.000000 1.000000 0.000000
vn 0.000000 1.000000 0.000000
vn 0.000000 1.000000 0.000000
vn 0.000000 1.000000 0.000000
vn 0.000000 1.000000 0.000000
vn 0.000000 1.000000 0.000000
vn 0.000000 1.000000 0.000000
vn 0.000000 1.000000 0.000000
vn 0.000000 1.000000 0.000000
vn 0.000000 1.000000 0.000000
vn 0.000000 1.000000 0.000000
vn 0.000000 1.000000 0.000000
vn 0.000000 1.000000 0.000000
vn 0.000000 1.000000 0.000000
vn 0.000000 1.000000 0.000000
vn 0.000000 1.000000 0.000000
vn 0.000000 1.000000 0.000000
vn 0.000000 1.000000 0.000000
vn 0.000000 1.000000 0.000000
vn 0.000000 1.000000 0.000000
vn 0.000000 1.000000 0.000000
vn 0.000000 1.000000 0.000000
vn 0.000000 1.000000 0.000000
vn 0.000000 1.000000 0.000000
vn 0.000000 1.000000 0.000000
vn 0.000000 1.000000 0.000000
vn 0.000000 1.000000 0.000000
vn 0.000000 1.000000 0.000000
vn 0.000000 1.000000 0.000000
vn 0.000000 1.000000 0.000000
vn 0.000000 1.000000 0.000000
vn 0.000000 1.000000 0.000000
vn 0.000000 1.000000 0.000000
vn 0.000000 1.000000 0.000000
vn 0.000000 1.000000 0.000000
vn 0.000000 1.000000 0.000000
vn 0.000000 1.000000 0.000000
vn 0.000000 1.000000 0.000000
vn 0.000000 1.000000 0.000000
vn 0.000000 1.000000 0.000000
vn 0.000000 1.000000 0.000000
vn 0.000000 1.000000 0.000000
vn 0.000000 1.000000 0.000000
vn 0.000000 1.000000 0.000000
vn 0.000000 1.000000 0.000000
vn 0.000000 1.000000 0.000000
vn 0.000000 1.000000 0.000000
vn -0.000000 1.000000 -0.000000
vn 0.000000 1.000000 -0.000001
vn -0.000000 1.000000 -0.000000
vn -0.000000 1.000000 -0.000000
vn 0.000000 1.000000 0.000000
vn 0.000001 1.000000 0.000000
vn 0.000001 1.000000 0.000000
vn 0.000000 1.000000 0.000000
vn 0.000000 1.000000 0.000000
vn 0.000001 1.000000 0.000000
vn 0.000000 1.000000 0.000000
vn 0.000000 1.000000 0.000000
vn 0.000000 1.000000 0.000000
vn 0.000000 1.000000 0.000000
vn 0.000000 1.000000 0.000000
vn -0.000000 1.000000 -0.000000
vn -0.000000 1.000000 -0.000000
vn 0.000000 1.000000 0.000000
vn 0.000000 1.000000 0.000000
vn -0.000000 1.000000 -0.000000
vn 0.000000 1.000000 0.000000
vn 0.000000 1.000000 0.000000
vn -0.000000 1.000000 -0.000000
vn -0.000000 1.000000 -0.000000
vn 0.000000 1.000000 0.000000
vn 0.000000 1.000000 0.000000
vn -0.000000 1.000000 -0.000000
vn 0.000000 1.000000 0.000000
vn 0.000000 1.000000 0.000000
vn -0.000000 1.000000 -0.000000
vn 0.000000 1.000000 0.000000
vn 0.000000 1.000000 0.000000
vn -0.000000 1.000000 -0.000000
vn -0.000000 1.000000 -0.000000
s off
g Bulding_Dest5:polySurface1
usemtl Bulding_Dest5:initialShadingGroup
f 5/5/1 4/4/2 6/6/3
f 6/6/4 4/4/5 8/8/6
f 4/9/7 9/10/8 10/11/9
f 9/10/10 8/8/11 11/12/12 10/11/13
f 8/8/14 4/4/15 11/12/16
f 4/9/17 10/11/18 13/14/19
f 10/11/20 11/12/21 14/15/22 13/14/23
f 11/12/24 4/4/25 12/16/26 14/15/27
f 4/4/28 15/17/29 12/16/30
f 4/4/31 12/13/32 15/17/33
f 4/9/34 13/14/35 16/18/36
f 13/14/37 14/15/38 12/16/39 16/18/40
f 12/16/41 15/17/42 17/19/43
f 15/17/44 12/13/45 18/20/46 17/19/47
f 4/9/48 16/18/49 18/21/50 19/22/51
f 16/18/52 12/16/53 18/21/54
f 12/16/55 17/19/56 18/21/57
f 17/19/58 20/23/59 18/21/60
f 17/19/61 18/20/62 20/23/63
s 1
f 21/24/64 2/1/65 1/3/66
s off
f 21/24/67 1/3/68 4/4/69
f 21/24/70 4/4/71 5/5/72
f 7/7/73 21/24/74 5/5/75 6/6/76
f 7/7/77 6/6/78 8/8/79 9/10/80
f 22/25/81 7/7/82 9/10/83 4/9/84
f 23/26/85 22/25/86 4/9/87
f 24/27/88 23/26/89 4/9/90
f 25/28/91 24/27/92 4/9/93 19/22/94
s 1
f 2/1/65 3/2/95 1/3/66
