# This file uses centimeters as units for non-parametric coordinates.

mtllib Bulding_Dest4_LOD.mtl
g default
v 56.752640 5.111038 -90.009056
v 19.274260 5.111034 78.643646
v 56.752628 5.111038 78.643646
v 13.653082 5.111034 59.904457
v 56.752640 5.111038 -90.009064
v 56.752636 5.111038 -90.009064
v 56.752636 5.111038 -90.009064
v -36.943317 5.111038 3.686881
v -29.891251 5.111034 3.686881
v -36.943317 5.111038 -5.532166
v 56.752636 5.111038 -90.009064
v 56.752636 5.111038 -90.009064
v 56.752636 5.111038 -90.009064
v 56.752636 5.111038 -90.009064
v 56.752636 5.111038 -90.009064
v 56.752636 5.111038 -90.009064
v 56.752636 5.111038 -90.009064
v 56.752640 5.111038 -90.009064
v 56.752636 5.111038 -90.009064
v 56.752632 5.111038 -90.009064
v 56.752628 5.111038 -90.009064
v 56.752625 5.111038 -90.009064
v 56.752632 5.111038 -90.009064
v 8.031921 5.111034 41.165260
v 0.535063 5.111034 30.271194
v -18.204121 5.111034 35.939163
v -23.100805 5.111034 22.426071
v -55.682510 5.111034 -5.383526
v -68.619461 5.111034 -15.052313
v -67.689209 5.111034 -33.791496
v -66.758957 5.111034 -52.530693
v -70.590340 5.111034 -71.269897
v -74.421692 5.111034 -90.009064
vt -0.696237 -3.969829
vt 0.293878 -3.969829
vt 0.293878 0.485689
vt -0.844739 -3.474771
vt 0.293878 0.485689
vt 0.293878 0.485689
vt 0.293878 0.485689
vt -2.181410 -1.989598
vt -1.995107 -1.989598
vt -2.181410 -1.746047
vt 0.293878 0.485689
vt 0.293878 0.485689
vt 0.293878 0.485689
vt 0.293878 0.485689
vt 0.293878 0.485689
vt 0.293878 0.485689
vt 0.293878 0.485689
vt 0.293878 0.485689
vt 0.293878 0.485689
vt 0.293878 0.485689
vt 0.293878 0.485689
vt 0.293878 0.485689
vt 0.293878 0.485689
vt 0.293878 0.485689
vt 0.293878 0.485689
vt 0.293878 0.485689
vt -0.993240 -2.979713
vt -1.191295 -2.691911
vt -1.686353 -2.841649
vt -1.815715 -2.484656
vt -2.676468 -1.749974
vt -3.018240 -1.494541
vt -2.993665 -0.999484
vt -2.969089 -0.504426
vt -3.070307 -0.009367
vt -3.171525 0.485689
vn 0.000000 1.000000 0.000000
vn -0.000000 1.000000 -0.000000
vn 0.000000 1.000000 0.000000
vn 0.000000 1.000000 0.000000
vn 0.000000 1.000000 0.000000
vn 0.000000 1.000000 0.000000
vn 0.000001 1.000000 0.000000
vn 0.000000 1.000000 0.000000
vn -0.000000 1.000000 -0.000000
vn 0.000000 1.000000 0.000000
vn 0.000000 1.000000 0.000000
vn 0.000000 1.000000 0.000000
vn 0.000000 1.000000 0.000000
vn -0.000000 1.000000 -0.000000
vn 0.000000 1.000000 0.000000
vn -0.000000 1.000000 -0.000000
vn 0.000000 1.000000 0.000000
vn 0.000000 1.000000 0.000000
vn 0.000000 1.000000 0.000000
vn 0.000000 1.000000 0.000000
vn 0.000000 1.000000 0.000000
vn 0.000000 1.000000 0.000000
vn 0.000000 1.000000 0.000000
vn 0.000000 1.000000 0.000000
vn 0.000000 1.000000 0.000000
vn 0.000000 1.000000 0.000000
vn 0.000000 1.000000 0.000000
vn 0.000000 1.000000 0.000000
vn 0.000000 1.000000 0.000000
vn 0.000000 1.000000 0.000000
vn 0.000000 1.000000 0.000000
vn 0.000000 1.000000 0.000000
vn 0.000000 1.000000 0.000000
vn 0.000000 1.000000 0.000000
vn 0.000000 1.000000 0.000000
vn 0.000000 1.000000 0.000000
vn 0.000000 1.000000 0.000000
vn 0.000000 1.000000 0.000000
vn 0.000000 1.000000 0.000000
vn 0.000000 1.000000 0.000000
vn 0.000000 1.000000 0.000000
vn 0.000000 1.000000 0.000000
vn 0.000000 1.000000 0.000000
vn 0.000000 1.000000 0.000000
vn 0.000000 1.000000 0.000000
vn 0.000000 1.000000 0.000000
vn 0.000000 1.000000 0.000000
vn 0.000000 1.000000 0.000000
vn 0.000000 1.000000 0.000000
vn 0.000000 1.000000 0.000000
vn 0.000000 1.000000 0.000000
vn 0.000000 1.000000 0.000000
vn 0.000000 1.000000 0.000000
vn 0.000000 1.000000 0.000000
vn 0.000000 1.000000 0.000000
vn 0.000000 1.000000 0.000000
vn 0.000000 1.000000 0.000000
vn 0.000000 1.000000 0.000000
vn 0.000000 1.000000 0.000000
vn 0.000000 1.000000 0.000000
vn 0.000000 1.000000 0.000000
vn 0.000000 1.000000 0.000000
vn 0.000000 1.000000 0.000000
vn 0.000000 1.000000 0.000000
vn 0.000000 1.000000 0.000000
vn 0.000000 1.000000 0.000000
vn 0.000000 1.000000 0.000000
vn 0.000000 1.000000 0.000000
vn 0.000000 1.000000 0.000000
vn 0.000000 1.000000 0.000000
vn 0.000000 1.000000 0.000000
vn 0.000000 1.000000 0.000000
vn 0.000000 1.000000 0.000000
vn 0.000000 1.000000 0.000000
vn 0.000000 1.000000 0.000000
vn 0.000000 1.000000 0.000000
vn 0.000000 1.000000 0.000000
vn 0.000000 1.000000 0.000000
vn 0.000000 1.000000 0.000000
vn 0.000000 1.000000 0.000000
vn 0.000000 1.000000 0.000000
vn 0.000000 1.000000 0.000000
vn 0.000000 1.000000 0.000000
vn 0.000000 1.000000 0.000000
vn 0.000000 1.000000 0.000000
vn 0.000000 1.000000 0.000000
vn 0.000000 1.000000 0.000000
vn -0.000000 1.000000 -0.000000
vn 0.000000 1.000000 0.000000
vn 0.000000 1.000000 0.000000
vn 0.000000 1.000000 0.000000
vn -0.000000 1.000000 -0.000000
vn 0.000000 1.000000 -0.000001
vn -0.000000 1.000000 -0.000000
vn -0.000000 1.000000 -0.000000
vn 0.000000 1.000000 0.000000
vn 0.000001 1.000000 0.000000
vn 0.000000 1.000000 -0.000001
vn 0.000000 1.000000 0.000000
vn 0.000001 1.000000 0.000000
vn 0.000001 1.000000 0.000000
vn 0.000000 1.000000 0.000000
vn 0.000001 1.000000 0.000000
vn 0.000001 1.000000 0.000000
vn 0.000000 1.000000 0.000000
vn 0.000000 1.000000 0.000000
vn 0.000001 1.000000 0.000000
vn 0.000000 1.000000 0.000000
vn 0.000000 1.000000 0.000000
vn 0.000000 1.000000 0.000000
vn 0.000000 1.000000 0.000000
vn 0.000000 1.000000 0.000000
vn -0.000000 1.000000 -0.000000
s 1
g Bulding_Dest5:polySurface1
usemtl Bulding_Dest5:initialShadingGroup
f 2/1/1 1/3/2 4/4/3
s off
f 6/6/4 5/5/5 7/7/6
f 8/8/7 9/9/8 10/10/9
f 7/7/10 5/5/11 11/11/12
f 5/12/13 12/13/14 13/14/15
f 12/13/16 11/11/17 14/15/18 13/14/19
f 11/11/20 5/5/21 14/15/22
f 5/12/23 13/14/24 16/17/25
f 13/14/26 14/15/27 17/18/28 16/17/29
f 14/15/30 5/5/31 15/19/32 17/18/33
f 5/5/34 18/20/35 15/19/36
f 5/5/37 15/16/38 18/20/39
f 5/12/40 16/17/41 19/21/42
f 16/17/43 17/18/44 15/19/45 19/21/46
f 15/19/47 18/20/48 20/22/49
f 18/20/50 15/16/51 21/23/52 20/22/53
f 5/12/54 19/21/55 21/24/56 22/25/57
f 19/21/58 15/19/59 21/24/60
f 15/19/61 20/22/62 21/24/63
f 20/22/64 23/26/65 21/24/66
f 20/22/67 21/23/68 23/26/69
f 24/27/70 4/4/71 1/3/72
f 25/28/73 24/27/74 1/3/75 5/5/76
f 26/29/77 25/28/78 5/5/79 6/6/80
f 27/30/81 26/29/82 6/6/83
f 9/9/84 27/30/85 6/6/86 7/7/87
f 10/10/88 9/9/89 7/7/90 11/11/91 12/13/92
f 28/31/93 10/10/94 12/13/95 5/12/96
f 29/32/97 28/31/98 5/12/99
f 30/33/100 29/32/101 5/12/102
f 31/34/103 30/33/104 5/12/105
f 32/35/106 31/34/107 5/12/108
f 33/36/109 32/35/110 5/12/111 22/25/112
s 1
f 2/1/1 3/2/113 1/3/2
