# This file uses centimeters as units for non-parametric coordinates.

mtllib House_Ext.mtl
g default
v 10.083503 3.574839 10.083502
v 10.083503 3.574839 -10.083502
v 2.275655 3.574839 10.083504
v 2.275655 11.108289 10.083503
v -10.083503 3.574839 10.083502
v -10.083503 3.574839 -10.083502
v -2.275655 3.574839 10.083504
v -2.275655 11.108289 10.083501
v 9.781028 23.741846 9.781027
v 10.083503 23.439371 10.083502
v -10.083503 23.439371 10.083502
v -9.781028 23.741846 9.781027
v 9.781028 23.741846 -9.781029
v 10.083503 23.439371 -10.083504
v -9.781028 23.741846 -9.781029
v -10.083503 23.439371 -10.083504
v 9.185801 23.741846 -9.185802
v 9.185801 23.741846 9.185800
v -9.185801 23.741846 9.185800
v -9.185801 23.741846 -9.185802
v 9.185801 21.875813 -9.185802
v 9.185801 21.875813 9.185800
v -9.185801 21.875813 9.185800
v -9.185801 21.875813 -9.185802
vt 0.805213 0.306537
vt 0.979906 0.302221
vt 0.984375 0.483273
vt 0.802607 0.200996
vt 0.972827 0.015625
vt 0.977300 0.196681
vt 0.024943 0.480032
vt 0.015625 0.489078
vt 0.020872 0.015625
vt 0.029918 0.024943
vt 0.480032 0.485007
vt 0.489078 0.494325
vt 0.485007 0.029918
vt 0.494325 0.020870
vt 0.512190 0.027001
vt 0.523738 0.494649
vt 0.017360 0.513270
vt 0.481609 0.507670
vt 0.022960 0.977521
vt 0.487208 0.971919
vt 0.483777 0.509792
vt 0.488557 0.970547
vt 0.016011 0.514645
vt 0.020791 0.975399
vt 0.488942 0.970142
vt 0.021184 0.975788
vt 0.483384 0.509403
vt 0.015626 0.515041
vt 0.021188 0.975790
vt 0.015625 0.515046
vt 0.488943 0.970146
vt 0.483381 0.509401
vt 0.043631 0.038971
vt 0.038971 0.466320
vt 0.466320 0.470980
vt 0.470980 0.043633
vt 0.501181 0.509628
vt 0.926512 0.503015
vt 0.928057 0.544857
vt 0.501269 0.554338
vt 0.501207 0.510680
vt 0.927292 0.503396
vt 0.928032 0.546671
vt 0.501945 0.553957
vt 0.501237 0.510349
vt 0.927332 0.503725
vt 0.928002 0.547004
vt 0.501907 0.553628
vt 0.501236 0.510347
vt 0.927332 0.503725
vt 0.928003 0.546999
vt 0.501909 0.553628
vn 0.000000 0.000000 1.000000
vn 0.000001 0.000000 1.000000
vn 0.000000 0.000000 1.000000
vn 0.000000 -0.000000 1.000000
vn 0.000000 0.000000 1.000000
vn 0.000000 0.000000 1.000000
vn 0.275009 0.921272 0.275007
vn 0.408248 0.816498 0.408246
vn 0.408248 0.816498 -0.408246
vn 0.275009 0.921272 -0.275007
vn -0.275009 0.921272 0.275007
vn -0.408248 0.816498 0.408246
vn -0.275009 0.921272 -0.275007
vn -0.408248 0.816498 -0.408246
vn 0.000000 0.000000 1.000000
vn 0.000000 0.000000 1.000000
vn 0.000000 1.000000 0.000000
vn 0.000000 1.000000 0.000000
vn 0.000000 1.000000 0.000000
vn 0.000000 1.000000 0.000000
vn 0.000000 -0.000000 -1.000000
vn 0.000000 -0.000000 -1.000000
vn 0.000000 -0.000000 -1.000000
vn 0.000000 -0.000000 -1.000000
vn 1.000000 0.000000 0.000000
vn 1.000000 0.000000 0.000000
vn 1.000000 0.000000 0.000000
vn 1.000000 0.000000 0.000000
vn -1.000000 0.000000 0.000000
vn -1.000000 0.000000 0.000000
vn -1.000000 0.000000 0.000000
vn -1.000000 0.000000 0.000000
vn 0.000000 1.000000 -0.000001
vn 0.000000 1.000000 0.000001
vn 0.000000 1.000000 0.000001
vn 0.000000 1.000000 -0.000001
vn -1.000000 0.000000 0.000000
vn -1.000000 0.000000 0.000000
vn -1.000000 0.000000 0.000000
vn -1.000000 0.000000 0.000000
vn 0.000000 0.000000 -1.000000
vn 0.000000 0.000000 -1.000000
vn 0.000000 0.000000 -1.000000
vn 0.000000 0.000000 -1.000000
vn 0.000000 0.000000 1.000000
vn 0.000000 0.000000 1.000000
vn 0.000000 0.000000 1.000000
vn 0.000000 0.000000 1.000000
vn 1.000000 0.000000 0.000000
vn 1.000000 0.000000 0.000000
vn 1.000000 0.000000 0.000000
vn 1.000000 0.000000 0.000000
s 1
g polySurface1
usemtl lambert6SG
f 4/1/1 3/2/2 1/3/3
f 8/4/4 5/5/5 7/6/6
s 3
f 9/7/7 10/8/8 14/9/9 13/10/10
f 10/8/8 9/7/7 12/11/11 11/12/12
f 11/12/12 12/11/11 15/13/13 16/14/14
f 13/10/10 14/9/9 16/14/14 15/13/13
s 1
f 8/4/4 4/1/1 11/15/15
f 11/15/15 4/1/1 10/16/16
s 5
usemtl lambert7SG
f 22/17/17 21/18/18 23/19/19
f 23/19/19 21/18/18 24/20/20
s 6
usemtl lambert6SG
f 14/21/21 2/22/22 16/23/23
f 16/23/23 2/22/22 6/24/24
s 7
f 1/25/25 2/26/26 10/27/27
f 10/27/27 2/26/26 14/28/28
s 1
f 10/16/16 4/1/1 1/3/3
s 8
f 5/29/29 11/30/30 6/31/31
f 6/31/31 11/30/30 16/32/32
s 1
f 11/15/15 5/5/5 8/4/4
s 3
f 9/7/7 13/10/10 17/33/33 18/34/34
f 12/11/11 9/7/7 18/34/34 19/35/35
f 13/10/10 15/13/13 20/36/36 17/33/33
f 15/13/13 12/11/11 19/35/35 20/36/36
s off
f 18/37/37 17/38/38 21/39/39 22/40/40
f 19/41/41 18/42/42 22/43/43 23/44/44
f 17/45/45 20/46/46 24/47/47 21/48/48
f 20/49/49 19/50/50 23/51/51 24/52/52
