# This file uses centimeters as units for non-parametric coordinates.

mtllib House_Int.mtl
g default
v 10.057225 3.530994 -10.057225
v 10.057225 3.530993 10.057223
v -10.057225 3.530993 10.057223
v -10.057226 3.530994 -10.057225
v 2.266713 3.530993 10.057223
v -2.266713 3.530993 10.057223
v -2.266713 -0.179043 16.483196
v 2.266713 -0.179043 16.483196
vt 0.417496 0.015625
vt 0.418309 0.171273
vt 0.015625 0.017723
vt 0.017723 0.419595
vt 0.418782 0.261848
vt 0.419595 0.417496
vt 0.566556 0.170500
vt 0.567029 0.261074
vn 0.000000 1.000000 0.000000
vn 0.000000 1.000000 0.000000
vn 0.000000 1.000000 0.000000
vn 0.000000 1.000000 0.000000
vn 0.000000 1.000000 0.000000
vn 0.000000 1.000000 0.000000
vn 0.000000 1.000000 0.000000
vn 0.000000 1.000000 0.000000
vn 0.000000 1.000000 0.000000
vn 0.000000 1.000000 0.000000
vn 0.000000 1.000000 0.000000
vn 0.000000 1.000000 0.000000
vn 0.000000 0.866025 0.500000
vn 0.000000 0.866025 0.500000
vn 0.000000 0.866025 0.500000
vn 0.000000 0.866025 0.500000
vn 0.000000 0.866025 0.500000
vn 0.000000 0.866025 0.500000
s off
g polySurface8
usemtl lambert4SG
f 3/1/1 6/2/2 4/3/3
f 1/4/4 5/5/5 2/6/6
f 4/3/7 6/2/8 1/4/9
f 1/4/10 6/2/11 5/5/12
f 7/7/13 8/8/14 6/2/15
f 6/2/16 8/8/17 5/5/18
g default
v -7.442948 0.034619 7.442948
v -6.367674 0.034619 7.442948
v -7.442948 3.524580 7.442948
v -6.367674 3.524580 7.442948
v -7.442948 3.524580 6.367676
v -6.367674 3.524580 6.367676
v -7.442948 0.034619 6.367674
v -6.367674 0.034619 6.367674
v 7.442946 0.034619 7.442948
v 6.367672 0.034619 7.442948
v 7.442946 3.524580 7.442948
v 6.367672 3.524580 7.442948
v 7.442946 3.524580 6.367676
v 6.367672 3.524580 6.367676
v 7.442946 0.034619 6.367674
v 6.367672 0.034619 6.367674
v -7.442948 0.034619 -7.442946
v -6.367674 0.034619 -7.442946
v -7.442948 3.524580 -7.442946
v -6.367674 3.524580 -7.442946
v -7.442948 3.524580 -6.367675
v -6.367674 3.524580 -6.367675
v -7.442948 0.034619 -6.367674
v -6.367674 0.034619 -6.367674
v 7.442946 0.034619 -7.442946
v 6.367672 0.034619 -7.442946
v 7.442946 3.524580 -7.442946
v 6.367672 3.524580 -7.442946
v 7.442946 3.524580 -6.367675
v 6.367672 3.524580 -6.367675
v 7.442946 0.034619 -6.367674
v 6.367672 0.034619 -6.367674
vt 0.501035 0.015626
vt 0.501034 0.037109
vt 0.431307 0.015625
vt 0.431307 0.037108
vt 0.431307 0.037109
vt 0.431307 0.015625
vt 0.501035 0.037109
vt 0.501035 0.015625
vt 0.501035 0.037109
vt 0.431307 0.037109
vt 0.501035 0.015625
vt 0.431307 0.015625
vt 0.501035 0.037108
vt 0.431307 0.037109
vt 0.501034 0.015625
vt 0.431307 0.015626
vt 0.431307 0.015626
vt 0.501034 0.015625
vt 0.431307 0.037109
vt 0.501035 0.037108
vt 0.501035 0.037109
vt 0.431307 0.037109
vt 0.501035 0.015625
vt 0.431307 0.015625
vt 0.431307 0.037109
vt 0.431307 0.015625
vt 0.501035 0.037109
vt 0.501035 0.015625
vt 0.431307 0.037108
vt 0.431307 0.015625
vt 0.501034 0.037109
vt 0.501035 0.015626
vt 0.501035 0.015625
vt 0.501035 0.037109
vt 0.431307 0.015625
vt 0.431307 0.037109
vt 0.431307 0.037109
vt 0.431307 0.015625
vt 0.501035 0.037109
vt 0.501035 0.015625
vt 0.501035 0.037109
vt 0.431307 0.037109
vt 0.501035 0.015625
vt 0.431307 0.015625
vt 0.501035 0.037109
vt 0.431307 0.037109
vt 0.501035 0.015625
vt 0.431307 0.015625
vt 0.501035 0.037109
vt 0.431307 0.037109
vt 0.501035 0.015625
vt 0.431307 0.015625
vt 0.431307 0.015625
vt 0.501035 0.015625
vt 0.431307 0.037109
vt 0.501035 0.037109
vt 0.431307 0.037109
vt 0.431307 0.015625
vt 0.501035 0.037109
vt 0.501035 0.015625
vt 0.431307 0.037109
vt 0.431307 0.015625
vt 0.501035 0.037109
vt 0.501035 0.015625
vt 0.984377 0.674875
vt 0.581455 0.677017
vt 0.982235 0.271955
vt 0.579313 0.274096
vt 0.579314 0.274096
vt 0.982235 0.271955
vt 0.581455 0.677017
vt 0.984376 0.674876
vt 0.581453 0.677015
vt 0.579316 0.274094
vt 0.984374 0.674878
vt 0.982237 0.271957
vt 0.579315 0.274094
vt 0.982237 0.271956
vt 0.581453 0.677015
vt 0.984374 0.674878
vt 0.581455 0.677017
vt 0.579313 0.274096
vt 0.984376 0.674875
vt 0.982235 0.271955
vt 0.982237 0.271957
vt 0.984374 0.674877
vt 0.579315 0.274094
vt 0.581453 0.677015
vt 0.984374 0.674878
vt 0.581453 0.677015
vt 0.982237 0.271957
vt 0.579315 0.274094
vt 0.579316 0.274094
vt 0.982237 0.271957
vt 0.581452 0.677015
vt 0.984374 0.674878
vn 0.000000 0.000000 1.000000
vn 0.000000 0.000000 1.000000
vn 0.000000 0.000000 1.000000
vn 0.000000 -0.000000 1.000000
vn 0.000000 -0.000000 1.000000
vn 0.000000 -0.000000 1.000000
vn 0.000000 1.000000 0.000000
vn 0.000000 1.000000 0.000000
vn 0.000000 1.000000 0.000000
vn 0.000000 1.000000 0.000000
vn 0.000000 1.000000 0.000000
vn 0.000000 1.000000 0.000000
vn 0.000000 0.000000 -1.000000
vn 0.000000 0.000000 -1.000000
vn 0.000000 0.000000 -1.000000
vn 0.000000 0.000000 -1.000000
vn 0.000000 0.000000 -1.000000
vn 0.000000 0.000000 -1.000000
vn 0.000000 -1.000000 0.000000
vn 0.000000 -1.000000 0.000000
vn 0.000000 -1.000000 0.000000
vn 0.000000 -1.000000 0.000000
vn 0.000000 -1.000000 0.000000
vn 0.000000 -1.000000 0.000000
vn 1.000000 0.000000 0.000000
vn 1.000000 0.000000 0.000000
vn 1.000000 0.000000 0.000000
vn 1.000000 0.000000 0.000001
vn 1.000000 0.000000 0.000001
vn 1.000000 0.000000 0.000001
vn -1.000000 0.000000 -0.000000
vn -1.000000 0.000000 -0.000000
vn -1.000000 0.000000 -0.000000
vn -1.000000 0.000000 -0.000000
vn -1.000000 0.000000 -0.000000
vn -1.000000 0.000000 -0.000000
vn 0.000000 -0.000000 1.000000
vn 0.000000 -0.000000 1.000000
vn 0.000000 -0.000000 1.000000
vn 0.000000 0.000000 1.000000
vn 0.000000 0.000000 1.000000
vn 0.000000 0.000000 1.000000
vn 0.000000 1.000000 0.000000
vn 0.000000 1.000000 0.000000
vn 0.000000 1.000000 0.000000
vn 0.000000 1.000000 0.000000
vn 0.000000 1.000000 0.000000
vn 0.000000 1.000000 0.000000
vn 0.000000 0.000000 -1.000000
vn 0.000000 0.000000 -1.000000
vn 0.000000 0.000000 -1.000000
vn 0.000000 0.000000 -1.000000
vn 0.000000 0.000000 -1.000000
vn 0.000000 0.000000 -1.000000
vn 0.000000 -1.000000 0.000000
vn 0.000000 -1.000000 0.000000
vn 0.000000 -1.000000 0.000000
vn 0.000000 -1.000000 0.000000
vn 0.000000 -1.000000 0.000000
vn 0.000000 -1.000000 0.000000
vn -1.000000 0.000000 -0.000000
vn -1.000000 0.000000 -0.000000
vn -1.000000 0.000000 -0.000000
vn -1.000000 0.000000 0.000001
vn -1.000000 0.000000 0.000001
vn -1.000000 0.000000 0.000001
vn 1.000000 0.000000 0.000000
vn 1.000000 0.000000 0.000000
vn 1.000000 0.000000 0.000000
vn 1.000000 0.000000 0.000000
vn 1.000000 0.000000 0.000000
vn 1.000000 0.000000 0.000000
vn 0.000000 0.000000 -1.000000
vn 0.000000 0.000000 -1.000000
vn 0.000000 0.000000 -1.000000
vn 0.000000 -0.000000 -1.000000
vn 0.000000 -0.000000 -1.000000
vn 0.000000 -0.000000 -1.000000
vn 0.000000 1.000000 -0.000000
vn 0.000000 1.000000 -0.000000
vn 0.000000 1.000000 -0.000000
vn 0.000000 1.000000 -0.000000
vn 0.000000 1.000000 -0.000000
vn 0.000000 1.000000 -0.000000
vn 0.000000 -0.000000 1.000000
vn 0.000000 -0.000000 1.000000
vn 0.000000 -0.000000 1.000000
vn 0.000000 0.000000 1.000000
vn 0.000000 0.000000 1.000000
vn 0.000000 0.000000 1.000000
vn 0.000000 -1.000000 -0.000000
vn 0.000000 -1.000000 -0.000000
vn 0.000000 -1.000000 -0.000000
vn 0.000000 -1.000000 -0.000000
vn 0.000000 -1.000000 -0.000000
vn 0.000000 -1.000000 -0.000000
vn 1.000000 -0.000000 -0.000001
vn 1.000000 -0.000000 -0.000001
vn 1.000000 -0.000000 -0.000001
vn 1.000000 0.000000 0.000000
vn 1.000000 0.000000 0.000000
vn 1.000000 0.000000 0.000000
vn -1.000000 0.000000 -0.000000
vn -1.000000 0.000000 -0.000000
vn -1.000000 0.000000 -0.000000
vn -1.000000 0.000000 -0.000000
vn -1.000000 0.000000 -0.000000
vn -1.000000 0.000000 -0.000000
vn 0.000000 0.000000 -1.000000
vn 0.000000 0.000000 -1.000000
vn 0.000000 0.000000 -1.000000
vn 0.000000 -0.000000 -1.000000
vn 0.000000 -0.000000 -1.000000
vn 0.000000 -0.000000 -1.000000
vn 0.000000 1.000000 -0.000000
vn 0.000000 1.000000 -0.000000
vn 0.000000 1.000000 -0.000000
vn 0.000000 1.000000 -0.000000
vn 0.000000 1.000000 -0.000000
vn 0.000000 1.000000 -0.000000
vn 0.000000 -0.000000 1.000000
vn 0.000000 -0.000000 1.000000
vn 0.000000 -0.000000 1.000000
vn 0.000000 0.000000 1.000000
vn 0.000000 0.000000 1.000000
vn 0.000000 0.000000 1.000000
vn 0.000000 -1.000000 -0.000000
vn 0.000000 -1.000000 -0.000000
vn 0.000000 -1.000000 -0.000000
vn 0.000000 -1.000000 -0.000000
vn 0.000000 -1.000000 -0.000000
vn 0.000000 -1.000000 -0.000000
vn -1.000000 0.000000 -0.000000
vn -1.000000 0.000000 -0.000000
vn -1.000000 0.000000 -0.000000
vn -1.000000 0.000000 -0.000000
vn -1.000000 0.000000 -0.000000
vn -1.000000 0.000000 -0.000000
vn 1.000000 0.000000 0.000000
vn 1.000000 0.000000 0.000000
vn 1.000000 0.000000 0.000000
vn 1.000000 0.000000 0.000000
vn 1.000000 0.000000 0.000000
vn 1.000000 0.000000 0.000000
s off
g pCube3
usemtl lambert4SG
f 9/41/19 10/42/20 11/43/21
f 11/43/22 10/42/23 12/44/24
f 11/73/25 12/74/26 13/75/27
f 13/75/28 12/74/29 14/76/30
f 13/45/31 14/46/32 15/47/33
f 15/47/34 14/46/35 16/48/36
f 15/77/37 16/78/38 9/79/39
f 9/79/40 16/78/41 10/80/42
f 10/9/43 16/10/44 12/11/45
f 12/11/46 16/10/47 14/12/48
f 15/13/49 9/14/50 13/15/51
f 13/15/52 9/14/53 11/16/54
f 17/49/55 19/50/56 18/51/57
f 18/51/58 19/50/59 20/52/60
f 19/81/61 21/82/62 20/83/63
f 20/83/64 21/82/65 22/84/66
f 21/53/67 23/54/68 22/55/69
f 22/55/70 23/54/71 24/56/72
f 23/85/73 17/86/74 24/87/75
f 24/87/76 17/86/77 18/88/78
f 18/17/79 20/18/80 24/19/81
f 24/19/82 20/18/83 22/20/84
f 23/21/85 21/22/86 17/23/87
f 17/23/88 21/22/89 19/24/90
f 25/57/91 27/58/92 26/59/93
f 26/59/94 27/58/95 28/60/96
f 27/89/97 29/90/98 28/91/99
f 28/91/100 29/90/101 30/92/102
f 29/61/103 31/62/104 30/63/105
f 30/63/106 31/62/107 32/64/108
f 31/93/109 25/94/110 32/95/111
f 32/95/112 25/94/113 26/96/114
f 26/25/115 28/26/116 32/27/117
f 32/27/118 28/26/119 30/28/120
f 31/29/121 29/30/122 25/31/123
f 25/31/124 29/30/125 27/32/126
f 33/65/127 34/66/128 35/67/129
f 35/67/130 34/66/131 36/68/132
f 35/97/133 36/98/134 37/99/135
f 37/99/136 36/98/137 38/100/138
f 37/69/139 38/70/140 39/71/141
f 39/71/142 38/70/143 40/72/144
f 39/101/145 40/102/146 33/103/147
f 33/103/148 40/102/149 34/104/150
f 34/33/151 40/34/152 36/35/153
f 36/35/154 40/34/155 38/36/156
f 39/37/157 33/38/158 37/39/159
f 37/39/160 33/38/161 35/40/162
