# This file uses centimeters as units for non-parametric coordinates.

mtllib Platform.mtl
g default
v -38.987492 -39.665432 38.991470
v -39.624393 -39.665432 38.528732
v -40.411648 -39.665432 38.528732
v -41.048550 -39.665432 38.991470
v -41.291824 -39.665432 39.740192
v -41.048550 -39.665432 40.488914
v -40.411648 -39.665432 40.951653
v -39.624393 -39.665432 40.951645
v -38.987492 -39.665432 40.488914
v -38.744217 -39.665432 39.740192
v -38.987492 23.563248 38.991470
v -39.624393 23.563248 38.528732
v -40.411648 23.563248 38.528732
v -41.048550 23.563248 38.991470
v -41.291824 23.563248 39.740192
v -41.048550 23.563248 40.488914
v -40.411648 23.563248 40.951653
v -39.624393 23.563248 40.951645
v -38.987492 23.563248 40.488914
v -38.744217 23.563248 39.740192
v -40.018021 -39.665432 39.740192
v -40.018021 23.563248 39.740192
v 38.987488 -39.665432 38.991470
v 39.624390 -39.665432 38.528732
v 40.411644 -39.665432 38.528732
v 41.048538 -39.665432 38.991470
v 41.291824 -39.665432 39.740192
v 41.048538 -39.665432 40.488914
v 40.411644 -39.665432 40.951653
v 39.624390 -39.665432 40.951645
v 38.987488 -39.665432 40.488914
v 38.744217 -39.665432 39.740192
v 38.987488 23.563248 38.991470
v 39.624390 23.563248 38.528732
v 40.411644 23.563248 38.528732
v 41.048538 23.563248 38.991470
v 41.291824 23.563248 39.740192
v 41.048538 23.563248 40.488914
v 40.411644 23.563248 40.951653
v 39.624390 23.563248 40.951645
v 38.987488 23.563248 40.488914
v 38.744217 23.563248 39.740192
v 40.018021 -39.665432 39.740192
v 40.018021 23.563248 39.740192
v -38.987492 -39.665432 -38.991474
v -39.624393 -39.665432 -38.528728
v -40.411648 -39.665432 -38.528728
v -41.048550 -39.665432 -38.991474
v -41.291824 -39.665432 -39.740192
v -41.048550 -39.665432 -40.488911
v -40.411648 -39.665432 -40.951649
v -39.624393 -39.665432 -40.951649
v -38.987492 -39.665432 -40.488911
v -38.744217 -39.665432 -39.740192
v -38.987492 23.563248 -38.991474
v -39.624393 23.563248 -38.528728
v -40.411648 23.563248 -38.528728
v -41.048550 23.563248 -38.991474
v -41.291824 23.563248 -39.740192
v -41.048550 23.563248 -40.488911
v -40.411648 23.563248 -40.951649
v -39.624393 23.563248 -40.951649
v -38.987492 23.563248 -40.488911
v -38.744217 23.563248 -39.740192
v -40.018021 -39.665432 -39.740192
v -40.018021 23.563248 -39.740192
v 38.987488 -39.665432 -38.991474
v 39.624390 -39.665432 -38.528728
v 40.411644 -39.665432 -38.528728
v 41.048538 -39.665432 -38.991474
v 41.291824 -39.665432 -39.740192
v 41.048538 -39.665432 -40.488911
v 40.411644 -39.665432 -40.951649
v 39.624390 -39.665432 -40.951649
v 38.987488 -39.665432 -40.488911
v 38.744217 -39.665432 -39.740192
v 38.987488 23.563248 -38.991474
v 39.624390 23.563248 -38.528728
v 40.411644 23.563248 -38.528728
v 41.048538 23.563248 -38.991474
v 41.291824 23.563248 -39.740192
v 41.048538 23.563248 -40.488911
v 40.411644 23.563248 -40.951649
v 39.624390 23.563248 -40.951649
v 38.987488 23.563248 -40.488911
v 38.744217 23.563248 -39.740192
v 40.018021 -39.665432 -39.740192
v 40.018021 23.563248 -39.740192
v -49.502148 23.754269 49.502148
v 49.502148 23.754269 49.502148
v -49.502148 23.754269 -49.502148
v 49.502148 23.754269 -49.502148
vt 0.902786 0.602829
vt 0.908364 0.606863
vt 0.915249 0.606848
vt 0.920810 0.602789
vt 0.922921 0.596236
vt 0.920780 0.589695
vt 0.915202 0.585660
vt 0.908317 0.585675
vt 0.902756 0.589735
vt 0.900644 0.596288
vt 0.915558 0.015625
vt 0.922439 0.015811
vt 0.929321 0.015997
vt 0.936204 0.016182
vt 0.943084 0.016367
vt 0.949967 0.016553
vt 0.956849 0.016739
vt 0.963730 0.016925
vt 0.970612 0.017111
vt 0.977494 0.017296
vt 0.984375 0.017482
vt 0.900644 0.568339
vt 0.907525 0.568525
vt 0.914407 0.568711
vt 0.921290 0.568897
vt 0.928171 0.569082
vt 0.935053 0.569268
vt 0.941935 0.569454
vt 0.948816 0.569639
vt 0.955698 0.569825
vt 0.962580 0.570011
vt 0.969461 0.570196
vt 0.908364 0.606863
vt 0.915250 0.606849
vt 0.920810 0.602789
vt 0.922921 0.596237
vt 0.920779 0.589695
vt 0.915202 0.585660
vt 0.908318 0.585676
vt 0.902756 0.589736
vt 0.900645 0.596288
vt 0.902787 0.602829
vt 0.911783 0.596262
vt 0.911784 0.596262
vt 0.900642 0.568339
vt 0.907521 0.568524
vt 0.922441 0.015811
vt 0.915561 0.015625
vt 0.914403 0.568710
vt 0.929324 0.015996
vt 0.921287 0.568896
vt 0.936206 0.016182
vt 0.928166 0.569082
vt 0.943088 0.016368
vt 0.935050 0.569268
vt 0.949969 0.016554
vt 0.941932 0.569453
vt 0.956851 0.016740
vt 0.948812 0.569639
vt 0.963733 0.016925
vt 0.955695 0.569825
vt 0.970614 0.017111
vt 0.962577 0.570011
vt 0.977496 0.017296
vt 0.969457 0.570197
vt 0.984378 0.017482
vt 0.902757 0.589734
vt 0.900644 0.596287
vt 0.911783 0.596262
vt 0.908317 0.585675
vt 0.915201 0.585661
vt 0.920780 0.589694
vt 0.922922 0.596236
vt 0.920809 0.602789
vt 0.915249 0.606848
vt 0.908365 0.606863
vt 0.902786 0.602830
vt 0.902786 0.602830
vt 0.908365 0.606863
vt 0.911783 0.596262
vt 0.915249 0.606848
vt 0.920809 0.602790
vt 0.922922 0.596236
vt 0.920780 0.589694
vt 0.915201 0.585661
vt 0.908317 0.585676
vt 0.902757 0.589735
vt 0.900644 0.596288
vt 0.900642 0.568339
vt 0.907524 0.568525
vt 0.922440 0.015811
vt 0.915560 0.015625
vt 0.914406 0.568710
vt 0.929323 0.015997
vt 0.921288 0.568896
vt 0.936205 0.016183
vt 0.928169 0.569082
vt 0.943085 0.016368
vt 0.935051 0.569267
vt 0.949968 0.016554
vt 0.941933 0.569453
vt 0.956850 0.016740
vt 0.948814 0.569639
vt 0.963730 0.016926
vt 0.955696 0.569825
vt 0.970614 0.017111
vt 0.962578 0.570011
vt 0.977495 0.017296
vt 0.969460 0.570196
vt 0.984377 0.017482
vt 0.902756 0.589735
vt 0.900643 0.596288
vt 0.911784 0.596262
vt 0.908316 0.585676
vt 0.915202 0.585661
vt 0.920781 0.589694
vt 0.922923 0.596236
vt 0.920810 0.602789
vt 0.915250 0.606848
vt 0.908366 0.606863
vt 0.902785 0.602830
vt 0.902787 0.602830
vt 0.908366 0.606863
vt 0.911784 0.596262
vt 0.915250 0.606848
vt 0.920810 0.602789
vt 0.922923 0.596236
vt 0.920781 0.589694
vt 0.915202 0.585661
vt 0.908318 0.585676
vt 0.902758 0.589735
vt 0.900643 0.596288
vt 0.969461 0.570197
vt 0.984374 0.017482
vt 0.977494 0.017296
vt 0.962581 0.570011
vt 0.970613 0.017110
vt 0.955699 0.569825
vt 0.963729 0.016925
vt 0.948815 0.569639
vt 0.956849 0.016740
vt 0.941936 0.569454
vt 0.949967 0.016553
vt 0.935052 0.569268
vt 0.943084 0.016367
vt 0.928170 0.569083
vt 0.936204 0.016182
vt 0.921290 0.568897
vt 0.929320 0.015997
vt 0.914407 0.568711
vt 0.922439 0.015810
vt 0.907525 0.568525
vt 0.915559 0.015625
vt 0.900645 0.568339
vt 0.908366 0.606863
vt 0.911784 0.596262
vt 0.902787 0.602830
vt 0.915250 0.606848
vt 0.920810 0.602789
vt 0.922921 0.596237
vt 0.920779 0.589694
vt 0.915202 0.585660
vt 0.908316 0.585676
vt 0.902756 0.589735
vt 0.900645 0.596287
vt 0.900645 0.596288
vt 0.911782 0.596262
vt 0.902756 0.589734
vt 0.908316 0.585675
vt 0.915200 0.585661
vt 0.920779 0.589694
vt 0.922921 0.596236
vt 0.920810 0.602790
vt 0.915250 0.606849
vt 0.908364 0.606863
vt 0.902787 0.602830
vt 0.015625 0.015625
vt 0.881380 0.015625
vt 0.881380 0.881380
vt 0.015625 0.881380
vn 0.809018 0.000000 -0.587784
vn 0.309018 0.000000 -0.951056
vn 0.309018 0.000000 -0.951056
vn 0.809018 0.000000 -0.587784
vn -0.309018 0.000000 -0.951056
vn -0.309018 0.000000 -0.951056
vn -0.809018 0.000000 -0.587784
vn -0.809018 0.000000 -0.587784
vn -1.000000 0.000000 -0.000000
vn -1.000000 0.000000 -0.000000
vn -0.809017 0.000000 0.587786
vn -0.809017 0.000000 0.587786
vn -0.309013 0.000000 0.951058
vn -0.309013 0.000000 0.951058
vn 0.309018 0.000000 0.951056
vn 0.309018 0.000000 0.951056
vn 0.809015 0.000000 0.587788
vn 0.809015 0.000000 0.587788
vn 1.000000 0.000000 -0.000000
vn 1.000000 0.000000 -0.000000
vn 0.000000 -1.000000 0.000002
vn 0.000000 -1.000000 -0.000002
vn 0.000000 -1.000000 0.000000
vn 0.000000 -1.000000 0.000004
vn 0.000000 -1.000000 0.000000
vn 0.000000 -1.000000 0.000000
vn 0.000000 -1.000000 0.000002
vn 0.000000 -1.000000 -0.000002
vn 0.000000 -1.000000 -0.000004
vn 0.000000 -1.000000 0.000000
vn 0.000000 -1.000000 0.000000
vn 0.000000 1.000000 0.000000
vn 0.000000 1.000000 0.000000
vn 0.000000 1.000000 0.000000
vn 0.000000 1.000000 0.000000
vn 0.000000 1.000000 0.000000
vn 0.000000 1.000000 0.000000
vn 0.000000 1.000000 0.000000
vn 0.000000 1.000000 0.000000
vn 0.000000 1.000000 0.000000
vn 0.000000 1.000000 0.000000
vn 0.000000 1.000000 0.000000
vn -0.809019 0.000000 -0.587783
vn -0.809019 0.000000 -0.587783
vn -0.309018 0.000000 -0.951056
vn -0.309018 0.000000 -0.951056
vn 0.309019 0.000000 -0.951056
vn 0.309019 0.000000 -0.951056
vn 0.809016 0.000000 -0.587786
vn 0.809016 0.000000 -0.587786
vn 1.000000 0.000000 0.000000
vn 1.000000 0.000000 0.000000
vn 0.809015 0.000000 0.587787
vn 0.809015 0.000000 0.587787
vn 0.309015 0.000000 0.951057
vn 0.309015 0.000000 0.951057
vn -0.309018 0.000000 0.951056
vn -0.309018 0.000000 0.951056
vn -0.809016 0.000000 0.587786
vn -0.809016 0.000000 0.587786
vn -1.000000 0.000000 0.000000
vn -1.000000 0.000000 0.000000
vn 0.000000 -1.000000 0.000000
vn 0.000000 -1.000000 0.000000
vn 0.000000 -1.000000 0.000000
vn 0.000000 -1.000000 0.000000
vn 0.000000 -1.000000 -0.000002
vn 0.000000 -1.000000 0.000000
vn 0.000000 -1.000000 0.000002
vn 0.000000 -1.000000 0.000000
vn 0.000000 -1.000000 0.000000
vn 0.000000 -1.000000 0.000000
vn 0.000000 -1.000000 0.000000
vn 0.000000 1.000000 0.000000
vn 0.000000 1.000000 0.000000
vn 0.000000 1.000000 -0.000001
vn 0.000000 1.000000 -0.000002
vn 0.000000 1.000000 0.000000
vn 0.000000 1.000000 0.000000
vn 0.000000 1.000000 -0.000000
vn 0.000000 1.000000 0.000002
vn 0.000000 1.000000 0.000001
vn 0.000000 1.000000 -0.000000
vn 0.000000 1.000000 0.000000
vn 0.809019 0.000000 0.587783
vn 0.809019 0.000000 0.587783
vn 0.309023 0.000000 0.951055
vn 0.309023 0.000000 0.951055
vn -0.309023 0.000000 0.951055
vn -0.309023 0.000000 0.951055
vn -0.809019 0.000000 0.587783
vn -0.809019 0.000000 0.587783
vn -1.000000 0.000000 -0.000000
vn -1.000000 0.000000 -0.000000
vn -0.809016 0.000000 -0.587787
vn -0.809016 0.000000 -0.587787
vn -0.309018 0.000000 -0.951056
vn -0.309018 0.000000 -0.951056
vn 0.309018 0.000000 -0.951056
vn 0.309018 0.000000 -0.951056
vn 0.809016 0.000000 -0.587787
vn 0.809016 0.000000 -0.587787
vn 1.000000 0.000000 -0.000000
vn 1.000000 0.000000 -0.000000
vn 0.000000 -1.000000 -0.000002
vn 0.000000 -1.000000 -0.000000
vn 0.000000 -1.000000 -0.000000
vn 0.000000 -1.000000 -0.000002
vn 0.000000 -1.000000 -0.000000
vn 0.000000 -1.000000 0.000000
vn 0.000000 -1.000000 -0.000000
vn 0.000000 -1.000000 0.000002
vn 0.000000 -1.000000 0.000002
vn 0.000000 -1.000000 -0.000000
vn 0.000000 -1.000000 0.000000
vn 0.000000 1.000000 0.000000
vn 0.000000 1.000000 0.000000
vn 0.000000 1.000000 0.000000
vn 0.000000 1.000000 0.000000
vn 0.000000 1.000000 0.000000
vn 0.000000 1.000000 0.000000
vn 0.000000 1.000000 0.000000
vn 0.000000 1.000000 0.000000
vn 0.000000 1.000000 0.000000
vn 0.000000 1.000000 0.000000
vn 0.000000 1.000000 0.000000
vn -0.809020 0.000000 0.587782
vn -0.309023 0.000000 0.951055
vn -0.309023 0.000000 0.951055
vn -0.809020 0.000000 0.587782
vn 0.309024 0.000000 0.951054
vn 0.309024 0.000000 0.951054
vn 0.809017 0.000000 0.587785
vn 0.809017 0.000000 0.587785
vn 1.000000 0.000000 0.000000
vn 1.000000 0.000000 0.000000
vn 0.809015 0.000000 -0.587789
vn 0.809015 0.000000 -0.587789
vn 0.309019 0.000000 -0.951056
vn 0.309019 0.000000 -0.951056
vn -0.309018 0.000000 -0.951056
vn -0.309018 0.000000 -0.951056
vn -0.809017 0.000000 -0.587785
vn -0.809017 0.000000 -0.587785
vn -1.000000 0.000000 0.000000
vn -1.000000 0.000000 0.000000
vn 0.000000 -1.000000 -0.000001
vn 0.000000 -1.000000 0.000000
vn 0.000000 -1.000000 0.000001
vn 0.000000 -1.000000 -0.000001
vn 0.000000 -1.000000 0.000004
vn 0.000000 -1.000000 0.000004
vn 0.000000 -1.000000 0.000001
vn 0.000000 -1.000000 0.000002
vn 0.000000 -1.000000 0.000001
vn 0.000000 -1.000000 0.000000
vn 0.000000 -1.000000 0.000000
vn 0.000000 1.000000 0.000000
vn 0.000000 1.000000 0.000001
vn 0.000000 1.000000 0.000000
vn 0.000000 1.000000 0.000001
vn 0.000000 1.000000 0.000000
vn 0.000000 1.000000 0.000000
vn 0.000000 1.000000 0.000000
vn 0.000000 1.000000 -0.000001
vn 0.000000 1.000000 0.000000
vn 0.000000 1.000000 0.000001
vn 0.000000 1.000000 0.000000
vn 0.000000 1.000000 0.000000
vn 0.000000 1.000000 0.000000
vn 0.000000 1.000000 0.000000
vn 0.000000 1.000000 0.000000
s 1
g pCylinder15
usemtl lambert8SG
f 1/11/1 2/12/2 12/23/3 11/22/4
f 2/12/2 3/13/5 13/24/6 12/23/3
f 3/13/5 4/14/7 14/25/8 13/24/6
f 4/14/7 5/15/9 15/26/10 14/25/8
f 5/15/9 6/16/11 16/27/12 15/26/10
f 6/16/11 7/17/13 17/28/14 16/27/12
f 7/17/13 8/18/15 18/29/16 17/28/14
f 8/18/15 9/19/17 19/30/18 18/29/16
f 9/19/17 10/20/19 20/31/20 19/30/18
f 10/20/19 1/21/1 11/32/4 20/31/20
s 2
f 2/2/21 1/1/22 21/43/23
f 3/3/24 2/2/21 21/43/23
f 4/4/25 3/3/24 21/43/23
f 5/5/26 4/4/25 21/43/23
f 6/6/27 5/5/26 21/43/23
f 7/7/28 6/6/27 21/43/23
f 8/8/29 7/7/28 21/43/23
f 9/9/30 8/8/29 21/43/23
f 10/10/31 9/9/30 21/43/23
f 1/1/22 10/10/31 21/43/23
s 3
f 11/41/32 12/40/33 22/44/34
f 12/40/33 13/39/35 22/44/34
f 13/39/35 14/38/36 22/44/34
f 14/38/36 15/37/37 22/44/34
f 15/37/37 16/36/38 22/44/34
f 16/36/38 17/35/39 22/44/34
f 17/35/39 18/34/40 22/44/34
f 18/34/40 19/33/41 22/44/34
f 19/33/41 20/42/42 22/44/34
f 20/42/42 11/41/32 22/44/34
s 4
f 23/45/43 33/48/44 34/47/45 24/46/46
f 24/46/46 34/47/45 35/50/47 25/49/48
f 25/49/48 35/50/47 36/52/49 26/51/50
f 26/51/50 36/52/49 37/54/51 27/53/52
f 27/53/52 37/54/51 38/56/53 28/55/54
f 28/55/54 38/56/53 39/58/55 29/57/56
f 29/57/56 39/58/55 40/60/57 30/59/58
f 30/59/58 40/60/57 41/62/59 31/61/60
f 31/61/60 41/62/59 42/64/61 32/63/62
f 32/63/62 42/64/61 33/66/44 23/65/43
s 5
f 24/67/63 43/69/64 23/68/65
f 25/70/66 43/69/64 24/67/63
f 26/71/67 43/69/64 25/70/66
f 27/72/68 43/69/64 26/71/67
f 28/73/69 43/69/64 27/72/68
f 29/74/70 43/69/64 28/73/69
f 30/75/71 43/69/64 29/74/70
f 31/76/72 43/69/64 30/75/71
f 32/77/73 43/69/64 31/76/72
f 23/68/65 43/69/64 32/77/73
s 6
f 33/78/74 44/80/75 34/79/76
f 34/79/76 44/80/75 35/81/77
f 35/81/77 44/80/75 36/82/78
f 36/82/78 44/80/75 37/83/79
f 37/83/79 44/80/75 38/84/80
f 38/84/80 44/80/75 39/85/81
f 39/85/81 44/80/75 40/86/82
f 40/86/82 44/80/75 41/87/83
f 41/87/83 44/80/75 42/88/84
f 42/88/84 44/80/75 33/78/74
s 7
f 45/89/85 55/92/86 56/91/87 46/90/88
f 46/90/88 56/91/87 57/94/89 47/93/90
f 47/93/90 57/94/89 58/96/91 48/95/92
f 48/95/92 58/96/91 59/98/93 49/97/94
f 49/97/94 59/98/93 60/100/95 50/99/96
f 50/99/96 60/100/95 61/102/97 51/101/98
f 51/101/98 61/102/97 62/104/99 52/103/100
f 52/103/100 62/104/99 63/106/101 53/105/102
f 53/105/102 63/106/101 64/108/103 54/107/104
f 54/107/104 64/108/103 55/110/86 45/109/85
s 8
f 46/111/105 65/113/106 45/112/107
f 47/114/108 65/113/106 46/111/105
f 48/115/109 65/113/106 47/114/108
f 49/116/110 65/113/106 48/115/109
f 50/117/111 65/113/106 49/116/110
f 51/118/112 65/113/106 50/117/111
f 52/119/113 65/113/106 51/118/112
f 53/120/114 65/113/106 52/119/113
f 54/121/115 65/113/106 53/120/114
f 45/112/107 65/113/106 54/121/115
s 9
f 55/122/116 66/124/117 56/123/118
f 56/123/118 66/124/117 57/125/119
f 57/125/119 66/124/117 58/126/120
f 58/126/120 66/124/117 59/127/121
f 59/127/121 66/124/117 60/128/122
f 60/128/122 66/124/117 61/129/123
f 61/129/123 66/124/117 62/130/124
f 62/130/124 66/124/117 63/131/125
f 63/131/125 66/124/117 64/132/126
f 64/132/126 66/124/117 55/122/116
s 10
f 67/133/127 68/136/128 78/135/129 77/134/130
f 68/136/128 69/138/131 79/137/132 78/135/129
f 69/138/131 70/140/133 80/139/134 79/137/132
f 70/140/133 71/142/135 81/141/136 80/139/134
f 71/142/135 72/144/137 82/143/138 81/141/136
f 72/144/137 73/146/139 83/145/140 82/143/138
f 73/146/139 74/148/141 84/147/142 83/145/140
f 74/148/141 75/150/143 85/149/144 84/147/142
f 75/150/143 76/152/145 86/151/146 85/149/144
f 76/152/145 67/154/127 77/153/130 86/151/146
s 11
f 68/155/147 67/157/148 87/156/149
f 69/158/150 68/155/147 87/156/149
f 70/159/151 69/158/150 87/156/149
f 71/160/152 70/159/151 87/156/149
f 72/161/153 71/160/152 87/156/149
f 73/162/154 72/161/153 87/156/149
f 74/163/155 73/162/154 87/156/149
f 75/164/156 74/163/155 87/156/149
f 76/165/157 75/164/156 87/156/149
f 67/157/148 76/165/157 87/156/149
s 12
f 77/166/158 78/168/159 88/167/160
f 78/168/159 79/169/161 88/167/160
f 79/169/161 80/170/162 88/167/160
f 80/170/162 81/171/163 88/167/160
f 81/171/163 82/172/164 88/167/160
f 82/172/164 83/173/165 88/167/160
f 83/173/165 84/174/166 88/167/160
f 84/174/166 85/175/167 88/167/160
f 85/175/167 86/176/168 88/167/160
f 86/176/168 77/166/158 88/167/160
s off
f 89/177/169 90/178/170 92/179/171 91/180/172
