# This file uses centimeters as units for non-parametric coordinates.

mtllib WindGenerator_Base2.mtl
g default
v -0.000000 5.569004 5.912698
v 0.000000 5.499084 5.915584
v 0.272176 5.498619 5.852695
v 0.202572 5.568212 5.859545
v 0.000000 6.539217 5.895575
v -0.000000 6.609171 5.897361
v -0.271544 6.609890 5.834631
v -0.201860 6.540139 5.842615
v -0.202572 5.568212 5.859545
v -0.272177 5.498619 5.852695
v 0.201860 6.540139 5.842615
v 0.271544 6.609890 5.834631
v 0.195640 5.566024 5.820336
v 0.000000 5.565298 5.874051
v 0.265244 5.496431 5.813487
v 0.000000 5.495378 5.876937
v -0.194922 6.541350 5.803380
v -0.000000 6.542308 5.856876
v -0.264607 6.611101 5.795397
v -0.000000 6.612263 5.858663
v -0.195640 5.566024 5.820336
v -0.265244 5.496431 5.813486
v 0.194923 6.541350 5.803380
v 0.264607 6.611101 5.795397
v 5.663785 0.000000 -1.840275
v 4.817904 0.000000 -3.500412
v 3.500412 0.000000 -4.817903
v 1.840275 0.000000 -5.663785
v 0.000000 0.000000 -5.955255
v -1.840275 0.000000 -5.663784
v -3.500411 0.000000 -4.817902
v -4.817902 0.000000 -3.500410
v -5.663783 0.000000 -1.840275
v -5.955254 0.000000 0.000000
v -5.663783 0.000000 1.840275
v -4.817901 0.000000 3.500410
v -3.500410 0.000000 4.817901
v -1.840275 0.000000 5.663782
v 0.000000 0.000000 5.955253
v 1.840274 0.000000 5.663782
v 3.500409 0.000000 4.817901
v 4.817900 0.000000 3.500410
v 5.663782 0.000000 1.840274
v 5.955252 0.000000 0.000000
v 3.666280 192.056000 -1.191247
v 3.118724 190.209015 -2.265886
v 2.265886 189.872406 -3.118725
v 1.191246 189.528885 -3.666280
v 0.000000 188.899567 -3.854955
v -1.191247 189.528885 -3.666280
v -2.265886 189.872406 -3.118724
v -3.118724 190.209015 -2.265886
v -3.666279 192.056000 -1.191247
v -3.854954 192.056000 0.000000
v -3.666279 192.056000 1.191246
v -3.118723 190.209015 2.265884
v -2.265885 189.872406 3.118723
v -1.191247 189.528885 3.666278
v 0.000000 188.899567 3.854953
v 1.191246 189.528885 3.666278
v 2.265884 189.872406 3.118722
v 3.118722 190.209015 2.265884
v 3.666278 192.056000 1.191246
v 3.854952 192.056000 0.000000
v 0.000000 0.000000 0.000000
v 0.000000 188.899567 0.000000
v 4.761356 6.330103 -3.459327
v 5.597948 6.330102 -1.818883
v 3.459255 6.330103 -4.761254
v 1.818598 6.330103 -5.597070
v 0.000000 6.330103 -5.884873
v -1.818598 6.330103 -5.597069
v -3.459254 6.330103 -4.761253
v -4.761354 6.330103 -3.459326
v -5.597946 6.330103 -1.818883
v -5.886029 6.330103 0.000000
v -5.597946 6.330103 1.818883
v -4.761353 6.330103 3.459325
v -3.459253 6.330103 4.761253
v -1.821314 5.537154 5.605424
v 0.000000 5.537153 5.893688
v 1.821313 5.537154 5.605424
v 3.459251 6.330103 4.761253
v 4.761352 6.330103 3.459325
v 5.597945 6.330103 1.818882
v 5.886027 6.330103 0.000000
v -1.815883 7.123053 5.588710
v 0.000000 6.570762 5.876055
v 1.815882 7.123053 5.588710
v 0.000000 7.781402 5.868735
v 0.000000 4.997275 5.899691
v 0.228800 5.537154 5.836035
v -0.228800 5.537154 5.836035
v -0.228118 6.570762 5.818586
v 0.228118 6.570762 5.818586
vt 1.000000 1.000000
vt 0.000000 1.000000
vt 1.000000 1.000000
vt 0.000000 1.000000
vt 1.000000 1.000000
vt 0.000000 1.000000
vt 1.000000 1.000000
vt 0.000000 1.000000
vt 1.000000 1.000000
vt 0.000000 1.000000
vt 1.000000 1.000000
vt 0.000000 1.000000
vt 1.000000 1.000000
vt 0.000000 1.000000
vt 1.000000 1.000000
vt 0.000000 1.000000
vt 1.000000 1.000000
vt 0.000000 1.000000
vt 1.000000 1.000000
vt 0.000000 1.000000
vt 1.000000 1.000000
vt 0.000000 1.000000
vt 1.000000 1.000000
vt 0.000000 1.000000
vt 0.000000 1.000000
vt 1.000000 1.000000
vt 0.000000 1.000000
vt 1.000000 1.000000
vt 0.000000 1.000000
vt 1.000000 1.000000
vt 0.000000 1.000000
vt 1.000000 1.000000
vt 0.000000 1.000000
vt 1.000000 1.000000
vt 0.000000 1.000000
vt 1.000000 1.000000
vt 0.000000 1.000000
vt 1.000000 1.000000
vt 0.000000 1.000000
vt 1.000000 1.000000
vt 0.000000 1.000000
vt 1.000000 1.000000
vt 0.000000 1.000000
vt 1.000000 1.000000
vt 0.000000 1.000000
vt 1.000000 1.000000
vt 0.000000 1.000000
vt 1.000000 1.000000
vt 0.893933 0.954290
vt 0.887544 0.954295
vt 0.887551 0.888714
vt 0.893939 0.888694
vt 0.881221 0.954298
vt 0.881222 0.888711
vt 0.874895 0.954301
vt 0.874900 0.888736
vt 0.868545 0.954303
vt 0.868544 0.888694
vt 0.862292 0.954303
vt 0.862281 0.888714
vt 0.856020 0.954303
vt 0.855927 0.888737
vt 0.982230 0.954234
vt 0.975899 0.954235
vt 0.975887 0.888654
vt 0.982321 0.888625
vt 0.969461 0.954236
vt 0.969449 0.888640
vt 0.963156 0.954236
vt 0.963153 0.888651
vt 0.956851 0.954236
vt 0.956856 0.888643
vt 0.950629 0.954238
vt 0.950637 0.888661
vt 0.944335 0.954243
vt 0.944338 0.888683
vt 0.938038 0.954248
vt 0.938038 0.896311
vt 0.931743 0.901964
vt 0.933002 0.896315
vt 0.930480 0.896316
vt 0.931743 0.896316
vt 0.925430 0.954258
vt 0.919123 0.954265
vt 0.919120 0.888704
vt 0.925430 0.896320
vt 0.912820 0.954271
vt 0.912812 0.888692
vt 0.906545 0.954278
vt 0.906540 0.888683
vt 0.900239 0.954285
vt 0.900239 0.888670
vt 0.289160 0.065804
vt 0.295988 0.062325
vt 0.303556 0.085618
vt 0.283742 0.071222
vt 0.280264 0.078049
vt 0.279065 0.085618
vt 0.280264 0.093186
vt 0.283742 0.100013
vt 0.289160 0.105431
vt 0.295988 0.108910
vt 0.303556 0.110108
vt 0.311124 0.108910
vt 0.317951 0.105431
vt 0.323369 0.100013
vt 0.326848 0.093186
vt 0.328046 0.085618
vt 0.326848 0.078049
vt 0.323369 0.071222
vt 0.317951 0.065804
vt 0.311124 0.062325
vt 0.303556 0.061127
vt 0.576759 0.117267
vt 0.571723 0.114701
vt 0.582341 0.100087
vt 0.567727 0.110705
vt 0.565161 0.105669
vt 0.564277 0.100087
vt 0.565161 0.094505
vt 0.567727 0.089469
vt 0.571723 0.085472
vt 0.576759 0.082907
vt 0.582341 0.082022
vt 0.587924 0.082907
vt 0.592959 0.085472
vt 0.596956 0.089469
vt 0.599522 0.094505
vt 0.600406 0.100087
vt 0.599522 0.105669
vt 0.596956 0.110705
vt 0.592959 0.114701
vt 0.587924 0.117267
vt 0.582341 0.118151
vt 0.938038 0.882577
vt 0.925430 0.882586
vt 0.887544 0.171910
vt 0.893933 0.164312
vt 0.881221 0.173296
vt 0.874895 0.174711
vt 0.868545 0.177302
vt 0.862292 0.174716
vt 0.856020 0.173304
vt 0.975899 0.171884
vt 0.982230 0.173268
vt 0.969461 0.164290
vt 0.963156 0.164293
vt 0.956851 0.164295
vt 0.950629 0.171893
vt 0.944335 0.173280
vt 0.938038 0.174694
vt 0.931743 0.880027
vt 0.933002 0.882581
vt 0.931743 0.882582
vt 0.930480 0.882583
vt 0.919123 0.173287
vt 0.925430 0.174698
vt 0.912820 0.171904
vt 0.906545 0.164310
vt 0.900239 0.164311
vt 0.931743 0.177284
vt 0.931743 0.954253
vn -0.000002 0.093251 0.995643
vn -0.000002 0.093251 0.995643
vn 0.130948 0.030848 0.990909
vn 0.130911 0.030827 0.990915
vn 0.000000 -0.077442 0.996997
vn 0.000000 -0.077442 0.996997
vn -0.130939 -0.000641 0.991390
vn -0.130942 -0.000644 0.991390
vn -0.130912 0.030827 0.990915
vn -0.130949 0.030847 0.990909
vn 0.130942 -0.000644 0.991390
vn 0.130939 -0.000641 0.991390
vn 0.000001 -0.097761 -0.995210
vn -0.131839 -0.031235 -0.990779
vn -0.132134 -0.031400 -0.990734
vn 0.000001 -0.097761 -0.995210
vn -0.000000 0.081919 -0.996639
vn 0.131861 0.001006 -0.991268
vn 0.132161 0.001212 -0.991228
vn -0.000000 0.081919 -0.996639
vn 0.131846 -0.031234 -0.990778
vn 0.132142 -0.031399 -0.990734
vn -0.131854 0.001006 -0.991269
vn -0.132154 0.001212 -0.991229
vn -0.000000 0.997277 -0.073749
vn -0.019623 0.997085 -0.073732
vn -0.019623 0.997085 -0.073732
vn -0.000000 0.997277 -0.073749
vn -0.000000 -0.998550 -0.053836
vn 0.014535 -0.998444 -0.053834
vn 0.014535 -0.998444 -0.053834
vn -0.000000 -0.998550 -0.053836
vn 0.019623 0.997085 -0.073738
vn 0.019623 0.997085 -0.073738
vn -0.014535 -0.998444 -0.053827
vn -0.014535 -0.998445 -0.053827
vn -0.984728 0.002307 0.174082
vn -0.984728 0.002307 0.174082
vn -0.984728 0.002307 0.174082
vn -0.984728 0.002307 0.174082
vn 0.984728 0.002307 0.174084
vn 0.984728 0.002307 0.174084
vn 0.984728 0.002307 0.174084
vn 0.984728 0.002307 0.174084
vn -0.000000 -0.997270 0.073840
vn -0.000000 -0.997270 0.073840
vn 0.018450 -0.997100 0.073828
vn 0.018450 -0.997100 0.073828
vn -0.000000 0.998545 0.053924
vn -0.000000 0.998545 0.053924
vn -0.013500 0.998454 0.053919
vn -0.013500 0.998454 0.053919
vn -0.018450 -0.997100 0.073828
vn -0.018450 -0.997100 0.073828
vn 0.013500 0.998454 0.053919
vn 0.013500 0.998454 0.053919
vn 0.984728 -0.002266 -0.174086
vn 0.984728 -0.002266 -0.174086
vn 0.984728 -0.002266 -0.174086
vn 0.984728 -0.002266 -0.174086
vn -0.984728 -0.002266 -0.174086
vn -0.984728 -0.002266 -0.174086
vn -0.984728 -0.002266 -0.174086
vn -0.984728 -0.002266 -0.174086
vn 0.878287 -0.383572 -0.285456
vn 0.747093 -0.383532 -0.542913
vn 0.806955 0.011015 -0.590510
vn 0.950107 0.010967 -0.311732
vn 0.747093 -0.383532 -0.542913
vn 0.542816 -0.383511 -0.747174
vn 0.586884 0.011061 -0.809595
vn 0.806955 0.011015 -0.590510
vn 0.542816 -0.383511 -0.747174
vn 0.285349 -0.383498 -0.878354
vn 0.307541 0.011086 -0.951470
vn 0.586884 0.011061 -0.809595
vn 0.285349 -0.383498 -0.878354
vn 0.000000 -0.383487 -0.923546
vn 0.000000 0.011095 -0.999938
vn 0.307541 0.011086 -0.951470
vn 0.000000 -0.383487 -0.923546
vn -0.285349 -0.383498 -0.878354
vn -0.307541 0.011086 -0.951470
vn 0.000000 0.011095 -0.999938
vn -0.285349 -0.383498 -0.878354
vn -0.542817 -0.383511 -0.747174
vn -0.586885 0.011061 -0.809595
vn -0.307541 0.011086 -0.951470
vn -0.542817 -0.383511 -0.747174
vn -0.747093 -0.383532 -0.542913
vn -0.806955 0.011015 -0.590510
vn -0.586885 0.011061 -0.809595
vn -0.747093 -0.383532 -0.542913
vn -0.878286 -0.383572 -0.285457
vn -0.950106 0.010967 -0.311733
vn -0.806955 0.011015 -0.590510
vn -0.878286 -0.383572 -0.285457
vn -0.923506 -0.383584 0.000000
vn -0.999940 0.010935 0.000000
vn -0.950106 0.010967 -0.311733
vn -0.923506 -0.383584 0.000000
vn -0.878286 -0.383572 0.285458
vn -0.950106 0.010967 0.311734
vn -0.999940 0.010935 0.000000
vn -0.878286 -0.383572 0.285458
vn -0.747093 -0.383532 0.542913
vn -0.806955 0.011015 0.590510
vn -0.950106 0.010967 0.311734
vn -0.747093 -0.383532 0.542913
vn -0.543938 -0.394219 0.740758
vn -0.605910 0.011056 0.795456
vn -0.806955 0.011015 0.590510
vn -0.543938 -0.394219 0.740758
vn -0.287641 -0.425691 0.857934
vn -0.336005 0.011416 0.941791
vn -0.605910 0.011056 0.795456
vn -0.336005 0.011416 0.941791
vn 0.000000 0.012031 0.999928
vn -0.143283 0.021873 0.989440
vn 0.000000 0.012031 0.999928
vn 0.143284 0.021873 0.989440
vn 0.000000 0.011118 0.999938
vn 0.287641 -0.425691 0.857934
vn 0.543938 -0.394219 0.740758
vn 0.605910 0.011056 0.795456
vn 0.336005 0.011416 0.941791
vn 0.543938 -0.394219 0.740758
vn 0.747093 -0.383532 0.542913
vn 0.806955 0.011015 0.590510
vn 0.605910 0.011056 0.795456
vn 0.747093 -0.383532 0.542913
vn 0.878286 -0.383572 0.285457
vn 0.950106 0.010967 0.311733
vn 0.806955 0.011015 0.590510
vn 0.878286 -0.383572 0.285457
vn 0.923506 -0.383584 0.000001
vn 0.999940 0.010935 0.000001
vn 0.950106 0.010967 0.311733
vn 0.923506 -0.383584 0.000001
vn 0.878287 -0.383572 -0.285456
vn 0.950107 0.010967 -0.311732
vn 0.999940 0.010935 0.000001
vn 0.747093 -0.383532 -0.542913
vn 0.878287 -0.383572 -0.285456
vn 0.000000 -1.000000 0.000000
vn 0.542816 -0.383511 -0.747174
vn 0.747093 -0.383532 -0.542913
vn 0.000000 -1.000000 0.000000
vn 0.285349 -0.383498 -0.878354
vn 0.542816 -0.383511 -0.747174
vn 0.000000 -1.000000 0.000000
vn 0.000000 -0.383487 -0.923546
vn 0.285349 -0.383498 -0.878354
vn 0.000000 -1.000000 0.000000
vn -0.285349 -0.383498 -0.878354
vn 0.000000 -0.383487 -0.923546
vn 0.000000 -1.000000 0.000000
vn -0.542817 -0.383511 -0.747174
vn -0.285349 -0.383498 -0.878354
vn 0.000000 -1.000000 0.000000
vn -0.747093 -0.383532 -0.542913
vn -0.542817 -0.383511 -0.747174
vn 0.000000 -1.000000 0.000000
vn -0.878286 -0.383572 -0.285457
vn -0.747093 -0.383532 -0.542913
vn 0.000000 -1.000000 0.000000
vn -0.923506 -0.383584 0.000000
vn -0.878286 -0.383572 -0.285457
vn 0.000000 -1.000000 0.000000
vn -0.878286 -0.383572 0.285458
vn -0.923506 -0.383584 0.000000
vn 0.000000 -1.000000 0.000000
vn -0.747093 -0.383532 0.542913
vn -0.878286 -0.383572 0.285458
vn 0.000000 -1.000000 0.000000
vn -0.543938 -0.394219 0.740758
vn -0.747093 -0.383532 0.542913
vn 0.000000 -1.000000 0.000000
vn -0.287641 -0.425691 0.857934
vn -0.543938 -0.394219 0.740758
vn 0.000000 -1.000000 0.000000
vn 0.000000 -0.447749 0.894159
vn -0.287641 -0.425691 0.857934
vn 0.000000 -1.000000 0.000000
vn 0.287641 -0.425691 0.857934
vn 0.000000 -0.447749 0.894159
vn 0.000000 -1.000000 0.000000
vn 0.543938 -0.394219 0.740758
vn 0.287641 -0.425691 0.857934
vn 0.000000 -1.000000 0.000000
vn 0.747093 -0.383532 0.542913
vn 0.543938 -0.394219 0.740758
vn 0.000000 -1.000000 0.000000
vn 0.878286 -0.383572 0.285457
vn 0.747093 -0.383532 0.542913
vn 0.000000 -1.000000 0.000000
vn 0.923506 -0.383584 0.000001
vn 0.878286 -0.383572 0.285457
vn 0.000000 -1.000000 0.000000
vn 0.878287 -0.383572 -0.285456
vn 0.923506 -0.383584 0.000001
vn 0.000000 -1.000000 0.000000
vn 0.969201 0.020155 -0.245445
vn 0.832101 0.017655 -0.554344
vn 0.000000 1.000000 0.000001
vn 0.832101 0.017655 -0.554344
vn 0.607312 0.018621 -0.794245
vn 0.000000 1.000000 0.000001
vn 0.607312 0.018621 -0.794245
vn 0.343131 0.019087 -0.939094
vn 0.000000 1.000000 0.000001
vn 0.343131 0.019087 -0.939094
vn 0.000000 0.016908 -0.999857
vn 0.000000 1.000000 0.000001
vn 0.000000 0.016908 -0.999857
vn -0.343132 0.019087 -0.939093
vn 0.000000 1.000000 0.000001
vn -0.343132 0.019087 -0.939093
vn -0.607312 0.018621 -0.794245
vn 0.000000 1.000000 0.000001
vn -0.607312 0.018621 -0.794245
vn -0.832100 0.017655 -0.554344
vn 0.000000 1.000000 0.000001
vn -0.832100 0.017655 -0.554344
vn -0.969201 0.020155 -0.245446
vn 0.000000 1.000000 0.000001
vn -0.969201 0.020155 -0.245446
vn -0.999827 0.018620 0.000000
vn 0.000000 1.000000 0.000001
vn -0.999827 0.018620 0.000000
vn -0.969201 0.020155 0.245446
vn 0.000000 1.000000 0.000001
vn -0.969201 0.020155 0.245446
vn -0.832100 0.017655 0.554344
vn 0.000000 1.000000 0.000001
vn -0.832100 0.017655 0.554344
vn -0.607469 0.018629 0.794125
vn 0.000000 1.000000 0.000001
vn -0.607469 0.018629 0.794125
vn -0.343446 0.019122 0.938978
vn 0.000000 1.000000 0.000001
vn -0.343446 0.019122 0.938978
vn 0.000000 0.016951 0.999856
vn 0.000000 1.000000 0.000001
vn 0.000000 0.016951 0.999856
vn 0.343446 0.019122 0.938978
vn 0.000000 1.000000 0.000001
vn 0.343446 0.019122 0.938978
vn 0.607469 0.018629 0.794125
vn 0.000000 1.000000 0.000001
vn 0.607469 0.018629 0.794125
vn 0.832100 0.017655 0.554344
vn 0.000000 1.000000 0.000001
vn 0.832100 0.017655 0.554344
vn 0.969201 0.020155 0.245446
vn 0.000000 1.000000 0.000001
vn 0.969201 0.020155 0.245446
vn 0.999827 0.018620 0.000001
vn 0.000000 1.000000 0.000001
vn 0.999827 0.018620 0.000001
vn 0.969201 0.020155 -0.245445
vn 0.000000 1.000000 0.000001
vn -0.605910 0.011056 0.795456
vn -0.336005 0.011416 0.941791
vn -0.342537 0.011063 0.939439
vn 0.336005 0.011416 0.941791
vn 0.605910 0.011056 0.795456
vn 0.342538 0.011063 0.939439
vn 0.950107 0.010967 -0.311732
vn 0.806955 0.011015 -0.590510
vn 0.832101 0.017655 -0.554344
vn 0.969201 0.020155 -0.245445
vn 0.806955 0.011015 -0.590510
vn 0.586884 0.011061 -0.809595
vn 0.607312 0.018621 -0.794245
vn 0.832101 0.017655 -0.554344
vn 0.586884 0.011061 -0.809595
vn 0.307541 0.011086 -0.951470
vn 0.343131 0.019087 -0.939094
vn 0.607312 0.018621 -0.794245
vn 0.307541 0.011086 -0.951470
vn 0.000000 0.011095 -0.999938
vn 0.000000 0.016908 -0.999857
vn 0.343131 0.019087 -0.939094
vn 0.000000 0.011095 -0.999938
vn -0.307541 0.011086 -0.951470
vn -0.343132 0.019087 -0.939093
vn 0.000000 0.016908 -0.999857
vn -0.307541 0.011086 -0.951470
vn -0.586885 0.011061 -0.809595
vn -0.607312 0.018621 -0.794245
vn -0.343132 0.019087 -0.939093
vn -0.586885 0.011061 -0.809595
vn -0.806955 0.011015 -0.590510
vn -0.832100 0.017655 -0.554344
vn -0.607312 0.018621 -0.794245
vn -0.806955 0.011015 -0.590510
vn -0.950106 0.010967 -0.311733
vn -0.969201 0.020155 -0.245446
vn -0.832100 0.017655 -0.554344
vn -0.950106 0.010967 -0.311733
vn -0.999940 0.010935 0.000000
vn -0.999827 0.018620 0.000000
vn -0.969201 0.020155 -0.245446
vn -0.999940 0.010935 0.000000
vn -0.950106 0.010967 0.311734
vn -0.969201 0.020155 0.245446
vn -0.999827 0.018620 0.000000
vn -0.950106 0.010967 0.311734
vn -0.806955 0.011015 0.590510
vn -0.832100 0.017655 0.554344
vn -0.969201 0.020155 0.245446
vn -0.806955 0.011015 0.590510
vn -0.605910 0.011056 0.795456
vn -0.607469 0.018629 0.794125
vn -0.832100 0.017655 0.554344
vn -0.605910 0.011056 0.795456
vn -0.342537 0.011063 0.939439
vn -0.343446 0.019122 0.938978
vn -0.607469 0.018629 0.794125
vn 0.000000 0.011046 0.999939
vn -0.146389 0.006120 0.989208
vn 0.000000 0.006046 0.999982
vn 0.000000 0.011046 0.999939
vn 0.146389 0.006120 0.989208
vn 0.342538 0.011063 0.939439
vn 0.342538 0.011063 0.939439
vn 0.605910 0.011056 0.795456
vn 0.607469 0.018629 0.794125
vn 0.343446 0.019122 0.938978
vn 0.605910 0.011056 0.795456
vn 0.806955 0.011015 0.590510
vn 0.832100 0.017655 0.554344
vn 0.607469 0.018629 0.794125
vn 0.806955 0.011015 0.590510
vn 0.950106 0.010967 0.311733
vn 0.969201 0.020155 0.245446
vn 0.832100 0.017655 0.554344
vn 0.950106 0.010967 0.311733
vn 0.999940 0.010935 0.000001
vn 0.999827 0.018620 0.000001
vn 0.969201 0.020155 0.245446
vn 0.999940 0.010935 0.000001
vn 0.950107 0.010967 -0.311732
vn 0.969201 0.020155 -0.245445
vn 0.999827 0.018620 0.000001
vn 0.000000 0.011046 0.999939
vn 0.342538 0.011063 0.939439
vn 0.343446 0.019122 0.938978
vn 0.000000 0.016951 0.999856
vn -0.342537 0.011063 0.939439
vn 0.000000 0.011046 0.999939
vn 0.000000 0.016951 0.999856
vn -0.343446 0.019122 0.938978
vn -0.287641 -0.425691 0.857934
vn 0.000000 -0.447749 0.894159
vn 0.000000 0.012031 0.999928
vn -0.336005 0.011416 0.941791
vn 0.000000 -0.447749 0.894159
vn 0.287641 -0.425691 0.857934
vn 0.336005 0.011416 0.941791
vn 0.000000 0.012031 0.999928
vn 0.000000 0.012031 0.999928
vn 0.336005 0.011416 0.941791
vn 0.143284 0.021873 0.989440
vn -0.143283 0.021873 0.989440
vn 0.000000 0.012031 0.999928
vn 0.000000 0.011118 0.999938
vn -0.342537 0.011063 0.939439
vn -0.146389 0.006120 0.989208
vn 0.000000 0.011046 0.999939
vn 0.000000 0.006046 0.999982
vn 0.146389 0.006120 0.989208
vn 0.000000 0.011046 0.999939
vn 0.143284 0.021873 0.989440
vn 0.336005 0.011416 0.941791
vn 0.342538 0.011063 0.939439
vn 0.146389 0.006120 0.989208
vn -0.336005 0.011416 0.941791
vn -0.143283 0.021873 0.989440
vn -0.146389 0.006120 0.989208
vn -0.342537 0.011063 0.939439
s 1
g polySurface46pCylinder26
usemtl lambert12SG
f 1/4/1 2/1/2 3/2/3 4/3/4
f 5/8/5 6/5/6 7/6/7 8/7/8
f 9/12/9 10/9/10 2/10/2 1/11/1
f 11/16/11 12/13/12 6/14/6 5/15/5
f 4/20/4 3/17/3 12/18/12 11/19/11
f 8/24/8 7/21/7 10/22/10 9/23/9
s 3
f 14/25/13 13/26/14 15/27/15 16/28/16
f 18/29/17 17/30/18 19/31/19 20/32/20
f 21/33/21 14/34/13 16/35/16 22/36/22
f 23/37/23 18/38/17 20/39/20 24/40/24
f 13/41/14 23/42/23 24/43/24 15/44/15
f 17/45/18 21/46/21 22/47/22 19/48/19
s 5
f 1/4/25 4/3/26 13/26/27 14/25/28
s 6
f 5/8/29 8/7/30 17/30/31 18/29/32
s 5
f 9/12/33 1/11/25 14/34/28 21/33/34
s 6
f 11/16/35 5/15/29 18/38/32 23/37/36
s off
f 4/20/37 11/19/38 23/42/39 13/41/40
f 8/24/41 9/23/42 21/46/43 17/45/44
s 7
f 2/1/45 16/28/46 15/27/47 3/2/48
s 8
f 6/5/49 20/32/50 19/31/51 7/6/52
s 7
f 10/9/53 22/36/54 16/35/46 2/10/45
s 8
f 12/13/55 24/40/56 20/39/50 6/14/49
s off
f 3/17/57 15/44/58 24/43/59 12/18/60
f 7/21/61 19/48/62 22/47/63 10/22/64
f 25/49/65 26/50/66 67/51/67 68/52/68
f 26/50/69 27/53/70 69/54/71 67/51/72
f 27/53/73 28/55/74 70/56/75 69/54/76
f 28/55/77 29/57/78 71/58/79 70/56/80
f 29/57/81 30/59/82 72/60/83 71/58/84
f 30/59/85 31/61/86 73/62/87 72/60/88
f 31/63/89 32/64/90 74/65/91 73/66/92
f 32/64/93 33/67/94 75/68/95 74/65/96
f 33/67/97 34/69/98 76/70/99 75/68/100
f 34/69/101 35/71/102 77/72/103 76/70/104
f 35/71/105 36/73/106 78/74/107 77/72/108
f 36/73/109 37/75/110 79/76/111 78/74/112
f 37/75/113 38/77/114 80/78/115 79/76/116
f 80/78/117 91/79/118 93/80/119
f 91/79/120 92/81/121 81/82/122
f 40/83/123 41/84/124 83/85/125 82/86/126
f 41/84/127 42/87/128 84/88/129 83/85/130
f 42/87/131 43/89/132 85/90/133 84/88/134
f 43/89/135 44/91/136 86/92/137 85/90/138
f 44/91/139 25/49/140 68/52/141 86/92/142
f 26/93/143 25/94/144 65/95/145
f 27/96/146 26/93/147 65/95/148
f 28/97/149 27/96/150 65/95/151
f 29/98/152 28/97/153 65/95/154
f 30/99/155 29/98/156 65/95/157
f 31/100/158 30/99/159 65/95/160
f 32/101/161 31/100/162 65/95/163
f 33/102/164 32/101/165 65/95/166
f 34/103/167 33/102/168 65/95/169
f 35/104/170 34/103/171 65/95/172
f 36/105/173 35/104/174 65/95/175
f 37/106/176 36/105/177 65/95/178
f 38/107/179 37/106/180 65/95/181
f 39/108/182 38/107/183 65/95/184
f 40/109/185 39/108/186 65/95/187
f 41/110/188 40/109/189 65/95/190
f 42/111/191 41/110/192 65/95/193
f 43/112/194 42/111/195 65/95/196
f 44/113/197 43/112/198 65/95/199
f 25/94/200 44/113/201 65/95/202
f 45/114/203 46/115/204 66/116/205
f 46/115/206 47/117/207 66/116/208
f 47/117/209 48/118/210 66/116/211
f 48/118/212 49/119/213 66/116/214
f 49/119/215 50/120/216 66/116/217
f 50/120/218 51/121/219 66/116/220
f 51/121/221 52/122/222 66/116/223
f 52/122/224 53/123/225 66/116/226
f 53/123/227 54/124/228 66/116/229
f 54/124/230 55/125/231 66/116/232
f 55/125/233 56/126/234 66/116/235
f 56/126/236 57/127/237 66/116/238
f 57/127/239 58/128/240 66/116/241
f 58/128/242 59/129/243 66/116/244
f 59/129/245 60/130/246 66/116/247
f 60/130/248 61/131/249 66/116/250
f 61/131/251 62/132/252 66/116/253
f 62/132/254 63/133/255 66/116/256
f 63/133/257 64/134/258 66/116/259
f 64/134/260 45/114/261 66/116/262
f 79/76/263 80/78/264 87/135/265
f 82/86/266 83/85/267 89/136/268
f 68/52/269 67/51/270 46/137/271 45/138/272
f 67/51/273 69/54/274 47/139/275 46/137/276
f 69/54/277 70/56/278 48/140/279 47/139/280
f 70/56/281 71/58/282 49/141/283 48/140/284
f 71/58/285 72/60/286 50/142/287 49/141/288
f 72/60/289 73/62/290 51/143/291 50/142/292
f 73/66/293 74/65/294 52/144/295 51/145/296
f 74/65/297 75/68/298 53/146/299 52/144/300
f 75/68/301 76/70/302 54/147/303 53/146/304
f 76/70/305 77/72/306 55/148/307 54/147/308
f 77/72/309 78/74/310 56/149/311 55/148/312
f 78/74/313 79/76/314 57/150/315 56/149/316
f 79/76/317 87/135/318 58/151/319 57/150/320
f 90/152/321 94/153/322 88/154/323
f 90/152/324 95/155/325 89/136/326
f 89/136/327 83/85/328 61/156/329 60/157/330
f 83/85/331 84/88/332 62/158/333 61/156/334
f 84/88/335 85/90/336 63/159/337 62/158/338
f 85/90/339 86/92/340 64/160/341 63/159/342
f 86/92/343 68/52/344 45/138/345 64/160/346
f 90/152/347 89/136/348 60/157/349 59/161/350
f 87/135/351 90/152/352 59/161/353 58/151/354
f 38/77/355 39/162/356 91/79/357 80/78/358
f 39/162/359 40/83/360 82/86/361 91/79/362
f 91/79/363 82/86/364 92/81/365
f 93/80/366 91/79/367 81/82/368
f 87/135/369 94/153/370 90/152/371
f 88/154/372 95/155/373 90/152/374
f 92/81/375 82/86/376 89/136/377 95/155/378
f 80/78/379 93/80/380 94/153/381 87/135/382
