# This file uses centimeters as units for non-parametric coordinates.

mtllib CodePuzle_Button3.mtl
g default
v -0.032404 -0.020149 0.032404
v 0.000000 -0.020149 0.032404
v 0.000000 -0.007275 0.032404
v -0.032404 -0.006044 0.032404
v 0.032404 -0.020149 0.032404
v 0.032404 -0.006044 0.032404
v 0.032404 -0.020149 0.000000
v 0.032404 -0.006914 0.000000
v 0.032404 -0.020149 -0.032404
v 0.032404 -0.006044 -0.032404
v 0.000000 -0.020149 -0.032404
v 0.000000 -0.007275 -0.032404
v -0.032404 -0.020149 -0.032404
v -0.032404 -0.006044 -0.032404
v -0.032404 -0.020149 0.000000
v -0.032404 -0.006914 0.000000
v -0.024259 0.002101 0.024260
v 0.000000 0.000870 0.024260
v 0.000000 0.000000 0.000000
v -0.024259 0.001231 0.000000
v 0.024259 0.002101 0.024260
v 0.024259 0.001231 0.000000
v 0.000000 0.000870 -0.024259
v -0.024259 0.002101 -0.024259
v 0.024259 0.002101 -0.024259
vt 0.037104 0.756046
vt 0.079278 0.755973
vt 0.078684 0.771894
vt 0.036800 0.773843
vt 0.121330 0.759192
vt 0.120306 0.776961
vt 0.138124 0.777194
vt 0.138367 0.819373
vt 0.122021 0.818762
vt 0.134978 0.861415
vt 0.117192 0.860319
vt 0.116888 0.878115
vt 0.074714 0.878188
vt 0.075308 0.862267
vt 0.032662 0.874970
vt 0.033686 0.857200
vt 0.015868 0.856967
vt 0.015625 0.814789
vt 0.031971 0.815399
vt 0.019014 0.772746
vt 0.048747 0.786721
vt 0.078129 0.786733
vt 0.076996 0.817081
vt 0.046776 0.815952
vt 0.107431 0.788912
vt 0.107216 0.818209
vt 0.075863 0.847427
vt 0.046561 0.845248
vt 0.105246 0.847440
vn 0.000000 0.000000 1.000000
vn 0.000000 0.000000 1.000000
vn 0.000000 0.316622 0.948552
vn -0.669131 0.334818 0.663446
vn -0.000000 0.000000 1.000000
vn 0.669131 0.334818 0.663446
vn 1.000000 0.000000 0.000000
vn 1.000000 0.000000 0.000000
vn 0.948417 0.317027 0.000000
vn 1.000000 0.000000 0.000000
vn 0.669119 0.334831 -0.663452
vn -0.000000 0.000000 -1.000000
vn 0.000000 0.000000 -1.000000
vn -0.000000 0.316657 -0.948540
vn 0.000000 0.000000 -1.000000
vn -0.669119 0.334831 -0.663452
vn -1.000000 0.000000 0.000000
vn -1.000000 0.000000 0.000000
vn -0.948416 0.317027 0.000000
vn -1.000000 0.000000 0.000000
vn -0.216739 0.949478 0.226972
vn 0.000000 0.966241 0.257641
vn 0.000000 1.000000 0.000000
vn -0.245042 0.969512 0.000000
vn 0.216739 0.949478 0.226972
vn 0.245042 0.969512 0.000000
vn -0.000000 0.966241 -0.257639
vn -0.216739 0.949479 -0.226967
vn 0.216739 0.949479 -0.226967
s 1
g polySurface15 polySurface7
usemtl lambert2SG
f 1/1/1 2/2/2 3/3/3 4/4/4
f 2/2/2 5/5/5 6/6/6 3/3/3
f 5/7/7 7/8/8 8/9/9 6/6/6
f 7/8/8 9/10/10 10/11/11 8/9/9
f 9/12/12 11/13/13 12/14/14 10/11/11
f 11/13/13 13/15/15 14/16/16 12/14/14
f 13/17/17 15/18/18 16/19/19 14/16/16
f 15/18/18 1/20/20 4/4/4 16/19/19
f 17/21/21 18/22/22 19/23/23 20/24/24
f 18/22/22 21/25/25 22/26/26 19/23/23
f 20/24/24 19/23/23 23/27/27 24/28/28
f 19/23/23 22/26/26 25/29/29 23/27/27
f 17/21/21 20/24/24 16/19/19 4/4/4
f 20/24/24 24/28/28 14/16/16 16/19/19
f 24/28/28 23/27/27 12/14/14 14/16/16
f 23/27/27 25/29/29 10/11/11 12/14/14
f 8/9/9 10/11/11 25/29/29 22/26/26
f 3/3/3 6/6/6 21/25/25 18/22/22
f 6/6/6 8/9/9 22/26/26 21/25/25
f 4/4/4 3/3/3 18/22/22 17/21/21
