# This file uses centimeters as units for non-parametric coordinates.

mtllib CodePuzle_Button4.mtl
g default
v -0.032404 -0.020149 0.032404
v 0.000000 -0.020149 0.032404
v 0.000000 -0.007275 0.032404
v -0.032404 -0.006044 0.032404
v 0.032404 -0.020149 0.032404
v 0.032404 -0.006044 0.032404
v 0.032404 -0.020149 0.000000
v 0.032404 -0.006914 0.000000
v 0.032404 -0.020149 -0.032404
v 0.032404 -0.006044 -0.032404
v 0.000000 -0.020149 -0.032404
v 0.000000 -0.007275 -0.032404
v -0.032404 -0.020149 -0.032404
v -0.032404 -0.006044 -0.032404
v -0.032404 -0.020149 0.000000
v -0.032404 -0.006914 0.000000
v -0.024259 0.002101 0.024260
v 0.000000 0.000870 0.024260
v 0.000000 0.000000 0.000000
v -0.024259 0.001231 0.000000
v 0.024259 0.002101 0.024260
v 0.024259 0.001231 0.000000
v 0.000000 0.000870 -0.024259
v -0.024259 0.002101 -0.024259
v 0.024259 0.002101 -0.024259
vt 0.786070 0.274331
vt 0.743956 0.276582
vt 0.743728 0.260652
vt 0.785455 0.256542
vt 0.701795 0.275540
vt 0.701899 0.257741
vt 0.684093 0.258429
vt 0.681671 0.216320
vt 0.698027 0.216085
vt 0.682884 0.174158
vt 0.700703 0.174334
vt 0.700087 0.156546
vt 0.742201 0.154294
vt 0.742430 0.170225
vt 0.784363 0.155336
vt 0.784258 0.173135
vt 0.802064 0.172448
vt 0.804486 0.214557
vt 0.788130 0.214792
vt 0.803274 0.256719
vt 0.772859 0.244299
vt 0.743514 0.245804
vt 0.743079 0.215438
vt 0.773316 0.215004
vt 0.714139 0.245141
vt 0.712841 0.215872
vt 0.742643 0.185074
vt 0.772019 0.185737
vt 0.713299 0.186579
vn 0.000000 0.000000 1.000000
vn -0.000000 0.000000 1.000000
vn 0.000000 0.316622 0.948552
vn -0.669131 0.334818 0.663446
vn -0.000000 0.000000 1.000000
vn 0.669131 0.334818 0.663446
vn 1.000000 0.000000 0.000000
vn 1.000000 0.000000 0.000000
vn 0.948416 0.317027 0.000000
vn 1.000000 0.000000 0.000000
vn 0.669119 0.334831 -0.663452
vn 0.000000 0.000000 -1.000000
vn 0.000000 0.000000 -1.000000
vn -0.000000 0.316657 -0.948540
vn 0.000000 0.000000 -1.000000
vn -0.669119 0.334831 -0.663452
vn -1.000000 0.000000 0.000000
vn -1.000000 0.000000 0.000000
vn -0.948417 0.317027 -0.000000
vn -1.000000 0.000000 0.000000
vn -0.216739 0.949478 0.226972
vn 0.000000 0.966241 0.257641
vn 0.000000 1.000000 0.000000
vn -0.245042 0.969512 0.000000
vn 0.216739 0.949478 0.226972
vn 0.245042 0.969512 0.000000
vn -0.000000 0.966241 -0.257639
vn -0.216739 0.949479 -0.226967
vn 0.216739 0.949479 -0.226967
s 1
g polySurface11 polySurface7
usemtl lambert2SG
f 1/1/1 2/2/2 3/3/3 4/4/4
f 2/2/2 5/5/5 6/6/6 3/3/3
f 5/7/7 7/8/8 8/9/9 6/6/6
f 7/8/8 9/10/10 10/11/11 8/9/9
f 9/12/12 11/13/13 12/14/14 10/11/11
f 11/13/13 13/15/15 14/16/16 12/14/14
f 13/17/17 15/18/18 16/19/19 14/16/16
f 15/18/18 1/20/20 4/4/4 16/19/19
f 17/21/21 18/22/22 19/23/23 20/24/24
f 18/22/22 21/25/25 22/26/26 19/23/23
f 20/24/24 19/23/23 23/27/27 24/28/28
f 19/23/23 22/26/26 25/29/29 23/27/27
f 17/21/21 20/24/24 16/19/19 4/4/4
f 20/24/24 24/28/28 14/16/16 16/19/19
f 24/28/28 23/27/27 12/14/14 14/16/16
f 23/27/27 25/29/29 10/11/11 12/14/14
f 8/9/9 10/11/11 25/29/29 22/26/26
f 3/3/3 6/6/6 21/25/25 18/22/22
f 6/6/6 8/9/9 22/26/26 21/25/25
f 4/4/4 3/3/3 18/22/22 17/21/21
