# This file uses centimeters as units for non-parametric coordinates.

mtllib CodePuzle_Button2.mtl
g default
v -0.032404 -0.020149 0.032404
v 0.000000 -0.020149 0.032404
v 0.000000 -0.007275 0.032404
v -0.032404 -0.006044 0.032404
v 0.032404 -0.020149 0.032404
v 0.032404 -0.006044 0.032404
v 0.032404 -0.020149 0.000000
v 0.032404 -0.006914 0.000000
v 0.032404 -0.020149 -0.032404
v 0.032404 -0.006044 -0.032404
v 0.000000 -0.020149 -0.032404
v 0.000000 -0.007275 -0.032404
v -0.032404 -0.020149 -0.032404
v -0.032404 -0.006044 -0.032404
v -0.032404 -0.020149 0.000000
v -0.032404 -0.006914 0.000000
v -0.024259 0.002101 0.024260
v 0.000000 0.000870 0.024260
v 0.000000 0.000000 0.000000
v -0.024259 0.001231 0.000000
v 0.024259 0.002101 0.024260
v 0.024259 0.001231 0.000000
v 0.000000 0.000870 -0.024259
v -0.024259 0.002101 -0.024259
v 0.024259 0.002101 -0.024259
vt 0.360569 0.176870
vt 0.402725 0.175633
vt 0.402570 0.191565
vt 0.360756 0.194668
vt 0.444849 0.177690
vt 0.444316 0.195481
vt 0.462133 0.195223
vt 0.463541 0.237378
vt 0.447184 0.237219
vt 0.461313 0.279498
vt 0.443504 0.278893
vt 0.443691 0.296691
vt 0.401535 0.297928
vt 0.401690 0.281996
vt 0.359411 0.295871
vt 0.359944 0.278080
vt 0.342126 0.278338
vt 0.340719 0.236183
vt 0.357076 0.236342
vt 0.342947 0.194063
vt 0.373053 0.207212
vt 0.402425 0.206414
vt 0.402130 0.236781
vt 0.371891 0.236486
vt 0.431776 0.207783
vt 0.432369 0.237075
vt 0.401834 0.267147
vt 0.372483 0.265777
vt 0.431207 0.266349
vn 0.000000 0.000000 1.000000
vn 0.000000 0.000000 1.000000
vn 0.000000 0.316622 0.948552
vn -0.669131 0.334818 0.663446
vn -0.000000 0.000000 1.000000
vn 0.669131 0.334818 0.663446
vn 1.000000 0.000000 0.000000
vn 1.000000 0.000000 0.000000
vn 0.948416 0.317027 0.000000
vn 1.000000 0.000000 0.000000
vn 0.669119 0.334831 -0.663452
vn -0.000000 0.000000 -1.000000
vn 0.000000 0.000000 -1.000000
vn -0.000000 0.316657 -0.948540
vn 0.000000 0.000000 -1.000000
vn -0.669119 0.334831 -0.663452
vn -1.000000 0.000000 0.000000
vn -1.000000 0.000000 0.000000
vn -0.948416 0.317027 0.000000
vn -1.000000 0.000000 0.000000
vn -0.216739 0.949478 0.226972
vn 0.000000 0.966241 0.257641
vn 0.000000 1.000000 0.000000
vn -0.245042 0.969512 0.000000
vn 0.216739 0.949478 0.226972
vn 0.245042 0.969512 0.000000
vn -0.000000 0.966241 -0.257639
vn -0.216739 0.949479 -0.226967
vn 0.216739 0.949479 -0.226967
s 1
g polySurface10 polySurface7
usemtl lambert2SG
f 1/1/1 2/2/2 3/3/3 4/4/4
f 2/2/2 5/5/5 6/6/6 3/3/3
f 5/7/7 7/8/8 8/9/9 6/6/6
f 7/8/8 9/10/10 10/11/11 8/9/9
f 9/12/12 11/13/13 12/14/14 10/11/11
f 11/13/13 13/15/15 14/16/16 12/14/14
f 13/17/17 15/18/18 16/19/19 14/16/16
f 15/18/18 1/20/20 4/4/4 16/19/19
f 17/21/21 18/22/22 19/23/23 20/24/24
f 18/22/22 21/25/25 22/26/26 19/23/23
f 20/24/24 19/23/23 23/27/27 24/28/28
f 19/23/23 22/26/26 25/29/29 23/27/27
f 17/21/21 20/24/24 16/19/19 4/4/4
f 20/24/24 24/28/28 14/16/16 16/19/19
f 24/28/28 23/27/27 12/14/14 14/16/16
f 23/27/27 25/29/29 10/11/11 12/14/14
f 8/9/9 10/11/11 25/29/29 22/26/26
f 3/3/3 6/6/6 21/25/25 18/22/22
f 6/6/6 8/9/9 22/26/26 21/25/25
f 4/4/4 3/3/3 18/22/22 17/21/21
