# This file uses centimeters as units for non-parametric coordinates.

mtllib CodePuzle_Button7.mtl
g default
v 0.000000 0.000000 0.000000
v -0.032404 -0.020149 0.032404
v 0.000000 -0.020149 0.032404
v 0.032404 -0.020149 0.032404
v -0.032404 -0.020149 0.000000
v 0.032404 -0.020149 0.000000
v -0.032404 -0.020149 -0.032404
v 0.000000 -0.020149 -0.032404
v 0.032404 -0.020149 -0.032404
v -0.024259 0.002101 0.024260
v 0.000000 0.000870 0.024260
v -0.024259 0.001231 0.000000
v 0.024259 0.002101 0.024260
v 0.024259 0.001231 0.000000
v 0.000000 0.000870 -0.024259
v -0.024259 0.002101 -0.024259
v 0.024259 0.002101 -0.024259
v 0.000000 -0.007275 0.032404
v -0.032404 -0.006044 0.032404
v 0.032404 -0.006044 0.032404
v 0.032404 -0.006914 0.000000
v 0.032404 -0.006044 -0.032404
v 0.000000 -0.007275 -0.032404
v -0.032404 -0.006044 -0.032404
v -0.032404 -0.006914 0.000000
vt 0.646461 0.136284
vt 0.604318 0.137926
vt 0.604320 0.121993
vt 0.646103 0.118488
vt 0.562176 0.136274
vt 0.562539 0.118478
vt 0.544724 0.118908
vt 0.542912 0.076768
vt 0.559269 0.076770
vt 0.544734 0.034628
vt 0.562548 0.035063
vt 0.562190 0.017267
vt 0.604333 0.015625
vt 0.604331 0.031558
vt 0.646475 0.017277
vt 0.646113 0.035073
vt 0.663927 0.034643
vt 0.665739 0.076783
vt 0.649382 0.076781
vt 0.663917 0.118922
vt 0.633685 0.106063
vt 0.604322 0.107144
vt 0.604325 0.076775
vt 0.634566 0.076779
vt 0.574959 0.106056
vt 0.574085 0.076772
vt 0.604329 0.046408
vt 0.633692 0.047495
vt 0.574966 0.047488
vn 0.000000 0.000000 1.000000
vn 0.000000 0.000000 1.000000
vn 0.000000 0.316621 0.948552
vn -0.669131 0.334818 0.663446
vn 0.000000 0.000000 1.000000
vn 0.669131 0.334818 0.663446
vn 1.000000 0.000000 0.000000
vn 1.000000 0.000000 0.000000
vn 0.948416 0.317027 0.000000
vn 1.000000 0.000000 0.000000
vn 0.669119 0.334831 -0.663452
vn 0.000000 0.000000 -1.000000
vn 0.000000 0.000000 -1.000000
vn 0.000000 0.316657 -0.948540
vn 0.000000 0.000000 -1.000000
vn -0.669119 0.334831 -0.663452
vn -1.000000 0.000000 0.000000
vn -1.000000 0.000000 0.000000
vn -0.948416 0.317027 0.000000
vn -1.000000 0.000000 0.000000
vn -0.216739 0.949478 0.226972
vn 0.000000 0.966241 0.257641
vn 0.000000 1.000000 -0.000000
vn -0.245042 0.969512 0.000000
vn 0.216739 0.949478 0.226973
vn 0.245042 0.969512 0.000000
vn 0.000000 0.966241 -0.257639
vn -0.216739 0.949479 -0.226967
vn 0.216739 0.949479 -0.226967
s 1
g polySurface14 polySurface7
usemtl lambert2SG
f 2/1/1 3/2/2 18/3/3 19/4/4
f 3/2/2 4/5/5 20/6/6 18/3/3
f 4/7/7 6/8/8 21/9/9 20/6/6
f 6/8/8 9/10/10 22/11/11 21/9/9
f 9/12/12 8/13/13 23/14/14 22/11/11
f 8/13/13 7/15/15 24/16/16 23/14/14
f 7/17/17 5/18/18 25/19/19 24/16/16
f 5/18/18 2/20/20 19/4/4 25/19/19
f 10/21/21 11/22/22 1/23/23 12/24/24
f 11/22/22 13/25/25 14/26/26 1/23/23
f 12/24/24 1/23/23 15/27/27 16/28/28
f 1/23/23 14/26/26 17/29/29 15/27/27
f 10/21/21 12/24/24 25/19/19 19/4/4
f 12/24/24 16/28/28 24/16/16 25/19/19
f 16/28/28 15/27/27 23/14/14 24/16/16
f 15/27/27 17/29/29 22/11/11 23/14/14
f 21/9/9 22/11/11 17/29/29 14/26/26
f 18/3/3 20/6/6 13/25/25 11/22/22
f 20/6/6 21/9/9 14/26/26 13/25/25
f 19/4/4 18/3/3 11/22/22 10/21/21
