# This file uses centimeters as units for non-parametric coordinates.

mtllib CodePuzle_Button9.mtl
g default
v -0.032404 -0.020149 0.032404
v 0.000000 -0.020149 0.032404
v 0.000000 -0.007275 0.032404
v -0.032404 -0.006044 0.032404
v 0.032404 -0.020149 0.032404
v 0.032404 -0.006044 0.032404
v 0.032404 -0.020149 0.000000
v 0.032404 -0.006914 0.000000
v 0.032404 -0.020149 -0.032404
v 0.032404 -0.006044 -0.032404
v 0.000000 -0.020149 -0.032404
v 0.000000 -0.007275 -0.032404
v -0.032404 -0.020149 -0.032404
v -0.032404 -0.006044 -0.032404
v -0.032404 -0.020149 0.000000
v -0.032404 -0.006914 0.000000
v -0.024259 0.002101 0.024260
v 0.000000 0.000870 0.024260
v 0.000000 0.000000 0.000000
v -0.024259 0.001231 0.000000
v 0.024259 0.002101 0.024260
v 0.024259 0.001231 0.000000
v 0.000000 0.000870 -0.024259
v -0.024259 0.002101 -0.024259
v 0.024259 0.002101 -0.024259
vt 0.637942 0.807402
vt 0.595785 0.808630
vt 0.595944 0.792698
vt 0.637759 0.789604
vt 0.553662 0.806564
vt 0.554199 0.788773
vt 0.536381 0.789028
vt 0.534983 0.746872
vt 0.551340 0.747035
vt 0.537219 0.704752
vt 0.555028 0.705361
vt 0.554845 0.687563
vt 0.597001 0.686335
vt 0.596843 0.702267
vt 0.639125 0.688401
vt 0.638588 0.706192
vt 0.656406 0.705937
vt 0.657804 0.748093
vt 0.641447 0.747931
vt 0.655568 0.790213
vt 0.625464 0.777058
vt 0.596091 0.777850
vt 0.596393 0.747482
vt 0.626633 0.747783
vt 0.566741 0.776474
vt 0.566154 0.747182
vt 0.596695 0.717117
vt 0.626046 0.718492
vt 0.567323 0.717909
vn 0.000000 0.000000 1.000000
vn 0.000000 0.000000 1.000000
vn 0.000000 0.316621 0.948552
vn -0.669131 0.334818 0.663446
vn 0.000000 0.000000 1.000000
vn 0.669131 0.334818 0.663446
vn 1.000000 0.000000 0.000000
vn 1.000000 0.000000 0.000000
vn 0.948416 0.317027 0.000000
vn 1.000000 0.000000 0.000000
vn 0.669119 0.334831 -0.663452
vn 0.000000 0.000000 -1.000000
vn 0.000000 0.000000 -1.000000
vn 0.000000 0.316657 -0.948540
vn 0.000000 0.000000 -1.000000
vn -0.669119 0.334831 -0.663452
vn -1.000000 0.000000 0.000000
vn -1.000000 0.000000 0.000000
vn -0.948416 0.317027 0.000000
vn -1.000000 0.000000 0.000000
vn -0.216739 0.949478 0.226972
vn 0.000000 0.966241 0.257641
vn 0.000000 1.000000 -0.000000
vn -0.245042 0.969512 0.000000
vn 0.216739 0.949478 0.226972
vn 0.245042 0.969512 0.000000
vn 0.000000 0.966241 -0.257639
vn -0.216739 0.949479 -0.226967
vn 0.216739 0.949479 -0.226967
s 1
g polySurface13 polySurface7
usemtl lambert2SG
f 1/1/1 2/2/2 3/3/3 4/4/4
f 2/2/2 5/5/5 6/6/6 3/3/3
f 5/7/7 7/8/8 8/9/9 6/6/6
f 7/8/8 9/10/10 10/11/11 8/9/9
f 9/12/12 11/13/13 12/14/14 10/11/11
f 11/13/13 13/15/15 14/16/16 12/14/14
f 13/17/17 15/18/18 16/19/19 14/16/16
f 15/18/18 1/20/20 4/4/4 16/19/19
f 17/21/21 18/22/22 19/23/23 20/24/24
f 18/22/22 21/25/25 22/26/26 19/23/23
f 20/24/24 19/23/23 23/27/27 24/28/28
f 19/23/23 22/26/26 25/29/29 23/27/27
f 17/21/21 20/24/24 16/19/19 4/4/4
f 20/24/24 24/28/28 14/16/16 16/19/19
f 24/28/28 23/27/27 12/14/14 14/16/16
f 23/27/27 25/29/29 10/11/11 12/14/14
f 8/9/9 10/11/11 25/29/29 22/26/26
f 3/3/3 6/6/6 21/25/25 18/22/22
f 6/6/6 8/9/9 22/26/26 21/25/25
f 4/4/4 3/3/3 18/22/22 17/21/21
