# This file uses centimeters as units for non-parametric coordinates.

mtllib Fireplace.mtl
g default
v 1.197824 0.018334 -1.353049
v 1.157768 0.078844 -1.400181
v 1.090986 0.093413 -1.453242
v 1.022988 0.056476 -1.491963
v 0.979747 -0.017858 -1.501556
v 0.977778 -0.101196 -1.478355
v 1.017834 -0.161706 -1.431222
v 1.084616 -0.176275 -1.378162
v 1.152614 -0.139339 -1.339441
v 1.195856 -0.065004 -1.329848
v -0.732767 0.800153 1.291447
v -0.772823 0.860663 1.244314
v -0.839605 0.875232 1.191254
v -0.907603 0.838295 1.152533
v -0.950845 0.763961 1.142940
v -0.952814 0.680623 1.166141
v -0.912757 0.620113 1.213273
v -0.845976 0.605544 1.266334
v -0.777978 0.642480 1.305055
v -0.734736 0.716815 1.314648
v 1.087801 -0.041431 -1.415702
v -0.842790 0.740388 1.228794
v 1.805055 0.114506 0.051739
v 1.808659 0.158696 -0.022569
v 1.810372 0.150769 -0.108718
v 1.809541 0.093753 -0.173802
v 1.806483 0.009427 -0.192961
v 1.802366 -0.070001 -0.158877
v 1.798763 -0.114191 -0.084569
v 1.797049 -0.106264 0.001580
v 1.797880 -0.049248 0.066664
v 1.800938 0.035078 0.085823
v -1.557356 0.254564 -0.028031
v -1.553752 0.298754 -0.102339
v -1.552038 0.290827 -0.188488
v -1.552869 0.233811 -0.253572
v -1.555927 0.149484 -0.272731
v -1.560044 0.070056 -0.238648
v -1.563648 0.025866 -0.164339
v -1.565361 0.033793 -0.078190
v -1.564530 0.090809 -0.013106
v -1.561473 0.175136 0.006053
v 1.803711 0.022253 -0.053569
v -1.558700 0.162310 -0.133339
v 1.185163 0.141997 0.785332
v 1.200473 0.185790 0.712289
v 1.216656 0.177371 0.627704
v 1.227531 0.119958 0.563885
v 1.228944 0.035479 0.545209
v 1.220356 -0.043797 0.578810
v 1.205046 -0.087589 0.651853
v 1.188863 -0.079171 0.736438
v 1.177988 -0.021757 0.800257
v 1.176575 0.062721 0.818933
v -2.118455 0.228359 0.144685
v -2.103146 0.272152 0.071642
v -2.086963 0.263733 -0.012944
v -2.076088 0.206320 -0.076762
v -2.074674 0.121841 -0.095438
v -2.083263 0.042565 -0.061838
v -2.098572 -0.001227 0.011205
v -2.114755 0.007191 0.095791
v -2.125631 0.064605 0.159610
v -2.127044 0.149083 0.178286
v 1.202760 0.049100 0.682071
v -2.100859 0.135462 0.041424
v 0.765258 0.785787 -1.345141
v 0.691968 0.831695 -1.342237
v 0.605846 0.826573 -1.348882
v 0.539787 0.772377 -1.362538
v 0.519024 0.689808 -1.377987
v 0.551488 0.610404 -1.389331
v 0.624778 0.564496 -1.392234
v 0.710901 0.569618 -1.385590
v 0.776959 0.623815 -1.371934
v 0.797722 0.706384 -1.356484
v 0.543301 0.222001 1.966153
v 0.470011 0.267909 1.969056
v 0.383889 0.262787 1.962411
v 0.317830 0.208591 1.948756
v 0.297068 0.126022 1.933306
v 0.329531 0.046618 1.921963
v 0.402821 0.000710 1.919059
v 0.488944 0.005832 1.925704
v 0.555002 0.060029 1.939359
v 0.575765 0.142598 1.954809
v 0.658373 0.698095 -1.367236
v 0.436416 0.134310 1.944058
v 1.214100 -0.034491 -0.364651
v 1.051071 -0.034491 -0.684613
v 0.797148 -0.034491 -0.938536
v 0.477186 -0.034491 -1.101565
v 0.122505 -0.034491 -1.157740
v -0.232175 -0.034491 -1.101565
v -0.552137 -0.034491 -0.938536
v -0.806060 -0.034491 -0.684612
v -0.969089 -0.034491 -0.364650
v -1.025265 -0.034491 -0.009970
v -0.969089 -0.034491 0.344711
v -0.806060 -0.034491 0.664672
v -0.552137 -0.034491 0.918596
v -0.232175 -0.034491 1.081624
v 0.122505 -0.034491 1.137800
v 0.477186 -0.034491 1.081624
v 0.797148 -0.034491 0.918596
v 1.051071 -0.034491 0.664672
v 1.214099 -0.034491 0.344710
v 1.270275 -0.034491 -0.009970
v 0.122505 0.489810 -0.009970
v -0.496857 0.132739 -1.727481
v -0.548563 0.201744 -1.720246
v -0.622370 0.230578 -1.685483
v -0.690088 0.208229 -1.636470
v -0.725850 0.143231 -1.591929
v -0.715996 0.060414 -1.568873
v -0.664291 -0.008591 -1.576109
v -0.590483 -0.037425 -1.610872
v -0.522766 -0.015075 -1.659885
v -0.487004 0.049922 -1.704425
v 1.178396 1.099109 1.027775
v 1.126691 1.168114 1.035010
v 1.052883 1.196948 1.069774
v 0.985166 1.174598 1.118786
v 0.949404 1.109601 1.163327
v 0.959257 1.026783 1.186383
v 1.010962 0.957779 1.179148
v 1.084770 0.928945 1.144385
v 1.152488 0.951294 1.095372
v 1.188250 1.016291 1.050831
v -0.606427 0.096577 -1.648177
v 1.068827 1.062946 1.107079
vt 0.228099 0.198649
vt 0.210753 0.186047
vt 0.189313 0.186047
vt 0.171968 0.198649
vt 0.165343 0.219040
vt 0.171968 0.239430
vt 0.189313 0.252032
vt 0.210753 0.252032
vt 0.228099 0.239430
vt 0.234724 0.219040
vt 0.965960 0.047777
vt 0.965960 0.082262
vt 0.965960 0.116746
vt 0.965960 0.151231
vt 0.965960 0.185715
vt 0.965960 0.220200
vt 0.965960 0.254684
vt 0.965960 0.289169
vt 0.965960 0.323653
vt 0.965960 0.358138
vt 0.965960 0.392622
vt 0.447396 0.047777
vt 0.447396 0.082262
vt 0.447396 0.116746
vt 0.447396 0.151231
vt 0.447396 0.185715
vt 0.447396 0.220200
vt 0.447396 0.254684
vt 0.447396 0.289169
vt 0.447396 0.323653
vt 0.447396 0.358138
vt 0.447396 0.392622
vt 0.123800 0.333534
vt 0.106454 0.320932
vt 0.085014 0.320932
vt 0.067669 0.333534
vt 0.061044 0.353925
vt 0.067669 0.374315
vt 0.085014 0.386917
vt 0.106454 0.386917
vt 0.123800 0.374315
vt 0.130425 0.353925
vt 0.200033 0.217652
vt 0.095734 0.352537
vt 0.965960 0.047777
vt 0.965960 0.082262
vt 0.447396 0.082262
vt 0.447396 0.047777
vt 0.965960 0.116746
vt 0.447396 0.116746
vt 0.965960 0.151231
vt 0.447396 0.151231
vt 0.965960 0.185715
vt 0.447396 0.185715
vt 0.965960 0.220200
vt 0.447396 0.220200
vt 0.965960 0.254684
vt 0.447396 0.254684
vt 0.965960 0.289169
vt 0.447396 0.289169
vt 0.965960 0.323653
vt 0.447396 0.323653
vt 0.965960 0.358138
vt 0.447396 0.358138
vt 0.965960 0.392622
vt 0.447396 0.392622
vt 0.210753 0.186047
vt 0.228099 0.198649
vt 0.200033 0.217652
vt 0.189313 0.186047
vt 0.171968 0.198649
vt 0.165343 0.219040
vt 0.171968 0.239430
vt 0.189313 0.252032
vt 0.210753 0.252032
vt 0.228099 0.239430
vt 0.234724 0.219040
vt 0.123800 0.374315
vt 0.106454 0.386917
vt 0.095734 0.352537
vt 0.085014 0.386917
vt 0.067669 0.374315
vt 0.061044 0.353925
vt 0.067669 0.333534
vt 0.085014 0.320932
vt 0.106454 0.320932
vt 0.123800 0.333534
vt 0.130425 0.353925
vt 0.965960 0.047777
vt 0.965960 0.082262
vt 0.447396 0.082262
vt 0.447396 0.047777
vt 0.965960 0.116746
vt 0.447396 0.116746
vt 0.965960 0.151231
vt 0.447396 0.151231
vt 0.965960 0.185715
vt 0.447396 0.185715
vt 0.965960 0.220200
vt 0.447396 0.220200
vt 0.965960 0.254684
vt 0.447396 0.254684
vt 0.965960 0.289169
vt 0.447396 0.289169
vt 0.965960 0.323653
vt 0.447396 0.323653
vt 0.965960 0.358138
vt 0.447396 0.358138
vt 0.965960 0.392622
vt 0.447396 0.392622
vt 0.210753 0.186047
vt 0.228099 0.198649
vt 0.200033 0.217652
vt 0.189313 0.186047
vt 0.171968 0.198649
vt 0.165343 0.219040
vt 0.171968 0.239430
vt 0.189313 0.252032
vt 0.210753 0.252032
vt 0.228099 0.239430
vt 0.234724 0.219040
vt 0.123800 0.374315
vt 0.106454 0.386917
vt 0.095734 0.352537
vt 0.085014 0.386917
vt 0.067669 0.374315
vt 0.061044 0.353925
vt 0.067669 0.333534
vt 0.085014 0.320932
vt 0.106454 0.320932
vt 0.123800 0.333534
vt 0.130425 0.353925
vt 0.965960 0.047777
vt 0.965960 0.082262
vt 0.447396 0.082262
vt 0.447396 0.047777
vt 0.965960 0.116746
vt 0.447396 0.116746
vt 0.965960 0.151231
vt 0.447396 0.151231
vt 0.965960 0.185715
vt 0.447396 0.185715
vt 0.965960 0.220200
vt 0.447396 0.220200
vt 0.965960 0.254684
vt 0.447396 0.254684
vt 0.965960 0.289169
vt 0.447396 0.289169
vt 0.965960 0.323653
vt 0.447396 0.323653
vt 0.965960 0.358138
vt 0.447396 0.358138
vt 0.965960 0.392622
vt 0.447396 0.392622
vt 0.210753 0.186047
vt 0.228099 0.198649
vt 0.200033 0.217652
vt 0.189313 0.186047
vt 0.171968 0.198649
vt 0.165343 0.219040
vt 0.171968 0.239430
vt 0.189313 0.252032
vt 0.210753 0.252032
vt 0.228099 0.239430
vt 0.234724 0.219040
vt 0.123800 0.374315
vt 0.106454 0.386917
vt 0.095734 0.352537
vt 0.085014 0.386917
vt 0.067669 0.374315
vt 0.061044 0.353925
vt 0.067669 0.333534
vt 0.085014 0.320932
vt 0.106454 0.320932
vt 0.123800 0.333534
vt 0.130425 0.353925
vt 0.098126 0.884660
vt 0.050230 0.804482
vt 0.327289 0.693371
vt 0.029455 0.713428
vt 0.037834 0.620411
vt 0.074547 0.534535
vt 0.136000 0.464207
vt 0.216177 0.416312
vt 0.307231 0.395537
vt 0.400249 0.403916
vt 0.486124 0.440628
vt 0.556452 0.502081
vt 0.604348 0.582259
vt 0.625123 0.673313
vt 0.616744 0.766330
vt 0.580031 0.852206
vt 0.518578 0.922534
vt 0.438401 0.970429
vt 0.347347 0.991204
vt 0.254329 0.982825
vt 0.168454 0.946113
vt 0.965960 0.047777
vt 0.965960 0.082262
vt 0.447396 0.082262
vt 0.447396 0.047777
vt 0.965960 0.116746
vt 0.447396 0.116746
vt 0.965960 0.151231
vt 0.447396 0.151231
vt 0.965960 0.185715
vt 0.447396 0.185715
vt 0.965960 0.220200
vt 0.447396 0.220200
vt 0.965960 0.254684
vt 0.447396 0.254684
vt 0.965960 0.289169
vt 0.447396 0.289169
vt 0.965960 0.323653
vt 0.447396 0.323653
vt 0.965960 0.358138
vt 0.447396 0.358138
vt 0.965960 0.392622
vt 0.447396 0.392622
vt 0.210753 0.186047
vt 0.228099 0.198649
vt 0.200033 0.217652
vt 0.189313 0.186047
vt 0.171968 0.198649
vt 0.165343 0.219040
vt 0.171968 0.239430
vt 0.189313 0.252032
vt 0.210753 0.252032
vt 0.228099 0.239430
vt 0.234724 0.219040
vt 0.123800 0.374315
vt 0.106454 0.386917
vt 0.095734 0.352537
vt 0.085014 0.386917
vt 0.067669 0.374315
vt 0.061044 0.353925
vt 0.067669 0.333534
vt 0.085014 0.320932
vt 0.106454 0.320932
vt 0.123800 0.333534
vt 0.130425 0.353925
vn 0.675863 0.676050 0.293541
vn 0.499733 0.859057 0.110855
vn 0.499733 0.859057 0.110855
vn 0.675863 0.676050 0.293541
vn 0.022752 0.963115 -0.268126
vn 0.022752 0.963115 -0.268126
vn -0.462920 0.699297 -0.544691
vn -0.462920 0.699297 -0.544691
vn -0.771773 0.168371 -0.613203
vn -0.771773 0.168371 -0.613203
vn -0.785834 -0.426867 -0.447492
vn -0.785834 -0.426867 -0.447492
vn -0.499733 -0.859056 -0.110855
vn -0.499733 -0.859056 -0.110855
vn -0.022752 -0.963115 0.268126
vn -0.022752 -0.963115 0.268126
vn 0.462920 -0.699297 0.544691
vn 0.462920 -0.699297 0.544691
vn 0.771773 -0.168371 0.613203
vn 0.771773 -0.168371 0.613203
vn 0.818882 0.135899 0.557641
vn 0.818882 0.135899 0.557641
vn 0.573512 -0.232250 -0.785585
vn 0.573511 -0.232250 -0.785585
vn 0.573511 -0.232251 -0.785586
vn 0.573510 -0.232250 -0.785586
vn 0.573511 -0.232250 -0.785586
vn 0.573511 -0.232252 -0.785585
vn 0.573512 -0.232252 -0.785585
vn 0.573510 -0.232251 -0.785586
vn 0.573510 -0.232250 -0.785586
vn 0.573511 -0.232250 -0.785586
vn 0.573510 -0.232250 -0.785587
vn -0.573512 0.232251 0.785585
vn -0.573509 0.232252 0.785587
vn -0.573510 0.232251 0.785586
vn -0.573508 0.232251 0.785588
vn -0.573512 0.232250 0.785585
vn -0.573511 0.232251 0.785586
vn -0.573510 0.232251 0.785586
vn -0.573511 0.232250 0.785586
vn -0.573511 0.232250 0.785586
vn -0.573511 0.232251 0.785586
vn -0.573510 0.232251 0.785586
vn 0.023628 0.858758 0.511837
vn 0.035340 0.974539 0.221415
vn 0.035340 0.974539 0.221415
vn 0.023628 0.858758 0.511837
vn 0.047580 0.917922 -0.393898
vn 0.047580 0.917922 -0.393898
vn 0.041646 0.510690 -0.858756
vn 0.041646 0.510690 -0.858756
vn 0.019804 -0.091609 -0.995598
vn 0.019804 -0.091609 -0.995598
vn -0.009602 -0.658915 -0.752156
vn -0.009602 -0.658915 -0.752156
vn -0.035340 -0.974539 -0.221416
vn -0.035340 -0.974539 -0.221416
vn -0.047580 -0.917922 0.393898
vn -0.047580 -0.917922 0.393898
vn -0.041646 -0.510690 0.858756
vn -0.041646 -0.510690 0.858756
vn -0.019804 0.091609 0.995598
vn -0.019804 0.091609 0.995598
vn -0.005364 0.394573 0.918849
vn -0.005364 0.394573 0.918849
vn 0.998853 -0.041606 0.023696
vn 0.998853 -0.041606 0.023697
vn 0.998853 -0.041606 0.023697
vn 0.998853 -0.041604 0.023697
vn 0.998853 -0.041605 0.023697
vn 0.998853 -0.041606 0.023697
vn 0.998853 -0.041606 0.023697
vn 0.998853 -0.041607 0.023698
vn 0.998853 -0.041607 0.023698
vn 0.998853 -0.041607 0.023697
vn 0.998853 -0.041606 0.023698
vn -0.998853 0.041606 -0.023697
vn -0.998853 0.041607 -0.023698
vn -0.998853 0.041606 -0.023697
vn -0.998853 0.041607 -0.023698
vn -0.998853 0.041606 -0.023697
vn -0.998853 0.041606 -0.023698
vn -0.998853 0.041606 -0.023697
vn -0.998853 0.041606 -0.023696
vn -0.998853 0.041607 -0.023697
vn -0.998853 0.041606 -0.023697
vn -0.998853 0.041605 -0.023697
vn -0.074661 0.862096 0.501216
vn -0.016333 0.976294 0.215832
vn -0.016333 0.976294 0.215831
vn -0.074661 0.862096 0.501215
vn 0.099253 0.916167 -0.388314
vn 0.099253 0.916167 -0.388314
vn 0.176927 0.506095 -0.844136
vn 0.176927 0.506095 -0.844136
vn 0.187022 -0.097288 -0.977526
vn 0.187022 -0.097288 -0.977526
vn 0.125680 -0.663510 -0.737536
vn 0.125680 -0.663510 -0.737536
vn 0.016333 -0.976294 -0.215831
vn 0.016333 -0.976294 -0.215831
vn -0.099253 -0.916167 0.388314
vn -0.099253 -0.916167 0.388314
vn -0.176927 -0.506095 0.844135
vn -0.176927 -0.506095 0.844136
vn -0.187022 0.097288 0.977527
vn -0.187022 0.097287 0.977527
vn -0.164397 0.399976 0.901661
vn -0.164397 0.399976 0.901661
vn 0.981388 -0.025655 0.190313
vn 0.981388 -0.025657 0.190314
vn 0.981388 -0.025655 0.190314
vn 0.981388 -0.025654 0.190314
vn 0.981388 -0.025655 0.190314
vn 0.981388 -0.025656 0.190314
vn 0.981388 -0.025656 0.190313
vn 0.981388 -0.025655 0.190314
vn 0.981388 -0.025654 0.190314
vn 0.981388 -0.025654 0.190314
vn 0.981388 -0.025655 0.190314
vn -0.981388 0.025659 -0.190313
vn -0.981388 0.025658 -0.190313
vn -0.981388 0.025655 -0.190314
vn -0.981388 0.025655 -0.190315
vn -0.981388 0.025654 -0.190314
vn -0.981388 0.025655 -0.190315
vn -0.981388 0.025655 -0.190314
vn -0.981388 0.025654 -0.190312
vn -0.981388 0.025650 -0.190315
vn -0.981388 0.025654 -0.190315
vn -0.981388 0.025659 -0.190314
vn 0.527503 0.830945 0.176837
vn 0.239949 0.954224 0.178552
vn 0.239949 0.954224 0.178552
vn 0.527503 0.830945 0.176837
vn -0.375173 0.917639 0.131091
vn -0.375172 0.917639 0.131091
vn -0.846991 0.530547 0.033558
vn -0.846991 0.530547 0.033558
vn -0.995288 -0.059196 -0.076793
vn -0.995288 -0.059196 -0.076793
vn -0.763419 -0.626329 -0.157812
vn -0.763419 -0.626328 -0.157812
vn -0.239950 -0.954224 -0.178552
vn -0.239950 -0.954224 -0.178552
vn 0.375172 -0.917639 -0.131091
vn 0.375173 -0.917639 -0.131091
vn 0.846991 -0.530547 -0.033558
vn 0.846991 -0.530547 -0.033558
vn 0.995288 0.059196 0.076793
vn 0.995288 0.059196 0.076793
vn 0.924607 0.360402 0.123339
vn 0.924607 0.360402 0.123339
vn 0.065935 0.167482 -0.983668
vn 0.065935 0.167481 -0.983668
vn 0.065935 0.167481 -0.983668
vn 0.065937 0.167482 -0.983668
vn 0.065935 0.167480 -0.983668
vn 0.065934 0.167479 -0.983668
vn 0.065934 0.167480 -0.983668
vn 0.065934 0.167480 -0.983668
vn 0.065936 0.167480 -0.983668
vn 0.065937 0.167480 -0.983668
vn 0.065935 0.167480 -0.983668
vn -0.065936 -0.167481 0.983668
vn -0.065939 -0.167480 0.983668
vn -0.065936 -0.167481 0.983668
vn -0.065937 -0.167480 0.983668
vn -0.065934 -0.167480 0.983668
vn -0.065936 -0.167480 0.983668
vn -0.065934 -0.167482 0.983668
vn -0.065935 -0.167481 0.983668
vn -0.065935 -0.167480 0.983668
vn -0.065935 -0.167481 0.983668
vn -0.065936 -0.167482 0.983668
vn 0.395165 0.909593 -0.128397
vn 0.336147 0.909593 -0.244225
vn 0.000000 1.000000 0.000000
vn 0.244225 0.909593 -0.336147
vn 0.128397 0.909593 -0.395165
vn -0.000000 0.909593 -0.415501
vn -0.128397 0.909593 -0.395165
vn -0.244225 0.909593 -0.336147
vn -0.336148 0.909593 -0.244225
vn -0.395165 0.909593 -0.128397
vn -0.415501 0.909593 -0.000000
vn -0.395165 0.909593 0.128397
vn -0.336147 0.909593 0.244226
vn -0.244225 0.909593 0.336148
vn -0.128397 0.909593 0.395165
vn 0.000000 0.909593 0.415501
vn 0.128397 0.909593 0.395165
vn 0.244226 0.909593 0.336148
vn 0.336148 0.909593 0.244226
vn 0.395165 0.909593 0.128397
vn 0.415501 0.909593 0.000000
vn 0.628713 0.530695 -0.568404
vn 0.413291 0.751151 -0.514746
vn 0.413291 0.751151 -0.514746
vn 0.628713 0.530695 -0.568404
vn -0.113874 0.957098 -0.266452
vn -0.113874 0.957098 -0.266452
vn -0.597542 0.797466 0.083618
vn -0.597543 0.797465 0.083618
vn -0.852970 0.333228 0.401748
vn -0.852970 0.333229 0.401748
vn -0.782592 -0.258290 0.566424
vn -0.782592 -0.258290 0.566424
vn -0.413291 -0.751151 0.514745
vn -0.413290 -0.751151 0.514745
vn 0.113875 -0.957098 0.266451
vn 0.113875 -0.957098 0.266451
vn 0.597542 -0.797466 -0.083617
vn 0.597542 -0.797466 -0.083617
vn 0.852970 -0.333229 -0.401748
vn 0.852970 -0.333229 -0.401748
vn 0.859865 -0.039398 -0.508998
vn 0.859866 -0.039398 -0.508998
vn -0.497657 -0.287074 -0.818490
vn -0.497658 -0.287074 -0.818489
vn -0.497658 -0.287074 -0.818489
vn -0.497658 -0.287075 -0.818489
vn -0.497661 -0.287074 -0.818488
vn -0.497658 -0.287073 -0.818490
vn -0.497658 -0.287074 -0.818490
vn -0.497658 -0.287074 -0.818489
vn -0.497659 -0.287074 -0.818489
vn -0.497659 -0.287073 -0.818489
vn -0.497657 -0.287073 -0.818490
vn 0.497659 0.287074 0.818489
vn 0.497658 0.287075 0.818489
vn 0.497659 0.287074 0.818489
vn 0.497660 0.287074 0.818488
vn 0.497660 0.287074 0.818488
vn 0.497658 0.287074 0.818489
vn 0.497658 0.287074 0.818489
vn 0.497659 0.287074 0.818489
vn 0.497658 0.287074 0.818489
vn 0.497658 0.287075 0.818489
vn 0.497659 0.287075 0.818489
s 1
g Fireplace
usemtl lambert2SG
f 1/11/1 2/12/2 12/23/3 11/22/4
f 2/12/2 3/13/5 13/24/6 12/23/3
f 3/13/5 4/14/7 14/25/8 13/24/6
f 4/14/7 5/15/9 15/26/10 14/25/8
f 5/15/9 6/16/11 16/27/12 15/26/10
f 6/16/11 7/17/13 17/28/14 16/27/12
f 7/17/13 8/18/15 18/29/16 17/28/14
f 8/18/15 9/19/17 19/30/18 18/29/16
f 9/19/17 10/20/19 20/31/20 19/30/18
f 10/20/19 1/21/21 11/32/22 20/31/20
s 2
f 2/2/23 1/1/24 21/43/25
f 3/3/26 2/2/23 21/43/25
f 4/4/27 3/3/26 21/43/25
f 5/5/28 4/4/27 21/43/25
f 6/6/29 5/5/28 21/43/25
f 7/7/30 6/6/29 21/43/25
f 8/8/31 7/7/30 21/43/25
f 9/9/32 8/8/31 21/43/25
f 10/10/33 9/9/32 21/43/25
f 1/1/24 10/10/33 21/43/25
s 3
f 11/41/34 12/40/35 22/44/36
f 12/40/35 13/39/37 22/44/36
f 13/39/37 14/38/38 22/44/36
f 14/38/38 15/37/39 22/44/36
f 15/37/39 16/36/40 22/44/36
f 16/36/40 17/35/41 22/44/36
f 17/35/41 18/34/42 22/44/36
f 18/34/42 19/33/43 22/44/36
f 19/33/43 20/42/44 22/44/36
f 20/42/44 11/41/34 22/44/36
s 4
f 23/45/45 24/46/46 34/47/47 33/48/48
f 24/46/46 25/49/49 35/50/50 34/47/47
f 25/49/49 26/51/51 36/52/52 35/50/50
f 26/51/51 27/53/53 37/54/54 36/52/52
f 27/53/53 28/55/55 38/56/56 37/54/54
f 28/55/55 29/57/57 39/58/58 38/56/56
f 29/57/57 30/59/59 40/60/60 39/58/58
f 30/59/59 31/61/61 41/62/62 40/60/60
f 31/61/61 32/63/63 42/64/64 41/62/62
f 32/63/63 23/65/65 33/66/66 42/64/64
s 5
f 24/67/67 23/68/68 43/69/69
f 25/70/70 24/67/67 43/69/69
f 26/71/71 25/70/70 43/69/69
f 27/72/72 26/71/71 43/69/69
f 28/73/73 27/72/72 43/69/69
f 29/74/74 28/73/73 43/69/69
f 30/75/75 29/74/74 43/69/69
f 31/76/76 30/75/75 43/69/69
f 32/77/77 31/76/76 43/69/69
f 23/68/68 32/77/77 43/69/69
s 6
f 33/78/78 34/79/79 44/80/80
f 34/79/79 35/81/81 44/80/80
f 35/81/81 36/82/82 44/80/80
f 36/82/82 37/83/83 44/80/80
f 37/83/83 38/84/84 44/80/80
f 38/84/84 39/85/85 44/80/80
f 39/85/85 40/86/86 44/80/80
f 40/86/86 41/87/87 44/80/80
f 41/87/87 42/88/88 44/80/80
f 42/88/88 33/78/78 44/80/80
s 7
f 45/89/89 46/90/90 56/91/91 55/92/92
f 46/90/90 47/93/93 57/94/94 56/91/91
f 47/93/93 48/95/95 58/96/96 57/94/94
f 48/95/95 49/97/97 59/98/98 58/96/96
f 49/97/97 50/99/99 60/100/100 59/98/98
f 50/99/99 51/101/101 61/102/102 60/100/100
f 51/101/101 52/103/103 62/104/104 61/102/102
f 52/103/103 53/105/105 63/106/106 62/104/104
f 53/105/105 54/107/107 64/108/108 63/106/106
f 54/107/107 45/109/109 55/110/110 64/108/108
s 8
f 46/111/111 45/112/112 65/113/113
f 47/114/114 46/111/111 65/113/113
f 48/115/115 47/114/114 65/113/113
f 49/116/116 48/115/115 65/113/113
f 50/117/117 49/116/116 65/113/113
f 51/118/118 50/117/117 65/113/113
f 52/119/119 51/118/118 65/113/113
f 53/120/120 52/119/119 65/113/113
f 54/121/121 53/120/120 65/113/113
f 45/112/112 54/121/121 65/113/113
s 9
f 55/122/122 56/123/123 66/124/124
f 56/123/123 57/125/125 66/124/124
f 57/125/125 58/126/126 66/124/124
f 58/126/126 59/127/127 66/124/124
f 59/127/127 60/128/128 66/124/124
f 60/128/128 61/129/129 66/124/124
f 61/129/129 62/130/130 66/124/124
f 62/130/130 63/131/131 66/124/124
f 63/131/131 64/132/132 66/124/124
f 64/132/132 55/122/122 66/124/124
s 10
f 67/133/133 68/134/134 78/135/135 77/136/136
f 68/134/134 69/137/137 79/138/138 78/135/135
f 69/137/137 70/139/139 80/140/140 79/138/138
f 70/139/139 71/141/141 81/142/142 80/140/140
f 71/141/141 72/143/143 82/144/144 81/142/142
f 72/143/143 73/145/145 83/146/146 82/144/144
f 73/145/145 74/147/147 84/148/148 83/146/146
f 74/147/147 75/149/149 85/150/150 84/148/148
f 75/149/149 76/151/151 86/152/152 85/150/150
f 76/151/151 67/153/153 77/154/154 86/152/152
s 11
f 68/155/155 67/156/156 87/157/157
f 69/158/158 68/155/155 87/157/157
f 70/159/159 69/158/158 87/157/157
f 71/160/160 70/159/159 87/157/157
f 72/161/161 71/160/160 87/157/157
f 73/162/162 72/161/161 87/157/157
f 74/163/163 73/162/162 87/157/157
f 75/164/164 74/163/163 87/157/157
f 76/165/165 75/164/164 87/157/157
f 67/156/156 76/165/165 87/157/157
s 12
f 77/166/166 78/167/167 88/168/168
f 78/167/167 79/169/169 88/168/168
f 79/169/169 80/170/170 88/168/168
f 80/170/170 81/171/171 88/168/168
f 81/171/171 82/172/172 88/168/168
f 82/172/172 83/173/173 88/168/168
f 83/173/173 84/174/174 88/168/168
f 84/174/174 85/175/175 88/168/168
f 85/175/175 86/176/176 88/168/168
f 86/176/176 77/166/166 88/168/168
s 13
f 89/177/177 90/178/178 109/179/179
f 90/178/178 91/180/180 109/179/179
f 91/180/180 92/181/181 109/179/179
f 92/181/181 93/182/182 109/179/179
f 93/182/182 94/183/183 109/179/179
f 94/183/183 95/184/184 109/179/179
f 95/184/184 96/185/185 109/179/179
f 96/185/185 97/186/186 109/179/179
f 97/186/186 98/187/187 109/179/179
f 98/187/187 99/188/188 109/179/179
f 99/188/188 100/189/189 109/179/179
f 100/189/189 101/190/190 109/179/179
f 101/190/190 102/191/191 109/179/179
f 102/191/191 103/192/192 109/179/179
f 103/192/192 104/193/193 109/179/179
f 104/193/193 105/194/194 109/179/179
f 105/194/194 106/195/195 109/179/179
f 106/195/195 107/196/196 109/179/179
f 107/196/196 108/197/197 109/179/179
f 108/197/197 89/177/177 109/179/179
s 14
f 110/198/198 111/199/199 121/200/200 120/201/201
f 111/199/199 112/202/202 122/203/203 121/200/200
f 112/202/202 113/204/204 123/205/205 122/203/203
f 113/204/204 114/206/206 124/207/207 123/205/205
f 114/206/206 115/208/208 125/209/209 124/207/207
f 115/208/208 116/210/210 126/211/211 125/209/209
f 116/210/210 117/212/212 127/213/213 126/211/211
f 117/212/212 118/214/214 128/215/215 127/213/213
f 118/214/214 119/216/216 129/217/217 128/215/215
f 119/216/216 110/218/218 120/219/219 129/217/217
s 15
f 111/220/220 110/221/221 130/222/222
f 112/223/223 111/220/220 130/222/222
f 113/224/224 112/223/223 130/222/222
f 114/225/225 113/224/224 130/222/222
f 115/226/226 114/225/225 130/222/222
f 116/227/227 115/226/226 130/222/222
f 117/228/228 116/227/227 130/222/222
f 118/229/229 117/228/228 130/222/222
f 119/230/230 118/229/229 130/222/222
f 110/221/221 119/230/230 130/222/222
s 16
f 120/231/231 121/232/232 131/233/233
f 121/232/232 122/234/234 131/233/233
f 122/234/234 123/235/235 131/233/233
f 123/235/235 124/236/236 131/233/233
f 124/236/236 125/237/237 131/233/233
f 125/237/237 126/238/238 131/233/233
f 126/238/238 127/239/239 131/233/233
f 127/239/239 128/240/240 131/233/233
f 128/240/240 129/241/241 131/233/233
f 129/241/241 120/231/231 131/233/233
