# This file uses centimeters as units for non-parametric coordinates.

mtllib Fireplace_LOD.mtl
g default
v 2.077948 -0.241947 -0.645332
v 1.331036 -0.241947 -1.673368
v 0.122505 -0.241947 -2.066043
v -1.086023 -0.241947 -1.673368
v -1.832936 -0.241947 -0.645331
v -1.832936 -0.241947 0.625392
v -1.086023 -0.241947 1.653429
v 0.122505 -0.241947 2.046103
v 1.331036 -0.241947 1.653429
v 2.077947 -0.241947 0.625391
v 0.122505 0.697266 -0.009970
vt 0.098126 0.884660
vt 0.327289 0.693371
vt 0.029455 0.713428
vt 0.074547 0.534535
vt 0.216177 0.416312
vt 0.400249 0.403916
vt 0.556452 0.502081
vt 0.625123 0.673313
vt 0.580031 0.852206
vt 0.438401 0.970429
vt 0.254329 0.982825
vn 0.000000 1.000000 0.000000
vn 0.395165 0.909593 -0.128397
vn 0.244225 0.909593 -0.336147
vn 0.000000 1.000000 0.000000
vn 0.244225 0.909593 -0.336147
vn -0.000000 0.909593 -0.415501
vn 0.000000 1.000000 0.000000
vn -0.000000 0.909593 -0.415501
vn -0.244225 0.909593 -0.336147
vn 0.000000 1.000000 0.000000
vn -0.244225 0.909593 -0.336147
vn -0.395165 0.909593 -0.128397
vn 0.000000 1.000000 0.000000
vn -0.395165 0.909593 -0.128397
vn -0.395165 0.909593 0.128397
vn 0.000000 1.000000 0.000000
vn -0.395165 0.909593 0.128397
vn -0.244225 0.909593 0.336148
vn 0.000000 1.000000 0.000000
vn -0.244225 0.909593 0.336148
vn 0.000000 0.909593 0.415501
vn 0.000000 1.000000 0.000000
vn 0.000000 0.909593 0.415501
vn 0.244226 0.909592 0.336148
vn 0.000000 1.000000 0.000000
vn 0.244226 0.909592 0.336148
vn 0.395165 0.909593 0.128397
vn 0.000000 1.000000 0.000000
vn 0.395165 0.909593 0.128397
vn 0.395165 0.909593 -0.128397
s off
g Fireplace:Fireplace
usemtl Fireplace:lambert2SG
f 11/2/1 1/1/2 2/3/3
f 11/2/4 2/3/5 3/4/6
f 11/2/7 3/4/8 4/5/9
f 11/2/10 4/5/11 5/6/12
f 11/2/13 5/6/14 6/7/15
f 11/2/16 6/7/17 7/8/18
f 11/2/19 7/8/20 8/9/21
f 11/2/22 8/9/23 9/10/24
f 11/2/25 9/10/26 10/11/27
f 11/2/28 10/11/29 1/1/30
