# This file uses centimeters as units for non-parametric coordinates.

mtllib Rock.mtl
g default
v 0.010603 0.090627 -0.341081
v -0.210392 0.058306 -0.512076
v -0.470658 0.053110 -0.572001
v -0.667757 0.041803 -0.456121
v -0.744210 0.028871 -0.309537
v -0.669270 0.064844 -0.223955
v -0.477077 0.078881 -0.126658
v -0.214715 0.078113 -0.080645
v 0.013127 0.116373 -0.080958
v 0.086075 0.112413 -0.177114
v 0.341109 0.032811 -0.296539
v -0.058311 0.008377 -0.664887
v -0.543833 0.032256 -0.786230
v -0.907705 0.013727 -0.495479
v -1.082529 0.014414 -0.198158
v -0.938582 0.045638 -0.069912
v -0.512596 0.050330 -0.009106
v 0.017429 0.165556 0.173555
v 0.383327 0.148275 0.195336
v 0.498841 0.068381 0.030264
v 0.572887 0.055308 -0.286549
v 0.072541 0.057856 -0.792039
v -0.563491 0.103682 -0.947581
v -1.073801 0.073357 -0.559406
v -1.285687 0.073737 -0.133533
v -1.068458 0.076398 0.091768
v -0.484000 0.200389 0.200943
v 0.172544 0.280001 0.386014
v 0.612191 0.174379 0.359306
v 0.770500 0.062440 0.135177
v 0.675983 0.225349 -0.261277
v 0.154257 0.220292 -0.866773
v -0.535030 0.232370 -1.021446
v -1.152777 0.206110 -0.619787
v -1.347727 0.137265 -0.099695
v -1.077451 0.180687 0.183879
v -0.453153 0.396007 0.347960
v 0.241661 0.417243 0.488960
v 0.702321 0.301715 0.447708
v 0.895356 0.194121 0.197101
v 0.727443 0.380992 -0.321964
v 0.177483 0.382623 -0.931311
v -0.535210 0.360398 -1.076360
v -1.074799 0.328719 -0.564818
v -1.283420 0.239820 -0.095736
v -1.001289 0.370723 0.172006
v -0.340295 0.616613 0.441069
v 0.303706 0.542125 0.580034
v 0.788916 0.416130 0.529974
v 1.015864 0.320963 0.254047
v 0.519400 0.599341 -0.306022
v 0.077849 0.569126 -0.808708
v -0.461643 0.507443 -0.939959
v -0.945421 0.468221 -0.528298
v -1.085568 0.431166 -0.128003
v -0.821414 0.580448 0.129389
v -0.227026 0.751242 0.400575
v 0.321093 0.670631 0.533339
v 0.666101 0.590459 0.480310
v 0.804953 0.545255 0.175411
v 0.312043 0.800988 -0.324882
v 0.005216 0.763785 -0.660715
v -0.362237 0.704757 -0.764435
v -0.750840 0.675927 -0.469006
v -0.842233 0.678813 -0.151276
v -0.617453 0.774195 0.104495
v -0.147344 0.868473 0.336259
v 0.246554 0.810230 0.390647
v 0.466778 0.787410 0.347454
v 0.561757 0.762252 0.113554
v 0.121520 1.014477 -0.277884
v -0.048170 0.978529 -0.504711
v -0.276297 0.928243 -0.553280
v -0.500773 0.921319 -0.374276
v -0.540122 0.949645 -0.156492
v -0.382110 1.017446 0.067461
v -0.125353 1.026500 0.211617
v 0.100437 0.997776 0.248655
v 0.264101 0.988480 0.184723
v 0.281524 1.022034 -0.000382
v -0.038238 1.194618 -0.216156
v -0.091703 1.188636 -0.284928
v -0.176491 1.182880 -0.316364
v -0.244690 1.174967 -0.251270
v -0.252855 1.194214 -0.143999
v -0.207960 1.217767 -0.042696
v -0.120739 1.210286 0.023885
v -0.028960 1.181128 0.036162
v 0.026926 1.176924 -0.014522
v 0.016477 1.203788 -0.117084
v -0.391234 0.082371 -0.368256
v -0.116263 1.313145 -0.157421
vt 0.277705 0.792369
vt 0.332007 0.827833
vt 0.303931 0.870029
vt 0.201799 0.797868
vt 0.391556 0.835412
vt 0.416634 0.883458
vt 0.430855 0.804989
vt 0.485421 0.809646
vt 0.443734 0.770257
vt 0.514922 0.743764
vt 0.425069 0.750401
vt 0.483467 0.715113
vt 0.381532 0.729528
vt 0.388937 0.700188
vt 0.321806 0.722867
vt 0.261472 0.664502
vt 0.269500 0.728300
vt 0.175509 0.677300
vt 0.255866 0.754339
vt 0.156184 0.726532
vt 0.280109 0.906371
vt 0.149131 0.805531
vt 0.429768 0.923338
vt 0.527048 0.821207
vt 0.559666 0.729020
vt 0.515607 0.682147
vt 0.382667 0.638848
vt 0.216697 0.611317
vt 0.113609 0.653365
vt 0.094153 0.717918
vt 0.259300 0.947517
vt 0.104759 0.823035
vt 0.435727 0.958907
vt 0.561488 0.839652
vt 0.579089 0.720742
vt 0.525773 0.654702
vt 0.378320 0.580981
vt 0.194786 0.571935
vt 0.082364 0.626039
vt 0.052392 0.706817
vt 0.438974 0.045705
vt 0.203323 0.009766
vt 0.577027 0.202662
vt 0.550013 0.412782
vt 0.478895 0.537288
vt 0.372256 0.521692
vt 0.196097 0.417918
vt 0.060322 0.288744
vt 0.009766 0.158500
vt 0.029557 0.060479
vt 0.416340 0.101147
vt 0.236648 0.074296
vt 0.525325 0.209032
vt 0.512756 0.384331
vt 0.447154 0.479210
vt 0.347050 0.460052
vt 0.194395 0.375101
vt 0.087946 0.269504
vt 0.056258 0.183552
vt 0.092480 0.103584
vt 0.385995 0.151488
vt 0.272526 0.129798
vt 0.460304 0.216887
vt 0.458186 0.344423
vt 0.405302 0.410617
vt 0.318784 0.402231
vt 0.202757 0.341072
vt 0.136630 0.264197
vt 0.120714 0.210286
vt 0.150396 0.152353
vt 0.352192 0.195810
vt 0.288129 0.189075
vt 0.393696 0.232577
vt 0.392498 0.301448
vt 0.356190 0.339152
vt 0.292213 0.336668
vt 0.231354 0.308350
vt 0.195618 0.270120
vt 0.186794 0.230114
vt 0.219190 0.202480
vt 0.313123 0.237102
vt 0.295761 0.235157
vt 0.327807 0.248602
vt 0.328721 0.268373
vt 0.311732 0.282204
vt 0.289504 0.283649
vt 0.268547 0.277774
vt 0.254134 0.264610
vt 0.254911 0.248844
vt 0.273522 0.239135
vt 0.366718 0.788283
vt 0.295032 0.257872
vt 0.009766 0.695383
vt 0.077004 0.855763
vt 0.052438 0.600963
vt 0.174045 0.537561
vt 0.351111 0.524004
vt 0.530581 0.612716
vt 0.601486 0.712720
vt 0.589877 0.857062
vt 0.445199 0.990234
vt 0.249937 0.988659
vn -0.126583 -0.964847 0.230320
vn -0.081658 -0.974571 0.208669
vn 0.010469 -0.996560 -0.082214
vn -0.001137 -0.999371 0.035438
vn 0.016114 -0.991816 0.126658
vn -0.060542 -0.972192 -0.226223
vn 0.102230 -0.993715 0.045594
vn -0.126697 -0.977675 -0.167630
vn 0.107390 -0.990793 0.082438
vn -0.150320 -0.988553 0.012915
vn 0.096958 -0.994893 0.028055
vn 0.029976 -0.951720 0.305499
vn 0.071299 -0.997454 -0.001365
vn 0.040105 -0.947478 0.317298
vn 0.099099 -0.993407 0.057641
vn -0.019700 -0.910444 0.413163
vn -0.017570 -0.986277 0.164160
vn -0.125014 -0.926553 0.354784
vn -0.145258 -0.971101 0.189375
vn -0.085404 -0.979581 0.182011
vn 0.332859 -0.737018 -0.588226
vn 0.509330 -0.770174 -0.383947
vn -0.160272 -0.697066 -0.698865
vn -0.477375 -0.741231 -0.471900
vn -0.567109 -0.822980 -0.033055
vn -0.109396 -0.808608 0.578088
vn -0.036459 -0.745374 0.665648
vn -0.120640 -0.696252 0.707587
vn 0.017429 -0.772191 0.635151
vn 0.483586 -0.874349 0.040719
vn 0.492431 -0.447949 -0.746227
vn 0.728863 -0.452759 -0.513584
vn -0.152441 -0.323132 -0.933996
vn -0.754246 -0.072345 -0.652594
vn -0.994316 0.007784 0.106188
vn -0.324053 -0.317854 0.891044
vn -0.200352 -0.370642 0.906909
vn -0.142890 -0.488679 0.860683
vn 0.135084 -0.636079 0.759708
vn 0.747246 -0.664340 -0.016610
vn 0.480027 -0.410940 -0.775050
vn 0.721233 -0.428829 -0.543994
vn -0.152911 -0.174782 -0.972661
vn -0.729389 0.365268 -0.578422
vn -0.836610 0.514380 0.188406
vn -0.393482 0.028153 0.918901
vn -0.229919 -0.303519 0.924669
vn -0.139074 -0.466342 0.873604
vn 0.151529 -0.642603 0.751066
vn 0.710620 -0.697441 0.092705
vn 0.660429 0.629446 -0.409428
vn 0.420865 0.638057 -0.644792
vn 0.388079 0.635333 -0.667643
vn 0.635652 0.634749 -0.439363
vn -0.252904 0.694687 -0.673386
vn -0.220495 0.690729 -0.688676
vn -0.626453 0.700047 -0.342769
vn -0.603467 0.696967 -0.387382
vn -0.703596 0.709871 0.032196
vn -0.702740 0.710488 0.036917
vn -0.614789 0.658146 0.434601
vn -0.571134 0.644006 0.508981
vn -0.400477 0.528549 0.748502
vn -0.307669 0.546182 0.779118
vn -0.003921 0.377903 0.925837
vn 0.048394 0.531442 0.845712
vn 0.626851 0.642859 0.440218
vn 0.521408 0.667525 0.531549
vn 0.735039 0.672962 -0.082705
vn 0.714468 0.688394 -0.125098
vn 0.372177 0.631766 -0.679968
vn 0.630655 0.621200 -0.465171
vn -0.233945 0.694729 -0.680163
vn -0.580482 0.707036 -0.403907
vn -0.689411 0.724103 0.019670
vn -0.565224 0.663665 0.489970
vn -0.256359 0.612943 0.747383
vn 0.084845 0.679404 0.728843
vn 0.487458 0.779965 0.392477
vn 0.680131 0.720910 -0.133080
vn 0.352999 0.655735 -0.667386
vn 0.622453 0.633707 -0.459312
vn -0.250689 0.707215 -0.661061
vn -0.558331 0.727582 -0.398612
vn -0.667663 0.743771 0.032105
vn -0.545761 0.666501 0.507860
vn -0.257588 0.639461 0.724388
vn 0.105095 0.708356 0.697987
vn 0.471840 0.798525 0.373798
vn 0.664581 0.726416 -0.175076
vn 0.358055 0.699176 -0.618829
vn 0.595806 0.664873 -0.450510
vn -0.236130 0.736124 -0.634322
vn -0.562081 0.738861 -0.371685
vn -0.660515 0.750524 0.020822
vn -0.529097 0.736575 0.421323
vn -0.216584 0.738047 0.639045
vn 0.167767 0.797150 0.580005
vn 0.432799 0.846618 0.309715
vn 0.621966 0.751545 -0.219862
vn 0.051889 -0.996230 0.069529
vn -0.023377 0.996210 -0.083785
s 1
g pSphere1
usemtl initialShadingGroup
f 1/1/1 2/2/2 12/3/3 11/4/4
f 2/2/2 3/5/5 13/6/6 12/3/3
f 3/5/5 4/7/7 14/8/8 13/6/6
f 4/7/7 5/9/9 15/10/10 14/8/8
f 5/9/9 6/11/11 16/12/12 15/10/10
f 6/11/11 7/13/13 17/14/14 16/12/12
f 7/13/13 8/15/15 18/16/16 17/14/14
f 8/15/15 9/17/17 19/18/18 18/16/16
f 9/17/17 10/19/19 20/20/20 19/18/18
f 10/19/19 1/1/1 11/4/4 20/20/20
f 11/4/4 12/3/3 22/21/21 21/22/22
f 12/3/3 13/6/6 23/23/23 22/21/21
f 13/6/6 14/8/8 24/24/24 23/23/23
f 14/8/8 15/10/10 25/25/25 24/24/24
f 15/10/10 16/12/12 26/26/26 25/25/25
f 16/12/12 17/14/14 27/27/27 26/26/26
f 17/14/14 18/16/16 28/28/28 27/27/27
f 18/16/16 19/18/18 29/29/29 28/28/28
f 19/18/18 20/20/20 30/30/30 29/29/29
f 20/20/20 11/4/4 21/22/22 30/30/30
f 21/22/22 22/21/21 32/31/31 31/32/32
f 22/21/21 23/23/23 33/33/33 32/31/31
f 23/23/23 24/24/24 34/34/34 33/33/33
f 24/24/24 25/25/25 35/35/35 34/34/34
f 25/25/25 26/26/26 36/36/36 35/35/35
f 26/26/26 27/27/27 37/37/37 36/36/36
f 27/27/27 28/28/28 38/38/38 37/37/37
f 28/28/28 29/29/29 39/39/39 38/38/38
f 29/29/29 30/30/30 40/40/40 39/39/39
f 30/30/30 21/22/22 31/32/32 40/40/40
f 31/32/32 32/31/31 42/102/41 41/94/42
f 32/31/31 33/33/33 43/101/43 42/102/41
f 33/33/33 34/34/34 44/100/44 43/101/43
f 34/34/34 35/35/35 45/99/45 44/100/44
f 35/35/35 36/36/36 46/98/46 45/99/45
f 36/36/36 37/37/37 47/97/47 46/98/46
f 37/37/37 38/38/38 48/96/48 47/97/47
f 38/38/38 39/39/39 49/95/49 48/96/48
f 39/39/39 40/40/40 50/93/50 49/95/49
f 40/40/40 31/32/32 41/94/42 50/93/50
s 2
f 41/42/51 42/41/52 52/51/53 51/52/54
f 42/41/52 43/43/55 53/53/56 52/51/53
f 43/43/55 44/44/57 54/54/58 53/53/56
f 44/44/57 45/45/59 55/55/60 54/54/58
f 45/45/59 46/46/61 56/56/62 55/55/60
f 46/46/61 47/47/63 57/57/64 56/56/62
f 47/47/63 48/48/65 58/58/66 57/57/64
f 48/48/65 49/49/67 59/59/68 58/58/66
f 49/49/67 50/50/69 60/60/70 59/59/68
f 50/50/69 41/42/51 51/52/54 60/60/70
f 51/52/54 52/51/53 62/61/71 61/62/72
f 52/51/53 53/53/56 63/63/73 62/61/71
f 53/53/56 54/54/58 64/64/74 63/63/73
f 54/54/58 55/55/60 65/65/75 64/64/74
f 55/55/60 56/56/62 66/66/76 65/65/75
f 56/56/62 57/57/64 67/67/77 66/66/76
f 57/57/64 58/58/66 68/68/78 67/67/77
f 58/58/66 59/59/68 69/69/79 68/68/78
f 59/59/68 60/60/70 70/70/80 69/69/79
f 60/60/70 51/52/54 61/62/72 70/70/80
f 61/62/72 62/61/71 72/71/81 71/72/82
f 62/61/71 63/63/73 73/73/83 72/71/81
f 63/63/73 64/64/74 74/74/84 73/73/83
f 64/64/74 65/65/75 75/75/85 74/74/84
f 65/65/75 66/66/76 76/76/86 75/75/85
f 66/66/76 67/67/77 77/77/87 76/76/86
f 67/67/77 68/68/78 78/78/88 77/77/87
f 68/68/78 69/69/79 79/79/89 78/78/88
f 69/69/79 70/70/80 80/80/90 79/79/89
f 70/70/80 61/62/72 71/72/82 80/80/90
f 71/72/82 72/71/81 82/81/91 81/82/92
f 72/71/81 73/73/83 83/83/93 82/81/91
f 73/73/83 74/74/84 84/84/94 83/83/93
f 74/74/84 75/75/85 85/85/95 84/84/94
f 75/75/85 76/76/86 86/86/96 85/85/95
f 76/76/86 77/77/87 87/87/97 86/86/96
f 77/77/87 78/78/88 88/88/98 87/87/97
f 78/78/88 79/79/89 89/89/99 88/88/98
f 79/79/89 80/80/90 90/90/100 89/89/99
f 80/80/90 71/72/82 81/82/92 90/90/100
s 1
f 2/2/2 1/1/1 91/91/101
f 3/5/5 2/2/2 91/91/101
f 4/7/7 3/5/5 91/91/101
f 5/9/9 4/7/7 91/91/101
f 6/11/11 5/9/9 91/91/101
f 7/13/13 6/11/11 91/91/101
f 8/15/15 7/13/13 91/91/101
f 9/17/17 8/15/15 91/91/101
f 10/19/19 9/17/17 91/91/101
f 1/1/1 10/19/19 91/91/101
s 2
f 81/82/92 82/81/91 92/92/102
f 82/81/91 83/83/93 92/92/102
f 83/83/93 84/84/94 92/92/102
f 84/84/94 85/85/95 92/92/102
f 85/85/95 86/86/96 92/92/102
f 86/86/96 87/87/97 92/92/102
f 87/87/97 88/88/98 92/92/102
f 88/88/98 89/89/99 92/92/102
f 89/89/99 90/90/100 92/92/102
f 90/90/100 81/82/92 92/92/102
