# This file uses centimeters as units for non-parametric coordinates.

mtllib Rock.mtl
g default
v 1.015864 -0.088691 0.254047
v 0.177483 -0.027031 -0.931311
v -0.535210 -0.049256 -1.076360
v -1.283420 -0.169834 -0.095736
v -0.018294 0.169715 0.510552
v -0.391234 -0.327283 -0.368256
v -0.116263 0.903491 -0.157421
vt 0.253309 0.983543
vt 0.019444 0.690660
vt 0.440687 0.989308
vt 0.585259 0.712285
vt 0.264440 0.538078
vt 0.029571 0.060423
vt 0.438962 0.045749
vt 0.577002 0.202660
vt 0.478905 0.537341
vt 0.128233 0.353304
vt 0.366718 0.788283
vt 0.295032 0.257872
vn 0.332859 -0.737018 -0.588226
vn 0.509330 -0.770174 -0.383947
vn 0.051889 -0.996230 0.069529
vn -0.160272 -0.697066 -0.698865
vn 0.332859 -0.737018 -0.588226
vn 0.051889 -0.996230 0.069529
vn -0.477375 -0.741231 -0.471900
vn -0.160272 -0.697066 -0.698865
vn 0.051889 -0.996230 0.069529
vn -0.036459 -0.745374 0.665648
vn -0.109396 -0.808608 0.578088
vn 0.051889 -0.996230 0.069529
vn 0.017429 -0.772191 0.635151
vn -0.120640 -0.696252 0.707587
vn 0.051889 -0.996230 0.069529
vn 0.660429 0.629446 -0.409428
vn 0.420865 0.638057 -0.644792
vn -0.023377 0.996210 -0.083785
vn 0.420865 0.638057 -0.644792
vn -0.252904 0.694687 -0.673386
vn -0.023377 0.996210 -0.083785
vn -0.252904 0.694687 -0.673386
vn -0.626453 0.700047 -0.342769
vn -0.023377 0.996210 -0.083785
vn -0.614789 0.658146 0.434601
vn -0.400477 0.528549 0.748502
vn -0.023377 0.996210 -0.083785
vn -0.003921 0.377903 0.925837
vn 0.626850 0.642858 0.440218
vn -0.023377 0.996210 -0.083785
vn -0.614789 0.658146 0.434601
vn -0.400477 0.528549 0.748502
vn -0.023377 0.996210 -0.083785
vn -0.003921 0.377903 0.925837
vn 0.626850 0.642858 0.440218
vn -0.023377 0.996210 -0.083785
vn -0.023377 0.996210 -0.083785
vn -0.003921 0.377903 0.925837
vn 0.626850 0.642858 0.440218
vn -0.023377 0.996210 -0.083785
vn -0.023377 0.996210 -0.083785
vn -0.003921 0.377903 0.925837
vn 0.626850 0.642858 0.440218
vn -0.023377 0.996210 -0.083785
vn -0.023377 0.996210 -0.083785
vn -0.003921 0.377903 0.925837
vn 0.626850 0.642858 0.440218
vn -0.023377 0.996210 -0.083785
vn 0.626850 0.642858 0.440218
vn -0.023377 0.996210 -0.083785
vn -0.614789 0.658146 0.434601
vn -0.400477 0.528549 0.748502
vn -0.023377 0.996210 -0.083785
vn -0.003921 0.377903 0.925837
vn 0.626850 0.642858 0.440218
vn -0.023377 0.996210 -0.083785
vn -0.023377 0.996210 -0.083785
vn -0.003921 0.377903 0.925837
vn 0.626850 0.642858 0.440218
vn -0.023377 0.996210 -0.083785
vn -0.400477 0.528549 0.748502
vn -0.003921 0.377903 0.925837
vn -0.023377 0.996210 -0.083785
vn -0.003921 0.377903 0.925837
vn 0.626850 0.642858 0.440218
vn -0.023377 0.996210 -0.083785
vn -0.023377 0.996210 -0.083785
vn -0.003921 0.377903 0.925837
vn 0.626850 0.642858 0.440218
vn -0.023377 0.996210 -0.083785
vn -0.400477 0.528549 0.748502
vn -0.003921 0.377903 0.925837
vn -0.023377 0.996210 -0.083785
vn -0.003921 0.377903 0.925837
vn 0.626850 0.642858 0.440218
vn -0.023377 0.996210 -0.083785
vn -0.023377 0.996210 -0.083785
vn -0.003921 0.377903 0.925837
vn 0.626850 0.642858 0.440218
vn -0.023377 0.996210 -0.083785
vn -0.400477 0.528549 0.748502
vn -0.003921 0.377903 0.925837
vn -0.023377 0.996210 -0.083785
vn -0.003921 0.377903 0.925837
vn 0.626850 0.642858 0.440218
vn -0.023377 0.996210 -0.083785
vn -0.023377 0.996210 -0.083785
vn 0.626850 0.642858 0.440218
vn 0.735039 0.672962 -0.082705
vn -0.023377 0.996210 -0.083785
vn 0.626850 0.642858 0.440218
vn 0.735039 0.672962 -0.082705
vn -0.023377 0.996210 -0.083785
vn 0.735039 0.672962 -0.082705
vn 0.660429 0.629446 -0.409428
vn -0.023377 0.996210 -0.083785
vn -0.023377 0.996210 -0.083785
vn 0.735039 0.672962 -0.082705
vn 0.660429 0.629446 -0.409428
vn -0.023377 0.996210 -0.083785
s off
g Rock:pSphere1
usemtl Rock:initialShadingGroup
f 2/1/1 1/2/2 6/11/3
f 3/3/4 2/1/5 6/11/6
f 4/4/7 3/3/8 6/11/9
f 5/5/10 4/4/11 6/11/12
f 1/2/13 5/5/14 6/11/15
f 1/6/16 2/7/17 7/12/18
f 2/7/19 3/8/20 7/12/21
f 3/8/22 4/9/23 7/12/24
f 4/9/25 5/10/26 7/12/27
f 5/10/28 1/6/29 7/12/30
