# This file uses centimeters as units for non-parametric coordinates.

mtllib Ntoulapa_Door.mtl
g default
v 0.005176 2.927701 0.046829
v 2.243405 2.927701 0.046829
v 0.005176 2.927701 -0.155522
v 2.243405 2.927701 -0.155522
v 0.005176 -2.921246 0.046849
v 2.243405 -2.927701 0.047765
v 0.005176 -2.921246 -0.155503
v 2.243405 -2.927642 -0.154586
v 0.216205 -2.710412 -0.017657
v 2.032337 -2.716574 -0.016760
v 2.032357 2.716652 -0.017696
v 0.216224 2.716652 -0.017696
v 0.311813 -2.614940 0.052718
v 1.936690 -2.620712 0.053557
v 1.936729 2.621024 0.052660
v 0.311852 2.621024 0.052660
v 2.116168 -0.697447 0.155522
v 2.116168 -0.625453 0.155522
v 2.080171 -0.635086 0.155522
v 2.053807 -0.661450 0.155522
v 2.044174 -0.697447 0.155522
v 2.053807 -0.733444 0.155522
v 2.080171 -0.759808 0.155522
v 2.116168 -0.769441 0.155522
v 2.152165 -0.759808 0.155522
v 2.178529 -0.733444 0.155522
v 2.188162 -0.697447 0.155522
v 2.178529 -0.661450 0.155522
v 2.152165 -0.635086 0.155522
v 2.116168 -0.607630 0.039848
v 2.071259 -0.619661 0.039848
v 2.038382 -0.652538 0.039848
v 2.026351 -0.697447 0.039848
v 2.038382 -0.742355 0.039848
v 2.071259 -0.775232 0.039848
v 2.116168 -0.787264 0.039848
v 2.161076 -0.775232 0.039848
v 2.193953 -0.742355 0.039848
v 2.205985 -0.697447 0.039848
v 2.193953 -0.652538 0.039848
v 2.161076 -0.619661 0.039848
v 2.116168 -0.645538 0.076625
v 2.090213 -0.652499 0.076625
v 2.071220 -0.671492 0.076625
v 2.064259 -0.697447 0.076625
v 2.071220 -0.723401 0.076625
v 2.090213 -0.742394 0.076625
v 2.116168 -0.749356 0.076625
v 2.142122 -0.742394 0.076625
v 2.161115 -0.723401 0.076625
v 2.168077 -0.697447 0.076625
v 2.161115 -0.671492 0.076625
v 2.142122 -0.652499 0.076625
v 2.116168 -0.607805 0.121943
v 2.071357 -0.619817 0.121943
v 2.038538 -0.652636 0.121943
v 2.026526 -0.697447 0.121943
v 2.038538 -0.742258 0.121943
v 2.071357 -0.775076 0.121943
v 2.116168 -0.787088 0.121943
v 2.160979 -0.775076 0.121943
v 2.193797 -0.742258 0.121943
v 2.205809 -0.697447 0.121943
v 2.193797 -0.652636 0.121943
v 2.160979 -0.619817 0.121943
v 2.071259 -0.619661 -0.021148
v 2.116168 -0.607630 -0.021148
v 2.038382 -0.652538 -0.021148
v 2.026351 -0.697447 -0.021148
v 2.038382 -0.742355 -0.021148
v 2.071259 -0.775232 -0.021148
v 2.116168 -0.787264 -0.021148
v 2.161076 -0.775232 -0.021148
v 2.193953 -0.742355 -0.021148
v 2.205985 -0.697447 -0.021148
v 2.193953 -0.652538 -0.021148
v 2.161076 -0.619661 -0.021148
vt 0.337905 0.149204
vt 0.336686 0.043781
vt 0.346217 0.043667
vt 0.347436 0.149090
vt 0.984375 0.815012
vt 0.974844 0.815012
vt 0.974844 0.539505
vt 0.984375 0.539505
vt 0.693420 0.542042
vt 0.798845 0.542042
vt 0.798845 0.817693
vt 0.693420 0.817693
vt 0.871787 0.121055
vt 0.871787 0.015625
vt 0.881319 0.015625
vt 0.881319 0.121055
vt 0.980412 0.523139
vt 0.970880 0.523139
vt 0.970880 0.247327
vt 0.980412 0.247327
vt 0.791362 0.515325
vt 0.801698 0.525676
vt 0.693420 0.525592
vt 0.703846 0.515317
vt 0.694393 0.247326
vt 0.704730 0.257685
vt 0.802665 0.247697
vt 0.792241 0.257969
vt 0.785945 0.510096
vt 0.709323 0.510151
vt 0.710146 0.262924
vt 0.786763 0.263123
vt 0.875178 0.140813
vt 0.878569 0.140813
vt 0.878115 0.142508
vt 0.876873 0.143750
vt 0.875178 0.144204
vt 0.873482 0.143750
vt 0.872241 0.142508
vt 0.871787 0.140813
vt 0.872241 0.139117
vt 0.873482 0.137875
vt 0.875178 0.137422
vt 0.876873 0.137875
vt 0.878115 0.139117
vt 0.298706 0.612459
vt 0.298706 0.608955
vt 0.302317 0.608955
vt 0.302317 0.612459
vt 0.306057 0.608955
vt 0.306057 0.612459
vt 0.309821 0.608955
vt 0.309821 0.612459
vt 0.313592 0.608955
vt 0.313592 0.612459
vt 0.317113 0.608955
vt 0.317113 0.612459
vt 0.273266 0.612459
vt 0.273266 0.608955
vt 0.276736 0.608955
vt 0.276736 0.612459
vt 0.280482 0.608955
vt 0.280482 0.612459
vt 0.284178 0.608955
vt 0.284178 0.612459
vt 0.287829 0.608955
vt 0.287829 0.612459
vt 0.291455 0.608955
vt 0.291455 0.612459
vt 0.295077 0.608955
vt 0.295077 0.612459
vt 0.298706 0.603423
vt 0.298706 0.599223
vt 0.302317 0.599223
vt 0.302317 0.603423
vt 0.306057 0.599223
vt 0.306057 0.603423
vt 0.309821 0.599223
vt 0.309821 0.603423
vt 0.313591 0.599223
vt 0.313591 0.603423
vt 0.317113 0.599223
vt 0.317113 0.603423
vt 0.273266 0.603423
vt 0.273266 0.599223
vt 0.276736 0.599223
vt 0.276736 0.603423
vt 0.280482 0.599223
vt 0.280482 0.603423
vt 0.284178 0.599223
vt 0.284178 0.603423
vt 0.287829 0.599223
vt 0.287829 0.603423
vt 0.291455 0.599223
vt 0.291455 0.603423
vt 0.295077 0.599223
vt 0.295077 0.603423
vt 0.298706 0.593687
vt 0.302317 0.593687
vt 0.306057 0.593687
vt 0.309821 0.593687
vt 0.313592 0.593687
vt 0.317113 0.593687
vt 0.273266 0.593687
vt 0.276737 0.593687
vt 0.280482 0.593687
vt 0.284178 0.593687
vt 0.287829 0.593687
vt 0.291455 0.593687
vt 0.295077 0.593687
vn -0.002871 -0.999996 -0.000174
vn -0.002871 -0.999996 -0.000174
vn -0.002871 -0.999996 -0.000174
vn -0.002871 -0.999996 -0.000174
vn -1.000000 0.000001 -0.000001
vn -1.000000 0.000001 -0.000001
vn -1.000000 0.000001 -0.000001
vn -1.000000 0.000001 -0.000001
vn 0.000205 -0.000081 -1.000000
vn 0.000205 -0.000081 -1.000000
vn 0.000205 -0.000081 -1.000000
vn 0.000205 -0.000081 -1.000000
vn 0.000000 1.000000 0.000000
vn 0.000000 1.000000 0.000000
vn 0.000000 1.000000 0.000000
vn 0.000000 1.000000 0.000000
vn 1.000000 0.000000 0.000000
vn 1.000000 0.000000 0.000000
vn 1.000000 0.000000 0.000000
vn 1.000000 0.000000 0.000000
vn 0.116426 0.044570 0.992199
vn 0.218682 0.078782 0.972611
vn -0.218867 0.078506 0.972591
vn -0.116690 0.044914 0.992152
vn -0.116690 0.044914 0.992152
vn -0.218867 0.078506 0.972591
vn -0.218803 -0.078452 0.972610
vn -0.116615 -0.044540 0.992178
vn -0.116615 -0.044540 0.992178
vn -0.218803 -0.078452 0.972610
vn 0.218674 -0.078642 0.972624
vn 0.116484 -0.044697 0.992186
vn 0.116484 -0.044697 0.992186
vn 0.218674 -0.078642 0.972624
vn 0.218682 0.078782 0.972611
vn 0.116426 0.044570 0.992199
vn -0.056740 -0.018114 0.998225
vn 0.116426 0.044570 0.992199
vn -0.116690 0.044914 0.992152
vn 0.056441 -0.018205 0.998240
vn 0.056441 -0.018205 0.998240
vn -0.116690 0.044914 0.992152
vn -0.116615 -0.044540 0.992178
vn 0.056380 0.018346 0.998241
vn 0.056380 0.018346 0.998241
vn -0.116615 -0.044540 0.992178
vn 0.116484 -0.044697 0.992186
vn -0.056797 0.018335 0.998217
vn -0.056797 0.018335 0.998217
vn 0.116484 -0.044697 0.992186
vn 0.116426 0.044570 0.992199
vn -0.056740 -0.018114 0.998225
vn -0.056740 -0.018114 0.998225
vn 0.056441 -0.018205 0.998240
vn 0.056380 0.018346 0.998241
vn -0.056797 0.018335 0.998217
vn 0.000000 0.000000 1.000000
vn 0.000000 0.000000 1.000000
vn -0.000002 0.000000 1.000000
vn 0.000000 0.000000 1.000000
vn -0.000002 0.000000 1.000000
vn 0.000002 0.000000 1.000000
vn 0.000000 0.000000 1.000000
vn 0.000002 0.000000 1.000000
vn 0.000000 0.000000 1.000000
vn 0.000000 0.000000 1.000000
vn 0.000000 0.000000 1.000000
vn 0.000000 0.000000 1.000000
vn 0.000000 0.000000 1.000000
vn 0.000000 0.000000 1.000000
vn -0.000004 0.000000 1.000000
vn 0.000000 0.000000 1.000000
vn -0.000004 0.000000 1.000000
vn 0.000000 0.000000 1.000000
vn 0.000000 0.000000 1.000000
vn 0.000000 0.000000 1.000000
vn 0.000004 0.000000 1.000000
vn 0.000000 0.000000 1.000000
vn 0.000004 0.000000 1.000000
vn 0.000000 0.000000 1.000000
vn 0.000000 0.000000 1.000000
vn 0.000000 0.000000 1.000000
vn 0.000000 0.000000 1.000000
vn 0.000000 0.000000 1.000000
vn 0.000000 0.000000 1.000000
vn -0.000004 0.000000 1.000000
vn 0.000000 0.000000 1.000000
vn -0.000004 0.000000 1.000000
vn 0.000000 0.000000 1.000000
vn 0.000000 0.000000 1.000000
vn 0.000000 0.000000 1.000000
vn 0.000000 0.000000 1.000000
vn 0.000000 0.885299 0.465022
vn 0.000000 0.980678 -0.195628
vn -0.490373 0.849282 -0.195585
vn -0.442682 0.766722 0.464941
vn -0.442682 0.766722 0.464941
vn -0.490373 0.849282 -0.195585
vn -0.849284 0.490370 -0.195585
vn -0.766722 0.442682 0.464941
vn -0.766722 0.442682 0.464941
vn -0.849284 0.490370 -0.195585
vn -0.980678 0.000000 -0.195627
vn -0.885298 0.000000 0.465024
vn -0.885298 0.000000 0.465024
vn -0.980678 0.000000 -0.195627
vn -0.849284 -0.490371 -0.195585
vn -0.766721 -0.442684 0.464941
vn -0.766721 -0.442684 0.464941
vn -0.849284 -0.490371 -0.195585
vn -0.694350 -0.694347 -0.189104
vn -0.630650 -0.630648 0.452287
vn -0.230737 -0.861411 0.452472
vn -0.254186 -0.948464 -0.189225
vn 0.000000 -0.980678 -0.195628
vn 0.000000 -0.885300 0.465020
vn 0.000000 -0.885300 0.465020
vn 0.000000 -0.980678 -0.195628
vn 0.490373 -0.849282 -0.195585
vn 0.442685 -0.766723 0.464937
vn 0.442685 -0.766723 0.464937
vn 0.490373 -0.849282 -0.195585
vn 0.849285 -0.490370 -0.195584
vn 0.766724 -0.442683 0.464937
vn 0.766724 -0.442683 0.464937
vn 0.849285 -0.490370 -0.195584
vn 0.980679 0.000000 -0.195625
vn 0.885299 0.000000 0.465022
vn 0.885299 0.000000 0.465022
vn 0.980679 0.000000 -0.195625
vn 0.849285 0.490369 -0.195584
vn 0.766725 0.442681 0.464937
vn 0.766725 0.442681 0.464937
vn 0.849285 0.490369 -0.195584
vn 0.490373 0.849282 -0.195585
vn 0.442686 0.766721 0.464938
vn 0.442686 0.766721 0.464938
vn 0.490373 0.849282 -0.195585
vn 0.000000 0.980678 -0.195628
vn 0.000000 0.885299 0.465022
vn -0.000001 0.999966 0.008207
vn 0.000000 0.956641 0.291268
vn -0.478321 0.828482 0.291251
vn -0.500065 0.865949 0.008194
vn -0.500065 0.865949 0.008194
vn -0.478321 0.828482 0.291251
vn -0.828482 0.478320 0.291251
vn -0.865950 0.500063 0.008194
vn -0.865950 0.500063 0.008194
vn -0.828482 0.478320 0.291251
vn -0.956641 0.000000 0.291269
vn -0.999966 0.000000 0.008209
vn -0.999966 0.000000 0.008209
vn -0.956641 0.000000 0.291269
vn -0.828482 -0.478320 0.291252
vn -0.865950 -0.500063 0.008196
vn -0.865950 -0.500063 0.008196
vn -0.828482 -0.478320 0.291252
vn -0.678385 -0.678385 0.282112
vn -0.707086 -0.707084 0.007883
vn -0.258925 -0.965865 0.007949
vn -0.248300 -0.926682 0.282148
vn 0.000000 -0.956641 0.291268
vn 0.000000 -0.999966 0.008208
vn 0.000000 -0.999966 0.008208
vn 0.000000 -0.956641 0.291268
vn 0.478320 -0.828482 0.291251
vn 0.500066 -0.865949 0.008196
vn 0.500066 -0.865949 0.008196
vn 0.478320 -0.828482 0.291251
vn 0.828482 -0.478321 0.291251
vn 0.865952 -0.500060 0.008198
vn 0.865952 -0.500060 0.008198
vn 0.828482 -0.478321 0.291251
vn 0.956642 0.000000 0.291267
vn 0.999966 0.000000 0.008211
vn 0.999966 0.000000 0.008211
vn 0.956642 0.000000 0.291267
vn 0.828482 0.478321 0.291250
vn 0.865951 0.500061 0.008196
vn 0.865951 0.500061 0.008196
vn 0.828482 0.478321 0.291250
vn 0.478322 0.828481 0.291250
vn 0.500066 0.865949 0.008194
vn 0.500066 0.865949 0.008194
vn 0.478322 0.828481 0.291250
vn 0.000000 0.956641 0.291268
vn -0.000001 0.999966 0.008207
vn 0.000000 0.980678 -0.195628
vn -0.000001 0.999966 0.008207
vn -0.500065 0.865949 0.008194
vn -0.490373 0.849282 -0.195585
vn -0.490373 0.849282 -0.195585
vn -0.500065 0.865949 0.008194
vn -0.865950 0.500063 0.008194
vn -0.849284 0.490370 -0.195585
vn -0.849284 0.490370 -0.195585
vn -0.865950 0.500063 0.008194
vn -0.999966 0.000000 0.008209
vn -0.980678 0.000000 -0.195627
vn -0.980678 0.000000 -0.195627
vn -0.999966 0.000000 0.008209
vn -0.865950 -0.500063 0.008196
vn -0.849284 -0.490371 -0.195585
vn -0.849284 -0.490371 -0.195585
vn -0.865950 -0.500063 0.008196
vn -0.707086 -0.707084 0.007883
vn -0.694350 -0.694347 -0.189104
vn -0.254186 -0.948464 -0.189225
vn -0.258925 -0.965865 0.007949
vn 0.000000 -0.999966 0.008208
vn 0.000000 -0.980678 -0.195628
vn 0.000000 -0.980678 -0.195628
vn 0.000000 -0.999966 0.008208
vn 0.500066 -0.865949 0.008196
vn 0.490373 -0.849282 -0.195585
vn 0.490373 -0.849282 -0.195585
vn 0.500066 -0.865949 0.008196
vn 0.865952 -0.500060 0.008198
vn 0.849285 -0.490370 -0.195584
vn 0.849285 -0.490370 -0.195584
vn 0.865952 -0.500060 0.008198
vn 0.999966 0.000000 0.008211
vn 0.980679 0.000000 -0.195625
vn 0.980679 0.000000 -0.195625
vn 0.999966 0.000000 0.008211
vn 0.865951 0.500061 0.008196
vn 0.849285 0.490369 -0.195584
vn 0.849285 0.490369 -0.195584
vn 0.865951 0.500061 0.008196
vn 0.500066 0.865949 0.008194
vn 0.490373 0.849282 -0.195585
vn 0.490373 0.849282 -0.195585
vn 0.500066 0.865949 0.008194
vn -0.000001 0.999966 0.008207
vn 0.000000 0.980678 -0.195628
vn -0.478321 0.828482 0.291251
vn 0.000000 0.956641 0.291268
vn 0.000000 1.000000 0.000000
vn -0.499995 0.866028 0.000000
vn -0.828482 0.478320 0.291251
vn -0.478321 0.828482 0.291251
vn -0.499995 0.866028 0.000000
vn -0.866030 0.499993 0.000000
vn -0.956641 0.000000 0.291269
vn -0.828482 0.478320 0.291251
vn -0.866030 0.499993 0.000000
vn -1.000000 0.000000 0.000000
vn -0.828482 -0.478320 0.291252
vn -0.956641 0.000000 0.291269
vn -1.000000 0.000000 0.000000
vn -0.866029 -0.499993 0.000000
vn -0.678385 -0.678385 0.282112
vn -0.828482 -0.478320 0.291252
vn -0.866029 -0.499993 0.000000
vn -0.707107 -0.707107 0.000000
vn 0.000000 -0.956641 0.291268
vn -0.248300 -0.926682 0.282148
vn -0.258785 -0.965935 0.000000
vn 0.000000 -1.000000 0.000000
vn 0.478320 -0.828482 0.291251
vn 0.000000 -0.956641 0.291268
vn 0.000000 -1.000000 0.000000
vn 0.499993 -0.866030 0.000000
vn 0.828482 -0.478321 0.291251
vn 0.478320 -0.828482 0.291251
vn 0.499993 -0.866030 0.000000
vn 0.866028 -0.499995 0.000000
vn 0.956642 0.000000 0.291267
vn 0.828482 -0.478321 0.291251
vn 0.866028 -0.499995 0.000000
vn 1.000000 0.000000 0.000000
vn 0.828482 0.478321 0.291250
vn 0.956642 0.000000 0.291267
vn 1.000000 0.000000 0.000000
vn 0.866028 0.499995 0.000000
vn 0.478322 0.828481 0.291250
vn 0.828482 0.478321 0.291250
vn 0.866028 0.499995 0.000000
vn 0.499996 0.866028 0.000000
vn 0.000000 0.956641 0.291268
vn 0.478322 0.828481 0.291250
vn 0.499996 0.866028 0.000000
vn 0.000000 1.000000 0.000000
s off
g polySurface13
usemtl Ntoulapa_FIn:defaultMat
f 7/1/1 8/2/2 6/3/3 5/4/4
f 7/5/5 5/6/6 1/7/7 3/8/8
f 8/9/9 7/10/10 3/11/11 4/12/12
f 1/13/13 2/14/14 4/15/15 3/16/16
f 6/17/17 8/18/18 4/19/19 2/20/20
f 9/21/21 5/22/22 6/23/23 10/24/24
f 10/24/25 6/23/26 2/25/27 11/26/28
f 11/26/29 2/25/30 1/27/31 12/28/32
f 12/28/33 1/27/34 5/22/35 9/21/36
f 13/29/37 9/21/38 10/24/39 14/30/40
f 14/30/41 10/24/42 11/26/43 15/31/44
f 15/31/45 11/26/46 12/28/47 16/32/48
f 16/32/49 12/28/50 9/21/51 13/29/52
f 13/29/53 14/30/54 15/31/55 16/32/56
f 17/33/57 18/34/58 19/35/59
f 17/33/60 19/35/61 20/36/62
f 17/33/63 20/36/64 21/37/65
f 17/33/66 21/37/67 22/38/68
f 17/33/69 22/38/70 23/39/71
f 17/33/72 23/39/73 24/40/74
f 17/33/75 24/40/76 25/41/77
f 17/33/78 25/41/79 26/42/80
f 17/33/81 26/42/82 27/43/83
f 17/33/84 27/43/85 28/44/86
f 17/33/87 28/44/88 29/45/89
f 17/33/90 29/45/91 18/34/92
f 18/46/93 54/47/94 55/48/95 19/49/96
f 19/49/97 55/48/98 56/50/99 20/51/100
f 20/51/101 56/50/102 57/52/103 21/53/104
f 21/53/105 57/52/106 58/54/107 22/55/108
f 22/55/109 58/54/110 59/56/111 23/57/112
f 23/58/113 59/59/114 60/60/115 24/61/116
f 24/61/117 60/60/118 61/62/119 25/63/120
f 25/63/121 61/62/122 62/64/123 26/65/124
f 26/65/125 62/64/126 63/66/127 27/67/128
f 27/67/129 63/66/130 64/68/131 28/69/132
f 28/69/133 64/68/134 65/70/135 29/71/136
f 29/71/137 65/70/138 54/47/139 18/46/140
f 42/72/141 30/73/142 31/74/143 43/75/144
f 43/75/145 31/74/146 32/76/147 44/77/148
f 44/77/149 32/76/150 33/78/151 45/79/152
f 45/79/153 33/78/154 34/80/155 46/81/156
f 46/81/157 34/80/158 35/82/159 47/83/160
f 47/84/161 35/85/162 36/86/163 48/87/164
f 48/87/165 36/86/166 37/88/167 49/89/168
f 49/89/169 37/88/170 38/90/171 50/91/172
f 50/91/173 38/90/174 39/92/175 51/93/176
f 51/93/177 39/92/178 40/94/179 52/95/180
f 52/95/181 40/94/182 41/96/183 53/97/184
f 53/97/185 41/96/186 30/73/187 42/72/188
f 54/47/189 42/72/190 43/75/191 55/48/192
f 55/48/193 43/75/194 44/77/195 56/50/196
f 56/50/197 44/77/198 45/79/199 57/52/200
f 57/52/201 45/79/202 46/81/203 58/54/204
f 58/54/205 46/81/206 47/83/207 59/56/208
f 59/59/209 47/84/210 48/87/211 60/60/212
f 60/60/213 48/87/214 49/89/215 61/62/216
f 61/62/217 49/89/218 50/91/219 62/64/220
f 62/64/221 50/91/222 51/93/223 63/66/224
f 63/66/225 51/93/226 52/95/227 64/68/228
f 64/68/229 52/95/230 53/97/231 65/70/232
f 65/70/233 53/97/234 42/72/235 54/47/236
f 31/74/237 30/73/238 67/98/239 66/99/240
f 32/76/241 31/74/242 66/99/243 68/100/244
f 33/78/245 32/76/246 68/100/247 69/101/248
f 34/80/249 33/78/250 69/101/251 70/102/252
f 35/82/253 34/80/254 70/102/255 71/103/256
f 36/86/257 35/85/258 71/104/259 72/105/260
f 37/88/261 36/86/262 72/105/263 73/106/264
f 38/90/265 37/88/266 73/106/267 74/107/268
f 39/92/269 38/90/270 74/107/271 75/108/272
f 40/94/273 39/92/274 75/108/275 76/109/276
f 41/96/277 40/94/278 76/109/279 77/110/280
f 30/73/281 41/96/282 77/110/283 67/98/284
