# This file uses centimeters as units for non-parametric coordinates.

mtllib BookLow.mtl
g default
v -0.144902 -0.030238 0.200366
v -0.144902 0.030034 0.200366
v -0.144902 0.030034 -0.200366
v -0.144902 -0.030238 -0.200366
v -0.133669 -0.023202 -0.200366
v -0.133669 0.022500 -0.200366
v -0.133669 0.022500 0.200366
v -0.133669 -0.023202 0.200366
v -0.133669 0.022500 0.190366
v -0.133669 -0.023202 0.190366
v -0.133669 -0.023202 -0.190366
v -0.133669 0.022500 -0.190366
v 0.135732 -0.030238 0.200366
v 0.141077 -0.030238 0.195021
v 0.135732 -0.023202 0.200366
v 0.141077 -0.023202 0.195021
v 0.135732 0.030034 0.200366
v 0.141077 0.030034 0.195021
v 0.141077 0.022500 0.195021
v 0.135732 0.022500 0.200366
v 0.130683 -0.023202 0.195266
v 0.137378 -0.023202 0.190683
v 0.130683 0.022500 0.195266
v 0.137378 0.022500 0.190683
v 0.141077 0.030034 -0.195021
v 0.135732 0.030034 -0.200366
v 0.135732 0.022500 -0.200366
v 0.141077 0.022500 -0.195021
v 0.135732 -0.030238 -0.200366
v 0.141077 -0.030238 -0.195021
v 0.135732 -0.023202 -0.200366
v 0.141077 -0.023202 -0.195021
v 0.130683 -0.023202 -0.195266
v 0.136077 -0.023202 -0.189970
v 0.130683 0.022500 -0.195266
v 0.136077 0.022500 -0.189970
vt 0.441523 0.015625
vt 0.623557 0.015625
vt 0.623557 0.197659
vt 0.441523 0.197659
vt 0.662194 0.015625
vt 0.662194 0.149166
vt 0.657651 0.149166
vt 0.657651 0.015625
vt 0.638581 0.149166
vt 0.638581 0.015625
vt 0.643124 0.015625
vt 0.643124 0.149166
vt 0.984375 0.015904
vt 0.961730 0.022215
vt 0.840759 0.493439
vt 0.984098 0.178252
vt 0.961464 0.178213
vt 0.804136 0.755895
vt 0.798995 0.763047
vt 0.794098 0.756385
vt 0.820296 0.177973
vt 0.820302 0.174244
vt 0.841303 0.174280
vt 0.841297 0.178008
vt 0.422849 0.384149
vt 0.422553 0.370270
vt 0.940536 0.663298
vt 0.940537 0.667056
vt 0.819756 0.667063
vt 0.820572 0.015625
vt 0.841563 0.022010
vt 0.819747 0.513111
vt 0.940528 0.513104
vt 0.819755 0.663304
vt 0.984104 0.174524
vt 0.961470 0.174485
vt 0.803076 0.396161
vt 0.799191 0.749167
vt 0.793419 0.396189
vt 0.417657 0.377034
vt 0.416097 0.017304
vt 0.425753 0.017262
vt 0.015625 0.015625
vt 0.402605 0.015625
vt 0.402605 0.390360
vt 0.397444 0.397497
vt 0.020787 0.397497
vt 0.015625 0.390360
vt 0.015625 0.410620
vt 0.402605 0.410620
vt 0.402605 0.785355
vt 0.397443 0.792492
vt 0.020786 0.792492
vt 0.015625 0.785355
vt 0.820024 0.337406
vt 0.841025 0.337441
vt 0.804633 0.375355
vt 0.799502 0.382515
vt 0.794596 0.375859
vt 0.983826 0.337685
vt 0.983820 0.341413
vt 0.961185 0.341374
vt 0.961192 0.337646
vt 0.422338 0.764156
vt 0.422061 0.750277
vt 0.940546 0.823154
vt 0.819765 0.826919
vt 0.819765 0.823161
vt 0.819747 0.499753
vt 0.820017 0.341134
vt 0.841019 0.341170
vt 0.940554 0.977105
vt 0.819774 0.977113
vt 0.940546 0.826912
vt 0.983549 0.500032
vt 0.960926 0.493644
vt 0.803072 0.015625
vt 0.799678 0.368634
vt 0.793415 0.015667
vt 0.417156 0.757035
vt 0.416097 0.397300
vt 0.425753 0.397272
vt 0.427196 0.757465
vt 0.427698 0.377451
vn 0.000000 1.000000 0.000000
vn 0.000000 1.000000 0.000000
vn 0.000000 1.000000 0.000000
vn 0.000000 1.000000 0.000000
vn 0.000000 1.000000 0.000000
vn 0.000000 1.000000 0.000000
vn 0.000000 -1.000000 0.000000
vn 0.000000 -1.000000 0.000000
vn 0.000000 -1.000000 0.000000
vn 0.000000 -1.000000 0.000000
vn 0.000000 -1.000000 0.000000
vn 0.000000 -1.000000 0.000000
vn -1.000000 0.000000 0.000000
vn -1.000000 0.000000 0.000000
vn -1.000000 0.000000 0.000000
vn -1.000000 0.000000 0.000000
vn -0.000000 0.000000 -1.000000
vn -0.000000 0.000000 -1.000000
vn -0.000000 0.000000 -1.000000
vn -0.000000 0.000000 -1.000000
vn 0.000000 0.000000 1.000000
vn 0.000000 0.000000 1.000000
vn 0.000000 0.000000 1.000000
vn 0.000000 0.000000 1.000000
vn 1.000000 0.000000 0.000000
vn 1.000000 0.000000 0.000000
vn 1.000000 0.000000 0.000000
vn 1.000000 0.000000 0.000000
vn 1.000000 0.000000 0.000000
vn 1.000000 0.000000 0.000000
vn 1.000000 0.000000 0.000000
vn 1.000000 0.000000 0.000000
vn 0.019061 0.000000 0.999818
vn 0.999909 0.000000 0.013517
vn 0.999909 0.000000 0.013517
vn 0.019061 0.000000 0.999818
vn 0.000000 1.000000 0.000000
vn 0.000000 1.000000 0.000000
vn 0.000000 1.000000 0.000000
vn -0.000000 1.000000 0.000000
vn 0.999909 0.000002 0.013517
vn 0.019061 0.000000 0.999818
vn 0.019061 0.000000 0.999818
vn 0.999909 0.000002 0.013517
vn 0.000000 -1.000000 0.000000
vn 0.000000 -1.000000 0.000000
vn 0.000000 -1.000000 0.000000
vn 0.000000 -1.000000 0.000000
vn -0.001170 0.000000 0.999999
vn 0.999902 -0.000000 0.014001
vn 0.999902 -0.000000 0.014001
vn -0.001170 0.000000 0.999999
vn -0.018533 -0.000000 0.999828
vn -0.018533 -0.000000 0.999828
vn -0.000000 1.000000 0.000000
vn -0.000000 1.000000 0.000000
vn 0.000000 -1.000000 0.000000
vn 0.000000 -1.000000 0.000000
vn 0.019061 0.000000 -0.999818
vn 0.999909 0.000002 -0.013517
vn 0.999909 0.000002 -0.013517
vn 0.019061 0.000000 -0.999818
vn 0.000000 -1.000000 0.000000
vn 0.000000 -1.000000 0.000000
vn 0.000000 -1.000000 0.000000
vn 0.000000 -1.000000 0.000000
vn 0.999909 0.000000 -0.013517
vn 0.019061 0.000000 -0.999818
vn 0.019061 0.000000 -0.999818
vn 0.999909 0.000000 -0.013517
vn 0.000000 1.000000 -0.000000
vn 0.000000 1.000000 -0.000000
vn -0.000000 1.000000 -0.000000
vn 0.000000 1.000000 -0.000000
vn 0.999849 -0.000000 -0.017345
vn 0.001465 -0.000000 -0.999999
vn 0.001465 -0.000000 -0.999999
vn 0.999850 -0.000000 -0.017345
vn -0.018533 0.000000 -0.999828
vn -0.018533 0.000000 -0.999828
vn 0.000000 -1.000000 0.000000
vn 0.000000 -1.000000 0.000000
vn -0.000000 1.000000 -0.000000
vn -0.000000 1.000000 -0.000000
s off
g Book
usemtl initialShadingGroup
f 3/43/1 2/44/2 17/45/3 18/46/4 25/47/5 26/48/6
f 1/49/7 4/50/8 29/51/9 30/52/10 14/53/11 13/54/12
f 4/1/13 1/2/14 2/3/15 3/4/16
s 1
f 3/69/17 6/15/18 5/76/19 4/75/20
f 1/13/21 8/14/22 7/31/23 2/30/24
s off
f 7/5/25 8/6/26 10/7/27 9/8/28
f 5/9/29 6/10/30 12/11/31 11/12/32
s 1
f 13/35/33 14/16/34 16/17/35 15/36/36
s 4
f 15/18/37 16/19/38 22/20/39 21/38/40
s 1
f 18/21/41 17/22/42 20/23/43 19/24/44
s 5
f 19/25/45 20/40/46 23/26/47 24/84/48
s 6
f 21/27/49 22/28/50 24/29/51 23/34/52
s 1
f 2/30/24 7/31/23 20/23/43 17/22/42
s 6
f 9/32/53 10/33/54 21/27/49 23/34/52
s 1
f 8/14/22 1/13/21 13/35/33 15/36/36
s 4
f 8/37/55 15/18/37 21/38/40 10/39/56
s 5
f 20/40/46 7/41/57 9/42/58 23/26/47
s 1
f 26/70/59 25/55/60 28/56/61 27/71/62
s 5
f 27/57/63 28/58/64 36/59/65 35/78/66
s 1
f 30/60/67 29/61/68 31/62/69 32/63/70
s 4
f 32/64/71 31/80/72 33/65/73 34/83/74
s 6
f 34/66/75 33/74/76 35/67/77 36/68/78
s 1
f 6/15/18 3/69/17 26/70/59 27/71/62
s 6
f 11/72/79 12/73/80 35/67/77 33/74/76
s 1
f 4/75/20 5/76/19 31/62/69 29/61/68
s 5
f 6/77/81 27/57/63 35/78/66 12/79/82
s 4
f 31/80/72 5/81/83 11/82/84 33/65/73
s 1
f 19/24/44 28/56/61 25/55/60 18/21/41
s 6
f 22/28/50 34/66/75 36/68/78 24/29/51
s 1
f 16/17/35 14/16/34 30/60/67 32/63/70
s 4
f 16/19/38 32/64/71 34/83/74 22/20/39
s 5
f 28/58/64 19/25/45 24/84/48 36/59/65
