# This file uses centimeters as units for non-parametric coordinates.

mtllib Guitar_LOD.mtl
g default
v 0.000000 0.579682 0.220178
v 0.000000 0.000000 0.220178
v 0.719847 1.938499 -0.220173
v 0.614424 1.558441 -0.220173
v 0.652111 1.328430 -0.220173
v 0.858763 1.038456 -0.220173
v 0.719847 1.938499 0.220178
v 0.614424 1.558441 0.220178
v 0.652111 1.328430 0.220178
v 0.858763 1.038456 0.220178
v 0.322826 0.019111 -0.220173
v 0.322826 0.019111 0.220178
v 0.000000 2.316711 -0.220173
v 0.000000 2.316711 0.220178
v 0.000000 2.037697 0.220178
v 0.577036 2.185524 -0.220173
v 0.577036 2.185562 0.220178
v 0.379856 2.262672 -0.220173
v 0.379856 2.262672 0.220178
v 0.986294 0.800247 -0.220173
v 0.986294 0.800247 0.220178
v 1.006891 0.578987 -0.220173
v 1.006891 0.578987 0.220178
v 0.944477 0.357223 -0.220173
v 0.944477 0.357224 0.220178
v 0.733118 0.152206 -0.220173
v 0.733118 0.152206 0.220178
v 0.000000 1.580475 0.220178
v 0.000000 0.359756 0.220178
v 0.000000 0.150719 0.220178
v 0.000000 1.894402 -0.220173
v 0.000000 0.000000 -0.220173
v 0.000000 0.580002 -0.220173
v 0.000000 0.796555 -0.220173
v 0.000000 0.363373 -0.220173
v 0.000000 0.162560 -0.220173
v 0.000000 1.561394 -0.220173
v 0.000000 1.031826 -0.220173
v 0.000000 1.322357 -0.220173
v -0.719847 1.938499 0.220178
v -0.858763 1.038456 0.220178
v 0.000000 1.037907 0.220178
v 0.000000 2.185524 0.220178
v 0.000000 0.799698 0.220178
v -0.322826 0.019111 0.220178
v -0.733118 0.152206 0.220178
v -0.944477 0.357224 0.220178
v -1.006891 0.578987 0.220178
v -0.986294 0.800247 0.220178
v -0.652111 1.328430 0.220178
v -0.614424 1.558441 0.220178
v -0.577036 2.185562 0.220178
v -0.379856 2.262672 0.220178
v -0.379856 2.262672 -0.220173
v -0.577036 2.185524 -0.220173
v -0.719847 1.938499 -0.220173
v -0.614424 1.558441 -0.220173
v -0.652111 1.328430 -0.220173
v -0.858763 1.038456 -0.220173
v -0.986294 0.800247 -0.220173
v -1.006891 0.578987 -0.220173
v -0.944477 0.357223 -0.220173
v -0.733118 0.152206 -0.220173
v -0.322826 0.019111 -0.220173
v 0.000000 2.176056 -0.220173
vt 0.643246 0.626956
vt 0.656903 0.556497
vt 0.815328 0.585668
vt 0.851793 0.665714
vt 0.245057 0.129682
vt 0.352935 0.129485
vt 0.353150 0.246242
vt 0.245179 0.246439
vt 0.417051 0.129300
vt 0.417280 0.246136
vt 0.511573 0.129130
vt 0.511785 0.245915
vt 0.901186 0.245566
vt 0.901187 0.128778
vt 0.987089 0.128787
vt 0.987045 0.245532
vt 0.446287 0.566416
vt 0.380610 0.625934
vt 0.203329 0.633762
vt 0.235302 0.522287
vt 0.366662 0.780588
vt 0.184228 0.765481
vt 0.217324 0.701180
vt 0.164589 0.129729
vt 0.164616 0.246528
vt 0.177089 0.803428
vt 0.318796 0.832618
vt 0.108128 0.129728
vt 0.108132 0.246532
vt 0.170600 0.834924
vt 0.266467 0.841553
vt 0.006346 0.129782
vt 0.006409 0.246448
vt 0.287615 0.266931
vt 0.365930 0.287815
vt 0.459998 0.341154
vt 0.280041 0.303696
vt 0.501539 0.402218
vt 0.269461 0.355048
vt 0.505645 0.459836
vt 0.258334 0.409062
vt 0.489400 0.513115
vt 0.247206 0.463077
vt 0.359708 0.680656
vt 0.816973 0.528130
vt 0.668138 0.498535
vt 0.860409 0.440909
vt 0.683793 0.417770
vt 0.837396 0.374292
vt 0.697035 0.349454
vt 0.793195 0.346343
vt 0.703550 0.315836
vt 0.871529 0.729467
vt 0.632189 0.684001
vt 0.583806 0.245767
vt 0.583617 0.128964
vt 0.866122 0.784076
vt 0.622011 0.736509
vt 0.643304 0.245652
vt 0.643174 0.128878
vt 0.840566 0.834918
vt 0.611828 0.789043
vt 0.705354 0.245596
vt 0.705289 0.128794
vt 0.779663 0.874721
vt 0.602385 0.837762
vt 0.784932 0.245558
vt 0.784913 0.128786
vt 0.673927 0.887574
vt 0.594820 0.876792
vt 0.435321 0.584988
vt 0.499053 0.524363
vt 0.353225 0.126610
vt 0.245220 0.126983
vt 0.244982 0.010229
vt 0.352840 0.009856
vt 0.417380 0.126346
vt 0.416930 0.009513
vt 0.511452 0.009135
vt 0.511883 0.125917
vt 0.987044 0.008461
vt 0.987090 0.125204
vt 0.901188 0.125214
vt 0.901185 0.008428
vt 0.060295 0.559945
vt 0.024494 0.479521
vt 0.013093 0.707668
vt 0.164605 0.127144
vt 0.164559 0.010347
vt 0.035384 0.774232
vt 0.108111 0.127149
vt 0.108104 0.010347
vt 0.079921 0.803122
vt 0.006240 0.127089
vt 0.006239 0.010398
vt 0.099931 0.266975
vt 0.207422 0.255161
vt 0.037637 0.306648
vt 0.011092 0.357952
vt 0.004955 0.413313
vt 0.057922 0.618066
vt 0.519024 0.470377
vt 0.511323 0.373244
vt 0.557559 0.320051
vt 0.609001 0.310639
vt 0.393195 0.636750
vt 0.583517 0.008828
vt 0.583888 0.125630
vt 0.377807 0.689425
vt 0.643099 0.008639
vt 0.643364 0.125412
vt 0.382516 0.746133
vt 0.705247 0.008477
vt 0.705382 0.125279
vt 0.424137 0.805809
vt 0.784899 0.008444
vt 0.784936 0.125214
vt 0.517413 0.857237
vn 0.000000 0.000000 -1.000000
vn 0.000000 0.000000 -1.000000
vn 0.000000 0.000000 -1.000000
vn 0.000000 0.000000 -1.000000
vn 0.998228 0.059514 -0.000010
vn 0.993893 -0.110352 0.000000
vn 0.993893 -0.110352 0.000000
vn 0.998228 0.059514 -0.000010
vn 0.993893 -0.110352 0.000000
vn 0.905060 0.425284 0.000000
vn 0.905060 0.425284 0.000000
vn 0.993893 -0.110352 0.000000
vn 0.905060 0.425284 0.000000
vn 0.845060 0.534672 0.000000
vn 0.845060 0.534672 0.000000
vn 0.905060 0.425284 0.000000
vn 0.203280 -0.979121 0.000000
vn 0.203280 -0.979121 0.000000
vn 0.059097 -0.998252 0.000000
vn 0.059097 -0.998252 0.000000
vn 0.000000 0.000000 1.000000
vn 0.000000 0.000000 1.000000
vn 0.000000 0.000000 1.000000
vn 0.000000 0.000000 1.000000
vn 0.000000 0.000000 1.000000
vn 0.000000 0.000000 1.000000
vn 0.000000 0.000000 1.000000
vn 0.000000 0.000000 1.000000
vn 0.000000 -0.000000 1.000000
vn 0.690062 0.723751 -0.000031
vn 0.998228 0.059514 -0.000010
vn 0.998228 0.059514 -0.000010
vn 0.690078 0.723735 -0.000031
vn 0.000000 0.000000 1.000000
vn 0.000000 0.000000 1.000000
vn 0.000000 0.000000 1.000000
vn 0.000000 0.000000 1.000000
vn 0.221659 0.975124 -0.000015
vn 0.690062 0.723751 -0.000031
vn 0.690078 0.723735 -0.000031
vn 0.221659 0.975124 -0.000015
vn 0.000000 0.000000 1.000000
vn 0.000000 0.000000 1.000000
vn 0.000000 0.000000 1.000000
vn 0.000000 0.000000 1.000000
vn 0.140843 0.990032 0.000000
vn 0.221659 0.975124 -0.000015
vn 0.221659 0.975124 -0.000015
vn 0.140843 0.990032 0.000000
vn 0.000000 0.000000 1.000000
vn 0.000000 0.000000 1.000000
vn 0.000000 0.000000 1.000000
vn 0.000000 0.000000 1.000000
vn 0.000000 0.000000 1.000000
vn 0.000000 0.000000 1.000000
vn 0.000000 -0.000000 1.000000
vn 0.000000 -0.000000 1.000000
vn 0.000000 -0.000000 1.000000
vn 0.000000 -0.000000 1.000000
vn 0.000000 -0.000000 1.000000
vn 0.000000 -0.000000 1.000000
vn 0.000000 -0.000000 1.000000
vn 0.000000 -0.000000 1.000000
vn 0.000000 0.000000 1.000000
vn 0.000000 0.000000 1.000000
vn 0.000000 0.000000 1.000000
vn 0.000000 0.000000 1.000000
vn 0.000000 0.000000 1.000000
vn 0.000000 0.000000 1.000000
vn 0.000000 0.000000 1.000000
vn 0.000000 0.000000 1.000000
vn 0.000000 0.000000 1.000000
vn 0.000000 -0.000000 1.000000
vn 0.000000 0.000000 1.000000
vn 0.000000 0.000000 1.000000
vn -0.000000 0.000000 -1.000000
vn 0.000000 0.000000 -1.000000
vn -0.000000 0.000000 -1.000000
vn 0.000000 0.000000 -1.000000
vn -0.000000 0.000000 -1.000000
vn -0.000000 0.000000 -1.000000
vn 0.000000 0.000000 -1.000000
vn 0.000000 0.000000 -1.000000
vn -0.000000 0.000000 -1.000000
vn -0.000000 0.000000 -1.000000
vn 0.000000 0.000000 -1.000000
vn 0.000000 0.000000 -1.000000
vn 0.000000 0.000000 -1.000000
vn -0.000000 0.000000 -1.000000
vn 0.000000 0.000000 -1.000000
vn -0.000000 0.000000 -1.000000
vn 0.000000 0.000000 -1.000000
vn -0.000000 0.000000 -1.000000
vn -0.000000 0.000000 -1.000000
vn -0.000000 0.000000 -1.000000
vn 0.951762 0.306839 0.000000
vn 0.845060 0.534672 0.000000
vn 0.845060 0.534672 0.000000
vn 0.951762 0.306839 0.000000
vn 0.000000 0.000000 -1.000000
vn 0.000000 0.000000 -1.000000
vn -0.000000 0.000000 -1.000000
vn 0.000000 0.000000 -1.000000
vn 0.995575 -0.093971 0.000000
vn 0.951762 0.306839 0.000000
vn 0.951762 0.306839 0.000000
vn 0.995575 -0.093971 0.000000
vn -0.000000 0.000000 -1.000000
vn 0.000000 0.000000 -1.000000
vn 0.000000 0.000000 -1.000000
vn 0.000000 0.000000 -1.000000
vn 0.841704 -0.539940 0.000000
vn 0.995575 -0.093971 0.000000
vn 0.995575 -0.093971 0.000000
vn 0.841704 -0.539940 0.000000
vn 0.000000 0.000000 -1.000000
vn 0.000000 0.000000 -1.000000
vn 0.000000 0.000000 -1.000000
vn -0.000000 0.000000 -1.000000
vn 0.477795 -0.878472 0.000000
vn 0.841704 -0.539940 0.000000
vn 0.841704 -0.539940 0.000000
vn 0.477795 -0.878472 0.000000
vn 0.000000 0.000000 -1.000000
vn 0.000000 0.000000 -1.000000
vn 0.000000 0.000000 -1.000000
vn 0.000000 0.000000 -1.000000
vn 0.203280 -0.979121 0.000000
vn 0.477795 -0.878472 0.000000
vn 0.477795 -0.878472 0.000000
vn 0.203280 -0.979121 0.000000
vn -0.000000 0.000000 -1.000000
vn -0.000000 0.000000 -1.000000
vn 0.000000 0.000000 -1.000000
vn -0.000000 0.000000 -1.000000
vn -0.993893 -0.110352 0.000000
vn -0.998228 0.059514 -0.000010
vn -0.998228 0.059514 -0.000010
vn -0.993893 -0.110352 0.000000
vn -0.905060 0.425284 0.000000
vn -0.993893 -0.110352 0.000000
vn -0.993893 -0.110352 0.000000
vn -0.905060 0.425284 0.000000
vn -0.845060 0.534672 0.000000
vn -0.845060 0.534672 0.000000
vn -0.905060 0.425284 0.000000
vn -0.905060 0.425284 0.000000
vn -0.059097 -0.998252 0.000000
vn -0.059097 -0.998252 0.000000
vn -0.203280 -0.979121 0.000000
vn -0.203280 -0.979121 0.000000
vn 0.000000 -0.000000 1.000000
vn 0.000000 0.000000 1.000000
vn 0.000000 0.000000 1.000000
vn 0.000000 0.000000 1.000000
vn 0.000000 0.000000 1.000000
vn 0.000000 0.000000 1.000000
vn 0.000000 -0.000000 1.000000
vn 0.000000 0.000000 1.000000
vn 0.000000 0.000000 1.000000
vn -0.998228 0.059514 -0.000010
vn -0.690062 0.723751 -0.000031
vn -0.690078 0.723735 -0.000031
vn -0.998228 0.059514 -0.000010
vn 0.000000 0.000000 1.000000
vn 0.000000 0.000000 1.000000
vn 0.000000 0.000000 1.000000
vn 0.000000 0.000000 1.000000
vn -0.690062 0.723751 -0.000031
vn -0.221659 0.975124 -0.000015
vn -0.221659 0.975124 -0.000015
vn -0.690078 0.723735 -0.000031
vn 0.000000 0.000000 1.000000
vn 0.000000 0.000000 1.000000
vn 0.000000 0.000000 1.000000
vn 0.000000 0.000000 1.000000
vn -0.221659 0.975124 -0.000015
vn -0.140843 0.990032 0.000000
vn -0.140843 0.990032 0.000000
vn -0.221659 0.975124 -0.000015
vn 0.000000 0.000000 1.000000
vn 0.000000 0.000000 1.000000
vn 0.000000 0.000000 1.000000
vn 0.000000 0.000000 1.000000
vn 0.000000 -0.000000 1.000000
vn 0.000000 0.000000 1.000000
vn 0.000000 0.000000 1.000000
vn 0.000000 0.000000 1.000000
vn 0.000000 -0.000000 1.000000
vn 0.000000 0.000000 1.000000
vn 0.000000 0.000000 1.000000
vn 0.000000 -0.000000 1.000000
vn 0.000000 0.000000 1.000000
vn 0.000000 0.000000 1.000000
vn 0.000000 0.000000 1.000000
vn 0.000000 -0.000000 1.000000
vn 0.000000 0.000000 1.000000
vn 0.000000 0.000000 1.000000
vn 0.000000 0.000000 1.000000
vn 0.000000 0.000000 1.000000
vn 0.000000 0.000000 1.000000
vn 0.000000 0.000000 1.000000
vn 0.000000 -0.000000 1.000000
vn 0.000000 0.000000 1.000000
vn 0.000000 0.000000 1.000000
vn 0.000000 0.000000 1.000000
vn -0.000000 0.000000 -1.000000
vn -0.000000 0.000000 -1.000000
vn 0.000000 0.000000 -1.000000
vn 0.000000 0.000000 -1.000000
vn 0.000000 0.000000 -1.000000
vn 0.000000 0.000000 -1.000000
vn 0.000000 0.000000 -1.000000
vn 0.000000 0.000000 -1.000000
vn 0.000000 0.000000 -1.000000
vn 0.000000 0.000000 -1.000000
vn 0.000000 0.000000 -1.000000
vn 0.000000 0.000000 -1.000000
vn 0.000000 0.000000 -1.000000
vn -0.000000 0.000000 -1.000000
vn -0.000000 0.000000 -1.000000
vn 0.000000 0.000000 -1.000000
vn 0.000000 0.000000 -1.000000
vn -0.000000 0.000000 -1.000000
vn -0.000000 0.000000 -1.000000
vn -0.000000 0.000000 -1.000000
vn -0.845060 0.534672 0.000000
vn -0.951762 0.306839 0.000000
vn -0.951762 0.306839 0.000000
vn -0.845060 0.534672 0.000000
vn -0.000000 0.000000 -1.000000
vn -0.000000 0.000000 -1.000000
vn 0.000000 0.000000 -1.000000
vn -0.000000 0.000000 -1.000000
vn -0.951762 0.306839 0.000000
vn -0.995575 -0.093971 0.000000
vn -0.995575 -0.093971 0.000000
vn -0.951762 0.306839 0.000000
vn -0.000000 0.000000 -1.000000
vn 0.000000 0.000000 -1.000000
vn 0.000000 0.000000 -1.000000
vn 0.000000 0.000000 -1.000000
vn -0.995575 -0.093971 0.000000
vn -0.841704 -0.539940 0.000000
vn -0.841704 -0.539940 0.000000
vn -0.995575 -0.093971 0.000000
vn 0.000000 0.000000 -1.000000
vn 0.000000 0.000000 -1.000000
vn 0.000000 0.000000 -1.000000
vn 0.000000 0.000000 -1.000000
vn -0.841704 -0.539940 0.000000
vn -0.477795 -0.878472 0.000000
vn -0.477795 -0.878472 0.000000
vn -0.841704 -0.539940 0.000000
vn 0.000000 0.000000 -1.000000
vn 0.000000 0.000000 -1.000000
vn 0.000000 0.000000 -1.000000
vn 0.000000 0.000000 -1.000000
vn -0.477795 -0.878472 0.000000
vn -0.203280 -0.979121 0.000000
vn -0.203280 -0.979121 0.000000
vn -0.477795 -0.878472 0.000000
s off
g Guitar_LOD:polySurface85
usemtl Guitar_LOD:lambert3SG
f 38/1/1 39/2/2 5/3/3 6/4/4
f 7/5/5 8/6/6 4/7/7 3/8/8
f 8/6/9 9/9/10 5/10/11 4/7/12
f 9/9/13 10/11/14 6/12/15 5/10/16
f 11/13/17 12/14/18 2/15/19 32/16/20
f 10/17/21 9/18/22 28/19/23
f 42/20/24 10/17/25 28/19/26
f 7/21/27 15/22/28 28/23/29
f 17/24/30 7/5/31 3/8/32 16/25/33
f 43/26/34 15/22/35 7/21/36 17/27/37
f 19/28/38 17/24/39 16/25/40 18/29/41
f 14/30/42 43/26/43 17/27/44 19/31/45
f 14/32/46 19/28/47 18/29/48 13/33/49
f 2/34/50 12/35/51 27/36/52 30/37/53
f 30/37/54 27/36/55 25/38/56 29/39/57
f 29/39/58 25/38/59 23/40/60 1/41/61
f 1/41/62 23/40/63 21/42/64 44/43/65
f 44/43/66 21/42/67 10/17/68 42/20/69
f 28/19/70 9/18/71 8/44/72
f 28/23/73 8/44/74 7/21/75
f 4/45/76 5/3/77 39/2/78 37/46/79
f 3/47/80 4/45/81 37/46/82 31/48/83
f 16/49/84 3/47/85 31/48/86 65/50/87
f 18/51/88 16/49/89 65/50/90 13/52/91
f 20/53/92 34/54/93 38/1/94 6/4/95
f 20/55/96 6/12/97 10/11/98 21/56/99
f 22/57/100 33/58/101 34/54/102 20/53/103
f 22/59/104 20/55/105 21/56/106 23/60/107
f 24/61/108 35/62/109 33/58/110 22/57/111
f 24/63/112 22/59/113 23/60/114 25/64/115
f 26/65/116 36/66/117 35/62/118 24/61/119
f 26/67/120 24/63/121 25/64/122 27/68/123
f 11/69/124 32/70/125 36/66/126 26/65/127
f 11/13/128 26/67/129 27/68/130 12/14/131
f 39/2/132 38/1/133 59/71/134 58/72/135
f 51/73/136 40/74/137 56/75/138 57/76/139
f 50/77/140 51/73/141 57/76/142 58/78/143
f 59/79/144 41/80/145 50/77/146 58/78/147
f 32/81/148 2/82/149 45/83/150 64/84/151
f 50/85/152 41/86/153 28/19/154
f 41/86/155 42/20/156 28/19/157
f 28/23/158 15/22/159 40/87/160
f 40/74/161 52/88/162 55/89/163 56/75/164
f 15/22/165 43/26/166 52/90/167 40/87/168
f 52/88/169 53/91/170 54/92/171 55/89/172
f 43/26/173 14/30/174 53/93/175 52/90/176
f 53/91/177 14/94/178 13/95/179 54/92/180
f 30/37/181 46/96/182 45/97/183 2/34/184
f 29/39/185 47/98/186 46/96/187 30/37/188
f 1/41/189 48/99/190 47/98/191 29/39/192
f 44/43/193 49/100/194 48/99/195 1/41/196
f 42/20/197 41/86/198 49/100/199 44/43/200
f 28/19/201 51/101/202 50/85/203
f 28/19/204 40/87/205 51/101/206
f 39/2/207 58/72/208 57/102/209 37/46/210
f 57/102/211 56/103/212 31/48/213 37/46/214
f 56/103/215 55/104/216 65/50/217 31/48/218
f 55/104/219 54/105/220 13/52/221 65/50/222
f 59/71/223 38/1/224 34/54/225 60/106/226
f 59/79/227 60/107/228 49/108/229 41/80/230
f 60/106/231 34/54/232 33/58/233 61/109/234
f 60/107/235 61/110/236 48/111/237 49/108/238
f 61/109/239 33/58/240 35/62/241 62/112/242
f 61/110/243 62/113/244 47/114/245 48/111/246
f 62/112/247 35/62/248 36/66/249 63/115/250
f 62/113/251 63/116/252 46/117/253 47/114/254
f 63/115/255 36/66/256 32/70/257 64/118/258
f 63/116/259 64/84/260 45/83/261 46/117/262
g default
v 0.000000 4.455238 0.028643
v 0.000000 3.869400 0.138897
v 0.000000 4.423414 -0.042645
v 0.000000 3.869354 0.232675
v 0.000000 1.802048 0.234067
v 0.000000 3.935646 0.143408
v 0.000000 2.431335 0.234067
v 0.000000 2.305191 -0.183083
v 0.000000 2.514816 0.110857
v -0.078055 2.431335 0.087630
v -0.033181 2.431335 -0.183083
v -0.110091 2.305252 0.192451
v -0.058168 2.305191 -0.183083
v -0.107324 2.431335 0.234067
v -0.089189 3.869535 0.232675
v -0.130880 1.800507 0.234067
v 0.000000 2.451859 -0.183083
v -0.128421 3.936184 0.144794
v -0.130765 3.938972 0.215743
v -0.148499 4.378279 -0.027790
v -0.149580 4.406694 0.046072
v -0.130880 1.800507 0.192451
v -0.126152 4.185927 0.126503
v -0.126104 4.169464 0.052199
v 0.000000 3.937950 0.217299
v 0.000000 4.169467 0.052199
v 0.000000 4.185927 0.126503
v 0.078055 2.431335 0.087630
v 0.033181 2.431335 -0.183083
v 0.110091 2.305252 0.192451
v 0.058168 2.305191 -0.183083
v 0.107324 2.431335 0.234067
v 0.089189 3.869535 0.232675
v 0.130880 1.800507 0.234067
v 0.128421 3.936184 0.144794
v 0.130765 3.938972 0.215743
v 0.148499 4.378279 -0.027790
v 0.149580 4.406694 0.046072
v 0.130880 1.800507 0.192451
v 0.126152 4.185927 0.126503
v 0.126104 4.169464 0.052199
v 0.000000 1.809494 0.192451
vt 0.914271 0.070008
vt 0.910301 0.180189
vt 0.858261 0.177040
vt 0.866215 0.026245
vt 0.095400 0.216355
vt 0.085976 0.019320
vt 0.135293 0.019752
vt 0.135298 0.215617
vt 0.701975 0.036485
vt 0.701616 0.024048
vt 0.910817 0.009181
vt 0.135345 0.996185
vt 0.079116 0.977858
vt 0.087949 0.889508
vt 0.135328 0.889454
vt 0.135323 0.789527
vt 0.086414 0.790098
vt 0.102150 0.762818
vt 0.135308 0.762732
vt 0.086410 0.005540
vt 0.135292 0.004027
vt 0.276253 0.217034
vt 0.348730 0.206137
vt 0.331065 0.732569
vt 0.275688 0.736424
vt 0.322762 0.861755
vt 0.350167 0.856827
vt 0.357831 0.944171
vt 0.331447 0.944141
vt 0.275120 0.961055
vt 0.275294 0.861746
vt 0.323756 0.766826
vt 0.347115 0.760011
vt 0.275450 0.766842
vt 0.342697 0.754968
vt 0.332588 0.976209
vt 0.275054 0.991442
vt 0.290769 0.094426
vt 0.313521 0.182983
vt 0.277496 0.095813
vt 0.226567 0.170830
vt 0.215148 0.178078
vt 0.215065 0.124340
vt 0.235732 0.124536
vt 0.921137 0.041119
vt 0.972923 0.035083
vt 0.983009 0.144874
vt 0.937459 0.191241
vt 0.184610 0.019320
vt 0.175196 0.216355
vt 0.773238 0.202600
vt 0.772905 0.190162
vt 0.982940 0.205797
vt 0.182706 0.889508
vt 0.191551 0.977859
vt 0.168468 0.762818
vt 0.184231 0.790097
vt 0.184174 0.005540
vt 0.220496 0.731971
vt 0.203901 0.205314
vt 0.227828 0.861727
vt 0.218886 0.944104
vt 0.192477 0.944001
vt 0.200420 0.856686
vt 0.203729 0.759846
vt 0.227152 0.766667
vt 0.208429 0.754306
vt 0.217622 0.976166
vt 0.264270 0.094092
vt 0.239424 0.182460
vt 0.203735 0.170830
vt 0.194509 0.124536
vn -0.976573 0.154152 -0.150139
vn -0.976236 0.159931 -0.146239
vn -0.976236 0.159931 -0.146239
vn -0.993454 0.082178 -0.079343
vn 0.000001 0.000625 1.000000
vn 0.003026 -0.075226 0.997162
vn 0.000000 -0.072425 0.997374
vn 0.000000 0.000632 1.000000
vn -0.993454 0.082178 -0.079343
vn -0.998904 0.039008 -0.025883
vn -0.998904 0.039008 -0.025883
vn -0.989165 0.067980 -0.130122
vn 0.000000 0.341847 0.939756
vn -0.000782 0.341847 0.939755
vn -0.002451 0.341862 0.939747
vn 0.000000 0.341863 0.939750
vn 0.000000 0.320382 0.947288
vn -0.004509 0.326905 0.945046
vn -0.000385 0.016343 0.999866
vn 0.000000 0.012713 0.999919
vn -0.989165 0.067980 -0.130122
vn -0.976573 0.154152 -0.150139
vn -0.993454 0.082178 -0.079343
vn 0.000001 0.000625 1.000000
vn 0.000000 0.000632 1.000000
vn 0.000000 0.012713 0.999919
vn -0.000385 0.016343 0.999866
vn 0.040028 -0.995224 -0.089037
vn 0.000000 -0.996022 -0.089108
vn 0.000000 -0.072425 0.997374
vn 0.003026 -0.075226 0.997162
vn -0.000000 0.105202 -0.994451
vn -0.749444 0.029378 -0.661416
vn -0.748478 -0.027614 -0.662584
vn 0.000000 -0.010667 -0.999943
vn -0.459616 -0.339459 -0.820683
vn -0.999200 -0.039994 0.000371
vn -0.994953 -0.097889 0.022069
vn -0.464526 -0.101224 -0.879755
vn -0.459616 -0.339459 -0.820683
vn -0.464526 -0.101224 -0.879755
vn 0.000000 0.043379 -0.999059
vn 0.000000 -0.359409 -0.933180
vn -0.999200 -0.039994 0.000371
vn -0.459616 -0.339459 -0.820683
vn -0.585668 -0.392389 -0.709242
vn -0.999817 0.007802 -0.017499
vn -0.459616 -0.339459 -0.820683
vn 0.000000 -0.359409 -0.933180
vn 0.000000 -0.318097 -0.948058
vn -0.585668 -0.392389 -0.709242
vn -0.002451 0.341862 0.939747
vn -0.004509 0.326905 0.945046
vn 0.000000 0.320382 0.947288
vn 0.000000 0.341863 0.939750
vn 0.000000 -0.010667 -0.999943
vn -0.585668 -0.392389 -0.709242
vn 0.000000 -0.318097 -0.948058
vn 0.000000 -0.010667 -0.999943
vn -0.748478 -0.027614 -0.662584
vn -0.582145 -0.751612 -0.310138
vn -0.585668 -0.392389 -0.709242
vn -0.464526 -0.101224 -0.879755
vn -0.314865 0.875809 -0.365813
vn 0.000000 0.922743 -0.385416
vn 0.000000 0.043379 -0.999059
vn -0.661564 0.737669 -0.134823
vn -0.672971 0.726981 -0.136410
vn -0.000000 0.105202 -0.994451
vn 0.000000 0.983705 -0.179790
vn -0.749444 0.029378 -0.661416
vn -0.000000 0.105202 -0.994451
vn -0.672971 0.726981 -0.136410
vn 0.000000 0.000000 -1.000000
vn -0.000000 0.000000 -1.000000
vn -0.000000 0.000000 -1.000000
vn 0.000000 0.000000 -1.000000
vn 0.976236 0.159931 -0.146239
vn 0.976236 0.159931 -0.146239
vn 0.976573 0.154152 -0.150139
vn 0.993454 0.082178 -0.079343
vn 0.000000 -0.072425 0.997374
vn -0.003026 -0.075225 0.997162
vn -0.000001 0.000625 1.000000
vn 0.000000 0.000632 1.000000
vn 0.998904 0.039008 -0.025883
vn 0.998904 0.039008 -0.025883
vn 0.993454 0.082178 -0.079343
vn 0.989165 0.067980 -0.130122
vn 0.000000 0.341847 0.939756
vn 0.000000 0.341863 0.939750
vn 0.002451 0.341862 0.939747
vn 0.000782 0.341847 0.939755
vn 0.000000 0.320382 0.947288
vn 0.000000 0.012713 0.999919
vn 0.000385 0.016343 0.999866
vn 0.004509 0.326905 0.945046
vn 0.993454 0.082178 -0.079343
vn 0.976573 0.154152 -0.150139
vn 0.989165 0.067980 -0.130122
vn 0.000000 0.012713 0.999919
vn 0.000000 0.000632 1.000000
vn -0.000001 0.000625 1.000000
vn 0.000385 0.016343 0.999866
vn 0.000000 -0.072425 0.997374
vn 0.000000 -0.996022 -0.089108
vn -0.040028 -0.995224 -0.089037
vn -0.003026 -0.075225 0.997162
vn 0.748478 -0.027614 -0.662584
vn 0.749444 0.029378 -0.661416
vn -0.000000 0.105202 -0.994451
vn 0.000000 -0.010667 -0.999943
vn 0.459616 -0.339459 -0.820683
vn 0.464526 -0.101224 -0.879755
vn 0.994953 -0.097889 0.022069
vn 0.999200 -0.039994 0.000371
vn 0.000000 0.043379 -0.999059
vn 0.464526 -0.101224 -0.879755
vn 0.459616 -0.339459 -0.820683
vn 0.000000 -0.359409 -0.933180
vn 0.999200 -0.039994 0.000371
vn 0.999817 0.007802 -0.017499
vn 0.585667 -0.392389 -0.709242
vn 0.459616 -0.339459 -0.820683
vn 0.459616 -0.339459 -0.820683
vn 0.585667 -0.392389 -0.709242
vn 0.000000 -0.318097 -0.948058
vn 0.000000 -0.359409 -0.933180
vn 0.000000 0.320382 0.947288
vn 0.004509 0.326905 0.945046
vn 0.002451 0.341862 0.939747
vn 0.000000 0.341863 0.939750
vn 0.000000 -0.318097 -0.948058
vn 0.585667 -0.392389 -0.709242
vn 0.000000 -0.010667 -0.999943
vn 0.000000 -0.010667 -0.999943
vn 0.585667 -0.392389 -0.709242
vn 0.582145 -0.751612 -0.310141
vn 0.748478 -0.027614 -0.662584
vn 0.464526 -0.101224 -0.879755
vn 0.000000 0.043379 -0.999059
vn 0.000000 0.922743 -0.385416
vn 0.314865 0.875809 -0.365812
vn 0.661564 0.737669 -0.134823
vn 0.000000 0.983705 -0.179790
vn -0.000000 0.105202 -0.994451
vn 0.672971 0.726981 -0.136410
vn -0.000000 0.105202 -0.994451
vn 0.749444 0.029378 -0.661416
vn 0.672971 0.726981 -0.136410
vn -0.000000 0.000000 -1.000000
vn -0.000000 0.000000 -1.000000
vn -0.000000 0.000000 -1.000000
vn -0.000000 0.000000 -1.000000
s off
g Guitar_LOD:polySurface54
usemtl Guitar_LOD:lambert4SG
f 75/119/263 76/120/264 78/121/265 77/122/266
f 79/123/267 81/124/268 70/125/269 72/126/270
f 77/122/271 87/127/272 81/128/273 79/129/274
f 66/130/275 86/131/276 88/132/277 92/133/278
f 90/134/279 84/135/280 80/136/281 69/137/282
f 79/129/283 75/119/284 77/122/285
f 79/123/286 72/126/287 69/137/288 80/136/289
f 87/138/290 107/139/291 70/125/292 81/124/293
f 74/140/294 79/141/295 80/142/296 67/143/297
f 89/144/298 88/145/299 86/146/300 85/147/301
f 89/144/302 85/147/303 68/148/304 91/149/305
f 88/145/306 89/144/307 83/150/308 84/151/309
f 89/144/310 91/149/311 71/152/312 83/150/313
f 88/132/314 84/135/315 90/134/316 92/133/317
f 67/143/318 83/150/319 71/152/320
f 67/143/321 80/142/322 84/153/323 83/150/324
f 85/147/325 86/154/326 66/155/327 68/148/328
f 76/156/329 75/157/330 74/140/331 82/158/332
f 79/141/333 74/140/334 75/157/335
f 76/159/336 82/160/337 73/161/338 78/162/339
f 96/163/340 94/164/341 93/165/342 95/166/343
f 70/125/344 99/167/345 97/168/346 72/126/347
f 99/169/348 104/170/349 95/166/350 97/171/351
f 66/130/352 92/133/353 105/172/354 103/173/355
f 90/134/356 69/137/357 98/174/358 101/175/359
f 95/166/360 93/165/361 97/171/362
f 69/137/363 72/126/364 97/168/365 98/174/366
f 70/125/367 107/139/368 104/176/369 99/167/370
f 98/177/371 97/178/372 74/140/373 67/143/374
f 106/179/375 102/180/376 103/181/377 105/182/378
f 68/148/379 102/180/380 106/179/381 91/149/382
f 105/182/383 101/183/384 100/184/385 106/179/386
f 106/179/387 100/184/388 71/152/389 91/149/390
f 90/134/391 101/175/392 105/172/393 92/133/394
f 71/152/395 100/184/396 67/143/397
f 67/143/398 100/184/399 101/185/400 98/177/401
f 102/180/402 68/148/403 66/155/404 103/186/405
f 94/187/406 82/158/407 74/140/408 93/188/409
f 74/140/410 97/178/411 93/188/412
f 94/189/413 96/190/414 73/161/415 82/160/416
