# This file uses centimeters as units for non-parametric coordinates.

mtllib WindMesh.mtl
g default
v -0.071701 0.000000 8.058086
v 0.071701 0.000000 8.058086
v -0.071701 -0.219078 6.446469
v 0.071701 -0.219078 6.446469
v -0.071701 -0.339980 4.834852
v 0.071701 -0.339980 4.834852
v -0.071701 0.000000 3.223234
v 0.071701 0.000000 3.223234
v -0.071701 0.428303 1.611617
v 0.071701 0.428303 1.611617
v -0.071701 0.172093 0.000000
v 0.071701 0.172093 0.000000
v -0.071701 -0.141968 -1.611618
v 0.071701 -0.141968 -1.611618
v -0.071701 0.091994 -3.223234
v 0.071701 0.091994 -3.223234
v -0.071701 0.256934 -4.834852
v 0.071701 0.256934 -4.834852
v -0.071701 0.146234 -6.446470
v 0.071701 0.146234 -6.446470
v -0.071701 0.000000 -8.058086
v 0.071701 0.000000 -8.058086
vt 0.000000 -1.000000
vt 1.000000 -1.000000
vt 0.000000 -0.700000
vt 1.000000 -0.700000
vt 0.000000 -0.400000
vt 1.000000 -0.400000
vt 0.000000 -0.100000
vt 1.000000 -0.100000
vt 0.000000 0.200000
vt 1.000000 0.200000
vt 0.000000 0.500000
vt 1.000000 0.500000
vt 0.000000 0.800000
vt 1.000000 0.800000
vt 0.000000 1.100000
vt 1.000000 1.100000
vt 0.000000 1.400000
vt 1.000000 1.400000
vt 0.000000 1.700000
vt 1.000000 1.700000
vt 0.000000 2.000000
vt 1.000000 2.000000
vn 0.000000 0.990887 -0.134698
vn 0.000000 0.990887 -0.134698
vn 0.000000 0.994483 -0.104896
vn 0.000000 0.994483 -0.104896
vn 0.000000 0.997698 0.067812
vn 0.000000 0.997698 0.067812
vn 0.000000 0.972749 0.231862
vn 0.000000 0.972749 0.231862
vn 0.000000 0.998578 0.053316
vn 0.000000 0.998578 0.053316
vn 0.000000 0.984707 -0.174219
vn 0.000000 0.984707 -0.174219
vn 0.000000 0.999691 -0.024843
vn 0.000000 0.999691 -0.024843
vn 0.000000 0.992429 0.122821
vn 0.000000 0.992429 0.122821
vn 0.000000 0.999858 0.016825
vn 0.000000 0.999858 0.016825
vn 0.000000 0.996838 -0.079461
vn 0.000000 0.996838 -0.079461
vn 0.000000 0.995909 -0.090366
vn 0.000000 0.995909 -0.090366
s 1
g pPlane1
usemtl initialShadingGroup
f 1/1/1 2/2/2 4/4/3 3/3/4
f 3/3/4 4/4/3 6/6/5 5/5/6
f 5/5/6 6/6/5 8/8/7 7/7/8
f 7/7/8 8/8/7 10/10/9 9/9/10
f 9/9/10 10/10/9 12/12/11 11/11/12
f 11/11/12 12/12/11 14/14/13 13/13/14
f 13/13/14 14/14/13 16/16/15 15/15/16
f 15/15/16 16/16/15 18/18/17 17/17/18
f 17/17/18 18/18/17 20/20/19 19/19/20
f 19/19/20 20/20/19 22/22/21 21/21/22
