# This file uses centimeters as units for non-parametric coordinates.

mtllib Memory_Low.mtl
g default
v -0.147947 0.016331 0.018193
v -0.147947 0.016331 -0.012213
v -0.147947 0.009418 0.018193
v -0.147947 0.009418 -0.012213
v -0.132623 0.009418 -0.012213
v -0.132623 0.009418 0.018193
v -0.132623 0.016331 -0.012213
v -0.132623 0.016331 0.018193
v -0.147178 0.020880 0.200000
v -0.124411 0.014024 0.200000
v -0.147178 0.020880 0.064449
v -0.064257 0.020880 -0.200000
v -0.147178 0.004748 0.200000
v -0.147178 0.004748 0.064449
v -0.064257 0.004748 -0.200000
v -0.124411 0.014024 0.090785
v 0.124411 0.014024 0.090785
v 0.147178 0.020880 0.200000
v 0.147178 0.020880 -0.200000
v 0.147178 0.004748 0.200000
v 0.147178 0.004748 -0.200000
v 0.124411 0.014024 0.200000
v 0.124411 0.020880 0.090785
v -0.124411 0.020880 0.090785
v -0.124411 0.020880 0.200000
v 0.124411 0.020880 0.200000
v -0.147178 0.004748 -0.117079
v -0.147178 0.020880 -0.117079
v -0.147178 0.016605 -0.025014
v -0.147178 0.016605 0.018495
v -0.147178 0.009033 -0.025014
v -0.147178 0.009033 0.018495
v -0.135942 0.016605 0.018495
v -0.135942 0.009033 0.018495
v -0.135942 0.009033 -0.025014
v -0.135942 0.016605 -0.025014
vt 0.015625 0.049634
vt 0.064842 0.049634
vt 0.064842 0.060824
vt 0.015625 0.060824
vt 0.639630 0.260904
vt 0.639630 0.285709
vt 0.590413 0.285709
vt 0.590413 0.260904
vt 0.854217 0.260904
vt 0.854217 0.285709
vt 0.805000 0.285709
vt 0.805000 0.260904
vt 0.885164 0.015625
vt 0.885164 0.040429
vt 0.873974 0.040429
vt 0.873974 0.015625
vt 0.040429 0.087835
vt 0.015625 0.087835
vt 0.015625 0.076646
vt 0.040429 0.076646
vt 0.746810 0.737369
vt 0.720698 0.737369
vt 0.737451 0.700516
vt 0.951057 0.244749
vt 0.923789 0.244749
vt 0.923789 0.015625
vt 0.951057 0.015625
vt 0.905038 0.245082
vt 0.502278 0.245082
vt 0.502278 0.068299
vt 0.663091 0.984375
vt 0.528870 0.507911
vt 0.663091 0.642132
vt 0.905038 0.068299
vt 0.015625 0.984375
vt 0.015625 0.507911
vt 0.235037 0.507911
vt 0.443680 0.015625
vt 0.486309 0.052477
vt 0.486309 0.455237
vt 0.969772 0.418383
vt 0.969772 0.015625
vt 0.979132 0.015625
vt 0.979132 0.418383
vt 0.663091 0.052477
vt 0.663091 0.015625
vt 0.746810 0.700516
vt 0.678547 0.040807
vt 0.855328 0.040807
vt 0.855328 0.050166
vt 0.678547 0.050166
vt 0.015625 0.492089
vt 0.015625 0.149846
vt 0.663091 0.455237
vt 0.663091 0.492089
vt 0.678547 0.015625
vt 0.855329 0.015625
vt 0.855329 0.024984
vt 0.678547 0.024984
vt 0.737451 0.297756
vt 0.746810 0.260904
vt 0.746810 0.297756
vt 0.951057 0.551588
vt 0.923789 0.551588
vt 0.931032 0.395969
vt 0.943831 0.395969
vt 0.951057 0.691751
vt 0.923789 0.691751
vt 0.943831 0.322426
vt 0.149847 0.015625
vt 0.931032 0.322426
vt 0.720698 0.260904
vt 0.678547 0.260904
vt 0.704659 0.260904
vt 0.704659 0.908372
vt 0.678547 0.908372
vt 0.788961 0.603146
vt 0.762849 0.603146
vt 0.762849 0.260904
vt 0.788961 0.260904
vt 0.502278 0.307170
vt 0.502278 0.294914
vt 0.572705 0.294914
vt 0.572705 0.307170
vt 0.502278 0.260904
vt 0.572705 0.260904
vt 0.572705 0.279091
vt 0.502278 0.279091
vt 0.624900 0.313786
vt 0.624900 0.301531
vt 0.643085 0.301531
vt 0.643085 0.313786
vt 0.015625 0.015625
vt 0.086052 0.015625
vt 0.086052 0.033812
vt 0.015625 0.033812
vt 0.590413 0.313787
vt 0.590413 0.301531
vt 0.608600 0.301531
vt 0.608600 0.313787
vn 0.000000 -1.000000 0.000000
vn 0.000000 -1.000000 0.000000
vn 0.000000 -1.000000 0.000000
vn 0.000000 -1.000000 0.000000
vn 0.000000 1.000000 0.000000
vn 0.000000 1.000000 0.000000
vn 0.000000 1.000000 0.000000
vn 0.000000 1.000000 0.000000
vn 0.000000 0.000000 1.000000
vn 0.000000 0.000000 1.000000
vn 0.000000 0.000000 1.000000
vn 0.000000 0.000000 1.000000
vn -1.000000 0.000000 0.000000
vn -1.000000 0.000000 0.000000
vn -1.000000 0.000000 0.000000
vn -1.000000 0.000000 0.000000
vn 0.000000 0.000000 -1.000000
vn 0.000000 0.000000 -1.000000
vn 0.000000 0.000000 -1.000000
vn 0.000000 0.000000 -1.000000
vn -0.000001 0.000000 1.000000
vn -0.000000 0.000000 1.000000
vn -0.000000 0.000000 1.000000
vn -1.000000 0.000000 0.000000
vn -1.000000 -0.000000 0.000000
vn -1.000000 0.000000 0.000000
vn -1.000000 0.000000 0.000000
vn 0.000000 1.000000 0.000000
vn 0.000000 1.000000 0.000000
vn 0.000000 1.000000 0.000000
vn 0.000000 -1.000000 0.000000
vn 0.000000 -1.000000 0.000000
vn 0.000000 -1.000000 0.000000
vn 0.000000 1.000000 0.000000
vn 0.000000 -1.000000 0.000000
vn 0.000000 -1.000000 0.000000
vn 0.000000 -1.000000 0.000000
vn 0.000000 1.000000 0.000000
vn 0.000000 1.000000 -0.000000
vn 0.000000 1.000000 0.000000
vn 0.000000 0.000000 1.000000
vn 0.000000 0.000000 1.000000
vn 0.000000 0.000000 1.000000
vn 0.000000 0.000000 1.000000
vn 0.000000 1.000000 0.000000
vn 0.000000 1.000000 0.000000
vn 0.000000 0.000000 1.000000
vn 1.000000 0.000000 0.000000
vn 1.000000 0.000000 0.000000
vn 1.000000 0.000000 0.000000
vn 1.000000 0.000000 0.000000
vn 0.000000 1.000000 -0.000000
vn 0.000000 1.000000 0.000000
vn 0.000000 1.000000 0.000000
vn 0.000000 1.000000 0.000000
vn -1.000000 0.000000 0.000000
vn -1.000000 0.000000 0.000000
vn -1.000000 0.000000 0.000000
vn -1.000000 0.000000 0.000000
vn 0.000000 0.000000 1.000000
vn 0.000001 0.000000 1.000000
vn 0.000000 0.000000 1.000000
vn -0.874413 0.000000 -0.485183
vn -0.874412 -0.000000 -0.485185
vn -1.000000 -0.000000 0.000000
vn -1.000000 0.000000 0.000000
vn -0.707107 0.000000 -0.707107
vn -0.707107 0.000000 -0.707107
vn -1.000000 0.000000 0.000000
vn 0.000000 1.000000 0.000000
vn -1.000000 -0.000001 0.000000
vn 0.000000 0.000000 1.000000
vn 1.000000 0.000000 0.000000
vn 1.000000 0.000000 0.000000
vn 1.000000 0.000000 0.000000
vn 1.000000 0.000000 0.000000
vn -0.000000 0.000000 -1.000000
vn -0.000000 0.000000 -1.000000
vn -0.000000 0.000000 -1.000000
vn -0.000000 0.000000 -1.000000
vn -1.000000 0.000000 0.000000
vn -1.000000 0.000000 0.000000
vn -1.000000 0.000000 0.000000
vn -1.000000 0.000000 0.000000
vn 0.000000 -1.000000 0.000000
vn 0.000000 -1.000000 0.000000
vn 0.000000 -1.000000 0.000000
vn 0.000000 -1.000000 0.000000
vn 0.000000 0.000000 -1.000000
vn 0.000000 0.000000 -1.000000
vn 0.000000 0.000000 -1.000000
vn 0.000000 0.000000 -1.000000
vn 0.000000 1.000000 0.000000
vn 0.000000 1.000000 0.000000
vn 0.000000 1.000000 0.000000
vn 0.000000 1.000000 0.000000
vn 0.000000 0.000000 1.000000
vn 0.000000 0.000000 1.000000
vn 0.000000 0.000000 1.000000
vn 0.000000 0.000000 1.000000
s off
g polySurface2
usemtl initialShadingGroup
f 4/5/1 5/6/2 6/7/3 3/8/4
f 1/9/5 8/10/6 7/11/7 2/12/8
f 3/13/9 6/14/10 8/15/11 1/16/12
f 4/1/13 3/2/14 1/3/15 2/4/16
f 5/17/17 4/18/18 2/19/19 7/20/20
s 1
f 9/21/21 13/22/22 10/23/23
s 2
f 11/24/24 14/25/25 13/26/26 9/27/27
s 3
f 17/28/28 16/29/29 10/30/30
s 4
f 21/31/31 27/32/32 15/33/33
s 3
f 17/28/28 10/30/30 22/34/34
s 4
f 21/31/31 20/35/35 13/36/36 14/37/37
s 5
f 11/38/38 24/39/39 23/40/40
s off
f 16/41/41 17/42/42 23/43/43 24/44/44
s 5
f 25/45/45 24/39/39 11/38/38 9/46/46
s 1
f 9/21/21 10/23/23 25/47/47
s off
f 10/48/48 16/49/49 24/50/50 25/51/51
s 5
f 19/52/52 12/53/53 23/40/40
f 26/54/54 18/55/55 19/52/52 23/40/40
s off
f 17/56/56 22/57/57 26/58/58 23/59/59
s 1
f 22/60/60 18/61/61 26/62/62
s 2
f 28/63/63 27/64/64 31/65/65 29/66/66
s 5
f 23/40/40 12/53/53 11/38/38
s 2
f 12/67/67 15/68/68 27/64/64 28/63/63
s 4
f 21/31/31 14/37/37 27/32/32
s 2
f 29/66/66 30/69/69 11/24/24 28/63/63
s 5
f 12/53/53 28/70/70 11/38/38
s 2
f 30/69/69 32/71/71 14/25/25 11/24/24
s 1
f 20/72/72 18/61/61 22/60/60
s off
f 21/73/73 19/74/74 18/75/75 20/76/76
f 15/77/77 12/78/78 19/79/79 21/80/80
s 1
f 20/72/72 22/60/60 10/23/23 13/22/22
s 2
f 31/65/65 27/64/64 14/25/25 32/71/71
s off
f 36/81/81 35/82/82 34/83/83 33/84/84
f 30/85/85 29/86/86 36/87/87 33/88/88
f 32/89/89 30/90/90 33/91/91 34/92/92
f 31/93/93 32/94/94 34/95/95 35/96/96
f 29/97/97 31/98/98 35/99/99 36/100/100
