# This file uses centimeters as units for non-parametric coordinates.

mtllib Sirtariera_Body.mtl
g default
v -2.533616 -1.191265 1.367321
v 2.533616 -1.191265 1.367321
v -2.533616 -1.191265 -1.367321
v 2.533616 -1.191265 -1.367321
v -2.533616 0.306595 1.367321
v 2.533616 0.306595 1.367321
v 2.533616 0.306595 -1.367321
v -2.533616 0.306595 -1.367321
v -2.285751 -0.943400 1.367321
v 2.285751 -0.943400 1.367321
v 2.285751 0.151812 1.367321
v -2.285751 0.151812 1.367321
v -2.285751 0.151812 0.104500
v 2.285751 0.151812 0.104500
v 2.285751 -0.943400 0.104500
v -2.285751 -0.943400 0.104500
v -2.533616 1.804457 1.367321
v 2.533616 1.804457 1.367321
v -2.533616 1.804457 -1.367321
v 2.533616 1.804457 -1.367321
v -2.285751 1.556592 1.367321
v 2.285751 1.556592 1.367321
v 2.285751 0.461378 1.367321
v -2.285751 0.461378 1.367321
v -2.285751 0.461378 0.104500
v 2.285751 0.461378 0.104500
v 2.285751 1.556592 0.104500
v -2.285751 1.556592 0.104500
v -2.115482 -1.139577 0.846829
v -2.191002 -1.139577 0.867064
v -2.246287 -1.139577 0.922349
v -2.266523 -1.139577 0.997869
v -2.246287 -1.139577 1.073390
v -2.191002 -1.139577 1.128674
v -2.115482 -1.139577 1.148910
v -2.039962 -1.139577 1.128674
v -1.984677 -1.139577 1.073389
v -1.964442 -1.139577 0.997869
v -1.984677 -1.139577 0.922349
v -2.039962 -1.139577 0.867064
v -2.115482 -1.804457 0.846829
v -2.191002 -1.804457 0.867064
v -2.246287 -1.804457 0.922349
v -2.266523 -1.804457 0.997869
v -2.246287 -1.804457 1.073390
v -2.191002 -1.804457 1.128674
v -2.115482 -1.804457 1.148910
v -2.039962 -1.804457 1.128674
v -1.984677 -1.804457 1.073389
v -1.964442 -1.804457 0.997869
v -1.984677 -1.804457 0.922349
v -2.039962 -1.804457 0.867064
v -2.115482 -1.804457 0.997869
v 2.115482 -1.139577 0.846829
v 2.191002 -1.139577 0.867064
v 2.246287 -1.139577 0.922349
v 2.266523 -1.139577 0.997869
v 2.246287 -1.139577 1.073390
v 2.191002 -1.139577 1.128674
v 2.115482 -1.139577 1.148910
v 2.039962 -1.139577 1.128674
v 1.984677 -1.139577 1.073389
v 1.964442 -1.139577 0.997869
v 1.984677 -1.139577 0.922349
v 2.039962 -1.139577 0.867064
v 2.115482 -1.804457 0.846829
v 2.191002 -1.804457 0.867064
v 2.246287 -1.804457 0.922349
v 2.266523 -1.804457 0.997869
v 2.246287 -1.804457 1.073390
v 2.191002 -1.804457 1.128674
v 2.115482 -1.804457 1.148910
v 2.039962 -1.804457 1.128674
v 1.984677 -1.804457 1.073389
v 1.964442 -1.804457 0.997869
v 1.984677 -1.804457 0.922349
v 2.039962 -1.804457 0.867064
v 2.115482 -1.804457 0.997869
v -2.115482 -1.139577 -0.846829
v -2.191002 -1.139577 -0.867064
v -2.246287 -1.139577 -0.922349
v -2.266523 -1.139577 -0.997869
v -2.246287 -1.139577 -1.073390
v -2.191002 -1.139577 -1.128674
v -2.115482 -1.139577 -1.148910
v -2.039962 -1.139577 -1.128674
v -1.984677 -1.139577 -1.073389
v -1.964442 -1.139577 -0.997869
v -1.984677 -1.139577 -0.922349
v -2.039962 -1.139577 -0.867064
v -2.115482 -1.804457 -0.846829
v -2.191002 -1.804457 -0.867064
v -2.246287 -1.804457 -0.922349
v -2.266523 -1.804457 -0.997869
v -2.246287 -1.804457 -1.073390
v -2.191002 -1.804457 -1.128674
v -2.115482 -1.804457 -1.148910
v -2.039962 -1.804457 -1.128674
v -1.984677 -1.804457 -1.073389
v -1.964442 -1.804457 -0.997869
v -1.984677 -1.804457 -0.922349
v -2.039962 -1.804457 -0.867064
v -2.115482 -1.804457 -0.997869
v 2.115482 -1.139577 -0.846829
v 2.191002 -1.139577 -0.867064
v 2.246287 -1.139577 -0.922349
v 2.266523 -1.139577 -0.997869
v 2.246287 -1.139577 -1.073390
v 2.191002 -1.139577 -1.128674
v 2.115482 -1.139577 -1.148910
v 2.039962 -1.139577 -1.128674
v 1.984677 -1.139577 -1.073389
v 1.964442 -1.139577 -0.997869
v 1.984677 -1.139577 -0.922349
v 2.039962 -1.139577 -0.867064
v 2.115482 -1.804457 -0.846829
v 2.191002 -1.804457 -0.867064
v 2.246287 -1.804457 -0.922349
v 2.266523 -1.804457 -0.997869
v 2.246287 -1.804457 -1.073390
v 2.191002 -1.804457 -1.128674
v 2.115482 -1.804457 -1.148910
v 2.039962 -1.804457 -1.128674
v 1.984677 -1.804457 -1.073389
v 1.964442 -1.804457 -0.997869
v 1.984677 -1.804457 -0.922349
v 2.039962 -1.804457 -0.867064
v 2.115482 -1.804457 -0.997869
vt 0.555652 0.693546
vt 0.555652 0.517191
vt 0.652248 0.517191
vt 0.652248 0.693546
vt 0.748844 0.693546
vt 0.748844 0.517191
vt 0.555652 0.500674
vt 0.555652 0.324319
vt 0.652248 0.324319
vt 0.652248 0.500674
vt 0.748844 0.500674
vt 0.748844 0.324319
vt 0.015625 0.962892
vt 0.015625 0.892263
vt 0.097063 0.892263
vt 0.097063 0.962892
vt 0.197068 0.892263
vt 0.197068 0.962892
vt 0.115630 0.962892
vt 0.115630 0.892263
vt 0.578279 0.808019
vt 0.578279 0.889457
vt 0.507649 0.889457
vt 0.507649 0.808019
vt 0.297073 0.962892
vt 0.215635 0.962892
vt 0.215635 0.892263
vt 0.297073 0.892263
vt 0.359642 0.342407
vt 0.359642 0.015625
vt 0.535997 0.015625
vt 0.535997 0.342407
vt 0.767662 0.310438
vt 0.767662 0.015625
vt 0.849101 0.015625
vt 0.849101 0.310438
vt 0.849101 0.638285
vt 0.849101 0.933098
vt 0.767662 0.933098
vt 0.767662 0.638285
vt 0.359642 0.358924
vt 0.535997 0.358924
vt 0.535997 0.685706
vt 0.359642 0.685706
vt 0.767662 0.326955
vt 0.849101 0.326955
vt 0.849101 0.621768
vt 0.767662 0.621768
vt 0.295639 0.791502
vt 0.295639 0.710063
vt 0.590452 0.710063
vt 0.590452 0.791502
vt 0.342407 0.418526
vt 0.015625 0.418526
vt 0.015625 0.321930
vt 0.342407 0.321930
vt 0.342407 0.225334
vt 0.015625 0.225334
vt 0.031610 0.031610
vt 0.015625 0.015625
vt 0.342407 0.015625
vt 0.326423 0.031610
vt 0.031610 0.102239
vt 0.015625 0.112221
vt 0.342407 0.112221
vt 0.326423 0.102239
vt 0.326423 0.122203
vt 0.031610 0.122203
vt 0.031610 0.192833
vt 0.015625 0.208817
vt 0.326423 0.192833
vt 0.342407 0.208817
vt 0.938297 0.326955
vt 0.938297 0.621768
vt 0.867667 0.621768
vt 0.867667 0.326955
vt 0.938297 0.310438
vt 0.867667 0.310438
vt 0.867667 0.015625
vt 0.938297 0.015625
vt 0.227636 0.472588
vt 0.270513 0.472588
vt 0.270513 0.477630
vt 0.227636 0.477630
vt 0.270513 0.482672
vt 0.227636 0.482672
vt 0.270513 0.487714
vt 0.227636 0.487714
vt 0.270513 0.492756
vt 0.227636 0.492756
vt 0.270513 0.497798
vt 0.227636 0.497798
vt 0.270513 0.502840
vt 0.227636 0.502840
vt 0.270513 0.507882
vt 0.227636 0.507882
vt 0.270513 0.512924
vt 0.227636 0.512924
vt 0.270513 0.517966
vt 0.227636 0.517966
vt 0.270513 0.523009
vt 0.227636 0.523009
vt 0.270513 0.528051
vt 0.227636 0.528051
vt 0.227636 0.467546
vt 0.270513 0.467546
vt 0.205374 0.048125
vt 0.205374 0.057866
vt 0.200504 0.049430
vt 0.196939 0.052995
vt 0.195634 0.057866
vt 0.196939 0.062736
vt 0.200504 0.066301
vt 0.205374 0.067606
vt 0.210245 0.066301
vt 0.213810 0.062736
vt 0.215115 0.057866
vt 0.213810 0.052995
vt 0.210245 0.049430
vt 0.227636 0.472588
vt 0.227636 0.477630
vt 0.270513 0.477630
vt 0.270513 0.472588
vt 0.227636 0.482672
vt 0.270513 0.482672
vt 0.227636 0.487714
vt 0.270513 0.487714
vt 0.227636 0.492756
vt 0.270513 0.492756
vt 0.227636 0.497798
vt 0.270513 0.497798
vt 0.227636 0.502840
vt 0.270513 0.502840
vt 0.227636 0.507882
vt 0.270513 0.507882
vt 0.227636 0.512924
vt 0.270513 0.512924
vt 0.227636 0.517966
vt 0.270513 0.517966
vt 0.227636 0.523009
vt 0.270513 0.523009
vt 0.227636 0.528051
vt 0.270513 0.528051
vt 0.227636 0.467546
vt 0.270513 0.467546
vt 0.205374 0.048125
vt 0.200504 0.049430
vt 0.205374 0.057866
vt 0.196939 0.052995
vt 0.195634 0.057866
vt 0.196939 0.062736
vt 0.200504 0.066301
vt 0.205374 0.067606
vt 0.210245 0.066301
vt 0.213810 0.062736
vt 0.215115 0.057866
vt 0.213810 0.052995
vt 0.210245 0.049430
vt 0.227636 0.472588
vt 0.227636 0.477630
vt 0.270513 0.477630
vt 0.270513 0.472588
vt 0.227636 0.482672
vt 0.270513 0.482672
vt 0.227636 0.487714
vt 0.270513 0.487714
vt 0.227636 0.492756
vt 0.270513 0.492756
vt 0.227636 0.497798
vt 0.270513 0.497798
vt 0.227636 0.502840
vt 0.270513 0.502840
vt 0.227636 0.507882
vt 0.270513 0.507882
vt 0.227636 0.512924
vt 0.270513 0.512924
vt 0.227636 0.517966
vt 0.270513 0.517966
vt 0.227636 0.523009
vt 0.270513 0.523009
vt 0.227636 0.528051
vt 0.270513 0.528051
vt 0.227636 0.467546
vt 0.270513 0.467546
vt 0.205374 0.048125
vt 0.200504 0.049430
vt 0.205374 0.057866
vt 0.196939 0.052995
vt 0.195634 0.057866
vt 0.196939 0.062736
vt 0.200504 0.066301
vt 0.205374 0.067606
vt 0.210245 0.066301
vt 0.213810 0.062736
vt 0.215115 0.057866
vt 0.213810 0.052995
vt 0.210245 0.049430
vt 0.227636 0.472588
vt 0.270513 0.472588
vt 0.270513 0.477630
vt 0.227636 0.477630
vt 0.270513 0.482672
vt 0.227636 0.482672
vt 0.270513 0.487714
vt 0.227636 0.487714
vt 0.270513 0.492756
vt 0.227636 0.492756
vt 0.270513 0.497798
vt 0.227636 0.497798
vt 0.270513 0.502840
vt 0.227636 0.502840
vt 0.270513 0.507882
vt 0.227636 0.507882
vt 0.270513 0.512924
vt 0.227636 0.512924
vt 0.270513 0.517966
vt 0.227636 0.517966
vt 0.270513 0.523009
vt 0.227636 0.523009
vt 0.270513 0.528051
vt 0.227636 0.528051
vt 0.227636 0.467546
vt 0.270513 0.467546
vt 0.205374 0.048125
vt 0.205374 0.057866
vt 0.200504 0.049430
vt 0.196939 0.052995
vt 0.195634 0.057866
vt 0.196939 0.062736
vt 0.200504 0.066301
vt 0.205374 0.067606
vt 0.210245 0.066301
vt 0.213810 0.062736
vt 0.215115 0.057866
vt 0.213810 0.052995
vt 0.210245 0.049430
vn 0.000000 -1.000000 0.000000
vn 0.000000 -1.000000 0.000000
vn 0.000000 -1.000000 0.000000
vn 0.000000 -1.000000 0.000000
vn -1.000000 0.000000 0.000000
vn -1.000000 0.000000 0.000000
vn -1.000000 0.000000 0.000000
vn -1.000000 0.000000 0.000000
vn 1.000000 0.000000 0.000000
vn 1.000000 0.000000 0.000000
vn 1.000000 0.000000 0.000000
vn 1.000000 0.000000 0.000000
vn 0.000000 0.000000 -1.000000
vn 0.000000 0.000000 -1.000000
vn 0.000000 0.000000 -1.000000
vn 0.000000 0.000000 -1.000000
vn 0.000000 0.000000 1.000000
vn 0.000000 0.000000 1.000000
vn 0.000000 0.000000 1.000000
vn 0.000000 0.000000 1.000000
vn -0.000000 0.000000 1.000000
vn 0.000000 0.000000 1.000000
vn 0.000000 0.000000 1.000000
vn 0.000000 0.000000 1.000000
vn 0.000000 0.000000 1.000000
vn 0.000000 0.000000 1.000000
vn 0.000000 0.000000 1.000000
vn 0.000000 0.000000 1.000000
vn 1.000000 0.000000 0.000000
vn 1.000000 0.000000 0.000000
vn 1.000000 0.000000 0.000000
vn 1.000000 0.000000 0.000000
vn 0.000000 -1.000000 0.000000
vn 0.000000 -1.000000 0.000000
vn 0.000000 -1.000000 0.000000
vn 0.000000 -1.000000 0.000000
vn -1.000000 0.000000 0.000000
vn -1.000000 0.000000 0.000000
vn -1.000000 0.000000 0.000000
vn -1.000000 0.000000 0.000000
vn 0.000000 1.000000 0.000000
vn 0.000000 1.000000 0.000000
vn 0.000000 1.000000 0.000000
vn 0.000000 1.000000 0.000000
vn 0.000000 1.000000 0.000000
vn 0.000000 1.000000 0.000000
vn 0.000000 1.000000 0.000000
vn 0.000000 1.000000 0.000000
vn -1.000000 0.000000 0.000000
vn -1.000000 0.000000 0.000000
vn 1.000000 0.000000 0.000000
vn 1.000000 0.000000 0.000000
vn 0.000000 0.000000 -1.000000
vn 0.000000 0.000000 -1.000000
vn 0.000000 0.000000 1.000000
vn -0.000000 0.000000 1.000000
vn -0.000000 0.000000 1.000000
vn 0.000000 0.000000 1.000000
vn -0.000000 0.000000 1.000000
vn 0.000000 0.000000 1.000000
vn 0.000000 0.000000 1.000000
vn 0.000000 0.000000 1.000000
vn 0.000000 0.000000 1.000000
vn 0.000000 0.000000 1.000000
vn 1.000000 0.000000 0.000000
vn 1.000000 0.000000 0.000000
vn 1.000000 0.000000 0.000000
vn 1.000000 0.000000 0.000000
vn 0.000000 1.000000 0.000000
vn 0.000000 1.000000 0.000000
vn 0.000000 1.000000 0.000000
vn 0.000000 1.000000 0.000000
vn -1.000000 0.000000 0.000000
vn -1.000000 0.000000 0.000000
vn -1.000000 0.000000 0.000000
vn -1.000000 0.000000 0.000000
vn 0.000000 -1.000000 0.000000
vn 0.000000 -1.000000 0.000000
vn 0.000000 -1.000000 0.000000
vn 0.000000 -1.000000 0.000000
vn 0.000000 0.000000 -1.000000
vn 0.000000 0.000000 -1.000000
vn -0.499995 0.000000 -0.866028
vn -0.499995 0.000000 -0.866028
vn -0.866022 0.000000 -0.500006
vn -0.866022 0.000000 -0.500006
vn -1.000000 0.000000 -0.000000
vn -1.000000 0.000000 -0.000000
vn -0.866023 0.000000 0.500004
vn -0.866023 0.000000 0.500004
vn -0.499997 0.000000 0.866027
vn -0.499997 0.000000 0.866027
vn -0.000000 0.000000 1.000000
vn -0.000000 0.000000 1.000000
vn 0.500002 0.000000 0.866025
vn 0.500002 0.000000 0.866025
vn 0.866026 0.000000 0.499999
vn 0.866026 0.000000 0.499999
vn 1.000000 0.000000 0.000000
vn 1.000000 0.000000 0.000000
vn 0.866025 0.000000 -0.500000
vn 0.866025 0.000000 -0.500000
vn 0.707100 0.000000 -0.707114
vn 0.707100 0.000000 -0.707114
vn 0.258819 0.000000 -0.965926
vn 0.258819 0.000000 -0.965926
vn 0.000000 -1.000000 0.000000
vn 0.000000 -1.000000 -0.000000
vn 0.000000 -1.000000 0.000000
vn 0.000000 -1.000000 0.000001
vn 0.000000 -1.000000 -0.000000
vn 0.000000 -1.000000 -0.000001
vn 0.000000 -1.000000 0.000000
vn 0.000000 -1.000000 0.000000
vn 0.000000 -1.000000 0.000000
vn 0.000000 -1.000000 -0.000001
vn 0.000000 -1.000000 0.000000
vn 0.000000 -1.000000 0.000001
vn 0.000000 -1.000000 0.000000
vn -0.000000 0.000000 -1.000000
vn 0.499995 0.000000 -0.866028
vn 0.499995 0.000000 -0.866028
vn -0.000000 0.000000 -1.000000
vn 0.866022 0.000000 -0.500006
vn 0.866022 0.000000 -0.500006
vn 1.000000 0.000000 -0.000000
vn 1.000000 0.000000 -0.000000
vn 0.866023 0.000000 0.500004
vn 0.866023 0.000000 0.500004
vn 0.499997 0.000000 0.866027
vn 0.499997 0.000000 0.866027
vn 0.000000 0.000000 1.000000
vn 0.000000 0.000000 1.000000
vn -0.500002 0.000000 0.866025
vn -0.500002 0.000000 0.866025
vn -0.866026 0.000000 0.499999
vn -0.866026 0.000000 0.499999
vn -1.000000 0.000000 0.000000
vn -1.000000 0.000000 0.000000
vn -0.866025 0.000000 -0.500000
vn -0.866025 0.000000 -0.500000
vn -0.707100 0.000000 -0.707114
vn -0.707100 0.000000 -0.707114
vn -0.258819 0.000000 -0.965926
vn -0.258819 0.000000 -0.965926
vn 0.000000 -1.000000 0.000000
vn 0.000000 -1.000000 0.000000
vn 0.000000 -1.000000 -0.000000
vn 0.000000 -1.000000 0.000001
vn 0.000000 -1.000000 0.000001
vn 0.000000 -1.000000 0.000000
vn 0.000000 -1.000000 0.000000
vn 0.000000 -1.000000 0.000000
vn 0.000000 -1.000000 0.000000
vn 0.000000 -1.000000 -0.000001
vn 0.000000 -1.000000 -0.000001
vn 0.000000 -1.000000 0.000000
vn 0.000000 -1.000000 0.000000
vn 0.000000 0.000000 1.000000
vn -0.499995 0.000000 0.866028
vn -0.499995 0.000000 0.866028
vn 0.000000 0.000000 1.000000
vn -0.866022 0.000000 0.500006
vn -0.866022 0.000000 0.500006
vn -1.000000 0.000000 0.000000
vn -1.000000 0.000000 0.000000
vn -0.866023 0.000000 -0.500004
vn -0.866023 0.000000 -0.500004
vn -0.499997 0.000000 -0.866027
vn -0.499997 0.000000 -0.866027
vn 0.000000 0.000000 -1.000000
vn 0.000000 0.000000 -1.000000
vn 0.500002 0.000000 -0.866024
vn 0.500002 0.000000 -0.866024
vn 0.866026 0.000000 -0.499999
vn 0.866026 0.000000 -0.499999
vn 1.000000 0.000000 0.000000
vn 1.000000 0.000000 0.000000
vn 0.866025 0.000000 0.500000
vn 0.866025 0.000000 0.500000
vn 0.707100 0.000000 0.707113
vn 0.707100 0.000000 0.707113
vn 0.258819 0.000000 0.965926
vn 0.258819 0.000000 0.965926
vn 0.000000 -1.000000 0.000000
vn 0.000000 -1.000000 0.000000
vn 0.000000 -1.000000 0.000000
vn 0.000000 -1.000000 -0.000001
vn 0.000000 -1.000000 -0.000001
vn 0.000000 -1.000000 0.000000
vn 0.000000 -1.000000 0.000000
vn 0.000000 -1.000000 0.000000
vn 0.000000 -1.000000 0.000000
vn 0.000000 -1.000000 0.000001
vn 0.000000 -1.000000 0.000001
vn 0.000000 -1.000000 0.000000
vn 0.000000 -1.000000 0.000000
vn -0.000000 0.000000 1.000000
vn -0.000000 0.000000 1.000000
vn 0.499995 0.000000 0.866028
vn 0.499995 0.000000 0.866028
vn 0.866022 0.000000 0.500006
vn 0.866022 0.000000 0.500006
vn 1.000000 0.000000 0.000000
vn 1.000000 0.000000 0.000000
vn 0.866023 0.000000 -0.500004
vn 0.866023 0.000000 -0.500004
vn 0.499997 0.000000 -0.866027
vn 0.499997 0.000000 -0.866027
vn 0.000000 0.000000 -1.000000
vn 0.000000 0.000000 -1.000000
vn -0.500002 0.000000 -0.866024
vn -0.500002 0.000000 -0.866024
vn -0.866026 0.000000 -0.499999
vn -0.866026 0.000000 -0.499999
vn -1.000000 0.000000 0.000000
vn -1.000000 0.000000 0.000000
vn -0.866025 0.000000 0.500000
vn -0.866025 0.000000 0.500000
vn -0.707100 0.000000 0.707113
vn -0.707100 0.000000 0.707113
vn -0.258819 0.000000 0.965926
vn -0.258819 0.000000 0.965926
vn 0.000000 -1.000000 0.000000
vn 0.000000 -1.000000 0.000000
vn 0.000000 -1.000000 0.000000
vn 0.000000 -1.000000 -0.000001
vn 0.000000 -1.000000 0.000000
vn 0.000000 -1.000000 0.000001
vn 0.000000 -1.000000 0.000000
vn 0.000000 -1.000000 0.000000
vn 0.000000 -1.000000 0.000000
vn 0.000000 -1.000000 0.000001
vn 0.000000 -1.000000 0.000000
vn 0.000000 -1.000000 -0.000001
vn 0.000000 -1.000000 0.000000
s off
g polySurface4 Sirtatiera
usemtl lambert2SG
f 3/29/1 4/30/2 2/31/3 1/32/4
s 1
f 3/1/5 1/2/6 5/3/7 8/4/8
s 2
f 2/7/9 4/8/10 7/9/11 6/10/12
s 3
f 4/53/13 3/54/14 8/55/15 7/56/16
s 4
f 9/59/17 1/60/18 2/61/19 10/62/20
f 10/62/20 2/61/19 6/65/21 11/66/22
f 11/66/22 6/65/21 5/64/23 12/63/24
f 12/63/24 5/64/23 1/60/18 9/59/17
s off
f 16/73/25 15/74/26 14/75/27 13/76/28
f 12/13/29 9/14/30 16/15/31 13/16/32
f 11/33/33 12/34/34 13/35/35 14/36/36
f 10/17/37 11/18/38 14/19/39 15/20/40
f 9/37/41 10/38/42 15/39/43 16/40/44
f 19/41/45 17/42/46 18/43/47 20/44/48
s 1
f 19/5/49 8/4/8 5/3/7 17/6/50
s 2
f 18/11/51 6/10/12 7/9/11 20/12/52
s 3
f 20/57/53 7/56/16 8/55/15 19/58/54
s 4
f 21/69/55 22/71/56 18/72/57 17/70/58
f 22/71/56 23/67/59 6/65/21 18/72/57
f 23/67/59 24/68/60 5/64/23 6/65/21
f 24/68/60 21/69/55 17/70/58 5/64/23
s off
f 28/77/61 25/78/62 26/79/63 27/80/64
f 24/21/65 25/22/66 28/23/67 21/24/68
f 23/45/69 26/46/70 25/47/71 24/48/72
f 22/25/73 27/26/74 26/27/75 23/28/76
f 21/49/77 28/50/78 27/51/79 22/52/80
s 6
f 29/81/81 41/82/82 42/83/83 30/84/84
f 30/84/84 42/83/83 43/85/85 31/86/86
f 31/86/86 43/85/85 44/87/87 32/88/88
f 32/88/88 44/87/87 45/89/89 33/90/90
f 33/90/90 45/89/89 46/91/91 34/92/92
f 34/92/92 46/91/91 47/93/93 35/94/94
f 35/94/94 47/93/93 48/95/95 36/96/96
f 36/96/96 48/95/95 49/97/97 37/98/98
f 37/98/98 49/97/97 50/99/99 38/100/100
f 38/100/100 50/99/99 51/101/101 39/102/102
f 39/102/102 51/101/101 52/103/103 40/104/104
f 40/105/105 52/106/106 41/82/82 29/81/81
s 7
f 41/107/107 53/108/108 42/109/109
f 42/109/109 53/108/108 43/110/110
f 43/110/110 53/108/108 44/111/111
f 44/111/111 53/108/108 45/112/112
f 45/112/112 53/108/108 46/113/113
f 46/113/113 53/108/108 47/114/114
f 47/114/114 53/108/108 48/115/115
f 48/115/115 53/108/108 49/116/116
f 49/116/116 53/108/108 50/117/117
f 50/117/117 53/108/108 51/118/118
f 51/118/118 53/108/108 52/119/119
f 52/119/119 53/108/108 41/107/107
s 8
f 54/120/120 55/121/121 67/122/122 66/123/123
f 55/121/121 56/124/124 68/125/125 67/122/122
f 56/124/124 57/126/126 69/127/127 68/125/125
f 57/126/126 58/128/128 70/129/129 69/127/127
f 58/128/128 59/130/130 71/131/131 70/129/129
f 59/130/130 60/132/132 72/133/133 71/131/131
f 60/132/132 61/134/134 73/135/135 72/133/133
f 61/134/134 62/136/136 74/137/137 73/135/135
f 62/136/136 63/138/138 75/139/139 74/137/137
f 63/138/138 64/140/140 76/141/141 75/139/139
f 64/140/140 65/142/142 77/143/143 76/141/141
f 65/144/144 54/120/120 66/123/123 77/145/145
s 9
f 66/146/146 67/147/147 78/148/148
f 67/147/147 68/149/149 78/148/148
f 68/149/149 69/150/150 78/148/148
f 69/150/150 70/151/151 78/148/148
f 70/151/151 71/152/152 78/148/148
f 71/152/152 72/153/153 78/148/148
f 72/153/153 73/154/154 78/148/148
f 73/154/154 74/155/155 78/148/148
f 74/155/155 75/156/156 78/148/148
f 75/156/156 76/157/157 78/148/148
f 76/157/157 77/158/158 78/148/148
f 77/158/158 66/146/146 78/148/148
s 10
f 79/159/159 80/160/160 92/161/161 91/162/162
f 80/160/160 81/163/163 93/164/164 92/161/161
f 81/163/163 82/165/165 94/166/166 93/164/164
f 82/165/165 83/167/167 95/168/168 94/166/166
f 83/167/167 84/169/169 96/170/170 95/168/168
f 84/169/169 85/171/171 97/172/172 96/170/170
f 85/171/171 86/173/173 98/174/174 97/172/172
f 86/173/173 87/175/175 99/176/176 98/174/174
f 87/175/175 88/177/177 100/178/178 99/176/176
f 88/177/177 89/179/179 101/180/180 100/178/178
f 89/179/179 90/181/181 102/182/182 101/180/180
f 90/183/183 79/159/159 91/162/162 102/184/184
s 11
f 91/185/185 92/186/186 103/187/187
f 92/186/186 93/188/188 103/187/187
f 93/188/188 94/189/189 103/187/187
f 94/189/189 95/190/190 103/187/187
f 95/190/190 96/191/191 103/187/187
f 96/191/191 97/192/192 103/187/187
f 97/192/192 98/193/193 103/187/187
f 98/193/193 99/194/194 103/187/187
f 99/194/194 100/195/195 103/187/187
f 100/195/195 101/196/196 103/187/187
f 101/196/196 102/197/197 103/187/187
f 102/197/197 91/185/185 103/187/187
s 12
f 104/198/198 116/199/199 117/200/200 105/201/201
f 105/201/201 117/200/200 118/202/202 106/203/203
f 106/203/203 118/202/202 119/204/204 107/205/205
f 107/205/205 119/204/204 120/206/206 108/207/207
f 108/207/207 120/206/206 121/208/208 109/209/209
f 109/209/209 121/208/208 122/210/210 110/211/211
f 110/211/211 122/210/210 123/212/212 111/213/213
f 111/213/213 123/212/212 124/214/214 112/215/215
f 112/215/215 124/214/214 125/216/216 113/217/217
f 113/217/217 125/216/216 126/218/218 114/219/219
f 114/219/219 126/218/218 127/220/220 115/221/221
f 115/222/222 127/223/223 116/199/199 104/198/198
s 13
f 116/224/224 128/225/225 117/226/226
f 117/226/226 128/225/225 118/227/227
f 118/227/227 128/225/225 119/228/228
f 119/228/228 128/225/225 120/229/229
f 120/229/229 128/225/225 121/230/230
f 121/230/230 128/225/225 122/231/231
f 122/231/231 128/225/225 123/232/232
f 123/232/232 128/225/225 124/233/233
f 124/233/233 128/225/225 125/234/234
f 125/234/234 128/225/225 126/235/235
f 126/235/235 128/225/225 127/236/236
f 127/236/236 128/225/225 116/224/224
