# This file uses centimeters as units for non-parametric coordinates.

mtllib LockPick_Item.mtl
g default
v -0.051688 0.003878 0.001273
v 0.216637 0.003878 0.020616
v -0.051688 0.074190 0.001273
v 0.216637 0.074190 0.020616
v 0.046317 0.003878 -1.358239
v 0.314643 0.003878 -1.338896
v 0.046317 0.074190 -1.358239
v 0.314643 0.074190 -1.338896
v 0.023392 0.074190 1.437854
v 0.023392 0.003878 1.437854
v -0.070379 0.003878 1.346547
v -0.070379 0.074190 1.346547
v -0.242856 0.074190 1.418661
v -0.242856 0.003878 1.418661
v -0.238389 0.003878 1.356706
v -0.238389 0.074190 1.356706
v 0.034893 0.003878 0.084095
v 0.034893 0.074190 0.084095
v 0.120537 0.074190 0.090269
v 0.120537 0.003878 0.090269
v -0.049557 0.003878 1.255558
v -0.049557 0.074190 1.255558
v -0.750034 0.144044 -1.115551
v -0.204094 0.144044 0.147672
v -0.315388 0.237756 0.183254
v -0.303515 0.228408 0.190640
v -0.361936 0.144044 0.203388
v -0.345408 0.144044 0.208745
v -0.315390 0.050332 0.183252
v -0.303513 0.059682 0.190639
v -0.204094 0.021621 0.147672
v -0.208646 0.009458 0.137139
v -0.101916 0.050332 0.090996
v -0.104672 0.059680 0.104704
v -0.055356 0.144044 0.070890
v -0.062779 0.144044 0.086599
v -0.101917 0.237756 0.090993
v -0.104674 0.228406 0.104705
v -0.208646 0.278630 0.137139
v -0.204094 0.266467 0.147672
v -0.844585 0.064800 -1.074688
v -0.847985 0.052953 -1.057293
v -0.750034 0.025148 -1.115551
v -0.744226 0.009458 -1.102111
v -0.655483 0.223288 -1.156414
v -0.640484 0.235135 -1.146970
v -0.612369 0.144044 -1.175047
v -0.590936 0.144044 -1.168360
v -0.887698 0.144044 -1.056055
v -0.897515 0.144044 -1.035863
v -0.844583 0.223286 -1.074689
v -0.847983 0.235135 -1.057290
v -0.750034 0.262940 -1.115551
v -0.744226 0.278630 -1.102111
v -0.655485 0.064802 -1.156413
v -0.640483 0.052953 -1.146968
v 0.359832 0.148975 1.464656
v 0.359832 0.139113 1.464656
v 0.368677 0.148975 1.460834
v 0.368677 0.139113 1.460834
v -0.129673 0.168783 0.516267
v -0.129673 0.119305 0.516267
v 0.013368 0.119305 0.454447
v 0.013368 0.168783 0.454447
v -0.419796 0.168783 -0.034442
v -0.419796 0.119305 -0.034442
v -0.188926 0.168783 -0.134220
v -0.188926 0.119305 -0.134220
vt 0.770888 0.015625
vt 0.800725 0.015625
vt 0.770888 0.166800
vt 0.800725 0.166800
vt 0.015625 0.136071
vt 0.045462 0.136071
vt 0.015625 0.143869
vt 0.045462 0.143869
vt 0.982090 0.830207
vt 0.974228 0.830207
vt 0.982090 0.677793
vt 0.974228 0.677793
vt 0.745856 0.325120
vt 0.716018 0.325120
vt 0.745856 0.173945
vt 0.716018 0.173945
vt 0.692178 0.674147
vt 0.692178 0.682004
vt 0.539862 0.674147
vt 0.539862 0.682004
vt 0.982090 0.669252
vt 0.974228 0.669252
vt 0.790487 0.175271
vt 0.780963 0.175271
vt 0.531326 0.674147
vt 0.531326 0.682004
vt 0.735617 0.165473
vt 0.726094 0.165473
vt 0.015625 0.157196
vt 0.023423 0.157196
vt 0.015625 0.164086
vt 0.023423 0.164086
vt 0.780963 0.325120
vt 0.792065 0.315767
vt 0.810570 0.325120
vt 0.810570 0.318231
vt 0.688313 0.165677
vt 0.680515 0.165677
vt 0.688313 0.136071
vt 0.680515 0.136071
vt 0.726094 0.015625
vt 0.755700 0.015625
vt 0.737195 0.024978
vt 0.755700 0.022514
vt 0.171928 0.202971
vt 0.164096 0.202971
vt 0.171928 0.184385
vt 0.164096 0.184385
vt 0.982090 0.537921
vt 0.974228 0.537921
vt 0.790487 0.305536
vt 0.380346 0.674147
vt 0.380346 0.682004
vt 0.735617 0.035209
vt 0.982090 0.527606
vt 0.974228 0.527606
vt 0.367003 0.557961
vt 0.364208 0.557961
vt 0.367003 0.536506
vt 0.364208 0.536506
vt 0.364208 0.576547
vt 0.367003 0.576547
vt 0.367003 0.595134
vt 0.364208 0.595134
vt 0.367003 0.616591
vt 0.364208 0.616591
vt 0.364208 0.637920
vt 0.367003 0.637920
vt 0.364208 0.654468
vt 0.367003 0.656740
vt 0.367003 0.496359
vt 0.367003 0.515180
vt 0.364208 0.499083
vt 0.364208 0.515180
vt 0.149830 0.183169
vt 0.132756 0.183169
vt 0.144768 0.173813
vt 0.132755 0.169591
vt 0.132756 0.196747
vt 0.144768 0.192526
vt 0.115681 0.183169
vt 0.120743 0.192526
vt 0.120743 0.173813
vt 0.258593 0.142209
vt 0.259701 0.140898
vt 0.263802 0.150998
vt 0.265690 0.150998
vt 0.247169 0.137811
vt 0.247169 0.136071
vt 0.234637 0.140898
vt 0.235745 0.142209
vt 0.235745 0.159787
vt 0.234637 0.161098
vt 0.230536 0.150998
vt 0.228648 0.150998
vt 0.247169 0.164185
vt 0.247169 0.165925
vt 0.259701 0.161098
vt 0.258593 0.159787
vt 0.247169 0.150998
vt 0.604819 0.616591
vt 0.604819 0.637920
vt 0.604819 0.576547
vt 0.604819 0.595134
vt 0.604819 0.515180
vt 0.604819 0.536506
vt 0.604819 0.656740
vt 0.604819 0.557961
vt 0.604819 0.496359
vt 0.703079 0.206282
vt 0.703079 0.211777
vt 0.634156 0.206282
vt 0.634156 0.211777
vt 0.281384 0.137140
vt 0.280290 0.137140
vt 0.281384 0.136071
vt 0.280290 0.136071
vt 0.101803 0.209624
vt 0.096315 0.209624
vt 0.101803 0.181729
vt 0.096315 0.181729
vt 0.657651 0.136070
vt 0.657651 0.163965
vt 0.588816 0.141376
vt 0.588816 0.158659
vt 0.512678 0.229921
vt 0.512678 0.224426
vt 0.581602 0.229921
vt 0.581602 0.224426
vt 0.699852 0.227721
vt 0.699852 0.226626
vt 0.470719 0.150552
vt 0.470719 0.149483
vt 0.502996 0.195096
vt 0.502996 0.167201
vt 0.571830 0.189790
vt 0.571830 0.172507
vt 0.515906 0.208482
vt 0.515906 0.209577
vt 0.689927 0.180614
vt 0.689927 0.181683
vn -0.000000 1.000000 0.000000
vn -0.000000 1.000000 0.000000
vn -0.000000 1.000000 0.000000
vn -0.000000 1.000000 0.000000
vn -0.000000 1.000000 0.000000
vn -0.000000 1.000000 0.000000
vn 0.071902 0.000000 -0.997412
vn 0.071902 0.000000 -0.997412
vn 0.071902 0.000000 -0.997412
vn 0.071902 0.000000 -0.997412
vn 0.071902 0.000000 -0.997412
vn 0.071902 0.000000 -0.997412
vn -0.997412 -0.000000 -0.071902
vn -0.997412 -0.000000 -0.071902
vn -0.999969 -0.000000 -0.007921
vn -0.999969 -0.000000 -0.007921
vn -0.997412 -0.000000 -0.071902
vn -0.999969 -0.000000 -0.007921
vn 0.000000 -1.000000 -0.000000
vn 0.000000 -1.000000 -0.000000
vn 0.000000 -1.000000 -0.000000
vn 0.000000 -1.000000 -0.000000
vn 0.000000 -1.000000 -0.000000
vn 0.000000 -1.000000 -0.000000
vn 0.997412 0.000000 0.071902
vn 0.997412 0.000000 0.071902
vn 0.990903 0.000000 0.134581
vn 0.990903 0.000000 0.134581
vn 0.997412 0.000000 0.071902
vn 0.990903 0.000000 0.134581
vn -0.999969 -0.000000 -0.007921
vn -0.999969 -0.000000 -0.007921
vn -0.999999 -0.000000 0.001699
vn -0.999999 -0.000000 0.001699
vn -0.999969 -0.000000 -0.007921
vn -0.999999 -0.000000 0.001699
vn -0.000000 1.000000 0.000000
vn -0.000000 1.000000 0.000000
vn -0.000000 1.000000 0.000000
vn -0.000000 1.000000 0.000000
vn -0.000000 1.000000 0.000000
vn -0.000000 1.000000 0.000000
vn 0.990903 0.000000 0.134581
vn 0.990903 0.000000 0.134581
vn 0.990832 0.000000 0.135103
vn 0.990832 0.000000 0.135103
vn 0.990903 0.000000 0.134581
vn 0.990832 0.000000 0.135103
vn 0.000000 -1.000000 -0.000000
vn 0.000000 -1.000000 -0.000000
vn 0.000000 -1.000000 -0.000000
vn 0.000000 -1.000000 -0.000000
vn 0.000000 -1.000000 -0.000000
vn 0.000000 -1.000000 -0.000000
vn -0.997412 -0.000000 -0.071902
vn -0.997412 -0.000000 -0.071902
vn -0.997412 -0.000000 -0.071902
vn -0.997412 -0.000000 -0.071902
vn -0.997412 -0.000000 -0.071902
vn -0.997412 -0.000000 -0.071902
vn -0.000000 1.000000 0.000000
vn -0.000000 1.000000 0.000000
vn -0.000000 1.000000 0.000000
vn -0.000000 1.000000 0.000000
vn -0.000000 1.000000 0.000000
vn -0.000000 1.000000 0.000000
vn -0.071902 -0.000000 0.997412
vn -0.071902 -0.000000 0.997412
vn -0.071902 -0.000000 0.997412
vn -0.071902 -0.000000 0.997412
vn -0.071902 -0.000000 0.997412
vn -0.071902 -0.000000 0.997412
vn 0.000000 -1.000000 -0.000000
vn 0.000000 -1.000000 -0.000000
vn 0.000000 -1.000000 -0.000000
vn 0.000000 -1.000000 -0.000000
vn 0.000000 -1.000000 -0.000000
vn 0.000000 -1.000000 -0.000000
vn -0.060359 0.000000 -0.998177
vn -0.060359 0.000000 -0.998177
vn -0.060359 0.000000 -0.998177
vn -0.060359 0.000000 -0.998177
vn -0.060359 0.000000 -0.998177
vn -0.060359 0.000000 -0.998177
vn -0.999999 -0.000000 0.001699
vn -0.999999 -0.000000 0.001699
vn -0.996542 -0.000000 -0.083098
vn -0.996542 -0.000000 -0.083098
vn -0.999999 -0.000000 0.001699
vn -0.996542 -0.000000 -0.083098
vn -0.000000 1.000000 0.000000
vn -0.000000 1.000000 0.000000
vn -0.000000 1.000000 0.000000
vn -0.000000 1.000000 0.000000
vn -0.000000 1.000000 0.000000
vn -0.000000 1.000000 0.000000
vn 0.990832 0.000000 0.135103
vn 0.990832 0.000000 0.135103
vn 0.997412 0.000000 0.071902
vn 0.997412 0.000000 0.071902
vn 0.990832 0.000000 0.135103
vn 0.997412 0.000000 0.071902
vn 0.000000 -1.000000 -0.000000
vn 0.000000 -1.000000 -0.000000
vn 0.000000 -1.000000 -0.000000
vn 0.000000 -1.000000 -0.000000
vn 0.000000 -1.000000 -0.000000
vn 0.000000 -1.000000 -0.000000
vn -0.996542 -0.000000 -0.083098
vn -0.996542 -0.000000 -0.083098
vn -0.974802 0.000000 -0.223073
vn -0.974802 0.000000 -0.223073
vn -0.996542 -0.000000 -0.083098
vn -0.974802 0.000000 -0.223073
vn -0.000000 1.000000 0.000000
vn -0.000000 1.000000 0.000000
vn -0.000000 1.000000 0.000000
vn 0.000000 -1.000000 -0.000000
vn 0.000000 -1.000000 -0.000000
vn 0.000000 -1.000000 -0.000000
vn -0.573821 0.778531 0.254202
vn -0.102023 0.532974 0.839958
vn 0.002377 0.999982 0.005505
vn 0.002377 0.999982 0.005505
vn -0.102023 0.532974 0.839958
vn 0.288408 0.686699 0.667282
vn -0.102023 0.532974 0.839958
vn -0.573821 0.778531 0.254202
vn -0.309043 -0.000027 0.951048
vn -0.309043 -0.000027 0.951048
vn -0.573821 0.778531 0.254202
vn -0.915804 0.000004 0.401625
vn -0.915804 0.000004 0.401625
vn -0.573820 -0.778531 0.254203
vn -0.309043 -0.000027 0.951048
vn -0.309043 -0.000027 0.951048
vn -0.573820 -0.778531 0.254203
vn -0.102025 -0.532977 0.839956
vn -0.573820 -0.778531 0.254203
vn 0.002381 -0.999982 0.005503
vn -0.102025 -0.532977 0.839956
vn -0.102025 -0.532977 0.839956
vn 0.002381 -0.999982 0.005503
vn 0.288372 -0.686699 0.667298
vn 0.288372 -0.686699 0.667298
vn 0.002381 -0.999982 0.005503
vn 0.681672 -0.532974 0.501260
vn 0.681672 -0.532974 0.501260
vn 0.002381 -0.999982 0.005503
vn 0.578343 -0.778531 -0.243740
vn 0.681672 -0.532974 0.501260
vn 0.578343 -0.778531 -0.243740
vn 0.851596 -0.336806 0.401678
vn 0.851596 -0.336806 0.401678
vn 0.578343 -0.778531 -0.243740
vn 0.800593 -0.492767 -0.340926
vn 0.800594 0.492767 -0.340925
vn 0.578343 0.778531 -0.243739
vn 0.851589 0.336822 0.401681
vn 0.851589 0.336822 0.401681
vn 0.578343 0.778531 -0.243739
vn 0.681671 0.532977 0.501258
vn 0.578343 0.778531 -0.243739
vn 0.002377 0.999982 0.005505
vn 0.681671 0.532977 0.501258
vn 0.681671 0.532977 0.501258
vn 0.002377 0.999982 0.005505
vn 0.288408 0.686699 0.667282
vn 0.396716 -0.000000 0.917941
vn 0.396716 -0.000000 0.917941
vn 0.396716 -0.000000 0.917941
vn 0.396716 -0.000000 0.917941
vn 0.396716 -0.000000 0.917941
vn 0.396716 -0.000000 0.917941
vn 0.396716 -0.000000 0.917941
vn 0.396716 -0.000000 0.917941
vn 0.396716 -0.000000 0.917941
vn 0.396716 -0.000000 0.917941
vn 0.396716 -0.000000 0.917941
vn 0.396716 -0.000000 0.917941
vn 0.396716 -0.000000 0.917941
vn 0.396716 -0.000000 0.917941
vn 0.396716 -0.000000 0.917941
vn 0.396716 -0.000000 0.917941
vn 0.396716 -0.000000 0.917941
vn 0.396716 -0.000000 0.917941
vn 0.396716 -0.000000 0.917941
vn 0.396716 -0.000000 0.917941
vn 0.396716 -0.000000 0.917941
vn 0.396716 -0.000000 0.917941
vn 0.396716 -0.000000 0.917941
vn 0.396716 -0.000000 0.917941
vn -0.478029 -0.116869 -0.870534
vn -0.682046 -0.535944 -0.497571
vn -0.536535 0.000007 -0.843878
vn -0.536535 0.000007 -0.843878
vn -0.682046 -0.535944 -0.497571
vn -0.899062 0.000030 -0.437821
vn -0.478029 -0.116869 -0.870534
vn -0.391443 -0.162425 -0.905754
vn -0.682046 -0.535944 -0.497571
vn -0.682046 -0.535944 -0.497571
vn -0.391443 -0.162425 -0.905754
vn -0.290189 -0.681810 -0.671510
vn -0.290189 -0.681810 -0.671510
vn -0.391443 -0.162425 -0.905754
vn 0.104971 -0.535947 -0.837700
vn 0.104971 -0.535947 -0.837700
vn -0.391443 -0.162425 -0.905754
vn -0.306463 -0.116878 -0.944680
vn -0.306470 0.116869 -0.944679
vn 0.104967 0.535944 -0.837703
vn -0.246965 -0.000007 -0.969024
vn -0.246965 -0.000007 -0.969024
vn 0.104967 0.535944 -0.837703
vn 0.297192 -0.000030 -0.954818
vn -0.306470 0.116869 -0.944679
vn -0.391453 0.162425 -0.905750
vn 0.104967 0.535944 -0.837703
vn 0.104967 0.535944 -0.837703
vn -0.391453 0.162425 -0.905750
vn -0.290230 0.681810 -0.671492
vn 0.297192 -0.000030 -0.954818
vn 0.104971 -0.535947 -0.837700
vn -0.246965 -0.000007 -0.969024
vn -0.246965 -0.000007 -0.969024
vn 0.104971 -0.535947 -0.837700
vn -0.306463 -0.116878 -0.944680
vn -0.899062 0.000030 -0.437821
vn -0.682046 0.535947 -0.497568
vn -0.536535 0.000007 -0.843878
vn -0.536535 0.000007 -0.843878
vn -0.682046 0.535947 -0.497568
vn -0.478035 0.116878 -0.870530
vn -0.478035 0.116878 -0.870530
vn -0.682046 0.535947 -0.497568
vn -0.391453 0.162425 -0.905750
vn -0.391453 0.162425 -0.905750
vn -0.682046 0.535947 -0.497568
vn -0.290230 0.681810 -0.671492
vn -0.391443 -0.162425 -0.905754
vn -0.396716 0.000000 -0.917941
vn -0.306463 -0.116878 -0.944680
vn -0.306463 -0.116878 -0.944680
vn -0.396716 0.000000 -0.917941
vn -0.246965 -0.000007 -0.969024
vn -0.246965 -0.000007 -0.969024
vn -0.396716 0.000000 -0.917941
vn -0.306470 0.116869 -0.944679
vn -0.306470 0.116869 -0.944679
vn -0.396716 0.000000 -0.917941
vn -0.391453 0.162425 -0.905750
vn -0.536535 0.000007 -0.843878
vn -0.396716 0.000000 -0.917941
vn -0.478029 -0.116869 -0.870534
vn -0.478029 -0.116869 -0.870534
vn -0.396716 0.000000 -0.917941
vn -0.391443 -0.162425 -0.905754
vn -0.391453 0.162425 -0.905750
vn -0.396716 0.000000 -0.917941
vn -0.478035 0.116878 -0.870530
vn -0.478035 0.116878 -0.870530
vn -0.396716 0.000000 -0.917941
vn -0.536535 0.000007 -0.843878
vn 0.002381 -0.999982 0.005503
vn -0.000564 -0.999999 -0.001297
vn 0.578343 -0.778531 -0.243740
vn 0.578343 -0.778531 -0.243740
vn -0.000564 -0.999999 -0.001297
vn 0.575322 -0.778691 -0.250290
vn -0.915804 0.000004 0.401625
vn -0.918636 -0.000005 0.395105
vn -0.573820 -0.778531 0.254203
vn -0.573820 -0.778531 0.254203
vn -0.918636 -0.000005 0.395105
vn -0.576522 -0.778691 0.247514
vn 0.575322 0.778691 -0.250290
vn -0.000558 0.999999 -0.001299
vn 0.578343 0.778531 -0.243739
vn 0.578343 0.778531 -0.243739
vn -0.000558 0.999999 -0.001299
vn 0.002377 0.999982 0.005505
vn 0.575322 -0.778691 -0.250290
vn 0.798093 -0.492876 -0.346584
vn 0.578343 -0.778531 -0.243740
vn 0.578343 -0.778531 -0.243740
vn 0.798093 -0.492876 -0.346584
vn 0.800593 -0.492767 -0.340926
vn -0.576522 0.778691 0.247514
vn -0.918636 -0.000005 0.395105
vn -0.573821 0.778531 0.254202
vn -0.573821 0.778531 0.254202
vn -0.918636 -0.000005 0.395105
vn -0.915804 0.000004 0.401625
vn 0.800594 0.492767 -0.340925
vn 0.798093 0.492876 -0.346584
vn 0.578343 0.778531 -0.243739
vn 0.578343 0.778531 -0.243739
vn 0.798093 0.492876 -0.346584
vn 0.575322 0.778691 -0.250290
vn 0.002377 0.999982 0.005505
vn -0.000558 0.999999 -0.001299
vn -0.573821 0.778531 0.254202
vn -0.573821 0.778531 0.254202
vn -0.000558 0.999999 -0.001299
vn -0.576522 0.778691 0.247514
vn -0.576522 -0.778691 0.247514
vn -0.000564 -0.999999 -0.001297
vn -0.573820 -0.778531 0.254203
vn -0.573820 -0.778531 0.254203
vn -0.000564 -0.999999 -0.001297
vn 0.002381 -0.999982 0.005503
vn 0.945717 -0.000000 -0.324992
vn 0.945717 -0.000000 -0.324992
vn 0.944334 -0.000000 -0.328988
vn 0.944334 -0.000000 -0.328988
vn 0.945717 -0.000000 -0.324992
vn 0.944334 -0.000000 -0.328988
vn 0.396716 -0.000000 0.917941
vn 0.396716 -0.000000 0.917941
vn 0.396716 -0.000000 0.917941
vn 0.396716 -0.000000 0.917941
vn 0.396716 -0.000000 0.917941
vn 0.396716 -0.000000 0.917941
vn -0.396716 0.000000 -0.917941
vn -0.396716 0.000000 -0.917941
vn -0.396716 0.000000 -0.917941
vn -0.396716 0.000000 -0.917941
vn -0.396716 0.000000 -0.917941
vn -0.396716 0.000000 -0.917941
vn -0.000000 -1.000000 -0.000000
vn -0.000000 -1.000000 -0.000000
vn 0.002867 -0.999974 0.006634
vn 0.002867 -0.999974 0.006634
vn -0.000000 -1.000000 -0.000000
vn 0.002867 -0.999974 0.006634
vn -0.884735 0.000000 0.466094
vn -0.884735 0.000000 0.466094
vn -0.886698 0.000000 0.462348
vn -0.886698 0.000000 0.462348
vn -0.884735 0.000000 0.466094
vn -0.886698 0.000000 0.462348
vn -0.886698 0.000000 0.462348
vn -0.886698 0.000000 0.462348
vn -0.888615 0.000000 0.458653
vn -0.888615 0.000000 0.458653
vn -0.886698 0.000000 0.462348
vn -0.888615 0.000000 0.458653
vn 0.007379 -0.999827 0.017074
vn 0.007379 -0.999827 0.017074
vn 0.002867 -0.999974 0.006634
vn 0.002867 -0.999974 0.006634
vn 0.002867 -0.999974 0.006634
vn 0.007379 -0.999827 0.017074
vn 0.000000 1.000000 0.000000
vn 0.000000 1.000000 0.000000
vn 0.002867 0.999974 0.006634
vn 0.002867 0.999974 0.006634
vn 0.000000 1.000000 0.000000
vn 0.002867 0.999974 0.006634
vn 0.944334 -0.000000 -0.328988
vn 0.944334 -0.000000 -0.328988
vn 0.942957 -0.000000 -0.332916
vn 0.942957 -0.000000 -0.332916
vn 0.944334 -0.000000 -0.328988
vn 0.942957 -0.000000 -0.332916
vn 0.007379 0.999827 0.017074
vn 0.007379 0.999827 0.017074
vn 0.002867 0.999974 0.006634
vn 0.002867 0.999974 0.006634
vn 0.002867 0.999974 0.006634
vn 0.007379 0.999827 0.017074
s off
g Tool1:Tool1polySurface6
usemtl lambert2SG
f 8/1/1 7/2/2 4/3/3
f 4/3/4 7/2/5 3/4/6
f 7/5/7 8/6/8 5/7/9
f 5/7/10 8/6/11 6/8/12
f 7/9/13 5/10/14 3/11/15
f 3/11/16 5/10/17 1/12/18
f 5/13/19 6/14/20 1/15/21
f 1/15/22 6/14/23 2/16/24
f 6/17/25 8/18/26 2/19/27
f 2/19/28 8/18/29 4/20/30
f 3/11/31 1/12/32 18/21/33
f 18/21/34 1/12/35 17/22/36
f 3/4/37 18/23/38 4/3/39
f 4/3/40 18/23/41 19/24/42
f 2/19/43 4/20/44 20/25/45
f 20/25/46 4/20/47 19/26/48
f 1/15/49 2/16/50 17/27/51
f 17/27/52 2/16/53 20/28/54
f 16/29/55 15/30/56 13/31/57
f 13/31/58 15/30/59 14/32/60
f 9/33/61 12/34/62 13/35/63
f 13/35/64 12/34/65 16/36/66
f 10/37/67 9/38/68 14/39/69
f 14/39/70 9/38/71 13/40/72
f 10/41/73 14/42/74 11/43/75
f 11/43/76 14/42/77 15/44/78
f 12/45/79 11/46/80 16/47/81
f 16/47/82 11/46/83 15/48/84
f 18/21/85 17/22/86 22/49/87
f 22/49/88 17/22/89 21/50/90
f 18/23/91 22/51/92 19/24/93
f 19/24/94 22/51/95 9/33/96
f 20/25/97 19/26/98 10/52/99
f 10/52/100 19/26/101 9/53/102
f 17/27/103 20/28/104 21/54/105
f 21/54/106 20/28/107 10/41/108
f 22/49/109 21/50/110 12/55/111
f 12/55/112 21/50/113 11/56/114
f 9/33/115 22/51/116 12/34/117
f 21/54/118 10/41/119 11/43/120
f 25/57/121 26/58/122 39/59/123
f 39/59/124 26/58/125 40/60/126
f 26/58/127 25/57/128 28/61/129
f 28/61/130 25/57/131 27/62/132
f 27/62/133 29/63/134 28/61/135
f 28/61/136 29/63/137 30/64/138
f 29/63/139 32/65/140 30/64/141
f 30/64/142 32/65/143 31/66/144
f 31/66/145 32/65/146 34/67/147
f 34/67/148 32/65/149 33/68/150
f 34/67/151 33/68/152 36/69/153
f 36/69/154 33/68/155 35/70/156
f 35/71/157 37/72/158 36/73/159
f 36/73/160 37/72/161 38/74/162
f 37/72/163 39/59/164 38/74/165
f 38/74/166 39/59/167 40/60/168
f 36/75/169 24/76/170 34/77/171
f 34/77/172 24/76/173 31/78/174
f 40/79/175 24/76/176 38/80/177
f 38/80/178 24/76/179 36/75/180
f 28/81/181 24/76/182 26/82/183
f 26/82/184 24/76/185 40/79/186
f 31/78/187 24/76/188 30/83/189
f 30/83/190 24/76/191 28/81/192
f 41/84/193 42/85/194 49/86/195
f 49/86/196 42/85/197 50/87/198
f 41/84/199 43/88/200 42/85/201
f 42/85/202 43/88/203 44/89/204
f 44/89/205 43/88/206 56/90/207
f 56/90/208 43/88/209 55/91/210
f 45/92/211 46/93/212 47/94/213
f 47/94/214 46/93/215 48/95/216
f 45/92/217 53/96/218 46/93/219
f 46/93/220 53/96/221 54/97/222
f 48/95/223 56/90/224 47/94/225
f 47/94/226 56/90/227 55/91/228
f 50/87/229 52/98/230 49/86/231
f 49/86/232 52/98/233 51/99/234
f 51/99/235 52/98/236 53/96/237
f 53/96/238 52/98/239 54/97/240
f 43/88/241 23/100/242 55/91/243
f 55/91/244 23/100/245 47/94/246
f 47/94/247 23/100/248 45/92/249
f 45/92/250 23/100/251 53/96/252
f 49/86/253 23/100/254 41/84/255
f 41/84/256 23/100/257 43/88/258
f 53/96/259 23/100/260 51/99/261
f 51/99/262 23/100/263 49/86/264
f 32/65/265 44/101/266 33/68/267
f 33/68/268 44/101/269 56/102/270
f 27/62/271 50/103/272 29/63/273
f 29/63/274 50/103/275 42/104/276
f 46/105/277 54/106/278 37/72/279
f 37/72/280 54/106/281 39/59/282
f 56/102/283 48/107/284 33/68/285
f 33/68/286 48/107/287 35/70/288
f 52/108/289 50/103/290 25/57/291
f 25/57/292 50/103/293 27/62/294
f 35/71/295 48/109/296 37/72/297
f 37/72/298 48/109/299 46/105/300
f 39/59/301 54/106/302 25/57/303
f 25/57/304 54/106/305 52/108/306
f 42/104/307 44/101/308 29/63/309
f 29/63/310 44/101/311 32/65/312
f 68/110/313 67/111/314 63/112/315
f 63/112/316 67/111/317 64/113/318
f 57/114/319 58/115/320 59/116/321
f 59/116/322 58/115/323 60/117/324
f 67/118/325 68/119/326 65/120/327
f 65/120/328 68/119/329 66/121/330
f 66/122/331 68/123/332 62/124/333
f 62/124/334 68/123/335 63/125/336
f 65/126/337 66/127/338 61/128/339
f 61/128/340 66/127/341 62/129/342
f 61/128/343 62/129/344 57/130/345
f 57/130/346 62/129/347 58/131/348
f 60/132/349 58/133/350 63/125/351
f 62/124/352 63/125/353 58/133/354
f 67/134/355 65/135/356 64/136/357
f 64/136/358 65/135/359 61/137/360
f 63/112/361 64/113/362 60/138/363
f 60/138/364 64/113/365 59/139/366
f 57/140/367 59/141/368 61/137/369
f 64/136/370 61/137/371 59/141/372
