# This file uses centimeters as units for non-parametric coordinates.

mtllib Ramp.mtl
g default
v -9.835047 0.000000 9.835059
v 9.835047 0.000000 9.835059
v -9.835047 2.530437 9.835059
v 9.835047 2.530437 9.835059
v -9.835047 2.530437 -9.835059
v 9.835047 2.530437 -9.835059
v -9.835047 0.000000 -9.835059
v 9.835047 0.000000 -9.835059
v 0.000000 0.000000 9.835059
v 0.000000 0.000000 -9.835059
v 0.000000 2.530437 -9.835059
v 0.000000 2.530437 9.835059
v 4.917523 0.000000 9.835059
v 4.917523 2.530437 9.835059
v 4.917523 2.530437 -9.835059
v 4.917523 0.000000 -9.835059
v -4.917523 0.000000 9.835059
v -4.917523 0.000000 -9.835059
v -4.917523 2.530437 -9.835059
v -4.917523 2.530437 9.835059
v -9.835047 2.530437 0.000000
v -4.917523 2.530437 0.000000
v 0.000000 2.530437 0.000000
v 4.917523 2.530437 0.000000
v 9.835047 2.530437 0.000000
v 9.835047 0.000000 0.000000
v 4.917523 0.000000 0.000000
v 0.000000 0.000000 0.000000
v -4.917523 0.000000 0.000000
v -9.835047 0.000000 0.000000
v -9.835047 0.000000 -4.917530
v -4.917523 0.000000 -4.917530
v 0.000000 0.000000 -4.917530
v 4.917523 0.000000 -4.917530
v 9.835047 0.000000 -4.917530
v 9.835047 2.530437 -4.917530
v 4.917523 2.530437 -4.917530
v 0.000000 2.530437 -4.917530
v -4.917523 2.530437 -4.917530
v -9.835047 2.530437 -4.917530
v -9.835047 2.530437 4.917530
v -4.917523 2.530437 4.917530
v 0.000000 2.530437 4.917530
v 4.917523 2.530437 4.917530
v 9.835047 2.530437 4.917530
v 9.835047 0.000000 4.917530
v 4.917523 0.000000 4.917530
v 0.000000 0.000000 4.917530
v -4.917523 0.000000 4.917530
v -9.835047 0.000000 4.917530
v 0.000000 -0.000001 19.693403
v 4.917520 -0.000001 19.693403
v -4.917520 -0.000001 19.693403
v 0.000000 -0.000001 -19.693403
v 4.917520 -0.000001 -19.693403
v -4.917520 -0.000001 -19.693403
v 19.693405 -0.000001 0.000000
v 19.693405 -0.000001 -4.917530
v 19.693405 -0.000001 4.917530
v -19.693405 -0.000001 -4.917530
v -19.693405 -0.000001 0.000000
v -19.693405 -0.000001 4.917530
vt 0.375000 0.000000
vt 0.625000 0.000000
vt 0.375000 0.250000
vt 0.625000 0.250000
vt 0.375000 0.500000
vt 0.625000 0.500000
vt 0.375000 0.750000
vt 0.625000 0.750000
vt 0.375000 1.000000
vt 0.625000 1.000000
vt 0.875000 0.000000
vt 0.875000 0.250000
vt 0.125000 0.000000
vt 0.125000 0.250000
vt 0.500000 0.000000
vt 0.500000 1.000000
vt 0.500000 0.750000
vt 0.500000 0.500000
vt 0.500000 0.250000
vt 0.562500 0.000000
vt 0.562500 1.000000
vt 0.562500 0.250000
vt 0.562500 0.500000
vt 0.562500 0.750000
vt 0.437500 0.000000
vt 0.437500 1.000000
vt 0.437500 0.750000
vt 0.437500 0.500000
vt 0.437500 0.250000
vt 0.250000 0.250000
vt 0.375000 0.375000
vt 0.437500 0.375000
vt 0.500000 0.375000
vt 0.562500 0.375000
vt 0.625000 0.375000
vt 0.750000 0.250000
vt 0.625000 0.875000
vt 0.750000 0.000000
vt 0.562500 0.875000
vt 0.500000 0.875000
vt 0.437500 0.875000
vt 0.250000 0.000000
vt 0.375000 0.875000
vt 0.187500 0.000000
vt 0.375000 0.812500
vt 0.437500 0.812500
vt 0.500000 0.812500
vt 0.562500 0.812500
vt 0.625000 0.812500
vt 0.812500 0.000000
vt 0.625000 0.437500
vt 0.812500 0.250000
vt 0.562500 0.437500
vt 0.500000 0.437500
vt 0.437500 0.437500
vt 0.187500 0.250000
vt 0.375000 0.437500
vt 0.312500 0.250000
vt 0.375000 0.312500
vt 0.437500 0.312500
vt 0.500000 0.312500
vt 0.562500 0.312500
vt 0.625000 0.312500
vt 0.687500 0.250000
vt 0.625000 0.937500
vt 0.687500 0.000000
vt 0.562500 0.937500
vt 0.500000 0.937500
vt 0.437500 0.937500
vt 0.312500 0.000000
vt 0.375000 0.937500
vt 0.499981 0.000554
vt 0.562481 0.000293
vt 0.550448 0.692336
vt 0.597810 0.030122
vt -0.000000 -0.000000
vt -0.000000 -0.000000
vt 0.249981 0.051283
vt -0.000000 -0.000000
vt -0.000000 0.000000
vt 0.312481 0.000293
vn 0.000000 1.000000 0.000000
vn 0.000000 1.000000 0.000000
vn 0.000000 1.000000 0.000000
vn 0.000000 1.000000 0.000000
vn 0.000000 -1.000000 0.000000
vn 0.000000 -1.000000 0.000000
vn 0.000000 -1.000000 0.000000
vn 0.000000 -1.000000 0.000000
vn 0.000000 -1.000000 0.000000
vn 0.000000 -1.000000 0.000000
vn 0.000000 1.000000 0.000000
vn 0.000000 1.000000 0.000000
vn 0.000000 0.000000 1.000000
vn 0.000000 0.000000 1.000000
vn 0.000000 0.000000 1.000000
vn 0.000000 0.000000 1.000000
vn 0.127444 0.991846 0.000000
vn 0.168797 0.985651 0.000000
vn 0.000000 0.000000 -1.000000
vn 0.000000 0.000000 -1.000000
vn 0.000000 0.000000 -1.000000
vn 0.000000 0.000000 -1.000000
vn -0.000000 -1.000000 0.000000
vn -0.000000 -1.000000 0.000000
vn 0.000000 -1.000000 0.000000
vn 0.000000 -1.000000 0.000000
vn 0.000000 0.000000 -1.000000
vn 0.000000 0.000000 -1.000000
vn 0.000000 0.000000 -1.000000
vn 0.000000 0.000000 -1.000000
vn -0.168797 0.985651 0.000000
vn -0.127444 0.991846 0.000000
vn 0.000000 0.000000 1.000000
vn 0.000000 0.000000 1.000000
vn 0.000000 0.000000 1.000000
vn 0.000000 0.000000 1.000000
vn -0.127444 0.991846 0.000000
vn 0.000000 1.000000 0.000000
vn 0.000000 1.000000 0.000000
vn 0.000000 1.000000 0.000000
vn 0.127444 0.991846 0.000000
vn -0.000000 -1.000000 0.000000
vn 0.000000 -1.000000 0.000000
vn 0.000000 -1.000000 0.000000
vn 0.000000 -1.000000 0.000000
vn 0.000000 -1.000000 0.000000
vn 0.000000 -1.000000 0.000000
vn 0.000000 -1.000000 0.000000
vn 0.000000 -1.000000 0.000000
vn 0.000000 -1.000000 0.000000
vn 0.000000 -1.000000 0.000000
vn 1.000000 0.000000 0.000000
vn 1.000000 0.000000 0.000000
vn 1.000000 0.000000 0.000000
vn 1.000000 0.000000 0.000000
vn 0.000000 0.991846 -0.127444
vn 0.000000 1.000000 0.000000
vn 0.000000 0.985651 -0.168797
vn 0.000000 0.991846 -0.127444
vn 0.000000 1.000000 0.000000
vn -1.000000 0.000000 0.000000
vn -1.000000 0.000000 0.000000
vn -1.000000 0.000000 0.000000
vn -1.000000 0.000000 0.000000
vn 0.000000 1.000000 0.000000
vn 0.000000 0.991846 0.127444
vn 0.000000 0.985651 0.168797
vn 0.000000 0.991846 0.127444
vn 0.000000 1.000000 0.000000
vn 1.000000 0.000000 0.000000
vn 1.000000 0.000000 0.000000
vn 1.000000 0.000000 0.000000
vn 1.000000 0.000000 0.000000
vn 0.000000 -1.000000 -0.000000
vn 0.000000 -1.000000 0.000000
vn 0.000000 -1.000000 -0.000000
vn 0.000000 -1.000000 -0.000000
vn 0.000000 -1.000000 0.000000
vn -1.000000 0.000000 0.000000
vn -1.000000 0.000000 0.000000
vn -1.000000 0.000000 0.000000
vn -1.000000 0.000000 0.000000
vn 0.000000 -1.000000 -0.000000
vn 0.000000 -1.000000 -0.000000
vn 1.000000 0.000000 0.000000
vn 1.000000 0.000000 0.000000
vn 1.000000 0.000000 0.000000
vn 0.000000 0.968601 0.248620
vn 0.000000 0.968601 0.248620
vn -1.000000 0.000000 0.000000
vn -1.000000 0.000000 0.000000
vn -1.000000 0.000000 0.000000
vn 0.000000 -1.000000 -0.000000
vn 0.000000 0.968601 0.248620
vn 0.000000 0.968601 -0.248620
vn 0.000000 0.968601 -0.248620
vn 1.000000 0.000000 -0.000000
vn 1.000000 0.000000 -0.000000
vn 1.000000 0.000000 -0.000000
vn 0.000000 -1.000000 0.000000
vn 0.000000 -1.000000 0.000000
vn -1.000000 0.000000 -0.000000
vn -1.000000 0.000000 -0.000000
vn -1.000000 0.000000 -0.000000
vn 0.000000 0.968601 -0.248620
vn 0.000000 -1.000000 0.000000
vn -0.000000 -1.000000 0.000000
vn -0.000000 -1.000000 0.000000
vn -0.000000 0.000000 -1.000000
vn -0.000000 0.000000 -1.000000
vn -0.000000 0.000000 -1.000000
vn 0.248620 0.968601 0.000000
vn 0.248620 0.968601 0.000000
vn -0.000000 0.000000 1.000000
vn -0.000000 0.000000 1.000000
vn -0.000000 0.000000 1.000000
vn -0.000000 -1.000000 0.000000
vn 0.248620 0.968601 0.000000
vn 0.000000 0.000000 -1.000000
vn 0.000000 0.000000 -1.000000
vn 0.000000 0.000000 -1.000000
vn 0.000000 -1.000000 0.000000
vn 0.000000 -1.000000 0.000000
vn -0.248620 0.968601 0.000000
vn -0.248620 0.968601 0.000000
vn 0.000000 -1.000000 0.000000
vn 0.000000 0.000000 1.000000
vn 0.000000 0.000000 1.000000
vn 0.000000 0.000000 1.000000
vn -0.248620 0.968601 0.000000
s 1
g Ramp
usemtl initialShadingGroup
f 37/53/1 38/54/2 23/33/3 24/34/4
s 2
f 27/39/5 28/40/6 33/47/7 34/48/8
f 28/40/6 29/41/9 32/46/10 33/47/7
s 1
f 38/54/2 39/55/11 22/32/12 23/33/3
s off
f 14/22/13 13/20/14 2/2/15 4/4/16
s 1
f 36/51/17 37/53/1 24/34/4 25/35/18
s off
f 16/24/19 15/23/20 6/6/21 8/8/22
s 2
f 26/37/23 27/39/5 34/48/8 35/49/24
f 31/45/25 32/46/10 29/41/9 30/43/26
s off
f 5/5/27 19/28/28 18/27/29 7/7/30
s 1
f 21/31/31 22/32/12 39/55/11 40/57/32
s off
f 1/1/33 17/25/34 20/29/35 3/3/36
s 1
f 41/59/37 42/60/38 22/32/12 21/31/31
f 23/33/3 22/32/12 42/60/38 43/61/39
f 24/34/4 23/33/3 43/61/39 44/62/40
f 25/35/18 24/34/4 44/62/40 45/63/41
s 2
f 46/65/42 47/67/43 27/39/5 26/37/23
f 47/67/43 48/68/44 28/40/6 27/39/5
f 48/68/44 49/69/45 29/41/9 28/40/6
f 30/43/26 29/41/9 49/69/45 50/71/46
f 7/7/47 18/27/48 32/46/10 31/45/25
f 33/47/7 32/46/10 18/27/48 10/17/49
f 34/48/8 33/47/7 10/17/49 16/24/50
f 35/49/24 34/48/8 16/24/50 8/8/51
s off
f 36/52/52 35/50/53 8/11/54 6/12/55
s 1
f 15/23/56 37/53/1 36/51/17 6/6/57
f 11/18/58 38/54/2 37/53/1 15/23/56
f 19/28/59 39/55/11 38/54/2 11/18/58
f 40/57/32 39/55/11 19/28/59 5/5/60
s off
f 7/13/61 31/44/62 40/56/63 5/14/64
s 1
f 3/3/65 20/29/66 42/60/38 41/59/37
f 43/61/39 42/60/38 20/29/66 12/19/67
f 44/62/40 43/61/39 12/19/67 14/22/68
f 45/63/41 44/62/40 14/22/68 4/4/69
s off
f 2/2/70 46/66/71 45/64/72 4/4/73
s 2
f 13/21/74 47/67/43 46/65/42 2/10/75
f 9/16/76 48/68/44 47/67/43 13/21/74
f 17/26/77 49/69/45 48/68/44 9/16/76
f 50/71/46 49/69/45 17/26/77 1/9/78
s off
f 41/58/79 50/70/80 1/1/81 3/3/82
s 2
f 9/15/76 13/20/74 52/73/83 51/72/84
s off
f 13/20/85 14/22/86 52/73/87
s 1
f 14/22/68 12/19/67 51/72/88 52/73/89
s off
f 20/18/90 17/23/91 53/74/92
s 2
f 17/23/77 9/24/76 51/74/84 53/74/93
s 1
f 12/24/67 20/17/66 53/74/94 51/74/88
f 11/38/58 15/50/56 55/76/95 54/75/96
s off
f 15/50/97 16/52/98 55/76/99
s 2
f 16/52/50 10/36/49 54/75/100 55/76/101
s off
f 18/56/102 19/44/103 56/77/104
s 1
f 19/44/59 11/42/58 54/78/96 56/77/105
s 2
f 10/30/49 18/56/48 56/77/106 54/78/100
f 26/27/23 35/28/24 58/74/107 57/74/108
s off
f 35/28/109 36/18/110 58/74/111
s 1
f 36/17/17 25/27/18 57/74/112 58/74/113
s off
f 45/29/114 46/25/115 59/79/116
s 2
f 46/25/42 26/15/23 57/72/108 59/79/117
s 1
f 25/19/18 45/29/41 59/79/118 57/72/112
s off
f 40/64/119 31/66/120 60/80/121
s 2
f 31/66/25 30/38/26 61/75/122 60/80/123
s 1
f 21/36/31 40/64/32 60/80/124 61/75/125
s 2
f 30/42/26 50/70/46 62/81/126 61/78/122
s off
f 50/70/127 41/58/128 62/81/129
s 1
f 41/58/37 21/30/31 61/78/125 62/81/130
