# This file uses centimeters as units for non-parametric coordinates.

mtllib BoatStand.mtl
g default
v -2.877550 4.644156 -0.326645
v -2.877550 4.644156 0.423574
v -2.426172 4.293030 -0.326645
v -2.426172 4.293030 0.423574
v -1.826539 3.953135 -0.357732
v -1.826539 3.983110 0.391889
v -1.226905 3.591196 -0.423574
v -1.226905 3.755961 0.308328
v -0.627271 3.321995 -0.360290
v -0.627271 3.623631 0.326619
v -0.027637 3.257353 -0.278690
v -0.027637 3.624376 0.375620
v 0.571997 3.321995 -0.360290
v 0.571997 3.623631 0.326619
v 1.171631 3.591196 -0.423574
v 1.171631 3.755961 0.308328
v 1.771265 3.953135 -0.357732
v 1.771265 3.983110 0.391889
v 2.370899 4.293030 -0.326645
v 2.370899 4.293030 0.423574
v 2.822276 4.644156 -0.326645
v 2.822276 4.644156 0.423574
v -3.166517 0.059215 0.223702
v -2.845663 -0.363461 0.223702
v 2.845663 4.623065 0.223702
v 3.166517 4.200388 0.223702
v 2.845663 4.623065 -0.176990
v 3.166517 4.200388 -0.176990
v -3.166517 0.059215 -0.176990
v -2.845663 -0.363461 -0.176990
v 2.935654 -0.139087 0.223702
v 3.240706 0.295132 0.223702
v -3.240706 4.199993 0.223702
v -2.935654 4.634212 0.223702
v -3.240706 4.199993 -0.176990
v -2.935654 4.634212 -0.176990
v 2.935654 -0.139087 -0.176990
v 3.240706 0.295132 -0.176990
vt 0.000000 0.000000
vt 1.000000 0.000000
vt 0.000000 0.100000
vt 1.000000 0.100000
vt 0.000000 0.200000
vt 1.000000 0.200000
vt 0.000000 0.300000
vt 1.000000 0.300000
vt 0.000000 0.400000
vt 1.000000 0.400000
vt 0.000000 0.500000
vt 1.000000 0.500000
vt 0.000000 0.600000
vt 1.000000 0.600000
vt 0.000000 0.700000
vt 1.000000 0.700000
vt 0.000000 0.800000
vt 1.000000 0.800000
vt 0.000000 0.900000
vt 1.000000 0.900000
vt 0.000000 1.000000
vt 1.000000 1.000000
vt 0.375000 0.000000
vt 0.625000 0.000000
vt 0.625000 0.250000
vt 0.375000 0.250000
vt 0.625000 0.500000
vt 0.375000 0.500000
vt 0.625000 0.750000
vt 0.375000 0.750000
vt 0.625000 1.000000
vt 0.375000 1.000000
vt 0.875000 0.000000
vt 0.875000 0.250000
vt 0.125000 0.000000
vt 0.125000 0.250000
vt 0.375000 0.000000
vt 0.625000 0.000000
vt 0.625000 0.250000
vt 0.375000 0.250000
vt 0.625000 0.500000
vt 0.375000 0.500000
vt 0.625000 0.750000
vt 0.375000 0.750000
vt 0.625000 1.000000
vt 0.375000 1.000000
vt 0.875000 0.000000
vt 0.875000 0.250000
vt 0.125000 0.000000
vt 0.125000 0.250000
vn 0.614000 0.789306 0.000000
vn 0.614000 0.789306 0.000000
vn 0.541659 0.840545 -0.009457
vn 0.539630 0.841846 -0.009713
vn 0.453592 0.888935 -0.063625
vn 0.450505 0.890036 -0.069869
vn 0.380345 0.902986 -0.199884
vn 0.373218 0.903191 -0.212023
vn 0.212594 0.903575 -0.371963
vn 0.213290 0.903599 -0.371504
vn 0.000000 0.894947 -0.446173
vn 0.000000 0.894947 -0.446173
vn -0.212594 0.903574 -0.371964
vn -0.213290 0.903599 -0.371505
vn -0.380345 0.902986 -0.199884
vn -0.373218 0.903191 -0.212024
vn -0.453592 0.888935 -0.063625
vn -0.450505 0.890036 -0.069869
vn -0.541658 0.840546 -0.009457
vn -0.539630 0.841846 -0.009713
vn -0.614000 0.789306 0.000000
vn -0.614000 0.789306 0.000000
vn 0.000000 0.000000 1.000000
vn 0.000000 0.000000 1.000000
vn 0.000000 0.000000 1.000000
vn 0.000000 0.000000 1.000000
vn 0.796507 0.604629 0.000000
vn 0.796507 0.604629 0.000000
vn 0.796507 0.604629 0.000000
vn 0.796507 0.604629 0.000000
vn 0.000000 0.000000 -1.000000
vn 0.000000 0.000000 -1.000000
vn 0.000000 0.000000 -1.000000
vn 0.000000 0.000000 -1.000000
vn -0.796507 -0.604629 0.000000
vn -0.796507 -0.604629 0.000000
vn -0.796507 -0.604629 0.000000
vn -0.796507 -0.604629 0.000000
vn 0.604629 -0.796507 0.000000
vn 0.604629 -0.796507 0.000000
vn 0.604629 -0.796507 0.000000
vn 0.604629 -0.796507 0.000000
vn -0.604629 0.796507 0.000000
vn -0.604629 0.796507 0.000000
vn -0.604629 0.796507 0.000000
vn -0.604629 0.796507 0.000000
vn 0.000000 0.000000 1.000000
vn 0.000000 0.000000 1.000000
vn 0.000000 0.000000 1.000000
vn 0.000000 0.000000 1.000000
vn -0.818258 0.574851 0.000000
vn -0.818258 0.574851 0.000000
vn -0.818258 0.574851 0.000000
vn -0.818258 0.574851 0.000000
vn 0.000000 0.000000 -1.000000
vn 0.000000 0.000000 -1.000000
vn 0.000000 0.000000 -1.000000
vn 0.000000 0.000000 -1.000000
vn 0.818258 -0.574851 0.000000
vn 0.818258 -0.574851 0.000000
vn 0.818258 -0.574851 0.000000
vn 0.818258 -0.574851 0.000000
vn 0.574851 0.818258 0.000000
vn 0.574851 0.818258 0.000000
vn 0.574851 0.818258 0.000000
vn 0.574851 0.818258 0.000000
vn -0.574851 -0.818258 0.000000
vn -0.574851 -0.818258 0.000000
vn -0.574851 -0.818258 0.000000
vn -0.574851 -0.818258 0.000000
s 1
g pPlane2
usemtl lambert3SG
f 1/1/1 2/2/2 4/4/3 3/3/4
f 3/3/4 4/4/3 6/6/5 5/5/6
f 5/5/6 6/6/5 8/8/7 7/7/8
f 7/7/8 8/8/7 10/10/9 9/9/10
f 9/9/10 10/10/9 12/12/11 11/11/12
f 11/11/12 12/12/11 14/14/13 13/13/14
f 13/13/14 14/14/13 16/16/15 15/15/16
f 15/15/16 16/16/15 18/18/17 17/17/18
f 17/17/18 18/18/17 20/20/19 19/19/20
f 19/19/20 20/20/19 22/22/21 21/21/22
s off
usemtl lambert2SG
f 23/23/23 24/24/24 26/25/25 25/26/26
f 25/26/27 26/25/28 28/27/29 27/28/30
f 27/28/31 28/27/32 30/29/33 29/30/34
f 29/30/35 30/29/36 24/31/37 23/32/38
f 24/24/39 30/33/40 28/34/41 26/25/42
f 29/35/43 23/23/44 25/26/45 27/36/46
f 31/37/47 32/38/48 34/39/49 33/40/50
f 33/40/51 34/39/52 36/41/53 35/42/54
f 35/42/55 36/41/56 38/43/57 37/44/58
f 37/44/59 38/43/60 32/45/61 31/46/62
f 32/38/63 38/47/64 36/48/65 34/39/66
f 37/49/67 31/37/68 33/40/69 35/50/70
