# This file uses centimeters as units for non-parametric coordinates.

mtllib Drachma.mtl
g default
v -0.181556 0.031468 1.163431
v -0.186759 0.174217 1.171092
v -0.972308 0.184242 0.677046
v -0.958614 0.036995 0.676219
v -1.237703 0.200586 -0.175586
v -1.225607 0.029724 -0.183210
v -0.695518 0.214654 -0.971003
v -0.700287 0.031353 -0.969093
v 0.270844 0.236329 -1.148381
v 0.260126 0.022529 -1.144754
v 1.096469 0.215249 -0.558214
v 1.088013 0.005169 -0.551480
v 1.197990 0.207288 0.279129
v 1.193163 -0.011392 0.277492
v 0.626332 0.193366 1.012356
v 0.634232 0.006243 1.008443
v -0.641410 0.037064 0.992581
v -0.636922 0.185226 0.991013
v -1.195767 0.026509 0.287052
v -1.218608 0.189187 0.299710
v -1.027958 0.209137 -0.619480
v -1.027024 0.033192 -0.626020
v -0.233717 0.227219 -1.155779
v -0.236766 0.028614 -1.162852
v 0.760989 0.221984 -0.931183
v 0.755086 0.021868 -0.906727
v 1.235159 0.207909 -0.146741
v 1.210325 -0.005469 -0.134277
v 0.990277 0.206149 0.708409
v 0.961770 -0.007021 0.700476
v 0.218477 0.188144 1.166336
v 0.228757 0.017159 1.169935
v -0.004332 0.314120 0.045664
v -0.030604 0.017325 -0.000495
v 1.106490 0.210665 0.509059
v 1.085303 -0.013782 0.500981
v 0.811953 0.202928 0.878701
v 0.800989 0.002113 0.854764
v 0.431434 0.194510 1.113791
v 0.429583 0.014704 1.113628
v 0.031651 0.021679 1.198426
v 0.022317 0.182302 1.185107
v -0.425159 0.181467 1.106049
v -0.435028 0.027567 1.098232
v -0.801753 0.036429 0.833808
v -0.815089 0.187048 0.845560
v -1.101805 0.031589 0.479613
v -1.128872 0.189395 0.497917
v -1.251093 0.028816 0.053835
v -1.266072 0.201635 0.052675
v -1.111622 0.208713 -0.396938
v -1.144828 0.030670 -0.427117
v -0.872600 0.221622 -0.800631
v -0.880387 0.026407 -0.804666
v -0.471001 0.229227 -1.078271
v -0.475146 0.027171 -1.081245
v 0.029063 0.225570 -1.178901
v 0.015198 0.022185 -1.182864
v 0.521200 0.224599 -1.058082
v 0.515263 0.020050 -1.045011
v 0.928563 0.224217 -0.756967
v 0.925721 0.010245 -0.733121
v 1.186905 0.216488 -0.349248
v 1.174265 -0.000995 -0.342567
v 1.234645 0.210225 0.067538
v 1.225387 -0.006938 0.072304
v -1.160883 0.168132 -0.418867
vt 0.042084 0.334097
vt 0.094259 0.402706
vt 0.317676 0.945261
vt 0.404072 0.911027
vt 0.014518 0.164292
vt 0.008189 0.254069
vt 0.471004 0.858185
vt 0.504664 0.776217
vt 0.497198 0.683996
vt 0.063339 0.085494
vt 0.133924 0.028726
vt 0.461621 0.600975
vt 0.393592 0.538867
vt 0.226713 0.003662
vt 0.320570 0.019617
vt 0.306316 0.507274
vt 0.207964 0.511215
vt 0.408582 0.077239
vt 0.462956 0.153174
vt 0.125310 0.551721
vt 0.073269 0.611641
vt 0.475707 0.235600
vt 0.462030 0.313486
vt 0.049269 0.686375
vt 0.053642 0.773954
vt 0.407269 0.388097
vt 0.091811 0.853463
vt 0.150089 0.911428
vt 0.255687 0.458880
vt 0.337061 0.438419
vt 0.177562 0.447186
vt 0.220303 0.944610
vt 0.272656 0.731435
vt 0.236338 0.229573
vt 0.129102 0.938973
vt 0.059670 0.874030
vt 0.013536 0.786974
vt 0.034520 0.592718
vt 0.005654 0.681217
vt 0.195834 0.473919
vt 0.099257 0.519275
vt 0.414830 0.505773
vt 0.313799 0.466370
vt 0.531059 0.674774
vt 0.492089 0.581448
vt 0.497993 0.877598
vt 0.538726 0.779406
vt 0.328122 0.996338
vt 0.211037 0.972898
vt 0.419584 0.938187
vt 0.048427 0.731976
vt 0.435856 0.353270
vt 0.003662 0.735653
vt 0.070570 0.816160
vt 0.372719 0.413394
vt 0.033098 0.832210
vt 0.117789 0.885580
vt 0.093185 0.911291
vt 0.295384 0.453253
vt 0.167176 0.959095
vt 0.217368 0.459289
vt 0.182577 0.930248
vt 0.268400 0.951655
vt 0.265903 0.988007
vt 0.130905 0.428210
vt 0.380045 0.964240
vt 0.067841 0.368252
vt 0.363395 0.931877
vt 0.021052 0.292941
vt 0.463523 0.911357
vt 0.442872 0.887525
vt 0.003662 0.208507
vt 0.525524 0.831384
vt 0.494455 0.817653
vt 0.497564 0.728764
vt 0.036000 0.120177
vt 0.538822 0.723489
vt 0.481439 0.642130
vt 0.095650 0.055358
vt 0.517321 0.627413
vt 0.429507 0.567824
vt 0.179440 0.013145
vt 0.457624 0.539326
vt 0.349792 0.517482
vt 0.275045 0.006228
vt 0.366430 0.480355
vt 0.257423 0.505326
vt 0.366495 0.044964
vt 0.254768 0.464459
vt 0.167482 0.529092
vt 0.436665 0.114559
vt 0.145113 0.491740
vt 0.095698 0.580903
vt 0.474090 0.195083
vt 0.062096 0.553519
vt 0.058214 0.647921
vt 0.473339 0.275272
vt 0.016203 0.635749
vt 0.510845 0.728181
vn -0.692767 -0.069551 0.717800
vn -0.250737 0.932927 0.258415
vn -0.746704 -0.118701 0.654479
vn -0.746704 -0.118701 0.654479
vn -0.250737 0.932927 0.258415
vn -0.272380 0.929653 0.248101
vn -0.974522 -0.073818 -0.211797
vn -0.993946 -0.098019 0.049625
vn -0.361418 0.929619 -0.072006
vn -0.361418 0.929619 -0.072006
vn -0.993946 -0.098019 0.049625
vn -0.362557 0.931183 0.038073
vn -0.907811 0.082693 -0.411146
vn -0.361418 0.929619 -0.072006
vn -0.109644 0.993445 -0.032326
vn -0.567322 0.019913 -0.823255
vn -0.236643 0.916773 -0.321755
vn -0.377754 0.021231 -0.925663
vn -0.377754 0.021231 -0.925663
vn -0.236643 0.916773 -0.321755
vn -0.160617 0.928862 -0.333793
vn 0.100791 0.919327 -0.380366
vn 0.190952 0.913577 -0.359048
vn 0.249132 -0.030086 -0.968002
vn 0.249132 -0.030086 -0.968002
vn 0.190952 0.913577 -0.359048
vn 0.416679 -0.073158 -0.906105
vn 0.359996 0.908480 -0.212289
vn 0.391871 0.913494 -0.109390
vn 0.843790 -0.063370 -0.532919
vn 0.843790 -0.063370 -0.532919
vn 0.391871 0.913494 -0.109390
vn 0.951340 -0.075861 -0.298660
vn 0.416176 0.900429 0.126591
vn 0.386576 0.900695 0.198262
vn 0.953893 -0.048513 0.296199
vn 0.953893 -0.048513 0.296199
vn 0.386576 0.900695 0.198262
vn 0.885426 -0.088269 0.456321
vn 0.135006 0.916652 0.376195
vn 0.364790 0.006176 0.931069
vn 0.212870 0.908340 0.360007
vn 0.212870 0.908340 0.360007
vn 0.364790 0.006176 0.931069
vn 0.555549 -0.033962 0.830790
vn -0.365252 -0.021022 0.930671
vn -0.190016 -0.018350 0.981610
vn -0.114987 0.927520 0.355648
vn -0.114987 0.927520 0.355648
vn -0.190016 -0.018350 0.981610
vn -0.074124 0.922269 0.379375
vn -0.941628 -0.145663 0.303510
vn -0.836893 -0.161608 0.522965
vn -0.348132 0.927039 0.139293
vn -0.348132 0.927039 0.139293
vn -0.836893 -0.161608 0.522965
vn -0.315977 0.925465 0.208979
vn -0.803672 0.008709 -0.595009
vn -0.312992 0.930729 -0.189154
vn -0.724942 0.029584 -0.688174
vn -0.724942 0.029584 -0.688174
vn -0.312992 0.930729 -0.189154
vn -0.264719 0.934600 -0.237586
vn -0.199342 0.030383 -0.979459
vn -0.070363 0.922558 -0.379388
vn 0.023695 0.012616 -0.999640
vn 0.023695 0.012616 -0.999640
vn -0.070363 0.922558 -0.379388
vn -0.004396 0.917620 -0.397434
vn 0.249547 0.908654 -0.334775
vn 0.293936 0.921889 -0.252432
vn 0.602641 -0.096532 -0.792152
vn 0.602641 -0.096532 -0.792152
vn 0.293936 0.921889 -0.252432
vn 0.734586 -0.080359 -0.673741
vn 0.427465 0.903247 -0.037654
vn 0.411440 0.910991 0.028509
vn 0.989442 -0.087081 -0.115855
vn 0.989442 -0.087081 -0.115855
vn 0.411440 0.910991 0.028509
vn 0.996209 -0.055020 0.067387
vn 0.340124 0.895512 0.287010
vn 0.255209 0.909314 0.328658
vn 0.775884 -0.119024 0.619547
vn 0.775884 -0.119024 0.619547
vn 0.255209 0.909314 0.328658
vn 0.661697 -0.093544 0.743913
vn 0.010054 0.037116 0.999260
vn -0.029816 0.925649 0.377207
vn -0.190016 -0.018350 0.981610
vn -0.190016 -0.018350 0.981610
vn -0.029816 0.925649 0.377207
vn -0.074124 0.922269 0.379375
vn -0.196469 0.931315 0.306679
vn -0.006153 0.999842 0.016661
vn -0.250737 0.932927 0.258415
vn -0.315977 0.925465 0.208979
vn -0.006153 0.999842 0.016661
vn -0.348132 0.927039 0.139293
vn -0.006153 0.999842 0.016661
vn -0.362557 0.931183 0.038073
vn -0.348132 0.927039 0.139293
vn -0.109644 0.993445 -0.032326
vn -0.006153 0.999842 0.016661
vn -0.312992 0.930729 -0.189154
vn -0.006153 0.999842 0.016661
vn -0.264719 0.934600 -0.237586
vn -0.312992 0.930729 -0.189154
vn -0.006153 0.999842 0.016661
vn -0.070363 0.922558 -0.379388
vn -0.160617 0.928862 -0.333793
vn -0.006153 0.999842 0.016661
vn -0.004396 0.917620 -0.397434
vn -0.070363 0.922558 -0.379388
vn -0.006153 0.999842 0.016661
vn 0.249547 0.908654 -0.334775
vn 0.190952 0.913577 -0.359048
vn -0.006153 0.999842 0.016661
vn 0.293936 0.921889 -0.252432
vn 0.249547 0.908654 -0.334775
vn -0.006153 0.999842 0.016661
vn 0.427465 0.903247 -0.037654
vn 0.391871 0.913494 -0.109390
vn 0.427465 0.903247 -0.037654
vn -0.006153 0.999842 0.016661
vn 0.411440 0.910991 0.028509
vn 0.386576 0.900695 0.198262
vn -0.006153 0.999842 0.016661
vn 0.340124 0.895512 0.287010
vn 0.340124 0.895512 0.287010
vn -0.006153 0.999842 0.016661
vn 0.255209 0.909314 0.328658
vn 0.135006 0.916652 0.376195
vn -0.006153 0.999842 0.016661
vn 0.045024 0.922942 0.382297
vn 0.045024 0.922942 0.382297
vn -0.006153 0.999842 0.016661
vn -0.029816 0.925649 0.377207
vn -0.114987 0.927520 0.355648
vn -0.006153 0.999842 0.016661
vn -0.196469 0.931315 0.306679
vn -0.014793 -0.999889 -0.001961
vn -0.000992 -0.999622 0.027486
vn -0.006068 -0.999955 0.007349
vn -0.011719 -0.999859 0.012062
vn -0.014793 -0.999889 -0.001961
vn -0.027530 -0.999617 0.002937
vn -0.014793 -0.999889 -0.001961
vn -0.013573 -0.999899 0.004325
vn -0.027530 -0.999617 0.002937
vn -0.034406 -0.999393 0.005416
vn -0.014793 -0.999889 -0.001961
vn -0.016731 -0.999854 0.003566
vn -0.014793 -0.999889 -0.001961
vn -0.024057 -0.999682 0.007585
vn -0.016731 -0.999854 0.003566
vn -0.014793 -0.999889 -0.001961
vn -0.035764 -0.999233 0.015926
vn -0.029966 -0.999486 0.011360
vn -0.014793 -0.999889 -0.001961
vn -0.025706 -0.999658 -0.004807
vn -0.035764 -0.999233 0.015926
vn -0.018428 -0.999714 -0.015257
vn -0.014793 -0.999889 -0.001961
vn -0.019640 -0.999737 -0.011842
vn -0.019640 -0.999737 -0.011842
vn -0.014793 -0.999889 -0.001961
vn -0.020709 -0.999597 -0.019411
vn -0.014793 -0.999889 -0.001961
vn -0.012886 -0.999786 -0.016184
vn -0.024730 -0.999438 -0.022623
vn -0.014793 -0.999889 -0.001961
vn 0.000095 -0.999997 -0.002559
vn -0.012886 -0.999786 -0.016184
vn -0.014793 -0.999889 -0.001961
vn -0.012033 -0.999899 -0.007577
vn -0.012068 -0.999917 -0.004578
vn -0.012033 -0.999899 -0.007577
vn -0.014793 -0.999889 -0.001961
vn -0.008250 -0.999950 -0.005717
vn -0.014793 -0.999889 -0.001961
vn -0.015636 -0.999878 -0.000455
vn -0.008304 -0.999962 -0.002518
vn -0.014793 -0.999889 -0.001961
vn -0.007735 -0.999909 -0.011075
vn -0.015636 -0.999878 -0.000455
vn -0.014793 -0.999889 -0.001961
vn -0.006068 -0.999955 0.007349
vn -0.009691 -0.999934 -0.006204
vn 0.386576 0.900695 0.198262
vn 0.340124 0.895512 0.287010
vn 0.885426 -0.088269 0.456321
vn 0.885426 -0.088269 0.456321
vn 0.340124 0.895512 0.287010
vn 0.775884 -0.119024 0.619547
vn 0.661697 -0.093544 0.743913
vn 0.255209 0.909314 0.328658
vn 0.555549 -0.033962 0.830790
vn 0.555549 -0.033962 0.830790
vn 0.255209 0.909314 0.328658
vn 0.212870 0.908340 0.360007
vn 0.364790 0.006176 0.931069
vn 0.135006 0.916652 0.376195
vn 0.194609 0.034345 0.980280
vn 0.194609 0.034345 0.980280
vn 0.135006 0.916652 0.376195
vn 0.045024 0.922942 0.382297
vn 0.194609 0.034345 0.980280
vn 0.045024 0.922942 0.382297
vn 0.010054 0.037116 0.999260
vn 0.010054 0.037116 0.999260
vn 0.045024 0.922942 0.382297
vn -0.029816 0.925649 0.377207
vn -0.569194 -0.020145 0.821956
vn -0.365252 -0.021022 0.930671
vn -0.196469 0.931315 0.306679
vn -0.196469 0.931315 0.306679
vn -0.365252 -0.021022 0.930671
vn -0.114987 0.927520 0.355648
vn -0.250737 0.932927 0.258415
vn -0.692767 -0.069551 0.717800
vn -0.196469 0.931315 0.306679
vn -0.196469 0.931315 0.306679
vn -0.692767 -0.069551 0.717800
vn -0.569194 -0.020145 0.821956
vn -0.315977 0.925465 0.208979
vn -0.836893 -0.161608 0.522965
vn -0.272380 0.929653 0.248101
vn -0.272380 0.929653 0.248101
vn -0.836893 -0.161608 0.522965
vn -0.746704 -0.118701 0.654479
vn -0.362557 0.931183 0.038073
vn -0.993946 -0.098019 0.049625
vn -0.348132 0.927039 0.139293
vn -0.348132 0.927039 0.139293
vn -0.993946 -0.098019 0.049625
vn -0.941628 -0.145663 0.303510
vn -0.312992 0.930729 -0.189154
vn -0.907811 0.082693 -0.411146
vn -0.109644 0.993445 -0.032326
vn -0.724942 0.029584 -0.688174
vn -0.264719 0.934600 -0.237586
vn -0.567322 0.019913 -0.823255
vn -0.567322 0.019913 -0.823255
vn -0.264719 0.934600 -0.237586
vn -0.236643 0.916773 -0.321755
vn -0.377754 0.021231 -0.925663
vn -0.160617 0.928862 -0.333793
vn -0.199342 0.030383 -0.979459
vn -0.199342 0.030383 -0.979459
vn -0.160617 0.928862 -0.333793
vn -0.070363 0.922558 -0.379388
vn 0.023695 0.012616 -0.999640
vn -0.004396 0.917620 -0.397434
vn 0.249132 -0.030086 -0.968002
vn 0.249132 -0.030086 -0.968002
vn -0.004396 0.917620 -0.397434
vn 0.100791 0.919327 -0.380366
vn 0.190952 0.913577 -0.359048
vn 0.249547 0.908654 -0.334775
vn 0.416679 -0.073158 -0.906105
vn 0.416679 -0.073158 -0.906105
vn 0.249547 0.908654 -0.334775
vn 0.602641 -0.096532 -0.792152
vn 0.293936 0.921889 -0.252432
vn 0.359996 0.908480 -0.212289
vn 0.734586 -0.080359 -0.673741
vn 0.734586 -0.080359 -0.673741
vn 0.359996 0.908480 -0.212289
vn 0.843790 -0.063370 -0.532919
vn 0.391871 0.913494 -0.109390
vn 0.427465 0.903247 -0.037654
vn 0.951340 -0.075861 -0.298660
vn 0.951340 -0.075861 -0.298660
vn 0.427465 0.903247 -0.037654
vn 0.989442 -0.087081 -0.115855
vn 0.411440 0.910991 0.028509
vn 0.416176 0.900429 0.126591
vn 0.996209 -0.055020 0.067387
vn 0.996209 -0.055020 0.067387
vn 0.416176 0.900429 0.126591
vn 0.953893 -0.048513 0.296199
vn 0.416176 0.900429 0.126591
vn -0.006153 0.999842 0.016661
vn 0.386576 0.900695 0.198262
vn 0.255209 0.909314 0.328658
vn -0.006153 0.999842 0.016661
vn 0.212870 0.908340 0.360007
vn 0.212870 0.908340 0.360007
vn -0.006153 0.999842 0.016661
vn 0.135006 0.916652 0.376195
vn -0.029816 0.925649 0.377207
vn -0.006153 0.999842 0.016661
vn -0.074124 0.922269 0.379375
vn -0.074124 0.922269 0.379375
vn -0.006153 0.999842 0.016661
vn -0.114987 0.927520 0.355648
vn -0.250737 0.932927 0.258415
vn -0.006153 0.999842 0.016661
vn -0.272380 0.929653 0.248101
vn -0.272380 0.929653 0.248101
vn -0.006153 0.999842 0.016661
vn -0.315977 0.925465 0.208979
vn -0.006153 0.999842 0.016661
vn -0.361418 0.929619 -0.072006
vn -0.362557 0.931183 0.038073
vn -0.361418 0.929619 -0.072006
vn -0.006153 0.999842 0.016661
vn -0.109644 0.993445 -0.032326
vn -0.006153 0.999842 0.016661
vn -0.236643 0.916773 -0.321755
vn -0.264719 0.934600 -0.237586
vn -0.006153 0.999842 0.016661
vn -0.160617 0.928862 -0.333793
vn -0.236643 0.916773 -0.321755
vn -0.006153 0.999842 0.016661
vn 0.100791 0.919327 -0.380366
vn -0.004396 0.917620 -0.397434
vn -0.006153 0.999842 0.016661
vn 0.190952 0.913577 -0.359048
vn 0.100791 0.919327 -0.380366
vn -0.006153 0.999842 0.016661
vn 0.359996 0.908480 -0.212289
vn 0.293936 0.921889 -0.252432
vn -0.006153 0.999842 0.016661
vn 0.391871 0.913494 -0.109390
vn 0.359996 0.908480 -0.212289
vn 0.411440 0.910991 0.028509
vn -0.006153 0.999842 0.016661
vn 0.416176 0.900429 0.126591
vn -0.018431 -0.999585 -0.022120
vn -0.014793 -0.999889 -0.001961
vn -0.018428 -0.999714 -0.015257
vn -0.014793 -0.999889 -0.001961
vn -0.018431 -0.999585 -0.022120
vn -0.025706 -0.999658 -0.004807
vn -0.014793 -0.999889 -0.001961
vn -0.029966 -0.999486 0.011360
vn -0.028589 -0.999560 0.007859
vn -0.014793 -0.999889 -0.001961
vn -0.028589 -0.999560 0.007859
vn -0.024057 -0.999682 0.007585
vn -0.016308 -0.999817 0.010034
vn -0.014793 -0.999889 -0.001961
vn -0.034406 -0.999393 0.005416
vn -0.014793 -0.999889 -0.001961
vn -0.016308 -0.999817 0.010034
vn -0.013573 -0.999899 0.004325
vn -0.006612 -0.999778 0.019994
vn -0.014793 -0.999889 -0.001961
vn -0.011719 -0.999859 0.012062
vn -0.014793 -0.999889 -0.001961
vn -0.006612 -0.999778 0.019994
vn -0.000992 -0.999622 0.027486
vn -0.014793 -0.999889 -0.001961
vn -0.009691 -0.999934 -0.006204
vn -0.009473 -0.999938 -0.005902
vn -0.014793 -0.999889 -0.001961
vn -0.009473 -0.999938 -0.005902
vn -0.007735 -0.999909 -0.011075
vn -0.014793 -0.999889 -0.001961
vn -0.008304 -0.999962 -0.002518
vn -0.005397 -0.999928 -0.010750
vn -0.008250 -0.999950 -0.005717
vn -0.014793 -0.999889 -0.001961
vn -0.005397 -0.999928 -0.010750
vn -0.014793 -0.999889 -0.001961
vn -0.012068 -0.999917 -0.004578
vn -0.002772 -0.999982 -0.005252
vn -0.014793 -0.999889 -0.001961
vn -0.002772 -0.999982 -0.005252
vn 0.000095 -0.999997 -0.002559
vn -0.014793 -0.999889 -0.001961
vn -0.024730 -0.999438 -0.022623
vn -0.019206 -0.999672 -0.016938
vn -0.020709 -0.999597 -0.019411
vn -0.014793 -0.999889 -0.001961
vn -0.019206 -0.999672 -0.016938
vn -0.903990 -0.045521 -0.425124
vn -0.907811 0.082693 -0.411146
vn -0.803672 0.008709 -0.595009
vn -0.803672 0.008709 -0.595009
vn -0.907811 0.082693 -0.411146
vn -0.312992 0.930729 -0.189154
vn -0.361418 0.929619 -0.072006
vn -0.907811 0.082693 -0.411146
vn -0.974522 -0.073818 -0.211797
vn -0.974522 -0.073818 -0.211797
vn -0.907811 0.082693 -0.411146
vn -0.903990 -0.045521 -0.425124
s off
g Drachma_LOD0
usemtl Drachma_LOD0SG
f 45/66/1 46/68/2 4/50/3
f 4/50/4 46/68/5 3/4/6
f 6/47/7 49/73/8 5/8/9
f 5/8/10 49/73/11 50/74/12
f 67/99/13 5/8/14 51/75/15
f 8/45/16 7/12/17 56/83/18
f 56/83/19 7/12/20 55/81/21
f 9/16/22 59/87/23 10/43/24
f 10/43/25 59/87/26 60/89/27
f 11/20/28 63/93/29 12/41/30
f 12/41/31 63/93/32 64/95/33
f 13/24/34 35/51/35 14/39/36
f 14/39/37 35/51/38 36/53/39
f 39/57/40 40/58/41 15/27/42
f 15/27/43 40/58/44 16/36/45
f 44/64/46 1/49/47 43/63/48
f 43/63/49 1/49/50 2/32/51
f 19/46/52 47/70/53 20/7/54
f 20/7/55 47/70/56 48/71/57
f 22/44/58 21/9/59 54/80/60
f 54/80/61 21/9/62 53/78/63
f 24/42/64 23/13/65 58/86/66
f 58/86/67 23/13/68 57/84/69
f 25/17/70 61/90/71 26/40/72
f 26/40/73 61/90/74 62/92/75
f 27/21/76 65/96/77 28/38/78
f 28/38/79 65/96/80 66/98/81
f 29/25/82 37/54/83 30/37/84
f 30/37/85 37/54/86 38/56/87
f 41/60/88 42/62/89 1/49/90
f 1/49/91 42/62/92 2/32/93
f 18/3/94 33/33/95 46/68/96
f 48/71/97 33/33/98 20/7/99
f 33/33/100 50/74/101 20/7/102
f 51/75/103 33/33/104 21/9/105
f 33/33/106 53/78/107 21/9/108
f 33/33/109 23/13/110 55/81/111
f 33/33/112 57/84/113 23/13/114
f 33/33/115 25/17/116 59/87/117
f 33/33/118 61/90/119 25/17/120
f 33/33/121 27/21/122 63/93/123
f 27/21/124 33/33/125 65/96/126
f 35/51/127 33/33/128 29/25/129
f 29/25/130 33/33/131 37/54/132
f 39/57/133 33/33/134 31/28/135
f 31/28/136 33/33/137 42/62/138
f 43/63/139 33/33/140 18/3/141
f 34/34/142 47/69/143 19/6/144
f 45/67/145 34/34/146 17/2/147
f 34/34/148 44/65/149 17/2/150
f 41/61/151 34/34/152 32/29/153
f 34/34/154 40/59/155 32/29/156
f 34/34/157 30/26/158 38/55/159
f 34/34/160 36/52/161 30/26/162
f 66/97/163 34/34/164 28/22/165
f 28/22/166 34/34/167 64/94/168
f 34/34/169 26/18/170 62/91/171
f 34/34/172 60/88/173 26/18/174
f 34/34/175 24/14/176 58/85/177
f 24/14/178 34/34/179 56/82/180
f 34/34/181 22/10/182 54/79/183
f 34/34/184 52/76/185 22/10/186
f 34/34/187 19/6/188 49/72/189
f 35/51/190 29/25/191 36/53/192
f 36/53/193 29/25/194 30/37/195
f 38/56/196 37/54/197 16/36/198
f 16/36/199 37/54/200 15/27/201
f 40/58/202 39/57/203 32/35/204
f 32/35/205 39/57/206 31/28/207
f 32/35/208 31/28/209 41/60/210
f 41/60/211 31/28/212 42/62/213
f 17/48/214 44/64/215 18/3/216
f 18/3/217 44/64/218 43/63/219
f 46/68/220 45/66/221 18/3/222
f 18/3/223 45/66/224 17/48/225
f 48/71/226 47/70/227 3/4/228
f 3/4/229 47/70/230 4/50/231
f 50/74/232 49/73/233 20/7/234
f 20/7/235 49/73/236 19/46/237
f 21/9/238 67/99/239 51/75/240
f 54/80/241 53/78/242 8/45/243
f 8/45/244 53/78/245 7/12/246
f 56/83/247 55/81/248 24/42/249
f 24/42/250 55/81/251 23/13/252
f 58/86/253 57/84/254 10/43/255
f 10/43/256 57/84/257 9/16/258
f 59/87/259 25/17/260 60/89/261
f 60/89/262 25/17/263 26/40/264
f 61/90/265 11/20/266 62/92/267
f 62/92/268 11/20/269 12/41/270
f 63/93/271 27/21/272 64/95/273
f 64/95/274 27/21/275 28/38/276
f 65/96/277 13/24/278 66/98/279
f 66/98/280 13/24/281 14/39/282
f 13/24/283 33/33/284 35/51/285
f 37/54/286 33/33/287 15/27/288
f 15/27/289 33/33/290 39/57/291
f 42/62/292 33/33/293 2/32/294
f 2/32/295 33/33/296 43/63/297
f 46/68/298 33/33/299 3/4/300
f 3/4/301 33/33/302 48/71/303
f 33/33/304 5/8/305 50/74/306
f 5/8/307 33/33/308 51/75/309
f 33/33/310 7/12/311 53/78/312
f 33/33/313 55/81/314 7/12/315
f 33/33/316 9/16/317 57/84/318
f 33/33/319 59/87/320 9/16/321
f 33/33/322 11/20/323 61/90/324
f 33/33/325 63/93/326 11/20/327
f 65/96/328 33/33/329 13/24/330
f 14/23/331 34/34/332 66/97/333
f 34/34/334 14/23/335 36/52/336
f 34/34/337 38/55/338 16/30/339
f 34/34/340 16/30/341 40/59/342
f 1/31/343 34/34/344 41/61/345
f 34/34/346 1/31/347 44/65/348
f 4/1/349 34/34/350 45/67/351
f 34/34/352 4/1/353 47/69/354
f 34/34/355 49/72/356 6/5/357
f 34/34/358 6/5/359 52/76/360
f 34/34/361 54/79/362 8/11/363
f 56/82/364 34/34/365 8/11/366
f 34/34/367 58/85/368 10/15/369
f 34/34/370 10/15/371 60/88/372
f 34/34/373 62/91/374 12/19/375
f 64/94/376 34/34/377 12/19/378
f 52/77/379 67/99/380 22/44/381
f 22/44/382 67/99/383 21/9/384
f 5/8/385 67/99/386 6/47/387
f 6/47/388 67/99/389 52/77/390
