# This file uses centimeters as units for non-parametric coordinates.

mtllib Boat.mtl
g default
v -1.706051 2.390377 6.688413
v 1.706051 2.390377 6.688413
v -1.706051 3.412102 6.688413
v 1.706051 3.412102 6.688413
v -3.490274 3.412102 -7.595701
v 3.490274 3.412102 -7.595701
v -1.706051 0.000000 -7.595701
v 1.706051 0.000000 -7.595701
v -2.598162 3.412102 -0.453644
v 2.598162 3.412102 -0.453644
v 1.706051 0.756997 -0.453644
v -1.706051 0.756997 -0.453644
v 0.000000 1.785974 6.688413
v 0.000000 0.152594 -0.453644
v 0.000000 -0.604404 -7.595701
v 0.000000 3.412102 -7.595701
v 0.000000 3.412102 6.688413
v 0.000000 3.412102 -7.195702
v 2.201247 3.412102 -0.503223
v 3.037202 3.412102 -7.195702
v 0.000000 3.412102 6.288413
v 1.352906 3.412102 6.288413
v -2.201247 3.412102 -0.503223
v -3.037202 3.412102 -7.195702
v -1.352906 3.412102 6.288413
v 0.000000 2.649840 -7.195702
v 0.000000 2.649840 -0.453644
v 2.201247 2.649840 -0.503223
v 3.037202 2.649840 -7.195702
v 0.000000 2.649840 6.288413
v 1.352906 2.649840 6.288413
v -2.201247 2.649840 -0.503223
v -3.037202 2.649840 -7.195702
v -1.352906 2.649840 6.288413
v -0.163643 -1.730053 0.863399
v 0.163643 -1.730053 0.863399
v -0.163643 1.195200 0.863399
v 0.163643 1.195200 0.863399
v -0.163643 1.195200 -1.892971
v 0.163643 1.195200 -1.892971
v -0.163643 -3.748746 -1.892970
v 0.163643 -3.748746 -1.892970
v 2.281023 -2.002106 -5.065656
v 2.550667 -1.816868 -5.075392
v 0.815249 0.197430 -3.812399
v 1.084892 0.382668 -3.822135
v 0.085226 1.129267 -6.301641
v 0.354870 1.314506 -6.311377
v 2.562520 -2.588151 -8.419759
v 2.832164 -2.402913 -8.429495
v -2.281023 -2.002106 -5.065656
v -2.550667 -1.816868 -5.075391
v -0.815248 0.197430 -3.812399
v -1.084892 0.382669 -3.822135
v -0.085226 1.129267 -6.301641
v -0.354870 1.314506 -6.311377
v -2.562520 -2.588151 -8.419759
v -2.832164 -2.402913 -8.429495
v 5.096029 1.881675 -9.554123
v 4.237773 2.505235 -9.554123
v 3.176909 2.505235 -9.554123
v 2.318652 1.881675 -9.554123
v 1.990827 0.872734 -9.554123
v 2.318652 -0.136207 -9.554123
v 3.176909 -0.759767 -9.554123
v 4.237773 -0.759767 -9.554123
v 5.096029 -0.136207 -9.554123
v 5.423854 0.872734 -9.554123
v 5.096029 1.881675 -6.121096
v 4.237773 2.505235 -6.121096
v 3.176909 2.505235 -6.121096
v 2.318652 1.881675 -6.121096
v 1.990827 0.872734 -6.121096
v 2.318652 -0.136207 -6.121096
v 3.176909 -0.759767 -6.121096
v 4.237773 -0.759767 -6.121096
v 5.096029 -0.136207 -6.121096
v 5.423854 0.872734 -6.121096
v 3.707341 0.872734 -9.554123
v 3.707341 0.872734 -6.121096
v -5.096030 1.881675 -9.554123
v -4.237773 2.505235 -9.554123
v -3.176909 2.505235 -9.554123
v -2.318652 1.881675 -9.554123
v -1.990828 0.872734 -9.554123
v -2.318652 -0.136207 -9.554123
v -3.176909 -0.759767 -9.554123
v -4.237773 -0.759767 -9.554123
v -5.096030 -0.136207 -9.554123
v -5.423854 0.872734 -9.554123
v -5.096030 1.881675 -6.121096
v -4.237773 2.505235 -6.121096
v -3.176909 2.505235 -6.121096
v -2.318652 1.881675 -6.121096
v -1.990828 0.872734 -6.121096
v -2.318652 -0.136207 -6.121096
v -3.176909 -0.759767 -6.121096
v -4.237773 -0.759767 -6.121096
v -5.096030 -0.136207 -6.121096
v -5.423854 0.872734 -6.121096
v -3.707341 0.872734 -9.554123
v -3.707341 0.872734 -6.121096
vt 0.375000 0.000000
vt 0.625000 0.000000
vt 0.375000 0.250000
vt 0.625000 0.250000
vt 0.375000 0.500000
vt 0.625000 0.500000
vt 0.375000 0.750000
vt 0.625000 0.750000
vt 0.375000 1.000000
vt 0.625000 1.000000
vt 0.875000 0.000000
vt 0.875000 0.250000
vt 0.125000 0.000000
vt 0.125000 0.250000
vt 0.250000 0.250000
vt 0.375000 0.375000
vt 0.625000 0.375000
vt 0.750000 0.250000
vt 0.625000 0.875000
vt 0.750000 0.000000
vt 0.250000 0.000000
vt 0.375000 0.875000
vt 0.500000 0.000000
vt 0.500000 1.000000
vt 0.500000 0.875000
vt 0.500000 0.750000
vt 0.500000 0.500000
vt 0.500000 0.375000
vt 0.500000 0.250000
vt 0.625000 0.375000
vt 0.625000 0.500000
vt 0.500000 0.500000
vt 0.500000 0.250000
vt 0.625000 0.250000
vt 0.375000 0.500000
vt 0.375000 0.375000
vt 0.375000 0.250000
vt 0.625000 0.375000
vt 0.625000 0.500000
vt 0.500000 0.500000
vt 0.500000 0.250000
vt 0.625000 0.250000
vt 0.375000 0.500000
vt 0.375000 0.375000
vt 0.375000 0.250000
vt 0.375000 0.000000
vt 0.625000 0.000000
vt 0.625000 0.250000
vt 0.375000 0.250000
vt 0.625000 0.500000
vt 0.375000 0.500000
vt 0.625000 0.750000
vt 0.375000 0.750000
vt 0.625000 1.000000
vt 0.375000 1.000000
vt 0.875000 0.000000
vt 0.875000 0.250000
vt 0.125000 0.000000
vt 0.125000 0.250000
vt 0.375000 0.000000
vt 0.625000 0.000000
vt 0.625000 0.250000
vt 0.375000 0.250000
vt 0.625000 0.500000
vt 0.375000 0.500000
vt 0.625000 0.750000
vt 0.375000 0.750000
vt 0.625000 1.000000
vt 0.375000 1.000000
vt 0.875000 0.000000
vt 0.875000 0.250000
vt 0.125000 0.000000
vt 0.125000 0.250000
vt 0.375000 0.000000
vt 0.375000 0.250000
vt 0.625000 0.250000
vt 0.625000 0.000000
vt 0.375000 0.500000
vt 0.625000 0.500000
vt 0.375000 0.750000
vt 0.625000 0.750000
vt 0.375000 1.000000
vt 0.625000 1.000000
vt 0.875000 0.250000
vt 0.875000 0.000000
vt 0.125000 0.000000
vt 0.125000 0.250000
vt 0.375000 0.312500
vt 0.400000 0.312500
vt 0.400000 0.688440
vt 0.375000 0.688440
vt 0.425000 0.312500
vt 0.425000 0.688440
vt 0.450000 0.312500
vt 0.450000 0.688440
vt 0.475000 0.312500
vt 0.475000 0.688440
vt 0.500000 0.312500
vt 0.500000 0.688440
vt 0.525000 0.312500
vt 0.525000 0.688440
vt 0.550000 0.312500
vt 0.550000 0.688440
vt 0.575000 0.312500
vt 0.575000 0.688440
vt 0.600000 0.312500
vt 0.600000 0.688440
vt 0.625000 0.312500
vt 0.625000 0.688440
vt 0.548284 0.007647
vt 0.626409 0.064409
vt 0.500000 0.150000
vt 0.451716 0.007647
vt 0.373591 0.064409
vt 0.343750 0.156250
vt 0.373591 0.248091
vt 0.451716 0.304853
vt 0.548284 0.304853
vt 0.626409 0.248091
vt 0.656250 0.156250
vt 0.626409 0.935591
vt 0.548284 0.992353
vt 0.500000 0.837500
vt 0.451716 0.992353
vt 0.373591 0.935591
vt 0.343750 0.843750
vt 0.373591 0.751909
vt 0.451716 0.695147
vt 0.548284 0.695147
vt 0.626409 0.751909
vt 0.656250 0.843750
vt 0.375000 0.312500
vt 0.375000 0.688440
vt 0.400000 0.688440
vt 0.400000 0.312500
vt 0.425000 0.688440
vt 0.425000 0.312500
vt 0.450000 0.688440
vt 0.450000 0.312500
vt 0.475000 0.688440
vt 0.475000 0.312500
vt 0.500000 0.688440
vt 0.500000 0.312500
vt 0.525000 0.688440
vt 0.525000 0.312500
vt 0.550000 0.688440
vt 0.550000 0.312500
vt 0.575000 0.688440
vt 0.575000 0.312500
vt 0.600000 0.688440
vt 0.600000 0.312500
vt 0.625000 0.688440
vt 0.625000 0.312500
vt 0.548284 0.007647
vt 0.500000 0.150000
vt 0.626409 0.064409
vt 0.451716 0.007647
vt 0.373591 0.064409
vt 0.343750 0.156250
vt 0.373591 0.248091
vt 0.451716 0.304853
vt 0.548284 0.304853
vt 0.626409 0.248091
vt 0.656250 0.156250
vt 0.626409 0.935591
vt 0.500000 0.837500
vt 0.548284 0.992353
vt 0.451716 0.992353
vt 0.373591 0.935591
vt 0.343750 0.843750
vt 0.373591 0.751909
vt 0.451716 0.695147
vt 0.548284 0.695147
vt 0.626409 0.751909
vt 0.656250 0.843750
vn 0.000000 0.000000 1.000000
vn 0.000000 0.000000 1.000000
vn 0.000000 0.000000 1.000000
vn 0.000000 0.000000 1.000000
vn 0.000000 1.000000 -0.000000
vn 0.000000 1.000000 -0.000000
vn 0.000000 1.000000 0.000000
vn 0.000000 1.000000 0.000000
vn 0.000000 0.000000 -1.000000
vn 0.000000 0.000000 -1.000000
vn 0.000000 0.000000 -1.000000
vn 0.000000 0.000000 -1.000000
vn 0.000000 -0.986632 0.162967
vn 0.000000 -0.994430 0.105401
vn 0.332280 -0.937927 0.099412
vn 0.329754 -0.930797 0.157734
vn 0.935163 -0.344653 0.081760
vn 0.933030 -0.350464 0.081428
vn 0.912130 -0.402354 0.078290
vn 0.912130 -0.402354 0.078290
vn -0.912130 -0.402354 0.078290
vn -0.933030 -0.350464 0.081428
vn -0.935163 -0.344653 0.081760
vn -0.912130 -0.402354 0.078290
vn 0.000000 1.000000 0.000000
vn 0.000000 1.000000 0.000000
vn 0.968092 -0.234889 0.087321
vn 0.968092 -0.234889 0.087321
vn 0.000000 -0.974832 0.222943
vn 0.326435 -0.921430 0.210730
vn -0.968092 -0.234889 0.087321
vn -0.968092 -0.234889 0.087321
vn -0.329754 -0.930797 0.157734
vn -0.326435 -0.921430 0.210730
vn -0.332280 -0.937927 0.099412
vn 0.000000 0.000000 -1.000000
vn 0.000000 0.000000 -1.000000
vn 0.000000 1.000000 -0.000000
vn 0.000000 1.000000 -0.000000
vn 0.000000 1.000000 0.000000
vn 0.000000 0.000000 1.000000
vn 0.000000 0.000000 1.000000
vn 0.000000 1.000000 -0.000000
vn 0.000000 1.000000 0.000000
vn 0.000000 1.000000 0.000000
vn 0.000000 1.000000 -0.000000
vn 0.000000 1.000000 0.000000
vn 0.000000 1.000000 0.000000
vn 0.000000 1.000000 -0.000000
vn 0.000000 1.000000 0.000000
vn 0.000000 1.000000 0.000000
vn 0.000000 1.000000 -0.000000
vn 0.000000 1.000000 0.000000
vn 0.000000 1.000000 0.000000
vn 0.000000 1.000000 0.000000
vn 0.000000 1.000000 0.000000
vn 0.000000 1.000000 -0.000000
vn 0.000000 1.000000 0.000000
vn -0.992289 0.000000 -0.123946
vn -0.992289 0.000000 -0.123946
vn -0.992289 0.000000 -0.123946
vn -0.992289 0.000000 -0.123946
vn 0.000000 0.000000 1.000000
vn 0.000000 0.000000 1.000000
vn 0.000000 0.000000 1.000000
vn 0.000000 0.000000 1.000000
vn 0.000000 0.000000 -1.000000
vn 0.000000 0.000000 -1.000000
vn 0.000000 0.000000 -1.000000
vn 0.000000 0.000000 -1.000000
vn -0.992289 0.000000 -0.123946
vn -0.992289 0.000000 -0.123946
vn 0.000000 0.000000 1.000000
vn 0.000000 0.000000 1.000000
vn 0.992289 0.000000 -0.123946
vn 0.992289 0.000000 -0.123946
vn 0.992289 0.000000 -0.123946
vn 0.992289 0.000000 -0.123946
vn 0.000000 0.000000 -1.000000
vn 0.000000 0.000000 -1.000000
vn 0.992289 0.000000 -0.123946
vn 0.992289 0.000000 -0.123946
vn 0.000000 0.000000 1.000000
vn 0.000000 0.000000 1.000000
vn 0.000000 0.000000 1.000000
vn 0.000000 0.000000 1.000000
vn 0.000000 1.000000 0.000000
vn 0.000000 1.000000 0.000000
vn 0.000000 1.000000 0.000000
vn 0.000000 1.000000 0.000000
vn 0.000000 -0.000000 -1.000000
vn 0.000000 -0.000000 -1.000000
vn 0.000000 -0.000000 -1.000000
vn 0.000000 -0.000000 -1.000000
vn 0.000000 -0.806774 0.590860
vn 0.000000 -0.806774 0.590860
vn 0.000000 -0.806774 0.590860
vn 0.000000 -0.806774 0.590860
vn 1.000000 0.000000 0.000000
vn 1.000000 0.000000 0.000000
vn 1.000000 0.000000 0.000000
vn 1.000000 0.000000 0.000000
vn -1.000000 0.000000 0.000000
vn -1.000000 0.000000 0.000000
vn -1.000000 0.000000 0.000000
vn -1.000000 0.000000 0.000000
vn 0.264849 -0.338067 0.903087
vn 0.264849 -0.338067 0.903087
vn 0.264849 -0.338067 0.903087
vn 0.264849 -0.338067 0.903087
vn -0.501076 0.751913 0.428426
vn -0.501076 0.751913 0.428427
vn -0.501076 0.751913 0.428427
vn -0.501076 0.751913 0.428426
vn -0.264850 0.338066 -0.903087
vn -0.264850 0.338066 -0.903087
vn -0.264850 0.338066 -0.903087
vn -0.264850 0.338066 -0.903087
vn 0.560743 -0.806375 0.187955
vn 0.560743 -0.806375 0.187955
vn 0.560743 -0.806375 0.187955
vn 0.560743 -0.806375 0.187955
vn 0.823880 0.565984 -0.029746
vn 0.823880 0.565984 -0.029746
vn 0.823880 0.565984 -0.029746
vn 0.823880 0.565984 -0.029746
vn -0.823880 -0.565984 0.029746
vn -0.823880 -0.565984 0.029746
vn -0.823880 -0.565984 0.029746
vn -0.823880 -0.565984 0.029746
vn -0.264848 -0.338067 0.903087
vn -0.264848 -0.338067 0.903087
vn -0.264848 -0.338067 0.903087
vn -0.264848 -0.338067 0.903087
vn 0.501076 0.751913 0.428427
vn 0.501076 0.751913 0.428427
vn 0.501076 0.751913 0.428427
vn 0.501076 0.751913 0.428427
vn 0.264851 0.338066 -0.903087
vn 0.264851 0.338066 -0.903087
vn 0.264851 0.338066 -0.903087
vn 0.264851 0.338066 -0.903087
vn -0.560745 -0.806374 0.187954
vn -0.560745 -0.806374 0.187954
vn -0.560745 -0.806374 0.187954
vn -0.560745 -0.806374 0.187954
vn -0.823880 0.565983 -0.029746
vn -0.823880 0.565983 -0.029746
vn -0.823880 0.565984 -0.029746
vn -0.823880 0.565983 -0.029746
vn 0.823880 -0.565984 0.029746
vn 0.823880 -0.565984 0.029746
vn 0.823880 -0.565984 0.029746
vn 0.823880 -0.565984 0.029746
vn 0.809017 0.587785 0.000000
vn 0.309017 0.951057 0.000000
vn 0.309017 0.951057 0.000000
vn 0.809017 0.587785 0.000000
vn -0.309017 0.951057 0.000000
vn -0.309017 0.951057 0.000000
vn -0.809017 0.587785 0.000000
vn -0.809017 0.587785 0.000000
vn -1.000000 0.000000 0.000000
vn -1.000000 0.000000 0.000000
vn -0.809017 -0.587785 0.000000
vn -0.809017 -0.587785 0.000000
vn -0.309017 -0.951057 0.000000
vn -0.309017 -0.951057 0.000000
vn 0.309017 -0.951056 0.000000
vn 0.309017 -0.951056 0.000000
vn 0.809017 -0.587785 0.000000
vn 0.809017 -0.587785 0.000000
vn 1.000000 -0.000000 0.000000
vn 1.000000 -0.000000 0.000000
vn 0.000000 0.000000 -1.000000
vn 0.000000 0.000000 -1.000000
vn 0.000000 0.000000 -1.000000
vn 0.000001 0.000000 -1.000000
vn -0.000000 0.000000 -1.000000
vn -0.000001 0.000000 -1.000000
vn 0.000000 0.000000 -1.000000
vn 0.000000 0.000000 -1.000000
vn 0.000001 0.000000 -1.000000
vn 0.000001 0.000000 -1.000000
vn 0.000000 0.000000 -1.000000
vn 0.000000 0.000000 1.000000
vn -0.000000 0.000000 1.000000
vn 0.000000 0.000000 1.000000
vn -0.000001 0.000000 1.000000
vn 0.000001 0.000000 1.000000
vn 0.000000 0.000000 1.000000
vn 0.000000 0.000000 1.000000
vn 0.000000 0.000000 1.000000
vn 0.000000 0.000000 1.000000
vn 0.000000 0.000000 1.000000
vn 0.000000 0.000000 1.000000
vn -0.809017 0.587785 0.000000
vn -0.809017 0.587785 0.000000
vn -0.309017 0.951057 0.000000
vn -0.309017 0.951057 0.000000
vn 0.309017 0.951057 0.000000
vn 0.309017 0.951057 0.000000
vn 0.809017 0.587785 0.000000
vn 0.809017 0.587785 0.000000
vn 1.000000 0.000000 0.000000
vn 1.000000 0.000000 0.000000
vn 0.809017 -0.587785 0.000000
vn 0.809017 -0.587785 0.000000
vn 0.309017 -0.951057 0.000000
vn 0.309017 -0.951057 0.000000
vn -0.309017 -0.951057 0.000000
vn -0.309017 -0.951057 0.000000
vn -0.809017 -0.587785 0.000000
vn -0.809017 -0.587785 0.000000
vn -1.000000 -0.000000 0.000000
vn -1.000000 -0.000000 0.000000
vn 0.000000 0.000000 -1.000000
vn 0.000000 0.000000 -1.000000
vn 0.000000 0.000000 -1.000000
vn -0.000000 0.000000 -1.000000
vn 0.000000 0.000000 -1.000000
vn 0.000001 0.000000 -1.000000
vn 0.000000 0.000000 -1.000000
vn 0.000000 0.000000 -1.000000
vn -0.000000 0.000000 -1.000000
vn -0.000000 0.000000 -1.000000
vn 0.000000 0.000000 -1.000000
vn -0.000000 0.000000 1.000000
vn -0.000000 0.000000 1.000000
vn 0.000000 0.000000 1.000000
vn 0.000000 0.000000 1.000000
vn -0.000001 0.000000 1.000000
vn -0.000000 0.000000 1.000000
vn 0.000000 0.000000 1.000000
vn -0.000000 0.000000 1.000000
vn 0.000000 0.000000 1.000000
vn 0.000000 0.000000 1.000000
vn 0.000000 0.000000 1.000000
s 1
g pCube11
usemtl initialShadingGroup
f 17/29/1 13/23/2 2/2/3 4/4/4
s 2
f 26/40/5 27/28/6 28/38/7 29/39/8
s 3
f 15/26/9 16/27/10 6/6/11 8/8/12
s 4
f 14/25/13 15/26/14 8/8/15 11/19/16
s 5
f 10/18/17 11/20/18 8/11/19 6/12/20
s 6
f 7/13/21 12/21/22 9/15/23 5/14/24
s 2
f 27/28/6 30/41/25 31/42/26 28/38/7
s 5
f 2/2/27 11/20/18 10/18/17 4/4/28
s 4
f 13/24/29 14/25/13 11/19/16 2/10/30
s 6
f 9/15/23 12/21/22 1/1/31 3/3/32
s 4
f 12/22/33 14/25/13 13/24/29 1/9/34
f 7/7/35 15/26/14 14/25/13 12/22/33
s 3
f 5/5/36 16/27/10 15/26/9 7/7/37
s 2
f 32/44/38 27/28/6 26/40/5 33/43/39
f 34/45/40 30/41/25 27/28/6 32/44/38
s 1
f 1/1/41 13/23/2 17/29/1 3/3/42
s 7
f 10/17/43 6/6/44 20/31/45 19/30/46
f 6/6/44 16/27/47 18/32/48 20/31/45
f 17/29/49 4/4/50 22/34/51 21/33/52
f 4/4/50 10/17/43 19/30/46 22/34/51
f 16/27/47 5/5/53 24/35/54 18/32/48
f 5/5/53 9/16/55 23/36/56 24/35/54
f 3/3/57 17/29/49 21/33/52 25/37/58
f 9/16/55 3/3/57 25/37/58 23/36/56
s 8
f 19/30/59 20/31/60 29/39/61 28/38/62
s 9
f 20/31/63 18/32/64 26/40/65 29/39/66
s 10
f 21/33/67 22/34/68 31/42/69 30/41/70
s 8
f 22/34/71 19/30/59 28/38/62 31/42/72
s 9
f 18/32/64 24/35/73 33/43/74 26/40/65
s 11
f 24/35/75 23/36/76 32/44/77 33/43/78
s 10
f 25/37/79 21/33/67 30/41/70 34/45/80
s 11
f 23/36/76 25/37/81 34/45/82 32/44/77
s off
f 35/46/83 36/47/84 38/48/85 37/49/86
f 37/49/87 38/48/88 40/50/89 39/51/90
f 39/51/91 40/50/92 42/52/93 41/53/94
f 41/53/95 42/52/96 36/54/97 35/55/98
f 36/47/99 42/56/100 40/57/101 38/48/102
f 41/58/103 35/46/104 37/49/105 39/59/106
f 43/60/107 44/61/108 46/62/109 45/63/110
f 45/63/111 46/62/112 48/64/113 47/65/114
f 47/65/115 48/64/116 50/66/117 49/67/118
f 49/67/119 50/66/120 44/68/121 43/69/122
f 44/61/123 50/70/124 48/71/125 46/62/126
f 49/72/127 43/60/128 45/63/129 47/73/130
f 51/74/131 53/75/132 54/76/133 52/77/134
f 53/75/135 55/78/136 56/79/137 54/76/138
f 55/78/139 57/80/140 58/81/141 56/79/142
f 57/80/143 51/82/144 52/83/145 58/81/146
f 52/77/147 54/76/148 56/84/149 58/85/150
f 57/86/151 55/87/152 53/75/153 51/74/154
s 12
f 59/88/155 60/89/156 70/90/157 69/91/158
f 60/89/156 61/92/159 71/93/160 70/90/157
f 61/92/159 62/94/161 72/95/162 71/93/160
f 62/94/161 63/96/163 73/97/164 72/95/162
f 63/96/163 64/98/165 74/99/166 73/97/164
f 64/98/165 65/100/167 75/101/168 74/99/166
f 65/100/167 66/102/169 76/103/170 75/101/168
f 66/102/169 67/104/171 77/105/172 76/103/170
f 67/104/171 68/106/173 78/107/174 77/105/172
f 68/106/173 59/108/155 69/109/158 78/107/174
s 13
f 60/110/175 59/111/176 79/112/177
f 61/113/178 60/110/175 79/112/177
f 62/114/179 61/113/178 79/112/177
f 63/115/180 62/114/179 79/112/177
f 64/116/181 63/115/180 79/112/177
f 65/117/182 64/116/181 79/112/177
f 66/118/183 65/117/182 79/112/177
f 67/119/184 66/118/183 79/112/177
f 68/120/185 67/119/184 79/112/177
f 59/111/176 68/120/185 79/112/177
s 14
f 69/121/186 70/122/187 80/123/188
f 70/122/187 71/124/189 80/123/188
f 71/124/189 72/125/190 80/123/188
f 72/125/190 73/126/191 80/123/188
f 73/126/191 74/127/192 80/123/188
f 74/127/192 75/128/193 80/123/188
f 75/128/193 76/129/194 80/123/188
f 76/129/194 77/130/195 80/123/188
f 77/130/195 78/131/196 80/123/188
f 78/131/196 69/121/186 80/123/188
s 15
f 81/132/197 91/133/198 92/134/199 82/135/200
f 82/135/200 92/134/199 93/136/201 83/137/202
f 83/137/202 93/136/201 94/138/203 84/139/204
f 84/139/204 94/138/203 95/140/205 85/141/206
f 85/141/206 95/140/205 96/142/207 86/143/208
f 86/143/208 96/142/207 97/144/209 87/145/210
f 87/145/210 97/144/209 98/146/211 88/147/212
f 88/147/212 98/146/211 99/148/213 89/149/214
f 89/149/214 99/148/213 100/150/215 90/151/216
f 90/151/216 100/150/215 91/152/198 81/153/197
s 16
f 82/154/217 101/155/218 81/156/219
f 83/157/220 101/155/218 82/154/217
f 84/158/221 101/155/218 83/157/220
f 85/159/222 101/155/218 84/158/221
f 86/160/223 101/155/218 85/159/222
f 87/161/224 101/155/218 86/160/223
f 88/162/225 101/155/218 87/161/224
f 89/163/226 101/155/218 88/162/225
f 90/164/227 101/155/218 89/163/226
f 81/156/219 101/155/218 90/164/227
s 17
f 91/165/228 102/166/229 92/167/230
f 92/167/230 102/166/229 93/168/231
f 93/168/231 102/166/229 94/169/232
f 94/169/232 102/166/229 95/170/233
f 95/170/233 102/166/229 96/171/234
f 96/171/234 102/166/229 97/172/235
f 97/172/235 102/166/229 98/173/236
f 98/173/236 102/166/229 99/174/237
f 99/174/237 102/166/229 100/175/238
f 100/175/238 102/166/229 91/165/228
