# This file uses centimeters as units for non-parametric coordinates.

mtllib waterplane_low_Whole_Crater.mtl
g default
v -400.000000 -0.000065 400.000000
v 400.000000 -0.000065 400.000000
v -400.000000 0.000065 -400.000000
v 400.000000 0.000065 -400.000000
v 0.000000 -0.000065 400.000000
v 400.000000 0.000000 0.000000
v 0.000000 0.000065 -400.000000
v -400.000000 0.000000 0.000000
v 332.720215 0.000000 0.000000
v 0.000000 -0.000052 320.000000
v 0.000000 0.000052 -320.000000
v -320.000000 0.000000 0.000000
v 227.490280 -0.000035 225.671921
v 231.328262 0.000035 -231.593918
v -223.677841 0.000033 -205.178223
v -212.505325 -0.000035 213.022842
v 117.636475 -0.000048 296.332123
v 307.463776 -0.000019 127.304657
v 305.145172 0.000019 -128.855255
v 129.105209 0.000048 -313.783203
v -124.062286 0.000047 -286.819702
v -298.417908 0.000018 -111.238152
v -288.877747 -0.000019 117.619591
v -117.282707 -0.000047 289.202698
vt 0.398406 0.398406
vt 47.085335 46.956478
vt 28.068295 70.712250
vt 70.796143 27.987381
vt 20.318729 100.000000
vt 0.398406 100.000000
vt 100.000000 0.398406
vt 100.000000 20.318729
vt 25.692753 127.698730
vt 0.398406 199.601593
vt 199.601593 0.398406
vt 129.291962 26.212112
vt 44.303329 151.090210
vt 156.645981 43.806786
vt 69.108002 171.419235
vt 176.559692 68.300636
vt 100.000000 179.681259
vt 100.000000 199.601593
vt 199.601593 100.000000
vt 182.848663 100.000000
vt 132.147705 178.133255
vt 199.601593 199.601593
vt 175.982361 132.085449
vt 157.601654 157.667816
vn 0.000000 1.000000 0.000000
vn 0.000000 1.000000 0.000000
vn 0.000000 1.000000 0.000000
vn 0.000000 1.000000 0.000000
vn -0.000000 1.000000 0.000000
vn -0.000000 1.000000 0.000000
vn -0.000000 1.000000 0.000000
vn -0.000000 1.000000 0.000000
vn -0.000000 1.000000 0.000000
vn 0.000000 1.000000 0.000000
vn -0.000000 1.000000 0.000000
vn 0.000000 1.000000 0.000000
vn 0.000000 1.000000 0.000000
vn -0.000000 1.000000 0.000000
vn -0.000000 1.000000 0.000000
vn 0.000000 1.000000 0.000000
vn 0.000000 1.000000 0.000000
vn 0.000000 1.000000 0.000000
vn 0.000000 1.000000 0.000000
vn 0.000000 1.000000 0.000000
vn 0.000000 1.000000 0.000000
vn 0.000000 1.000000 0.000000
vn -0.000000 1.000000 0.000000
vn 0.000000 1.000000 0.000000
s 1
g waterplane_low:Mesh
usemtl waterplane_low:initialShadingGroup
f 1/1/1 16/2/2 23/3/3
f 2/11/4 13/14/5 17/12/6
f 19/23/7 4/22/8 14/24/9
f 12/5/10 22/9/11 3/10/12 8/6/13
f 2/11/4 17/12/6 10/8/14 5/7/15
f 2/11/4 6/19/16 9/20/17 18/16/18
f 2/11/4 18/16/18 13/14/5
f 6/19/16 4/22/8 19/23/7 9/20/17
f 20/21/19 4/22/8 7/18/20 11/17/21
f 14/24/9 4/22/8 20/21/19
f 3/10/12 21/15/22 11/17/21 7/18/20
f 3/10/12 15/13/23 21/15/22
f 3/10/12 22/9/11 15/13/23
f 1/1/1 23/3/3 12/5/10 8/6/13
f 5/7/15 10/8/14 24/4/24 1/1/1
f 1/1/1 24/4/24 16/2/2
