# Blender v3.2.1 OBJ File: ''
# www.blender.org
mtllib waterplane_low.mtl
o waterplane_low
v -400.000000 -0.000065 400.000000
v -256.000000 -0.000065 400.000000
v -160.000000 -0.000065 400.000000
v -64.000000 -0.000065 400.000000
v 40.000000 -0.000065 400.000000
v 160.000000 -0.000065 400.000000
v 288.000000 -0.000065 400.000000
v 400.000000 -0.000065 400.000000
v -192.000000 -0.000057 352.000000
v 44.500000 -0.000052 317.500000
v 156.000000 -0.000057 352.000000
v 340.000000 -0.000052 320.000000
v -400.000000 -0.000052 320.000000
v -291.250000 -0.000053 322.750000
v 244.000000 -0.000056 344.000000
v -352.000000 -0.000042 260.000000
v -71.750000 -0.000051 315.250000
v 400.000000 -0.000042 256.000000
v -400.000000 -0.000038 232.000000
v 360.000000 -0.000033 204.000000
v -400.000000 -0.000020 124.000000
v -292.687500 -0.000030 183.796875
v 400.000000 -0.000026 160.000000
v 278.000000 -0.000020 123.000000
v 352.000000 -0.000016 96.000000
v -352.000000 -0.000010 64.000000
v 400.000000 -0.000010 64.000000
v -400.000000 0.000004 -24.000000
v 352.000000 0.000001 -8.000000
v -352.000000 0.000005 -32.000000
v 400.000000 0.000009 -56.000000
v -400.000000 0.000020 -120.000000
v -352.000000 0.000018 -112.000000
v 400.000000 0.000025 -152.000000
v 319.625000 0.000020 -125.000000
v -400.000000 0.000037 -228.000000
v -318.875000 0.000033 -205.250000
v 93.187500 0.000032 -196.629150
v 346.000000 0.000040 -248.000000
v 400.000000 0.000042 -256.000000
v -133.492188 0.000042 -256.609375
v -348.000000 0.000052 -320.000000
v 3.906250 0.000044 -269.140625
v -244.500000 0.000051 -314.812500
v 254.500000 0.000049 -302.250000
v -400.000000 0.000065 -400.000000
v -148.000000 0.000059 -360.000000
v -28.000000 0.000057 -352.000000
v 156.000000 0.000057 -352.000000
v 348.000000 0.000057 -352.000000
v -284.000000 0.000065 -400.000000
v -152.000000 0.000065 -400.000000
v -32.000000 0.000065 -400.000000
v 96.000000 0.000065 -400.000000
v 224.000000 0.000065 -400.000000
v 320.000000 0.000065 -400.000000
v 400.000000 0.000065 -400.000000
v 129.388672 -0.000038 232.117188
v 226.062500 -0.000042 254.906250
v -207.981201 -0.000020 125.681641
v -267.734375 -0.000007 43.015625
v -247.994141 0.000013 -81.122070
v 254.728516 0.000004 -26.566406
v -8.886963 0.000027 -164.383545
v 277.875000 0.000034 -209.250000
v 135.250000 0.000044 -268.500000
v 8.713867 -0.000032 198.153320
v -189.593750 -0.000041 253.093750
v -77.562500 -0.000030 183.976562
v 194.150391 -0.000018 113.541992
v -178.384277 -0.000004 26.293457
v 143.789062 0.000012 -72.385742
v -212.500000 0.000033 -204.625000
v -57.889648 0.000036 -221.849609
v 193.118164 0.000027 -167.684570
v -92.186035 -0.000016 97.527344
v 74.373047 -0.000014 86.501953
v -60.639648 0.000001 -3.236328
v 117.060547 -0.000000 1.161133
v -134.353027 0.000025 -153.851562
v 105.393555 -0.000025 155.547852
v 0.069336 -0.000007 45.295898
v -117.587891 0.000012 -73.792969
v 24.735840 0.000013 -79.791016
vt 60.000000 0.000000
vt 52.000000 12.000000
vt 36.000000 0.000000
vt 200.000000 0.000000
vt 185.000000 20.000000
vt 172.000000 0.000000
vt 27.187500 19.312500
vt 12.000000 35.000000
vt 0.000000 0.000000
vt 84.000000 0.000000
vt 82.062500 21.187500
vt 161.000000 14.000000
vt 156.515625 36.273438
vt 139.000000 12.000000
vt 0.000000 42.000000
vt 0.000000 20.000000
vt 200.000000 36.000000
vt 190.000000 49.000000
vt 169.500000 69.250000
vt 200.000000 60.000000
vt 188.000000 76.000000
vt 163.682129 106.641602
vt 12.000000 84.000000
vt 0.000000 106.000000
vt 0.000000 69.000000
vt 200.000000 84.000000
vt 188.000000 102.000000
vt 38.001465 120.280518
vt 12.000000 128.000000
vt 12.000000 108.000000
vt 179.906250 131.250000
vt 200.000000 114.000000
vt 200.000000 164.000000
vt 186.500000 162.000000
vt 163.625000 175.562500
vt 169.468750 152.312500
vt 13.000000 180.000000
vt 0.000000 200.000000
vt 0.000000 157.000000
vt 100.976562 167.285156
vt 93.000000 188.000000
vt 66.626953 164.152344
vt 139.000000 188.000000
vt 133.812500 167.125000
vt 63.000000 190.000000
vt 38.875000 178.703125
vt 29.000000 200.000000
vt 124.000000 200.000000
vt 156.000000 200.000000
vt 80.609375 54.005859
vt 52.601562 36.726562
vt 102.178467 50.461670
vt 111.125000 20.625000
vt 132.347168 41.970703
vt 148.537598 71.614502
vt 55.403931 93.426636
vt 33.066406 89.246094
vt 48.004700 68.579590
vt 148.279541 141.921143
vt 46.875000 151.156250
vt 20.281250 151.312500
vt 70.603027 118.448242
vt 66.411743 138.462891
vt 85.527588 155.462402
vt 123.296875 149.157288
vt 126.348389 61.113037
vt 76.953491 75.618164
vt 118.593262 78.374512
vt 100.017334 88.676025
vt 129.265137 99.709717
vt 84.840088 100.809082
vt 106.183960 119.947754
vt 135.947266 118.096436
vt 97.778259 141.095886
vt 110.000000 0.000000
vt 140.000000 0.000000
vt 26.828125 54.050781
vt 0.000000 130.000000
vt 200.000000 138.000000
vt 187.000000 188.000000
vt 200.000000 200.000000
vt 62.000000 200.000000
vt 92.000000 200.000000
vt 180.000000 200.000000
vn 0.0000 1.0000 0.0000
usemtl None
s 1
f 3/1/1 9/2/1 2/3/1
f 8/4/1 12/5/1 7/6/1
f 14/7/1 16/8/1 1/9/1
f 9/2/1 3/1/1 4/10/1 17/11/1
f 15/12/1 59/13/1 11/14/1
f 12/5/1 59/13/1 15/12/1
f 16/8/1 19/15/1 13/16/1
f 18/17/1 20/18/1 12/5/1
f 20/18/1 24/19/1 59/13/1
f 23/20/1 25/21/1 20/18/1
f 25/21/1 63/22/1 24/19/1
f 26/23/1 28/24/1 21/25/1
f 27/26/1 29/27/1 25/21/1
f 62/28/1 33/29/1 30/30/1
f 29/27/1 35/31/1 63/22/1
f 31/32/1 35/31/1 29/27/1
f 40/33/1 39/34/1 35/31/1
f 39/34/1 45/35/1 65/36/1
f 42/37/1 46/38/1 36/39/1
f 43/40/1 48/41/1 41/42/1
f 45/35/1 49/43/1 66/44/1
f 48/41/1 47/45/1 41/42/1
f 44/46/1 51/47/1 42/37/1
f 49/43/1 54/48/1 48/41/1
f 45/35/1 55/49/1 49/43/1
f 17/11/1 69/50/1 68/51/1
f 17/11/1 67/52/1 69/50/1
f 67/52/1 17/11/1 10/53/1
f 67/52/1 10/53/1 58/54/1
f 59/13/1 24/19/1 70/55/1
f 71/56/1 61/57/1 60/58/1
f 63/22/1 35/31/1 75/59/1
f 73/60/1 37/61/1 62/28/1
f 44/46/1 73/60/1 41/42/1
f 65/36/1 45/35/1 75/59/1
f 60/58/1 68/51/1 69/50/1
f 70/55/1 58/54/1 59/13/1
f 61/57/1 71/56/1 62/28/1
f 62/28/1 71/56/1 83/62/1
f 80/63/1 41/42/1 73/60/1
f 74/64/1 41/42/1 80/63/1
f 75/59/1 66/44/1 38/65/1
f 67/52/1 58/54/1 81/66/1
f 69/50/1 76/67/1 60/58/1
f 69/50/1 67/52/1 76/67/1
f 67/52/1 81/66/1 77/68/1
f 70/55/1 81/66/1 58/54/1
f 76/67/1 77/68/1 82/69/1
f 70/55/1 77/68/1 81/66/1
f 60/58/1 76/67/1 71/56/1
f 70/55/1 79/70/1 77/68/1
f 71/56/1 76/67/1 78/71/1
f 82/69/1 77/68/1 79/70/1
f 78/71/1 83/62/1 71/56/1
f 84/72/1 78/71/1 82/69/1
f 79/70/1 63/22/1 72/73/1
f 62/28/1 83/62/1 80/63/1
f 64/74/1 80/63/1 83/62/1
f 64/74/1 74/64/1 80/63/1
f 2/3/1 14/7/1 1/9/1
f 2/3/1 9/2/1 14/7/1
f 17/11/1 4/10/1 5/75/1 10/53/1
f 10/53/1 5/75/1 6/76/1 11/14/1
f 11/14/1 6/76/1 7/6/1 15/12/1
f 21/25/1 19/15/1 16/8/1 22/77/1
f 7/6/1 12/5/1 15/12/1
f 1/9/1 16/8/1 13/16/1
f 9/2/1 68/51/1 14/7/1
f 9/2/1 17/11/1 68/51/1
f 11/14/1 58/54/1 10/53/1
f 11/14/1 59/13/1 58/54/1
f 8/4/1 18/17/1 12/5/1
f 14/7/1 22/77/1 16/8/1
f 12/5/1 20/18/1 59/13/1
f 30/30/1 26/23/1 61/57/1 62/28/1
f 18/17/1 23/20/1 20/18/1
f 20/18/1 25/21/1 24/19/1
f 22/77/1 26/23/1 21/25/1
f 23/20/1 27/26/1 25/21/1
f 22/77/1 61/57/1 26/23/1
f 25/21/1 29/27/1 63/22/1
f 26/23/1 30/30/1 28/24/1
f 32/78/1 28/24/1 30/30/1 33/29/1
f 27/26/1 31/32/1 29/27/1
f 36/39/1 32/78/1 33/29/1 37/61/1
f 31/32/1 34/79/1 35/31/1
f 62/28/1 37/61/1 33/29/1
f 48/41/1 43/40/1 66/44/1 49/43/1
f 35/31/1 39/34/1 65/36/1
f 34/79/1 40/33/1 35/31/1
f 37/61/1 42/37/1 36/39/1
f 37/61/1 44/46/1 42/37/1
f 41/42/1 47/45/1 44/46/1
f 50/80/1 39/34/1 40/33/1 57/81/1
f 39/34/1 50/80/1 45/35/1
f 51/47/1 44/46/1 47/45/1 52/82/1
f 42/37/1 51/47/1 46/38/1
f 52/82/1 47/45/1 48/41/1 53/83/1
f 55/49/1 45/35/1 50/80/1 56/84/1
f 48/41/1 54/48/1 53/83/1
f 49/43/1 55/49/1 54/48/1
f 50/80/1 57/81/1 56/84/1
f 14/7/1 68/51/1 22/77/1
f 61/57/1 22/77/1 60/58/1
f 24/19/1 63/22/1 70/55/1
f 35/31/1 65/36/1 75/59/1
f 73/60/1 44/46/1 37/61/1
f 74/64/1 43/40/1 41/42/1
f 38/65/1 66/44/1 43/40/1
f 75/59/1 45/35/1 66/44/1
f 22/77/1 68/51/1 60/58/1
f 70/55/1 63/22/1 79/70/1
f 72/73/1 63/22/1 75/59/1
f 73/60/1 62/28/1 80/63/1
f 74/64/1 64/74/1 43/40/1
f 64/74/1 38/65/1 43/40/1
f 77/68/1 76/67/1 67/52/1
f 78/71/1 76/67/1 82/69/1
f 82/69/1 79/70/1 84/72/1
f 83/62/1 78/71/1 84/72/1
f 79/70/1 72/73/1 84/72/1
f 84/72/1 72/73/1 64/74/1
f 84/72/1 64/74/1 83/62/1
f 64/74/1 72/73/1 75/59/1
f 38/65/1 64/74/1 75/59/1
