# This file uses centimeters as units for non-parametric coordinates.

mtllib waterplane_low_Whole_Collision.mtl
g default
v -400.000000 -0.000065 400.000000
v -12.000000 -0.000065 400.000000
v 400.000000 -0.000065 400.000000
v 400.000000 -0.000000 4.000000
v -400.000000 0.000004 -24.000000
v 400.000000 0.000065 -400.000000
v -400.000000 0.000065 -400.000000
v -8.886963 0.000027 -164.383545
v -32.000000 0.000065 -400.000000
v 8.713867 -0.000032 198.153320
v 117.060547 0.000000 1.161133
v -92.186035 -0.000016 97.527344
v 24.735840 0.000013 -79.791016
v -134.353027 0.000025 -153.851563
v 8.713867 -306.452484 198.153320
v -92.186035 -306.452484 97.527344
v 117.060547 -306.452454 1.161133
v -134.353027 -306.452423 -153.851563
v -8.886963 -306.452423 -164.383545
v 24.735840 -306.452454 -79.791016
v -97.135979 -7.005246 100.082207
v -400.000000 -8.949997 -24.000000
v -400.000000 -8.950065 400.000000
v 121.277443 -7.859427 0.419702
v 9.161721 -8.371531 201.287003
v 400.000000 -8.950065 400.000000
v -12.000000 -8.950065 400.000000
v 400.000000 -8.950001 3.999999
v 400.000000 -8.949935 -400.000000
v -6.550246 -7.771558 -168.157761
v -32.000000 -8.949935 -400.000000
v 30.241854 -5.889201 -83.677338
v 9.474926 -306.452484 203.478516
v -99.759369 -306.452484 101.436249
v 123.931877 -306.452454 -0.047010
v -139.140701 -306.452423 -157.570572
v -5.102737 -306.452423 -170.495758
v -137.220230 -8.180510 -156.078781
v 31.844669 -306.452454 -84.808655
v -400.000000 -8.949936 -400.000000
vn 0.003356 -0.999993 -0.001572
vn 0.003389 -0.999990 -0.003063
vn 0.004939 -0.999988 0.000735
vn -0.002306 -0.999985 -0.005053
vn -0.001740 -0.999997 -0.001561
vn -0.001627 -0.999994 -0.002934
vn -0.000292 -0.999988 -0.004868
vn -0.006207 -0.999981 -0.000261
vn 0.003115 -0.999953 0.009207
vn 0.000211 -0.999991 0.004304
vn -0.005310 -0.999983 0.002207
vn -0.003756 -0.999986 0.003862
vn -0.686029 0.006969 0.727541
vn -0.686029 0.006969 0.727541
vn -0.686029 0.006969 0.727541
vn -0.686029 0.006969 0.727541
vn 0.872385 0.005752 0.488786
vn 0.872385 0.005752 0.488786
vn 0.872385 0.005752 0.488786
vn 0.872385 0.005752 0.488786
vn -0.094049 0.006462 -0.995547
vn -0.094049 0.006462 -0.995547
vn -0.094049 0.006462 -0.995547
vn -0.094049 0.006462 -0.995547
vn 0.797053 0.007009 -0.603868
vn 0.796874 0.007009 -0.604105
vn 0.677919 0.006778 -0.735106
vn 0.677919 0.006778 -0.735106
vn 0.917505 0.006973 -0.397664
vn 0.917505 0.006973 -0.397664
vn 0.002572 -0.999994 0.002404
vn 0.001603 -0.999998 0.001427
vn -0.988286 0.007478 0.152428
vn -0.988286 0.007478 0.152428
vn -0.988286 0.007478 0.152428
vn -0.988286 0.007478 0.152428
vn 0.000000 1.000000 0.000000
vn 0.000000 1.000000 0.000000
vn 0.000000 1.000000 0.000000
vn 0.000000 1.000000 0.000000
vn -0.000000 1.000000 0.000000
vn 0.000000 1.000000 0.000000
vn -0.000000 1.000000 0.000000
vn -0.000000 1.000000 0.000000
vn 0.000000 1.000000 0.000000
vn -0.000000 1.000000 0.000000
vn -0.000000 1.000000 0.000000
vn 0.000000 1.000000 0.000000
vn 0.706145 0.000000 -0.708067
vn 0.706145 0.000000 -0.708067
vn 0.706145 0.000000 -0.708067
vn 0.706145 0.000000 -0.708067
vn -0.876214 -0.000000 -0.481922
vn -0.876214 -0.000000 -0.481922
vn -0.876214 -0.000000 -0.481922
vn -0.876214 -0.000000 -0.481922
vn 0.083649 0.000000 0.996495
vn 0.083649 0.000000 0.996495
vn 0.083649 0.000000 0.996495
vn 0.083649 0.000000 0.996495
vn -0.795853 0.000000 0.605490
vn -0.659279 0.000000 0.751898
vn -0.659279 0.000000 0.751898
vn -0.795853 0.000000 0.605490
vn -0.929286 0.000000 0.369361
vn -0.929286 0.000000 0.369361
vn 0.000000 1.000000 0.000000
vn 0.000000 1.000000 0.000000
vn 0.986221 0.000000 -0.165431
vn 0.986221 0.000000 -0.165431
vn 0.986221 0.000000 -0.165431
vn 0.986221 0.000000 -0.165431
vn -1.000000 0.000000 0.000000
vn -1.000000 0.000000 0.000000
vn -1.000000 0.000000 0.000000
vn -1.000000 0.000000 0.000000
vn 0.000000 0.000000 1.000000
vn 0.000000 0.000000 1.000000
vn 0.000000 0.000000 1.000000
vn 0.000000 0.000000 1.000000
vn 1.000000 0.000000 0.000000
vn 1.000000 0.000000 0.000000
vn 1.000000 0.000000 0.000000
vn 1.000000 0.000000 0.000000
vn 0.000000 0.000000 -1.000000
vn 0.000000 0.000000 -1.000000
vn -0.000000 0.000000 -1.000000
vn -0.000000 0.000000 -1.000000
vn 1.000000 0.000000 0.000000
vn 1.000000 0.000000 0.000000
vn 0.000000 -1.000000 -0.000001
vn 0.000000 -1.000000 -0.000001
vn -0.000000 -1.000000 -0.000001
vn -0.000000 -1.000000 -0.000001
vn 0.000000 -1.000000 -0.000001
vn 0.000000 -1.000000 -0.000001
vn -0.000000 -1.000000 -0.000000
vn -0.000000 -1.000000 -0.000000
vn -0.000000 -1.000000 0.000000
vn -0.000000 -1.000000 0.000000
vn -0.000000 -1.000000 -0.000001
vn -0.000000 -1.000000 -0.000001
vn -0.000000 0.000000 -1.000000
vn -0.000000 0.000000 -1.000000
vn -1.000000 0.000000 0.000000
vn -1.000000 0.000000 0.000000
vn 0.000000 0.000000 1.000000
vn 0.000000 0.000000 1.000000
s 1
g WaterPlaneCollision
usemtl lambert2SG
f 21//1 23//2 22//3
f 24//4 26//5 25//6
f 21//1 25//6 27//7
f 26//5 27//7 25//6
f 26//5 24//4 28//8
f 30//9 31//10 29//11
f 32//12 29//11 28//8
s off
f 25//13 21//14 34//15 33//16
f 35//17 24//18 25//19 33//20
f 36//21 38//22 30//23 37//24
s 4
f 39//25 32//26 24//27 35//28
f 37//29 30//30 32//26 39//25
s 1
f 38//31 31//10 30//9
f 38//31 40//32 31//10
f 40//32 38//31 22//3
f 22//3 38//31 21//1
f 27//7 23//2 21//1
f 24//4 32//12 28//8
f 30//9 29//11 32//12
s off
f 38//33 36//34 34//35 21//36
s 5
f 12//37 5//38 1//39
f 11//40 10//41 3//42
f 12//37 2//43 10//41
f 3//42 10//41 2//43
f 3//42 4//44 11//40
f 8//45 6//46 9//47
f 13//48 4//44 6//46
s off
f 10//49 15//50 16//51 12//52
f 17//53 15//54 10//55 11//56
f 18//57 19//58 8//59 14//60
s 8
f 20//61 17//62 11//63 13//64
f 19//65 20//61 13//64 8//66
s 5
f 14//67 8//45 9//47
f 14//67 9//47 7//68
f 7//68 5//38 14//67
f 5//38 12//37 14//67
f 2//43 12//37 1//39
f 11//40 4//44 13//48
f 8//45 13//48 6//46
s off
f 14//69 12//70 16//71 18//72
s 9
f 5//73 22//74 23//75 1//76
s 10
f 2//77 27//78 26//79 3//80
s 11
f 3//81 26//82 28//83 4//84
s 12
f 6//85 29//86 31//87 9//88
s 11
f 4//84 28//83 29//89 6//90
s 13
f 15//91 33//92 34//93 16//94
f 17//95 35//96 33//92 15//91
f 18//97 36//98 37//99 19//100
f 20//101 39//102 35//96 17//95
f 19//100 37//99 39//102 20//101
s 12
f 9//88 31//87 40//103 7//104
s 9
f 7//105 40//106 22//74 5//73
s 10
f 1//107 23//108 27//78 2//77
s 13
f 16//94 34//93 36//98 18//97
