# This file uses centimeters as units for non-parametric coordinates.

mtllib waterplane_low_Whole_Crater.mtl
g default
v -4000.000000 -0.000650 4000.000000
v 4000.000000 -0.000650 4000.000000
v -4000.000000 0.000650 -4000.000000
v 4000.000000 0.000650 -4000.000000
v 0.000000 -0.000650 4000.000000
v 4000.000000 0.000000 0.000000
v 0.000000 0.000650 -4000.000000
v -4000.000000 0.000000 0.000000
v 3327.202148 0.000000 0.000000
v 0.000000 -0.000520 3200.000000
v 0.000000 0.000520 -3200.000000
v -3200.000000 0.000000 0.000000
v 2274.902832 -0.000350 2256.719238
v 2313.282715 0.000350 -2315.939209
v -2236.778320 0.000330 -2051.782227
v -2125.053223 -0.000350 2130.228516
v 1176.364746 -0.000480 2963.321045
v 3074.637939 -0.000190 1273.046631
v 3051.451904 0.000190 -1288.552490
v 1291.052124 0.000480 -3137.832031
v -1240.622803 0.000470 -2868.197266
v -2984.179199 0.000180 -1112.381470
v -2888.777344 -0.000190 1176.195923
v -1172.827026 -0.000470 2892.026855
vt 0.398406 0.398406
vt 47.085335 46.956478
vt 28.068295 70.712250
vt 199.601593 0.398406
vt 156.645981 43.806786
vt 129.291962 26.212112
vt 175.982361 132.085449
vt 199.601593 199.601593
vt 157.601654 157.667816
vt 20.318729 100.000000
vt 25.692753 127.698730
vt 0.398406 199.601593
vt 0.398406 100.000000
vt 100.000000 20.318729
vt 100.000000 0.398406
vt 199.601593 100.000000
vt 182.848663 100.000000
vt 176.559692 68.300636
vt 132.147705 178.133255
vt 100.000000 199.601593
vt 100.000000 179.681259
vt 69.108002 171.419235
vt 44.303329 151.090210
vt 70.796143 27.987381
vn 0.000000 1.000000 0.000000
vn 0.000000 1.000000 0.000000
vn 0.000000 1.000000 0.000000
vn 0.000000 1.000000 0.000000
vn 0.000000 1.000000 0.000000
vn 0.000000 1.000000 0.000000
vn 0.000000 1.000000 0.000000
vn 0.000000 1.000000 0.000000
vn 0.000000 1.000000 0.000000
vn 0.000000 1.000000 0.000000
vn 0.000000 1.000000 0.000000
vn 0.000000 1.000000 0.000000
vn 0.000000 1.000000 0.000000
vn 0.000000 1.000000 0.000000
vn 0.000000 1.000000 0.000000
vn 0.000000 1.000000 0.000000
vn 0.000000 1.000000 0.000000
vn 0.000000 1.000000 0.000000
vn 0.000000 1.000000 0.000000
vn 0.000000 1.000000 0.000000
vn 0.000000 1.000000 0.000000
vn 0.000000 1.000000 0.000000
vn 0.000000 1.000000 0.000000
vn 0.000000 1.000000 0.000000
vn 0.000000 1.000000 0.000000
vn 0.000000 1.000000 0.000000
vn 0.000000 1.000000 0.000000
vn 0.000000 1.000000 0.000000
vn 0.000000 1.000000 0.000000
vn 0.000000 1.000000 0.000000
vn 0.000000 1.000000 0.000000
vn 0.000000 1.000000 0.000000
vn 0.000000 1.000000 0.000000
vn 0.000000 1.000000 0.000000
vn 0.000000 1.000000 0.000000
vn 0.000000 1.000000 0.000000
vn 0.000000 1.000000 0.000000
vn 0.000000 1.000000 0.000000
vn 0.000000 1.000000 0.000000
vn 0.000000 1.000000 0.000000
vn 0.000000 1.000000 0.000000
vn 0.000000 1.000000 0.000000
vn 0.000000 1.000000 0.000000
vn 0.000000 1.000000 0.000000
vn 0.000000 1.000000 0.000000
vn 0.000000 1.000000 0.000000
vn 0.000000 1.000000 0.000000
vn 0.000000 1.000000 0.000000
vn 0.000000 1.000000 0.000000
vn 0.000000 1.000000 0.000000
vn 0.000000 1.000000 0.000000
vn 0.000000 1.000000 0.000000
vn 0.000000 1.000000 0.000000
vn 0.000000 1.000000 0.000000
vn 0.000000 1.000000 0.000000
vn 0.000000 1.000000 0.000000
s off
g waterplane_low_Whole_Crater:Mesh
usemtl waterplane_low_Whole_Crater:initialShadingGroup
f 1/1/1 16/2/2 23/3/3
f 2/4/4 13/5/5 17/6/6
f 19/7/7 4/8/8 14/9/9
f 12/10/10 22/11/11 3/12/12 8/13/13
f 2/4/14 17/6/15 10/14/16 5/15/17
f 2/4/18 6/16/19 9/17/20 18/18/21
f 2/4/22 18/18/23 13/5/24
f 6/16/25 4/8/26 19/7/27 9/17/28
f 20/19/29 4/8/30 7/20/31 11/21/32
f 14/9/33 4/8/34 20/19/35
f 3/12/36 21/22/37 11/21/38 7/20/39
f 3/12/40 15/23/41 21/22/42
f 3/12/43 22/11/44 15/23/45
f 1/1/46 23/3/47 12/10/48 8/13/49
f 5/15/50 10/14/51 24/24/52 1/1/53
f 1/1/54 24/24/55 16/2/56
