# This file uses centimeters as units for non-parametric coordinates.

mtllib waterplane_low.mtl
g default
v -4000.000000 -0.000650 4000.000000
v 4000.000000 -0.000650 4000.000000
v -4000.000000 0.000650 -4000.000000
v 4000.000000 0.000650 -4000.000000
vt 200.000000 200.000000
vt 0.000000 200.000000
vt 200.000000 0.000000
vt 0.000000 0.000000
vn 0.000000 1.000000 0.000000
vn 0.000000 1.000000 0.000000
vn 0.000000 1.000000 0.000000
vn 0.000000 1.000000 0.000000
vn 0.000000 1.000000 0.000000
vn 0.000000 1.000000 0.000000
s off
g waterplane_low:Mesh
usemtl initialShadingGroup
f 4/1/1 3/2/2 2/3/3
f 2/3/4 3/2/5 1/4/6
