# This file uses centimeters as units for non-parametric coordinates.

mtllib waterplane_low_Whole.mtl
g default
v -400.000000 -0.000065 400.000000
v -12.000000 -0.000065 400.000000
v 400.000000 -0.000065 400.000000
v 400.000000 -0.000000 4.000000
v -400.000000 0.000004 -24.000000
v 400.000000 0.000065 -400.000000
v -400.000000 0.000065 -400.000000
v -8.886963 0.000027 -164.383545
v -32.000000 0.000065 -400.000000
v 8.713867 -0.000032 198.153320
v 117.060547 0.000000 1.161133
v -92.186035 -0.000016 97.527344
v 24.735840 0.000013 -79.791016
v -134.353027 0.000025 -153.851563
vt 76.953491 75.618164
vt 0.000000 106.000000
vt 0.000000 0.000000
vt 129.265137 99.709717
vt 102.178467 50.461670
vt 200.000000 0.000000
vt 97.000000 0.000000
vt 200.000000 99.000000
vt 97.778259 141.095886
vt 200.000000 200.000000
vt 92.000000 200.000000
vt 106.183960 119.947754
vt 66.411743 138.462891
vt 0.000000 200.000000
vn 0.000000 1.000000 0.000000
vn 0.000000 1.000000 0.000000
vn 0.000000 1.000000 0.000000
vn 0.000000 1.000000 0.000000
vn 0.000000 1.000000 0.000000
vn 0.000000 1.000000 0.000000
vn 0.000000 1.000000 0.000000
vn 0.000000 1.000000 0.000000
vn 0.000000 1.000000 0.000000
vn 0.000000 1.000000 0.000000
vn 0.000000 1.000000 0.000000
vn 0.000000 1.000000 0.000000
vn 0.000000 1.000000 0.000000
vn 0.000000 1.000000 0.000000
s 1
g polySurface1 WaterPlane
usemtl blinn1SG
f 12/1/1 5/2/2 1/3/3
f 11/4/4 10/5/5 3/6/6
f 12/1/1 2/7/7 10/5/5
f 3/6/6 10/5/5 2/7/7
f 3/6/6 4/8/8 11/4/4
f 8/9/9 6/10/10 9/11/11
f 13/12/12 4/8/8 6/10/10
f 14/13/13 8/9/9 9/11/11
f 14/13/13 9/11/11 7/14/14
f 7/14/14 5/2/2 14/13/13
f 5/2/2 12/1/1 14/13/13
f 2/7/7 12/1/1 1/3/3
f 11/4/4 4/8/8 13/12/12
f 8/9/9 13/12/12 6/10/10
g default
v 8.713867 -306.452484 198.153320
v -92.186035 -306.452484 97.527344
v 117.060547 -306.452454 1.161133
v -134.353027 -306.452423 -153.851563
v -8.886963 -306.452423 -164.383545
v 24.735840 -306.452454 -79.791016
v -92.186035 -0.000016 97.527344
v 8.713867 -0.000032 198.153320
v 117.060547 0.000000 1.161133
v -8.886963 0.000027 -164.383545
v -134.353027 0.000025 -153.851563
v 24.735840 0.000013 -79.791016
vt -3.578238 -30.960812
vt -3.578238 32.783676
vt -33.219437 32.783676
vt -33.219437 -30.960812
vt 43.212742 32.783676
vt 43.212742 -30.960812
vt 113.878349 32.783676
vt 87.688637 32.783676
vt 87.688637 -30.960812
vt 113.878357 -30.960812
vt 68.753769 32.783676
vt 68.753769 -30.960812
vt -86.259003 -30.960812
vt -86.259003 32.783676
vn -0.066050 0.000000 -0.997816
vn -0.066050 0.000000 -0.997816
vn 0.706145 0.000000 -0.708067
vn 0.706145 0.000000 -0.708067
vn -0.876214 0.000000 -0.481922
vn -0.876214 0.000000 -0.481922
vn 0.640211 0.000000 0.768199
vn -0.422039 0.000000 0.906578
vn -0.422039 0.000000 0.906578
vn 0.640211 0.000000 0.768199
vn -0.795853 0.000000 0.605490
vn -0.795853 0.000000 0.605490
vn 0.989186 0.000000 -0.146668
vn 0.989186 0.000000 -0.146668
s 1
g WaterPlane polySurface2
usemtl lambert3SG
f 22/15/15 15/16/16 16/17/17 21/18/18
f 17/19/19 15/16/16 22/15/15 23/20/20
f 18/21/21 19/22/22 24/23/23 25/24/24
f 20/25/25 17/19/19 23/20/20 26/26/26
f 19/22/22 20/25/25 26/26/26 24/23/23
f 25/27/27 21/18/18 16/17/17 18/28/28
