# This file uses centimeters as units for non-parametric coordinates.

mtllib waterplane_low_Whole.mtl
g default
v 87.138672 -3064.524658 1981.533203
v -921.860352 -3064.524658 975.273438
v 1170.605469 -3064.524414 11.611330
v -1343.530273 -3064.524170 -1538.515625
v -88.869629 -3064.524170 -1643.835449
v 247.358398 -3064.524414 -797.910156
v -921.860352 -0.000160 975.273438
v 87.138672 -0.000320 1981.533203
v 1170.605469 0.000000 11.611330
v -88.869629 0.000270 -1643.835449
v -1343.530273 0.000250 -1538.515625
v 247.358398 0.000130 -797.910156
v -4000.000000 -0.000650 4000.000000
v -120.000000 -0.000650 4000.000000
v 4000.000000 -0.000650 4000.000000
v 4000.000000 0.000000 40.000000
v -4000.000000 0.000040 -240.000000
v 4000.000000 0.000650 -4000.000000
v -4000.000000 0.000650 -4000.000000
v -88.869629 0.000270 -1643.835449
v -320.000000 0.000650 -4000.000000
v 87.138672 -0.000320 1981.533203
v 1170.605469 0.000000 11.611330
v -921.860352 -0.000160 975.273438
v 247.358398 0.000130 -797.910156
v -1343.530273 0.000250 -1538.515625
vt -3.578238 -30.960812
vt -3.578238 32.783676
vt -33.219437 32.783676
vt -33.219437 -30.960812
vt 43.212742 32.783676
vt 43.212742 -30.960812
vt 113.878349 32.783676
vt 87.688637 32.783676
vt 87.688637 -30.960812
vt 113.878357 -30.960812
vt 68.753769 32.783676
vt 68.753769 -30.960812
vt -86.259003 -30.960812
vt -86.259003 32.783676
vt 76.953491 75.618164
vt 0.000000 106.000000
vt 0.000000 0.000000
vt 129.265137 99.709717
vt 102.178467 50.461670
vt 200.000000 0.000000
vt 97.000000 0.000000
vt 200.000000 99.000000
vt 97.778259 141.095886
vt 200.000000 200.000000
vt 92.000000 200.000000
vt 106.183960 119.947754
vt 66.411743 138.462891
vt 0.000000 200.000000
vn 0.706145 0.000000 -0.708067
vn 0.706145 0.000000 -0.708067
vn 0.706145 0.000000 -0.708067
vn 0.706145 0.000000 -0.708067
vn -0.876214 0.000000 -0.481922
vn -0.066050 0.000000 -0.997816
vn -0.066050 0.000000 -0.997816
vn -0.876214 0.000000 -0.481922
vn 0.640211 0.000000 0.768199
vn -0.422039 0.000000 0.906578
vn -0.422039 0.000000 0.906578
vn 0.640211 0.000000 0.768199
vn -0.795853 0.000000 0.605490
vn -0.876214 0.000000 -0.481922
vn -0.876214 0.000000 -0.481922
vn -0.795853 0.000000 0.605490
vn -0.422039 0.000000 0.906578
vn -0.795853 0.000000 0.605490
vn -0.795853 0.000000 0.605490
vn -0.422039 0.000000 0.906578
vn 0.989186 0.000000 -0.146668
vn 0.706145 0.000000 -0.708067
vn 0.706145 0.000000 -0.708067
vn 0.989186 0.000000 -0.146668
vn 0.000000 1.000000 0.000000
vn 0.000000 1.000000 0.000000
vn 0.000000 1.000000 0.000000
vn 0.000000 1.000000 0.000000
vn 0.000000 1.000000 0.000000
vn 0.000000 1.000000 0.000000
vn 0.000000 1.000000 0.000000
vn 0.000000 1.000000 0.000000
vn 0.000000 1.000000 0.000000
vn 0.000000 1.000000 0.000000
vn 0.000000 1.000000 0.000000
vn 0.000000 1.000000 0.000000
vn 0.000000 1.000000 0.000000
vn 0.000000 1.000000 0.000000
vn 0.000000 1.000000 0.000000
vn 0.000000 1.000000 0.000000
vn 0.000000 1.000000 0.000000
vn 0.000000 1.000000 0.000000
vn 0.000000 1.000000 0.000000
vn 0.000000 1.000000 0.000000
vn 0.000000 1.000000 0.000000
vn 0.000000 1.000000 0.000000
vn 0.000000 1.000000 0.000000
vn 0.000000 1.000000 0.000000
vn 0.000000 1.000000 0.000000
vn 0.000000 1.000000 0.000000
vn 0.000000 1.000000 0.000000
vn 0.000000 1.000000 0.000000
vn 0.000000 1.000000 0.000000
vn 0.000000 1.000000 0.000000
vn 0.000000 1.000000 0.000000
vn 0.000000 1.000000 0.000000
vn 0.000000 1.000000 0.000000
vn 0.000000 1.000000 0.000000
vn 0.000000 1.000000 0.000000
vn 0.000000 1.000000 0.000000
vn 0.000000 1.000000 0.000000
vn 0.000000 1.000000 0.000000
vn 0.000000 1.000000 0.000000
vn 0.000000 1.000000 0.000000
vn 0.000000 1.000000 0.000000
vn 0.000000 1.000000 0.000000
s off
g waterplane_low_Whole:WaterPlanepolySurface3
usemtl waterplane_low_Whole:initialShadingGroup
f 8/1/1 1/2/2 2/3/3 7/4/4
f 3/5/5 1/2/6 8/1/7 9/6/8
f 4/7/9 5/8/10 10/9/11 11/10/12
f 6/11/13 3/5/14 9/6/15 12/12/16
f 5/8/17 6/11/18 12/12/19 10/9/20
f 11/13/21 7/4/22 2/3/23 4/14/24
f 24/15/25 17/16/26 13/17/27
f 23/18/28 22/19/29 15/20/30
f 24/15/31 14/21/32 22/19/33
f 15/20/34 22/19/35 14/21/36
f 15/20/37 16/22/38 23/18/39
f 20/23/40 18/24/41 21/25/42
f 25/26/43 16/22/44 18/24/45
f 26/27/46 20/23/47 21/25/48
f 26/27/49 21/25/50 19/28/51
f 19/28/52 17/16/53 26/27/54
f 17/16/55 24/15/56 26/27/57
f 14/21/58 24/15/59 13/17/60
f 23/18/61 16/22/62 25/26/63
f 20/23/64 25/26/65 18/24/66
