# This file uses centimeters as units for non-parametric coordinates.

mtllib WholeTerain.mtl
g default
v 75.279114 -361.710175 1814.991821
v 1009.593750 -368.963501 44.393230
v 108.847069 -352.067139 -699.451294
v -170.850952 -360.123840 -1497.775879
v -1214.175171 -364.800446 -1434.674927
v -1021.334290 -357.931488 -804.319946
v -752.141724 -346.437927 999.245178
v 6.907960 -129.863388 -2618.377930
v -2092.791748 -129.863419 -2333.171387
v -1727.414673 -129.863617 -661.847534
v -1550.961060 -129.863876 1395.386719
v -508.289490 -129.864014 2548.505371
v -15.696020 -129.864059 2978.340576
v 715.106018 -129.864044 2809.901611
v 902.888855 -129.864014 2354.969727
v 2130.069824 -129.863693 -96.405182
v 1244.291626 -129.863571 -1048.084473
v 123.218018 -908.241394 2262.801514
v 1530.272095 -908.240967 -58.889992
v 615.111145 -908.240906 -1057.481567
v 106.895447 -908.240845 -1960.030884
v -1589.479980 -908.240845 -1721.755127
v -1582.607178 -908.240845 -545.081848
v -1199.388306 -908.241089 937.737061
v 80.409576 68.064529 1922.052979
v 93.794106 98.322899 2015.084961
v -866.148132 64.803093 976.386963
v -963.953613 90.968849 961.947449
v 1094.755615 63.143501 27.210167
v 1164.392212 96.575676 13.928670
v -1085.167358 50.298927 -781.947754
v -1134.265503 81.795601 -757.316284
v -1299.257935 66.811760 -1493.414551
v -1370.963501 97.390465 -1544.338867
v -128.620178 62.040512 -1575.669312
v -90.972870 92.850319 -1634.389893
v 142.126175 27.110743 -724.059326
v 193.350555 65.977005 -740.901123
v 455.478546 97.732597 1339.026123
v 425.825867 66.388741 1276.800293
v 462.778564 -362.019958 1125.641113
v 614.464539 -908.241211 1452.226563
v 542.372986 97.590782 1176.603760
v 516.160217 65.950485 1108.051880
v 492.980255 53.072273 1257.878540
v 510.544739 72.046768 1192.113281
v 476.035889 33.273239 1204.783691
v 494.942596 51.951290 1133.531616
v -556.630920 94.502014 -1601.629517
v -552.590027 63.768509 -1545.879150
v -602.043945 -362.500122 -1465.712036
v -677.166870 64.736809 -1529.185913
v -704.415771 95.427017 -1583.282593
v 103.408218 -889.476196 -1986.951782
v -1592.967285 -889.476196 -1748.675781
v -621.451599 70.928780 -1554.395508
v -638.099609 47.660744 -1559.496582
v -651.568420 64.983139 -1596.417969
v -624.004883 88.294434 -1595.918945
v 7.893650 -161.922241 -2610.615234
v -2091.806152 -161.922272 -2325.408447
vn 0.170669 -0.398550 -0.901127
vn -0.826147 -0.327553 -0.458466
vn -0.749744 -0.503204 -0.429733
vn 0.172327 -0.613027 -0.771039
vn -0.858051 -0.503851 0.099413
vn -0.714989 -0.440129 0.543210
vn -0.572738 -0.696991 0.431481
vn -0.701348 -0.707570 0.086344
vn -0.714989 -0.440129 0.543210
vn -0.680436 -0.492534 0.542602
vn -0.645869 -0.652147 0.396935
vn -0.572738 -0.696991 0.431481
vn -0.680436 -0.492534 0.542602
vn 0.093208 -0.377913 0.921137
vn -0.645869 -0.652147 0.396935
vn 0.823685 -0.490448 0.284611
vn 0.907840 -0.389502 -0.155288
vn 0.731482 -0.670402 -0.124481
vn 0.778134 -0.624560 0.066585
vn 0.907840 -0.389502 -0.155288
vn 0.829613 -0.328123 -0.451749
vn 0.716726 -0.630010 -0.298984
vn 0.731482 -0.670402 -0.124481
vn 0.829613 -0.328123 -0.451749
vn 0.170669 -0.398550 -0.901127
vn 0.172327 -0.613027 -0.771039
vn 0.716726 -0.630010 -0.298984
vn 0.149871 0.487635 -0.860088
vn -0.085321 0.981813 0.169601
vn 0.193651 0.981069 0.001930
vn -0.857098 0.182909 -0.481588
vn -0.085321 0.981813 0.169601
vn 0.149871 0.487635 -0.860088
vn 0.867123 0.351871 -0.352541
vn -0.240748 0.966317 0.090946
vn -0.240748 0.966317 0.090946
vn 0.867123 0.351871 -0.352541
vn 0.936351 0.306213 -0.171698
vn -0.276669 0.960043 0.042102
vn -0.923781 0.349673 0.156068
vn 0.194761 0.980839 -0.004726
vn 0.154355 0.981532 -0.112998
vn -0.775798 0.222662 0.590390
vn -0.276669 0.960043 0.042102
vn 0.936351 0.306213 -0.171698
vn 0.742877 0.492518 0.453387
vn -0.269775 0.962867 0.010386
vn -0.132713 0.970809 -0.199792
vn 0.057896 0.279235 0.958476
vn -0.676213 0.367898 0.638269
vn 0.180960 0.975492 -0.125179
vn 0.180960 0.975492 -0.125179
vn -0.676213 0.367898 0.638269
vn -0.775798 0.222662 0.590390
vn 0.154355 0.981532 -0.112998
vn -0.201471 0.959865 0.195114
vn -0.034903 0.973359 0.226613
vn -0.085321 0.981813 0.169601
vn -0.085321 0.981813 0.169601
vn -0.034903 0.973359 0.226613
vn 0.121221 0.975193 0.185213
vn -0.085321 0.981813 0.169601
vn 0.121221 0.975193 0.185213
vn 0.232717 0.965730 0.114925
vn -0.260241 0.957482 0.124508
vn -0.201471 0.959865 0.195114
vn -0.085321 0.981813 0.169601
vn -0.240748 0.966317 0.090946
vn -0.085321 0.981813 0.169601
vn 0.232717 0.965730 0.114925
vn 0.193651 0.981069 0.001930
vn -0.185792 0.979866 0.073105
vn -0.343065 0.937806 0.053157
vn -0.276669 0.960043 0.042102
vn -0.269775 0.962867 0.010386
vn 0.180960 0.975492 -0.125179
vn 0.169114 0.983904 -0.057741
vn -0.132713 0.970809 -0.199792
vn 0.194761 0.980839 -0.004726
vn 0.210074 0.977679 0.003532
vn 0.183800 0.968927 -0.165522
vn 0.154355 0.981532 -0.112998
vn 0.154355 0.981532 -0.112998
vn 0.183800 0.968927 -0.165522
vn 0.169114 0.983904 -0.057741
vn 0.180960 0.975492 -0.125179
vn 0.149871 0.487635 -0.860088
vn -0.857098 0.182909 -0.481588
vn -0.826147 -0.327553 -0.458466
vn 0.170669 -0.398550 -0.901127
vn -0.923781 0.349673 0.156068
vn -0.775798 0.222662 0.590390
vn -0.714989 -0.440129 0.543210
vn -0.858051 -0.503851 0.099413
vn -0.775798 0.222662 0.590390
vn -0.676213 0.367898 0.638269
vn -0.680436 -0.492534 0.542602
vn -0.714989 -0.440129 0.543210
vn -0.676213 0.367898 0.638269
vn 0.057896 0.279235 0.958476
vn 0.093208 -0.377913 0.921137
vn -0.680436 -0.492534 0.542602
vn 0.742877 0.492518 0.453387
vn 0.936351 0.306213 -0.171698
vn 0.907840 -0.389502 -0.155288
vn 0.823685 -0.490448 0.284611
vn 0.936351 0.306213 -0.171698
vn 0.867123 0.351871 -0.352541
vn 0.829613 -0.328123 -0.451749
vn 0.907840 -0.389502 -0.155288
vn 0.867123 0.351871 -0.352541
vn 0.149871 0.487635 -0.860088
vn 0.170669 -0.398550 -0.901127
vn 0.829613 -0.328123 -0.451749
vn -0.276669 0.960043 0.042102
vn -0.343065 0.937806 0.053157
vn -0.260241 0.957482 0.124508
vn -0.240748 0.966317 0.090946
vn 0.174417 0.984227 0.029604
vn 0.232717 0.965730 0.114925
vn -0.485222 0.840633 0.240616
vn -0.864277 0.241669 -0.441160
vn 0.174417 0.984227 0.029604
vn -0.485222 0.840633 0.240616
vn -0.911600 0.214553 -0.350646
vn -0.826147 -0.327553 -0.458466
vn -0.864277 0.241669 -0.441160
vn -0.911600 0.214553 -0.350646
vn 0.216577 0.969426 0.115361
vn 0.232717 0.965730 0.114925
vn 0.210074 0.977679 0.003532
vn 0.194761 0.980839 -0.004726
vn -0.854248 0.265114 -0.447185
vn 0.216577 0.969426 0.115361
vn 0.194761 0.980839 -0.004726
vn -0.923781 0.349673 0.156068
vn -0.826147 -0.327553 -0.458466
vn -0.854248 0.265114 -0.447185
vn -0.923781 0.349673 0.156068
vn -0.858051 -0.503851 0.099413
vn -0.749744 -0.503204 -0.429733
vn -0.826147 -0.327553 -0.458466
vn -0.858051 -0.503851 0.099413
vn -0.701348 -0.707570 0.086344
vn 0.193651 0.981069 0.001930
vn 0.232717 0.965730 0.114925
vn 0.174417 0.984227 0.029604
vn 0.232717 0.965730 0.114925
vn 0.216577 0.969426 0.115361
vn -0.485222 0.840633 0.240616
vn -0.857098 0.182909 -0.481588
vn 0.193651 0.981069 0.001930
vn 0.174417 0.984227 0.029604
vn -0.864277 0.241669 -0.441160
vn 0.216577 0.969426 0.115361
vn -0.854248 0.265114 -0.447185
vn -0.911600 0.214553 -0.350646
vn -0.485222 0.840633 0.240616
vn -0.826147 -0.327553 -0.458466
vn -0.857098 0.182909 -0.481588
vn -0.864277 0.241669 -0.441160
vn -0.854248 0.265114 -0.447185
vn -0.826147 -0.327553 -0.458466
vn -0.911600 0.214553 -0.350646
vn 0.166120 0.913604 -0.371123
vn -0.185792 0.979866 0.073105
vn -0.269775 0.962867 0.010386
vn -0.269775 0.962867 0.010386
vn 0.742877 0.492518 0.453387
vn 0.073196 0.235278 0.969168
vn 0.166120 0.913604 -0.371123
vn 0.093208 -0.377913 0.921137
vn 0.073196 0.235278 0.969168
vn 0.742877 0.492518 0.453387
vn 0.823685 -0.490448 0.284611
vn 0.778134 -0.624560 0.066585
vn 0.093208 -0.377913 0.921137
vn 0.823685 -0.490448 0.284611
vn 0.081490 -0.482387 0.872160
vn 0.093208 -0.377913 0.921137
vn 0.169690 -0.468341 0.867100
vn 0.093208 -0.377913 0.921137
vn -0.176862 0.392295 0.902676
vn 0.312003 0.400338 0.861617
vn -0.033766 0.965237 -0.259187
vn 0.312003 0.400338 0.861617
vn -0.176862 0.392295 0.902676
vn -0.053985 0.967270 -0.247940
vn -0.053985 0.967270 -0.247940
vn -0.059720 0.986547 -0.152181
vn 0.032706 0.982049 -0.185768
vn -0.033766 0.965237 -0.259187
vn -0.645869 -0.652147 0.396935
vn 0.093208 -0.377913 0.921137
vn 0.081490 -0.482387 0.872160
vn 0.093208 -0.377913 0.921137
vn 0.778134 -0.624560 0.066585
vn 0.169690 -0.468341 0.867100
vn 0.778134 -0.624560 0.066585
vn -0.645869 -0.652147 0.396935
vn 0.081490 -0.482387 0.872160
vn 0.169690 -0.468341 0.867100
vn 0.093208 -0.377913 0.921137
vn 0.057896 0.279235 0.958476
vn -0.176862 0.392295 0.902676
vn 0.073196 0.235278 0.969168
vn 0.093208 -0.377913 0.921137
vn 0.312003 0.400338 0.861617
vn 0.166120 0.913604 -0.371123
vn 0.073196 0.235278 0.969168
vn 0.312003 0.400338 0.861617
vn -0.033766 0.965237 -0.259187
vn 0.057896 0.279235 0.958476
vn -0.132713 0.970809 -0.199792
vn -0.053985 0.967270 -0.247940
vn -0.176862 0.392295 0.902676
vn -0.132713 0.970809 -0.199792
vn 0.169114 0.983904 -0.057741
vn -0.059720 0.986547 -0.152181
vn -0.053985 0.967270 -0.247940
vn 0.169114 0.983904 -0.057741
vn -0.185792 0.979866 0.073105
vn 0.032706 0.982049 -0.185768
vn -0.059720 0.986547 -0.152181
vn -0.185792 0.979866 0.073105
vn 0.166120 0.913604 -0.371123
vn -0.033766 0.965237 -0.259187
vn 0.032706 0.982049 -0.185768
s off
g WholeTerain:Mesh2
usemtl WholeTerain:None
f 1//1 41//2 42//3 18//4
f 2//5 3//6 20//7 19//8
f 3//9 4//10 21//11 20//12
f 4//13 51//14 21//15
f 5//16 6//17 23//18 22//19
f 6//20 7//21 24//22 23//23
f 7//24 1//25 18//26 24//27
f 25//28 26//29 39//30 40//31
f 26//32 25//33 27//34 28//35
f 28//36 27//37 31//38 32//39
f 29//40 30//41 38//42 37//43
f 32//44 31//45 33//46 34//47
f 49//48 50//49 35//50 36//51
f 36//52 35//53 37//54 38//55
f 12//56 13//57 26//58
f 26//59 13//60 14//61
f 26//62 14//63 15//64
f 11//65 12//66 26//67 28//68
f 26//69 15//70 39//71
f 9//72 10//73 32//74 34//75
f 36//76 8//77 49//78
f 30//79 16//80 17//81 38//82
f 38//83 17//84 8//85 36//86
f 25//87 40//88 41//89 1//90
f 29//91 37//92 3//93 2//94
f 37//95 35//96 4//97 3//98
f 35//99 50//100 51//101 4//102
f 33//103 31//104 6//105 5//106
f 31//107 27//108 7//109 6//110
f 27//111 25//112 1//113 7//114
f 32//115 10//116 11//117 28//118
f 45//119 15//120 46//121
f 47//122 45//123 46//124 48//125
f 41//126 47//127 48//128
f 43//129 15//130 16//131 30//132
f 44//133 43//134 30//135 29//136
f 41//137 44//138 29//139 2//140
f 42//141 41//142 2//143 19//144
f 39//145 15//146 45//147
f 15//148 43//149 46//150
f 40//151 39//152 45//153 47//154
f 43//155 44//156 48//157 46//158
f 41//159 40//160 47//161
f 44//162 41//163 48//164
f 53//165 9//166 34//167
f 34//168 33//169 52//170 53//171
f 51//172 52//173 33//174 5//175
f 22//176 51//177 5//178
f 54//179 51//180 55//181
f 51//182 56//183 57//184
f 58//185 57//186 56//187 59//188
f 59//189 60//190 61//191 58//192
f 21//193 51//194 54//195
f 51//196 22//197 55//198
f 22//199 21//200 54//201 55//202
f 51//203 50//204 56//205
f 52//206 51//207 57//208
f 53//209 52//210 57//211 58//212
f 50//213 49//214 59//215 56//216
f 49//217 8//218 60//219 59//220
f 8//221 9//222 61//223 60//224
f 9//225 53//226 58//227 61//228
